<?xml version="1.0" encoding="UTF-8"?><!DOCTYPE svg PUBLIC "-//W3C//DTD SVG 1.1//EN" "http://www.w3.org/Graphics/SVG/1.1/DTD/svg11.dtd"><svg xmlns="http://www.w3.org/2000/svg" xmlns:xlink="http://www.w3.org/1999/xlink"><symbol id="icon-arrow-down" viewBox="0 0 11 7"><path fill-rule="evenodd" clip-rule="evenodd" d="M10.086 1.172l-5 5-5-5L1.258 0l3.828 3.828L8.914 0l1.172 1.172z"/></symbol><symbol id="icon-arrow-right" viewBox="0 0 7 12"><path fill-rule="evenodd" clip-rule="evenodd" d="M.629 12a.617.617 0 01-.463-.214.696.696 0 01.037-.942L5.19 5.955.206 1.161A.696.696 0 01.165.218a.603.603 0 01.872-.06l.015.014 5.492 5.285a.678.678 0 01.206.49.685.685 0 01-.201.493l-5.494 5.382A.603.603 0 01.63 12z"/></symbol><symbol id="icon-search" viewBox="0 0 24 24"><path fill-rule="evenodd" clip-rule="evenodd" d="M2 9.901a7.99 7.99 0 007.99 7.99 7.936 7.936 0 005.234-1.952l5.802 5.801a.561.561 0 00.402.169.572.572 0 00.405-.976l-5.81-5.81A7.993 7.993 0 004.339 4.25a7.999 7.999 0 00-2.338 5.652zm1.141 0a6.85 6.85 0 016.85-6.85 6.795 6.795 0 014.844 2.009 6.848 6.848 0 010 9.648 6.852 6.852 0 01-9.688.037A6.857 6.857 0 013.14 9.901z"/></symbol></svg>