<svg width="189" height="60" viewBox="0 0 189 60" fill="none" xmlns="http://www.w3.org/2000/svg">
<path d="M85.8425 9.09962C87.9002 10.7031 87.8226 16.6777 91.4178 15.8836C92.6058 15.6215 94.4772 13.7174 95.541 13.0467C97.0242 12.1062 98.1812 11.0654 99.5245 9.96304C102.025 7.897 105.263 8.16682 107.662 5.69991C108.54 4.79794 110.978 3.2407 111.374 2.11517C112.267 -0.436545 109.697 0.12622 108.245 0.357493C101.365 1.42906 94.384 -1.93211 88.0167 1.86077C86.5957 2.70106 85.0815 3.44114 83.3732 3.92681C81.463 4.47416 80.3215 3.98848 78.357 3.89597C75.9808 3.78805 69.1554 4.29685 71.8576 8.02806C72.9059 9.47737 76.6409 10.4102 78.4657 10.5412C80.5389 10.6877 84.6855 7.76595 86.1997 9.43882" fill="#0D78F5"/>
<path d="M137.947 14.8896C136.495 12.7233 134.134 14.9744 132.566 13.5482C131.696 12.7619 131.813 11.9524 130.469 11.4745C129.095 10.9888 127.363 10.9425 125.903 10.9194C123.582 10.8809 121.306 10.9656 119.031 11.4205C116.857 11.8599 115.366 12.4381 113.145 11.9755C112.012 11.7443 108.945 11.4822 108.114 12.3225C107.624 12.6308 107.415 13.1859 107.764 14.1649C108.463 16.1153 112.664 16.1539 110.645 18.7904C109.504 20.286 107.888 22.0359 108.292 24.102C108.735 26.3222 112.346 26.8156 114.046 27.8486C116.135 29.1052 114.753 31.5413 115.902 33.4377C116.36 34.1932 117.144 35.3727 117.921 35.8738C119.148 36.6601 119.365 35.8507 120.359 35.3804C122.207 34.517 124.249 37.8165 125.034 35.2185C125.337 34.2086 125.298 33.137 125.702 32.1426C126.206 30.886 127.115 30.9091 127.845 30.0457C127.922 29.9532 128.14 29.8375 128.256 29.745C127.759 27.7253 130.275 25.8828 131.968 25.2198C134.212 24.3487 135.913 23.0844 137.481 21.2265C138.949 19.4996 139.267 16.8554 137.947 14.8896ZM111.818 11.9601L112.384 11.8599C112.268 11.9216 112.066 11.9447 111.818 11.9601Z" fill="#0D78F5"/>
<path d="M144.243 27.0723L142.643 28.8477L143.592 29.6906L145.192 27.9152L144.243 27.0723Z" fill="#0D78F5"/>
<path d="M145.307 27.6027L143.299 29.832L143.825 30.2997L145.834 28.0705L145.307 27.6027Z" fill="#0D78F5"/>
<path d="M155.465 36.1354C155.993 36.6057 156.047 37.392 155.589 37.9008L154.758 38.8259C154.3 39.3347 153.501 39.3655 152.972 38.903L143.748 30.7082C143.22 30.238 143.709 29.9296 144.167 29.4208L144.998 28.4957C145.456 27.9869 145.712 27.4704 146.24 27.9406L155.465 36.1354Z" fill="#0D78F5"/>
<path d="M125.98 13.4243C121.678 18.204 122.09 25.543 126.896 29.8139C131.711 34.0847 139.103 33.6762 143.405 28.9042C147.707 24.1246 147.295 16.7855 142.489 12.5146C137.674 8.23609 130.29 8.64467 125.98 13.4243ZM141.906 27.5628C138.342 31.5176 132.223 31.8568 128.24 28.3183C124.256 24.7798 123.915 18.7051 127.479 14.7503C131.043 10.7955 137.162 10.4563 141.145 13.9948C145.129 17.5333 145.47 23.6081 141.906 27.5628Z" fill="#0D78F5"/>
<g opacity="0.5">
<g opacity="0.5">
<g opacity="0.5">
<g opacity="0.5">
<path opacity="0.5" d="M144.418 26.896L142.487 29.0391L143.627 30.0516L145.558 27.9085L144.418 26.896Z" fill="#0D78F5"/>
<path opacity="0.5" d="M145.7 27.5289L143.272 30.2236L143.903 30.7839L146.331 28.0892L145.7 27.5289Z" fill="#0D78F5"/>
</g>
</g>
<path opacity="0.5" d="M125.98 13.4243C121.678 18.204 122.09 25.543 126.896 29.8139C131.711 34.0847 139.103 33.6762 143.405 28.9042C147.707 24.1246 147.295 16.7855 142.489 12.5146C137.674 8.23609 130.29 8.64467 125.98 13.4243ZM141.906 27.5628C138.342 31.5176 132.223 31.8568 128.24 28.3183C124.256 24.7798 123.915 18.7051 127.479 14.7503C131.043 10.7955 137.162 10.4563 141.145 13.9948C145.129 17.5333 145.47 23.6081 141.906 27.5628Z" fill="#0D78F5"/>
</g>
</g>
<path d="M65.2816 12.8695C64.1634 10.9653 59.1239 10.973 57.0972 10.8651C55.7383 10.788 53.7427 10.7341 53.1137 12.3684C53.1137 12.3684 52.4149 14.2648 53.7116 15.0049C54.3716 15.6216 56.1809 14.8507 57.2991 15.6602C58.526 16.5467 58.7667 19.2681 60.739 19.1755C62.2144 19.1139 62.8278 16.9784 63.7053 16.0919C64.7535 15.0589 66.4153 14.7968 65.2816 12.8695Z" fill="#0D78F5"/>
<path d="M119.745 45.8943L119.628 46.8888L119.287 49.587H118.169C117.881 49.587 117.741 49.4482 117.71 49.1861C117.71 49.1553 117.71 48.5077 117.765 47.3128C116.934 47.1124 116.22 47.0276 115.591 47.0276H115.559C114.76 47.0276 114.045 47.228 113.502 47.6212C112.958 48.022 112.64 48.446 112.585 48.9317C112.531 49.4174 112.585 49.7874 112.787 50.0418C113.106 50.4967 113.618 50.805 114.302 51.0363C114.985 51.2599 115.559 51.4603 116.018 51.6068C116.476 51.7764 116.903 51.9228 117.338 52.1156C117.765 52.316 118.137 52.5396 118.456 52.8248C119.17 53.4492 119.458 54.305 119.318 55.3534C119.147 56.7179 118.541 57.828 117.485 58.6529C116.398 59.5317 115.078 59.9634 113.509 59.9634C111.933 59.9634 110.419 59.7399 108.928 59.1925L109.386 55.4459H110.388C110.613 55.4459 110.761 55.5615 110.792 55.7851C110.792 55.8699 110.792 56.4635 110.737 57.6045C111.514 57.9745 112.453 58.1749 113.603 58.1749C114.55 58.1749 115.319 57.9514 115.924 57.4657C116.468 57.0417 116.786 56.556 116.841 56.0164C116.895 55.4767 116.841 55.0759 116.67 54.8215C116.499 54.5671 116.243 54.3127 115.893 54.1431C115.552 53.9735 115.179 53.8039 114.752 53.6574C113.548 53.2565 112.694 52.979 112.205 52.7477C111.716 52.5242 111.289 52.262 110.978 51.9845C110.264 51.3292 110.007 50.4196 110.147 49.3172C110.287 48.1531 110.831 47.1895 111.84 46.4185C112.896 45.5628 114.302 45.1697 116.08 45.1697C117.058 45.1542 118.285 45.3855 119.745 45.8943Z" fill="#0D78F5"/>
<path d="M125.957 59.964C123.27 59.964 121.694 58.5687 121.003 56.5566C120.746 55.8474 120.63 55.0225 120.63 54.1436C120.63 51.5611 121.515 49.4796 122.664 47.9763C123.806 46.4731 125.553 45.1934 128.162 45.1934C130.134 45.1934 131.571 46.0182 132.138 47.3519C132.309 47.7528 132.394 48.1228 132.394 48.462C132.394 50.0501 131.734 50.9367 130.593 51.6151C129.909 52.0391 128.962 52.4091 127.758 52.7252C126.555 53.0412 125.01 53.2648 123.123 53.4652V53.7813V54.0974C123.123 56.5103 124.124 57.9905 126.469 57.9905C127.727 57.9905 128.675 57.5896 129.389 57.05C129.762 56.7647 130.103 56.4795 130.476 56.2559C130.616 56.1711 130.794 56.1172 130.934 56.1172C131.105 56.1172 131.276 56.1711 131.423 56.3407L132.052 57.1116C130.562 58.6226 128.908 59.964 125.957 59.964ZM128.015 47.005C125.926 47.005 124.691 48.4235 124.008 49.9036C123.72 50.4741 123.495 51.0985 123.348 51.7769C124.808 51.6073 126.011 51.3761 126.896 51.1525C127.782 50.9289 128.442 50.6668 128.931 50.4124C129.676 49.9884 130.103 49.5336 130.103 48.5622C130.103 47.5138 129.133 47.005 128.015 47.005Z" fill="#0D78F5"/>
<path d="M142.816 58.8534L143.072 55.9856C142.187 57.5505 141.038 58.9999 139.322 59.6474C138.832 59.8479 138.32 59.9327 137.807 59.9327C135.09 59.9327 134.026 57.6276 134.026 54.8755C134.026 51.9229 135.198 49.6718 136.658 48.0838C138.118 46.4957 140.238 45.1543 143.181 45.1543C144.586 45.1543 145.697 45.3547 146.729 45.8096L145.238 57.6585C145.324 57.6893 146.644 57.9129 146.869 57.9745C147.125 58.0285 147.296 58.2598 147.296 58.5142V59.7322H144.974H143.654C143.072 59.7322 142.816 59.4239 142.816 58.8534ZM144.074 47.2589C143.872 47.0893 143.647 47.0353 143.445 47.0353H142.847C140.812 47.0353 139.384 48.0838 138.413 49.2555C137.38 50.5044 136.549 52.2081 136.549 54.4284C136.549 56.7025 137.295 57.8358 138.755 57.8358C139.927 57.8358 140.812 56.9801 141.418 56.2169C142.28 55.1376 142.963 53.6883 143.453 52.1542L144.074 47.2589Z" fill="#0D78F5"/>
<path d="M153.601 46.0645L153.515 48.3079C154.835 46.1802 156.435 45.124 158.322 45.124C159.067 45.124 159.696 45.2628 160.24 45.6097L159.665 47.5138C159.58 47.7451 159.44 47.8839 159.261 47.8839C159.09 47.8839 158.834 47.8299 158.578 47.7451C158.322 47.6603 157.918 47.6064 157.436 47.6064C155.775 47.6064 154.4 48.6317 153.344 50.6206L152.226 59.7713H149.679L151.193 47.4676C150.308 47.298 149.765 47.1515 149.594 47.1284C149.306 47.0744 149.221 46.9048 149.252 46.6196L149.392 45.4016H152.909C153.453 45.3861 153.601 45.5557 153.601 46.0645Z" fill="#0D78F5"/>
<path d="M165.559 59.9642C163.695 59.9642 162.266 59.3089 161.265 58.0061C160.209 56.6724 159.805 54.853 160.092 52.548C160.379 50.3355 161.148 48.5701 162.499 47.2364C163.905 45.8411 165.675 45.1318 167.826 45.1318C168.944 45.1318 170.342 45.471 172.004 46.1803L171.515 49.9269H170.373C170.086 49.9269 169.969 49.7881 169.946 49.526C169.915 49.4104 169.946 49.0404 169.977 48.4468C170.008 47.8532 170.008 47.5371 170.008 47.5062C169.581 47.3675 169.263 47.2827 169.006 47.2518C168.463 47.167 167.919 47.1362 167.407 47.1362C166.894 47.1362 166.32 47.275 165.776 47.5062C165.233 47.7375 164.743 48.0767 164.316 48.5547C163.454 49.5183 162.911 50.8289 162.717 52.5326C162.515 54.2363 162.748 55.6008 163.377 56.5644C164.006 57.505 164.953 57.9829 166.265 57.9829C167.469 57.9829 168.587 57.582 169.612 56.788C169.814 56.6492 169.985 56.5644 170.187 56.5644C170.389 56.5644 170.528 56.6184 170.614 56.788L171.212 57.7285C169.798 59.2241 167.912 59.9642 165.559 59.9642Z" fill="#0D78F5"/>
<path d="M188 58.5377L187.86 59.7557H183.255L184.373 50.605C184.661 48.3 183.776 47.1668 181.741 47.1668C180.336 47.1668 178.961 47.822 177.595 49.1557L176.88 54.7834L176.267 59.7635H173.72L174.061 56.9805L176.034 40.9224C174.947 40.7528 174.341 40.6063 174.17 40.5832C173.883 40.5292 173.766 40.3288 173.797 40.0435L173.937 38.8486H178.829L177.796 47.3132C179.342 45.8639 180.972 45.1547 182.719 45.1547C184.296 45.1547 185.437 45.6404 186.152 46.6348C186.866 47.5985 187.099 48.9399 186.897 50.6127L186.012 57.6897C186.897 57.8593 187.441 58.0058 187.611 58.0289C187.914 58.0829 188.023 58.2525 188 58.5377Z" fill="#0D78F5"/>
<path d="M20.6946 58.6232V59.7564H14.8009V58.6232C14.8009 58.3688 14.9407 58.2223 15.2047 58.1684L16.3773 57.8292L14.7777 53.7356H5.92548L4.32587 57.8292L5.4984 58.1684C5.75465 58.2223 5.87112 58.3688 5.87112 58.6232V59.7564H0.000732422V58.6232C0.000732422 58.3688 0.140504 58.2223 0.373456 58.1684L1.51492 57.8292L8.95385 39.4121H11.757L19.1727 57.8292L20.3141 58.1684C20.5549 58.23 20.6946 58.3688 20.6946 58.6232ZM13.9934 51.7467L10.9572 43.9065C10.7321 43.3977 10.5302 42.7733 10.3283 42.0024C10.1031 42.8581 9.92449 43.4825 9.75365 43.9374L6.70198 51.7467H13.9934Z" fill="#0D78F5"/>
<path d="M24.9577 59.024C24.3287 58.3995 24.0414 57.4899 24.0414 56.295V47.4834H22.2943C22.1235 47.4834 22.007 47.4526 21.8905 47.3678C21.774 47.283 21.7507 47.1134 21.7507 46.9438V45.9493L24.1268 45.6333L24.7015 41.1697C24.7015 41.0309 24.7558 40.9153 24.8723 40.8305C24.9888 40.7457 25.0975 40.7148 25.2761 40.7148H26.5651V45.6564H30.7116V47.5066H26.5573V56.1485C26.5573 56.7729 26.6971 57.2278 26.9844 57.513C27.2717 57.7982 27.6988 57.937 28.1569 57.937C28.4442 57.937 28.6694 57.883 28.8713 57.8214C29.0732 57.7674 29.244 57.6826 29.3838 57.5901C29.5236 57.5053 29.609 57.4205 29.7255 57.3665C29.8419 57.3126 29.9506 57.2509 30.0128 57.2509C30.1292 57.2509 30.2379 57.3049 30.3544 57.4745L31.0999 58.6694C30.6417 59.0702 30.1292 59.4094 29.5003 59.633C28.8713 59.8566 28.2423 59.9722 27.5823 59.9722C26.4408 59.9876 25.5867 59.6484 24.9577 59.024Z" fill="#0D78F5"/>
<path d="M39.3774 58.5384V59.7564H32.6761V58.5384C32.6761 58.2531 32.847 58.0527 33.1343 57.9987L34.7339 57.6827V40.8922C33.8176 40.7226 33.3051 40.607 33.1343 40.553C32.847 40.499 32.6761 40.3217 32.6761 40.0442V38.8262H37.3119V57.6672C38.2282 57.8368 38.7407 57.9525 38.9115 58.0064C39.2066 58.0527 39.3774 58.2531 39.3774 58.5384Z" fill="#0D78F5"/>
<path d="M53.5709 57.9446C53.8272 57.9986 53.998 58.2299 53.998 58.4843V59.7023H52.1344H51.9325H51.0162C50.791 59.7023 50.5891 59.6483 50.4183 59.5867C50.2475 59.5327 50.1931 59.3631 50.131 59.1318L49.8437 57.7673C49.4399 58.1065 49.0439 58.4226 48.7022 58.7078C48.3606 58.9931 47.9568 59.2166 47.5608 59.3862C47.157 59.5558 46.761 59.7023 46.3028 59.8102C45.8447 59.9259 45.3322 59.949 44.7576 59.949C44.183 59.949 43.7015 59.8642 43.2123 59.6946C42.7231 59.525 42.265 59.3246 41.9233 59.0162C41.5817 58.7001 41.2944 58.307 41.0614 57.8213C40.8362 57.3356 40.743 56.7728 40.743 56.1176C40.743 55.5471 40.8828 54.9843 41.2012 54.4678C41.5195 53.959 42.0631 53.4425 42.7464 53.0493C43.4298 52.6485 44.346 52.2784 45.4953 52.024C46.6367 51.7696 48.0111 51.654 49.6729 51.654V50.5439C49.6729 49.4029 49.4166 48.5549 48.9274 47.9845C48.4382 47.414 47.7238 47.1056 46.7843 47.1056C46.1553 47.1056 45.6428 47.1904 45.208 47.36C44.7809 47.5296 44.4392 47.6761 44.1208 47.8688C43.8025 48.0693 43.5229 48.208 43.29 48.3776C43.0648 48.5472 42.8629 48.6012 42.63 48.6012C42.4591 48.6012 42.2883 48.5704 42.1718 48.4856C42.0553 48.4008 41.9466 48.262 41.8845 48.1464L41.4264 47.3523C42.2262 46.5814 43.0881 46.0418 44.0044 45.6486C44.9206 45.2477 45.9534 45.0781 47.0949 45.0781C47.8947 45.0781 48.6401 45.1938 49.2691 45.479C49.8981 45.7642 50.4106 46.1034 50.8454 46.5583C51.2725 47.0131 51.5908 47.5836 51.816 48.262C52.0412 48.9404 52.1344 49.6805 52.1344 50.4745V57.6671C52.5382 57.7519 53.3923 57.9215 53.5632 57.9832V57.9446H53.5709ZM49.6185 53.2806C48.446 53.2806 47.4443 53.3346 46.6445 53.4811C45.8447 53.6198 45.1536 53.8511 44.6411 54.0747C44.1286 54.2982 43.7248 54.5835 43.4996 54.9304C43.2745 55.2696 43.158 55.6088 43.158 56.0096C43.158 56.4105 43.2434 56.688 43.3599 56.9733C43.4763 57.2585 43.6472 57.4821 43.8724 57.6517C44.0976 57.8213 44.3305 57.9369 44.6178 58.0217C44.9051 58.1065 45.2157 58.1605 45.5651 58.1605C46.0233 58.1605 46.396 58.1065 46.7687 58.0217C47.1415 57.9369 47.4831 57.8213 47.8248 57.6517C48.1664 57.4821 48.4848 57.2508 48.7721 57.0272C49.0594 56.8037 49.3467 56.5184 49.634 56.2332V53.2806H49.6185Z" fill="#0D78F5"/>
<path d="M60.1789 47.43C61.6077 45.8959 63.2151 45.125 64.9855 45.125C66.5308 45.125 67.7343 45.6107 68.5885 46.6283C69.3883 47.5919 69.8154 48.9333 69.8154 50.5753V57.6523C70.7317 57.8219 71.2752 57.9375 71.446 57.9915C71.7334 58.0455 71.9042 58.2459 71.9042 58.5311V59.7492H67.2684V50.6139C67.2684 48.3397 66.2667 47.1448 64.2323 47.1448C62.8035 47.1448 61.4835 47.8309 60.2799 49.1646V57.6909C60.3342 57.6909 60.9088 57.8065 61.9416 58.0301C62.2289 58.084 62.3687 58.2845 62.3687 58.5697V59.7646H55.6985V58.5697C55.6985 58.2845 55.815 58.084 56.1023 58.0301L57.764 57.714V47.4609C56.8477 47.2913 56.2731 47.1756 56.1023 47.1217C55.815 47.0677 55.6985 46.8673 55.6985 46.582V45.3871H57.7562H59.2471C59.5888 45.3871 59.8217 45.5567 59.9304 45.8959L60.1556 47.4609V47.43H60.1789Z" fill="#0D78F5"/>
<path d="M76.2062 59.024C75.5773 58.3995 75.29 57.4899 75.29 56.295V47.4834H73.5428C73.372 47.4834 73.2555 47.4526 73.139 47.3678C73.0226 47.283 72.9993 47.1134 72.9993 46.9438V45.9493L75.3754 45.6333L75.95 41.1697C75.95 41.0309 76.0043 40.9153 76.1208 40.8305C76.2373 40.7457 76.346 40.7148 76.5246 40.7148H77.8136V45.6564H81.9679V47.5066H77.8136V56.1485C77.8136 56.7729 77.9534 57.2278 78.2407 57.513C78.528 57.7982 78.9551 57.937 79.4132 57.937C79.7005 57.937 79.9257 57.883 80.1276 57.8214C80.3295 57.7674 80.5003 57.6826 80.6401 57.5901C80.7799 57.5053 80.8653 57.4205 80.9818 57.3665C81.0982 57.3126 81.2069 57.2509 81.2691 57.2509C81.3855 57.2509 81.502 57.3049 81.6107 57.4745L82.3562 58.6694C81.898 59.0702 81.3855 59.4094 80.7566 59.633C80.1276 59.8566 79.4986 59.9722 78.8386 59.9722C77.6971 59.9876 76.8352 59.6484 76.2062 59.024Z" fill="#0D78F5"/>
<path d="M90.5716 58.5381V59.7562H83.9014V58.5381C83.9014 58.2837 84.0722 58.0525 84.3284 57.9985C84.5847 57.9445 85.9902 57.6824 85.9902 57.6824V47.4293C85.9902 47.4293 84.5847 47.1749 84.3284 47.1132C84.0722 47.0593 83.9014 46.828 83.9014 46.5736V45.3787H88.5061V57.6824C88.5061 57.6824 89.8805 57.9368 90.1367 57.9985C90.4007 58.0525 90.5716 58.2837 90.5716 58.5381ZM85.5942 41.5472C85.4777 41.3237 85.4544 41.0924 85.4544 40.8688C85.4544 40.6453 85.4854 40.3832 85.5942 40.1596C85.7106 39.9283 85.8193 39.7356 85.9979 39.566C86.1688 39.3964 86.3396 39.2808 86.5725 39.1651C86.7977 39.0495 87.0307 39.0264 87.2559 39.0264C87.4811 39.0264 87.714 39.0572 87.9392 39.1651C88.1644 39.2808 88.343 39.3887 88.5138 39.566C88.6846 39.7356 88.8011 39.936 88.9176 40.1596C89.0341 40.3832 89.0884 40.6453 89.0884 40.8688C89.0884 41.0924 89.0341 41.3237 88.9176 41.5472C88.8011 41.7708 88.6924 41.9481 88.5138 42.1177C88.343 42.2873 88.1722 42.403 87.9392 42.5186C87.7062 42.6342 87.4811 42.6574 87.2559 42.6574C87.0307 42.6574 86.7977 42.6265 86.5725 42.5186C86.3474 42.403 86.1688 42.295 85.9979 42.1177C85.8193 41.9404 85.7029 41.7708 85.5942 41.5472Z" fill="#0D78F5"/>
<path d="M104.798 57.9446C105.054 57.9986 105.225 58.2299 105.225 58.4843V59.7023H103.361H103.16H102.243C102.018 59.7023 101.816 59.6483 101.645 59.5867C101.475 59.5327 101.42 59.3631 101.358 59.1318L101.071 57.7673C100.667 58.1065 100.271 58.4226 99.9293 58.7078C99.5876 58.9931 99.1838 59.2166 98.7878 59.3862C98.384 59.5558 97.988 59.7023 97.5299 59.8102C97.0717 59.9259 96.5592 59.949 95.9846 59.949C95.41 59.949 94.9286 59.8642 94.4394 59.6946C93.9502 59.525 93.492 59.3246 93.1504 59.0162C92.8087 58.7001 92.5214 58.307 92.2885 57.8213C92.0633 57.3356 91.9701 56.7728 91.9701 56.1176C91.9701 55.5471 92.1099 54.9843 92.4282 54.4678C92.7466 53.959 93.2902 53.4425 93.9735 53.0493C94.6568 52.6485 95.5731 52.2784 96.7223 52.024C97.8638 51.7696 99.2382 51.654 100.9 51.654V50.5439C100.9 49.4029 100.644 48.5549 100.154 47.9845C99.6653 47.414 98.9509 47.1056 98.0113 47.1056C97.3823 47.1056 96.8699 47.1904 96.435 47.36C96.0079 47.5296 95.6663 47.6761 95.3479 47.8688C95.0295 48.0693 94.75 48.208 94.517 48.3776C94.2918 48.5472 94.09 48.6012 93.857 48.6012C93.6862 48.6012 93.5153 48.5704 93.3989 48.4856C93.2824 48.4008 93.1737 48.262 93.1116 48.1464L92.6534 47.3523C93.4532 46.5814 94.3151 46.0418 95.2314 45.6486C96.1477 45.2477 97.1805 45.0781 98.3219 45.0781C99.1217 45.0781 99.8672 45.1938 100.496 45.479C101.125 45.7642 101.638 46.1034 102.072 46.5583C102.5 47.0131 102.818 47.5836 103.043 48.262C103.268 48.9404 103.361 49.6805 103.361 50.4745V57.6671C103.765 57.7519 104.619 57.9215 104.79 57.9832V57.9446H104.798ZM100.846 53.2806C99.673 53.2806 98.6714 53.3346 97.8715 53.4811C97.0717 53.6198 96.3807 53.8511 95.8682 54.0747C95.3557 54.2982 94.9519 54.5835 94.7267 54.9304C94.5015 55.2696 94.385 55.6088 94.385 56.0096C94.385 56.4105 94.4704 56.688 94.5869 56.9733C94.7034 57.2585 94.8742 57.4821 95.0994 57.6517C95.3246 57.8213 95.5576 57.9369 95.8449 58.0217C96.1322 58.1065 96.4428 58.1605 96.7922 58.1605C97.2503 58.1605 97.6231 58.1065 97.9958 58.0217C98.3685 57.9369 98.7102 57.8213 99.0518 57.6517C99.3935 57.4821 99.7119 57.2508 99.9992 57.0272C100.286 56.8037 100.574 56.5184 100.861 56.2332V53.2806H100.846Z" fill="#0D78F5"/>
</svg>
