<svg width="219" height="48" viewBox="0 0 219 48" fill="none" xmlns="http://www.w3.org/2000/svg">
<path d="M0.83313 45.5677C0.299927 45.0348 0 44.3353 0 43.5359V5.263C0 4.46356 0.266601 3.76406 0.83313 3.19779C1.36633 2.66484 2.03284 2.36505 2.83264 2.36505H17.729C22.2279 2.36505 25.727 3.39765 28.1598 5.46285C30.6258 7.52806 31.8589 10.2928 31.8589 13.7903C31.8589 16.2219 31.2923 18.2538 30.126 19.886C28.9596 21.5181 27.4933 22.7173 25.6937 23.5167C28.2264 24.3162 30.2926 25.5819 31.9255 27.3473C33.5585 29.1127 34.3583 31.3445 34.3583 34.0426C34.3583 37.9065 33.0586 40.9377 30.4592 43.1361C27.8599 45.3346 23.7609 46.4005 18.1622 46.4005H2.83264C2.03284 46.4005 1.36633 46.134 0.83313 45.5677ZM16.2294 21.4182C19.9618 21.4182 22.5945 20.7853 24.1274 19.5196C25.6271 18.2538 26.3935 16.4884 26.3935 14.2233C26.3935 12.258 25.5937 10.6592 23.9608 9.49333C22.3279 8.32749 20.1284 7.72791 17.2958 7.72791H5.73193V21.4182H16.2294ZM17.529 41.0376C21.5947 41.0376 24.494 40.4047 26.1936 39.139C27.8932 37.8732 28.7596 36.1078 28.7596 33.7761C28.7596 28.9795 25.0272 26.5812 17.5957 26.5812H5.73193V41.0376H17.529Z" fill="#429B36"/>
<path d="M39.757 45.9008C39.2238 45.3678 38.9238 44.6683 38.9238 43.8689V2.93125C38.9238 2.13182 39.1904 1.43232 39.757 0.866052C40.2902 0.299787 40.99 0 41.7898 0C42.6229 0 43.3228 0.266478 43.856 0.832743C44.3892 1.3657 44.6891 2.0652 44.6891 2.89794V43.8356C44.6891 44.635 44.3892 45.3012 43.8226 45.8675C43.2561 46.4004 42.5563 46.7002 41.7565 46.7002C40.99 46.7002 40.2902 46.4337 39.757 45.9008Z" fill="#429B36"/>
<path d="M53.7874 42.6364C50.9214 39.7051 49.4551 35.6081 49.4551 30.3118C49.4551 27.3139 49.9883 24.5825 51.088 22.051C52.1877 19.5195 53.854 17.4876 56.1201 15.922C58.3862 14.3565 61.1855 13.5903 64.5181 13.5903C67.6173 13.5903 70.3166 14.3231 72.5828 15.7555C74.8489 17.2211 76.5818 19.1531 77.7482 21.5514C78.9145 23.983 79.5144 26.6144 79.5144 29.4791C79.5144 30.2785 79.2478 30.9447 78.7146 31.511C78.1814 32.0439 77.4816 32.3437 76.6151 32.3437H55.2203C55.5536 35.275 56.6533 37.5733 58.4862 39.2055C60.3524 40.8377 62.9185 41.6704 66.251 41.6704C68.0172 41.6704 69.5502 41.5039 70.8832 41.1708C72.2162 40.8377 73.5159 40.338 74.7489 39.7051C75.0821 39.5386 75.4487 39.4387 75.882 39.4387C76.5485 39.4387 77.1483 39.6718 77.6482 40.1382C78.1481 40.6045 78.4147 41.2041 78.4147 41.9036C78.4147 42.8363 77.8815 43.6024 76.7817 44.2353C75.1488 45.1679 73.5159 45.8674 71.9163 46.3005C70.3166 46.7668 68.2505 47 65.7178 47C60.6857 47.0333 56.6866 45.5677 53.7874 42.6364ZM73.8824 27.647C73.7491 25.5818 73.2159 23.8497 72.2828 22.484C71.3497 21.1183 70.1833 20.0857 68.7837 19.4195C67.384 18.7533 65.9844 18.4535 64.5514 18.4535C63.1184 18.4535 61.7187 18.7866 60.3191 19.4195C58.9194 20.0857 57.7864 21.085 56.8533 22.484C55.9202 23.883 55.387 25.5818 55.287 27.647H73.8824Z" fill="#429B36"/>
<path d="M84.7452 45.9008C84.212 45.3679 83.9121 44.6684 83.9121 43.8689V16.8215C83.9121 16.022 84.1787 15.3225 84.7452 14.7562C85.2784 14.19 85.9783 13.8902 86.7781 13.8902C87.5779 13.8902 88.2777 14.19 88.8442 14.7562C89.4108 15.3225 89.7107 16.022 89.7107 16.8215V19.4196C91.3103 17.6542 93.0432 16.2552 94.8761 15.1893C96.7423 14.1234 98.9084 13.6237 101.441 13.6237C103.741 13.6237 105.773 14.1567 107.473 15.2559C109.173 16.3551 110.472 17.8541 111.372 19.7194C112.272 21.618 112.738 23.6833 112.738 25.9483V43.8689C112.738 44.6684 112.438 45.3346 111.872 45.9008C111.305 46.4338 110.606 46.7336 109.806 46.7336C109.006 46.7336 108.339 46.4671 107.773 45.9008C107.24 45.3679 106.94 44.6684 106.94 43.8689V26.5812C106.94 21.4515 104.64 18.8867 100.008 18.8867C97.9087 18.8867 96.0092 19.4196 94.3762 20.5188C92.71 21.618 91.1437 23.0837 89.6774 24.949V43.8689C89.6774 44.6684 89.3774 45.3346 88.8109 45.9008C88.2444 46.4338 87.5445 46.7336 86.7447 46.7336C85.9783 46.7003 85.2784 46.4338 84.7452 45.9008Z" fill="#429B36"/>
<path d="M125.036 45.0347C122.704 43.7024 120.804 41.7704 119.371 39.2389C117.905 36.7073 117.205 33.7094 117.205 30.3119C117.205 26.9143 117.938 23.9164 119.371 21.3848C120.838 18.8533 122.704 16.9213 125.036 15.589C127.369 14.2566 129.835 13.5904 132.435 13.5904C136.567 13.5904 140.166 15.1892 143.232 18.387V2.93127C143.232 2.09853 143.532 1.39902 144.098 0.866068C144.665 0.333113 145.365 0.0333252 146.165 0.0333252C146.964 0.0333252 147.631 0.333113 148.197 0.899378C148.731 1.46564 149.031 2.16515 149.031 2.96458V43.9022C149.031 44.7016 148.764 45.3678 148.197 45.9341C147.664 46.4671 146.964 46.7668 146.165 46.7668C145.365 46.7668 144.665 46.5004 144.098 45.9341C143.532 45.4011 143.232 44.7016 143.232 43.9022V42.27C140.166 45.4678 136.567 47.0666 132.435 47.0666C129.835 47.0333 127.369 46.3671 125.036 45.0347ZM138.733 40.3714C140.433 39.5053 141.932 38.3728 143.232 36.9405V23.6832C141.932 22.2509 140.433 21.1184 138.733 20.2523C137.034 19.3863 135.201 18.9532 133.268 18.9532C130.169 18.9532 127.636 19.9525 125.77 21.9178C123.87 23.8831 122.937 26.6811 122.937 30.3119C122.937 33.9426 123.87 36.7406 125.77 38.7059C127.669 40.6712 130.169 41.6705 133.268 41.6705C135.201 41.6705 137.034 41.2374 138.733 40.3714Z" fill="#429B36"/>
<path d="M158.094 42.6364C155.228 39.7051 153.762 35.6081 153.762 30.3118C153.762 27.3139 154.295 24.5825 155.395 22.051C156.494 19.5195 158.161 17.4876 160.427 15.922C162.693 14.3565 165.492 13.5903 168.825 13.5903C171.924 13.5903 174.623 14.3231 176.889 15.7555C179.156 17.2211 180.888 19.1531 182.055 21.5514C183.221 23.983 183.821 26.6144 183.821 29.4791C183.821 30.2785 183.554 30.9447 183.021 31.511C182.488 32.0439 181.788 32.3437 180.922 32.3437H159.527C159.86 35.275 160.96 37.5733 162.793 39.2055C164.659 40.8377 167.225 41.6704 170.558 41.6704C172.324 41.6704 173.857 41.5039 175.19 41.1708C176.523 40.8377 177.823 40.338 179.056 39.7051C179.389 39.5386 179.755 39.4387 180.189 39.4387C180.855 39.4387 181.455 39.6718 181.955 40.1382C182.455 40.6045 182.721 41.2041 182.721 41.9036C182.721 42.8363 182.188 43.6024 181.088 44.2353C179.455 45.1679 177.823 45.8674 176.223 46.3005C174.623 46.7668 172.557 47 170.024 47C164.992 47.0333 160.993 45.5677 158.094 42.6364ZM178.189 27.647C178.056 25.5818 177.523 23.8497 176.59 22.484C175.656 21.1183 174.49 20.0857 173.09 19.4195C171.691 18.7533 170.291 18.4535 168.858 18.4535C167.425 18.4535 166.025 18.7866 164.626 19.4195C163.226 20.0857 162.093 21.085 161.16 22.484C160.227 23.883 159.694 25.5818 159.594 27.647H178.189Z" fill="#429B36"/>
<path d="M194.152 45.0347C191.819 43.7024 189.919 41.7704 188.486 39.2389C187.02 36.7073 186.32 33.7094 186.32 30.3119C186.32 26.9143 187.053 23.9164 188.486 21.3848C189.953 18.8533 191.819 16.9213 194.152 15.589C196.484 14.2566 198.951 13.5904 201.55 13.5904C205.682 13.5904 209.281 15.1892 212.347 18.387V2.93127C212.347 2.09853 212.647 1.39902 213.214 0.866068C213.78 0.333113 214.48 0.0333252 215.28 0.0333252C216.08 0.0333252 216.746 0.333113 217.313 0.899378C217.846 1.46564 218.146 2.16515 218.146 2.96458V43.9022C218.146 44.7016 217.879 45.3678 217.313 45.9341C216.78 46.4671 216.08 46.7668 215.28 46.7668C214.48 46.7668 213.78 46.5004 213.214 45.9341C212.647 45.4011 212.347 44.7016 212.347 43.9022V42.27C209.281 45.4678 205.682 47.0666 201.55 47.0666C198.951 47.0333 196.484 46.3671 194.152 45.0347ZM207.815 40.3714C209.515 39.5053 211.014 38.3728 212.314 36.9405V23.6832C211.014 22.2509 209.515 21.1184 207.815 20.2523C206.115 19.3863 204.283 18.9532 202.35 18.9532C199.25 18.9532 196.718 19.9525 194.852 21.9178C192.952 23.8831 192.019 26.6811 192.019 30.3119C192.019 33.9426 192.952 36.7406 194.852 38.7059C196.751 40.6712 199.25 41.6705 202.35 41.6705C204.316 41.6705 206.115 41.2374 207.815 40.3714Z" fill="#429B36"/>
</svg>
