<svg width="219" height="41" viewBox="0 0 219 41" fill="none" xmlns="http://www.w3.org/2000/svg">
<path d="M26.0885 0.24611C11.8196 0.358463 0.303423 9.96467 0.397051 21.7056C0.453228 29.8887 6.1458 36.9669 14.4225 40.4499L14.7034 31.3118L6.25815 25.1511V23.6531L15.1528 19.1027L12.9057 16.5935C12.7372 16.6684 12.5499 16.7059 12.3627 16.7059C11.5949 16.7059 10.9583 16.0692 10.9583 15.3015C10.9583 14.9457 11.0893 14.6273 11.2953 14.3839L7.49404 11.0508C7.49404 11.0508 8.20561 11.2193 8.54267 10.8822C8.87973 10.5452 8.6363 9.77742 8.6363 9.77742L11.5762 14.1405C11.8009 13.9907 12.0631 13.897 12.3627 13.897C13.1304 13.897 13.7671 14.5337 13.7671 15.3015C13.7671 15.6011 13.6735 15.8819 13.5049 16.1067L15.8644 18.7282L26.0511 13.5413L47.5667 23.9527V25.4507L38.1478 31.4991L38.335 40.2813C46.5743 36.6673 52.1545 29.5142 52.0983 21.3124C52.0234 9.57144 40.3761 0.133757 26.0885 0.24611Z" fill="#132CC2"/>
<path d="M75.9366 17.8668C75.1689 17.174 74.345 16.6497 73.5023 16.3126C73.0716 16.1441 72.6409 16.013 72.229 15.9381C71.7983 15.8632 71.3302 15.807 70.8433 15.807C68.8958 15.807 67.3416 16.3875 66.1806 17.5672C65.0196 18.7469 64.4392 20.3012 64.4392 22.2673C64.4392 24.1773 64.9822 25.7128 66.0496 26.8364C67.1169 27.9599 68.5962 28.5404 70.4501 28.5404C71.4987 28.5404 72.4724 28.3719 73.39 28.0161C74.3075 27.6603 75.1502 27.136 75.9366 26.4244L75.9179 30.4317C75.1127 30.9185 74.2326 31.2743 73.3151 31.5178C72.3788 31.7612 71.4238 31.8923 70.4126 31.8923C67.5101 31.8923 65.1133 30.9935 63.2407 29.1771C61.3682 27.3607 60.4319 25.0574 60.4319 22.2673C60.4319 19.496 61.3682 17.2114 63.2594 15.3951C65.132 13.5787 67.5476 12.6611 70.5062 12.6611C71.4987 12.6611 72.4724 12.7735 73.39 12.9795C73.8394 13.0731 74.3075 13.2042 74.7757 13.3727C75.2438 13.5412 75.6932 13.7285 76.1239 13.9532L75.9366 17.8668Z" fill="#132CC2"/>
<path d="M91.5541 31.4049H88.1086L88.1835 29.6447C87.7153 30.4125 87.1161 30.9742 86.4233 31.33C85.7304 31.6858 84.9065 31.873 83.9328 31.873C82.3037 31.873 80.9929 31.2738 79.9817 30.0567C78.9892 28.8582 78.4836 27.2478 78.4836 25.2629C78.4836 23.2218 78.9705 21.6114 79.9442 20.4505C80.918 19.2895 82.2849 18.709 84.0264 18.709C84.9252 18.709 85.7304 18.915 86.4233 19.3082C87.1161 19.7202 87.6966 20.3194 88.1648 21.1433V19.1209H91.5354V31.4049H91.5541ZM88.2958 25.2442C88.2958 24.1394 88.015 23.278 87.4719 22.6414C86.9101 22.0047 86.1611 21.6863 85.2248 21.6863C84.2511 21.6863 83.5021 22.0047 82.9403 22.6414C82.3786 23.278 82.1164 24.1394 82.1164 25.2629C82.1164 26.3677 82.3973 27.2291 82.9403 27.8471C83.4834 28.465 84.2511 28.7646 85.2061 28.7646C86.1986 28.7646 86.9476 28.465 87.4906 27.8471C88.0337 27.2104 88.2958 26.349 88.2958 25.2442Z" fill="#132CC2"/>
<path d="M94.9054 37.0039V19.1397H98.3134V21.162C98.7629 20.3568 99.3433 19.7389 100.036 19.3269C100.373 19.1397 100.729 18.9899 101.141 18.8775C101.534 18.7652 101.965 18.709 102.414 18.709C104.156 18.709 105.523 19.2895 106.497 20.4505C107.489 21.6114 107.976 23.2218 107.976 25.2817C107.976 27.2853 107.489 28.877 106.497 30.0754C105.504 31.2738 104.193 31.873 102.583 31.873C101.609 31.873 100.785 31.6858 100.092 31.33C99.4183 30.9742 98.8378 30.4125 98.3509 29.626L98.4445 30.6372L98.482 31.873V36.9664H94.9054V37.0039ZM98.1636 25.2442C98.1636 26.349 98.4445 27.2104 98.9876 27.8283C99.5306 28.4463 100.298 28.7459 101.272 28.7459C102.246 28.7459 103.014 28.4463 103.557 27.8283C104.1 27.2104 104.381 26.349 104.381 25.2442C104.381 24.1394 104.1 23.278 103.557 22.6414C102.995 22.0047 102.246 21.6863 101.253 21.6863C100.317 21.6863 99.5681 22.0047 99.0063 22.6414C98.4445 23.278 98.1636 24.1394 98.1636 25.2442Z" fill="#132CC2"/>
<path d="M122.975 31.4049H119.53L119.605 29.6447C119.136 30.4125 118.537 30.9742 117.844 31.33C117.152 31.6858 116.328 31.873 115.354 31.873C113.725 31.873 112.414 31.2738 111.403 30.0567C110.41 28.8582 109.905 27.2478 109.905 25.2629C109.905 23.2218 110.392 21.6114 111.365 20.4505C112.339 19.2895 113.706 18.709 115.448 18.709C116.346 18.709 117.152 18.915 117.844 19.3082C118.537 19.7202 119.118 20.3194 119.586 21.1433V19.1209H122.957V31.4049H122.975ZM119.736 25.2442C119.736 24.1394 119.455 23.278 118.912 22.6414C118.35 22.0047 117.601 21.6863 116.665 21.6863C115.691 21.6863 114.942 22.0047 114.38 22.6414C113.818 23.278 113.556 24.1394 113.556 25.2629C113.556 26.3677 113.837 27.2291 114.38 27.8471C114.923 28.465 115.691 28.7646 116.646 28.7646C117.638 28.7646 118.387 28.465 118.931 27.8471C119.455 27.2104 119.736 26.349 119.736 25.2442Z" fill="#132CC2"/>
<path d="M135.372 31.0312C134.885 31.3308 134.379 31.5368 133.836 31.6679C133.293 31.799 132.713 31.8739 132.095 31.8739C130.166 31.8739 128.593 31.2559 127.376 30.0388C126.159 28.8029 125.541 27.2112 125.541 25.245C125.541 23.335 126.159 21.7621 127.395 20.5449C128.631 19.3277 130.204 18.7285 132.151 18.7285C132.788 18.7285 133.368 18.7847 133.911 18.9158C134.155 18.9719 134.417 19.0469 134.66 19.1405C134.904 19.2341 135.147 19.3465 135.391 19.4963L135.372 23.0728C134.997 22.6983 134.567 22.4175 134.061 22.1927C133.556 21.968 133.031 21.8744 132.507 21.8744C131.496 21.8744 130.691 22.174 130.091 22.792C129.492 23.4099 129.192 24.2151 129.192 25.2263C129.192 26.2562 129.492 27.0801 130.11 27.6981C130.728 28.316 131.552 28.6156 132.582 28.6156C133.162 28.6156 133.668 28.522 134.117 28.316C134.567 28.11 134.979 27.7917 135.353 27.3423L135.372 31.0312Z" fill="#132CC2"/>
<path d="M137.9 14.103C137.9 13.5412 138.106 13.0543 138.518 12.6424C138.93 12.2304 139.417 12.0244 139.979 12.0244C140.559 12.0244 141.046 12.2304 141.458 12.6236C141.87 13.0356 142.076 13.5225 142.076 14.0842C142.076 14.646 141.87 15.1516 141.458 15.5635C141.046 15.9755 140.54 16.1815 139.979 16.1815C139.417 16.1815 138.93 15.9755 138.518 15.5448C138.106 15.1329 137.9 14.646 137.9 14.103ZM138.2 31.4054V19.1401H141.758V31.4054H138.2Z" fill="#132CC2"/>
<path d="M145.801 31.405V21.9299H144.079V19.1398H145.801V15.0576H149.359V19.1398H151.082V21.9299H149.359V31.405H145.801Z" fill="#132CC2"/>
<path d="M165.576 31.4049H162.13L162.205 29.6447C161.737 30.4125 161.138 30.9742 160.445 31.33C159.752 31.6858 158.928 31.873 157.955 31.873C156.325 31.873 155.015 31.2738 154.003 30.0567C153.011 28.8582 152.505 27.2478 152.505 25.2629C152.505 23.2218 152.992 21.6114 153.966 20.4505C154.94 19.2895 156.307 18.709 158.048 18.709C158.947 18.709 159.752 18.915 160.445 19.3082C161.138 19.7202 161.718 20.3194 162.186 21.1433V19.1209H165.557V31.4049H165.576ZM162.336 25.2442C162.336 24.1394 162.055 23.278 161.512 22.6414C160.951 22.0047 160.202 21.6863 159.265 21.6863C158.292 21.6863 157.543 22.0047 156.981 22.6414C156.419 23.278 156.157 24.1394 156.157 25.2629C156.157 26.3677 156.438 27.2291 156.981 27.8471C157.524 28.465 158.292 28.7646 159.247 28.7646C160.239 28.7646 160.988 28.465 161.531 27.8471C162.055 27.2104 162.336 26.349 162.336 25.2442Z" fill="#132CC2"/>
<path d="M169.376 31.405V21.9299H167.654V19.1398H169.376V15.0576H172.934V19.1398H174.657V21.9299H172.934V31.405H169.376Z" fill="#132CC2"/>
<path d="M188.832 26.1432H179.62C179.769 27.0233 180.088 27.6787 180.593 28.1094C181.099 28.5401 181.773 28.7648 182.634 28.7648C183.271 28.7648 183.833 28.6337 184.301 28.3903C184.769 28.1468 185.162 27.7723 185.499 27.248L188.383 28.6899C187.709 29.776 186.904 30.5624 185.949 31.0867C184.994 31.6111 183.87 31.8545 182.559 31.8545C180.593 31.8545 179.02 31.2553 177.859 30.0756C176.698 28.8959 176.099 27.3042 176.099 25.3006C176.099 23.3718 176.698 21.7989 177.916 20.5443C179.133 19.3084 180.687 18.6904 182.578 18.6904C184.526 18.6904 186.08 19.2709 187.203 20.4319C188.346 21.5929 188.907 23.1846 188.907 25.1882L188.889 25.544L188.832 26.1432ZM185.312 24.0085C185.218 23.2407 184.938 22.6415 184.469 22.2483C184.02 21.855 183.383 21.6491 182.559 21.6491C181.773 21.6491 181.136 21.8363 180.649 22.2296C180.163 22.6228 179.863 23.2033 179.732 23.9898H185.312V24.0085Z" fill="#132CC2"/>
<path d="M191.548 29.6448C191.548 29.0269 191.754 28.5213 192.185 28.1093C192.597 27.6974 193.121 27.4727 193.701 27.4727C194.282 27.4727 194.788 27.6786 195.218 28.1093C195.649 28.54 195.855 29.0456 195.855 29.6448C195.855 30.244 195.649 30.7309 195.218 31.1429C194.806 31.5548 194.282 31.7608 193.701 31.7608C193.102 31.7608 192.597 31.5548 192.185 31.1429C191.773 30.7309 191.548 30.2253 191.548 29.6448Z" fill="#132CC2"/>
<path d="M199.544 31.4054V12.0244H203.102V31.4054H199.544Z" fill="#132CC2"/>
<path d="M219 31.4049H215.555L215.629 29.6447C215.161 30.4125 214.562 30.9742 213.869 31.33C213.176 31.6858 212.352 31.873 211.379 31.873C209.75 31.873 208.439 31.2738 207.428 30.0567C206.435 28.8582 205.93 27.2478 205.93 25.2629C205.93 23.2218 206.416 21.6114 207.39 20.4505C208.364 19.2895 209.731 18.709 211.472 18.709C212.371 18.709 213.176 18.915 213.869 19.3082C214.562 19.7202 215.143 20.3194 215.611 21.1433V19.1209H218.981V31.4049H219ZM215.742 25.2442C215.742 24.1394 215.461 23.278 214.918 22.6414C214.356 22.0047 213.607 21.6863 212.671 21.6863C211.697 21.6863 210.948 22.0047 210.386 22.6414C209.824 23.278 209.562 24.1394 209.562 25.2629C209.562 26.3677 209.843 27.2291 210.386 27.8471C210.929 28.465 211.697 28.7646 212.652 28.7646C213.644 28.7646 214.394 28.465 214.937 27.8471C215.48 27.2104 215.742 26.349 215.742 25.2442Z" fill="#132CC2"/>
</svg>
