<svg width="128" height="60" viewBox="0 0 128 60" fill="none" xmlns="http://www.w3.org/2000/svg">
<path d="M111.579 40.7365L106.714 26.8042C106.631 26.569 106.48 26.3654 106.279 26.2214C106.079 26.0775 105.84 26.0001 105.595 26H103.193C102.998 25.9999 102.806 26.047 102.632 26.1374C102.459 26.2278 102.309 26.3589 102.195 26.52C102.08 26.681 102.006 26.8673 101.976 27.0636C101.946 27.2598 101.963 27.4605 102.024 27.6489L108.885 48.6725C108.885 48.6725 109.72 54.965 103.458 54.965H100.23C99.9044 54.965 99.5916 55.0969 99.3611 55.3317C99.1305 55.5666 99.001 55.885 99.001 56.2171V58.7743C99.0032 59.0987 99.1308 59.4091 99.356 59.6385C99.5812 59.8678 99.886 59.9977 100.204 60H105.179C105.179 60 110.878 59.545 113.243 53.7076L121.936 27.6331C121.998 27.4472 122.016 27.2488 121.988 27.0545C121.96 26.8602 121.887 26.6755 121.774 26.5158C121.662 26.3561 121.514 26.226 121.343 26.1363C121.171 26.0466 120.981 25.9999 120.788 26H118.364C118.125 26.0001 117.892 26.0768 117.698 26.2192C117.504 26.3616 117.359 26.5626 117.283 26.7936L112.722 40.7259C112.682 40.8474 112.606 40.9533 112.504 41.0287C112.403 41.1041 112.28 41.1452 112.154 41.1464C112.029 41.1476 111.906 41.1087 111.802 41.0352C111.699 40.9617 111.621 40.8573 111.579 40.7365Z" fill="#5A2D96"/>
<path d="M96.6651 43.9475H92.5449V31.3455H96.6632C97.018 31.3455 97.3583 31.2152 97.6092 30.9832C97.86 30.7512 98.001 30.4366 98.001 30.1085V27.5372C98.001 27.2091 97.86 26.8944 97.6092 26.6624C97.3583 26.4305 97.018 26.3001 96.6632 26.3001H92.5449V21.2105C92.5449 20.8895 92.407 20.5816 92.1615 20.3546C91.916 20.1275 91.583 20 91.2358 20H88.4017C88.0545 20 87.7215 20.1275 87.476 20.3546C87.2305 20.5816 87.0926 20.8895 87.0926 21.2105V26.3001H84.3387C83.9839 26.3001 83.6437 26.4305 83.3928 26.6624C83.1419 26.8944 83.001 27.2091 83.001 27.5372V30.112C83.001 30.4401 83.1419 30.7547 83.3928 30.9867C83.6437 31.2187 83.9839 31.3491 84.3387 31.3491H87.0907V45.227C87.0909 45.7227 87.1968 46.2135 87.4021 46.6714C87.6075 47.1293 87.9084 47.5453 88.2876 47.8956C88.6669 48.246 89.117 48.5238 89.6124 48.7133C90.1077 48.9028 90.6386 49.0002 91.1746 49H96.6632C97.018 49 97.3583 48.8697 97.6092 48.6377C97.86 48.4057 98.001 48.091 98.001 47.763V45.1811C98 44.8539 97.8588 44.5404 97.6085 44.3092C97.3581 44.0781 97.0189 43.948 96.6651 43.9475Z" fill="#5A2D96"/>
<path d="M123.001 14C125.762 14 128.001 11.5376 128.001 8.5C128.001 5.46243 125.762 3 123.001 3C120.24 3 118.001 5.46243 118.001 8.5C118.001 11.5376 120.24 14 123.001 14Z" fill="#5A2D96"/>
<path d="M106.001 10C108.762 10 111.001 7.76142 111.001 5C111.001 2.23858 108.762 0 106.001 0C103.24 0 101.001 2.23858 101.001 5C101.001 7.76142 103.24 10 106.001 10Z" fill="#5A2D96"/>
<path d="M90.001 14C92.7624 14 95.001 11.5376 95.001 8.5C95.001 5.46243 92.7624 3 90.001 3C87.2395 3 85.001 5.46243 85.001 8.5C85.001 11.5376 87.2395 14 90.001 14Z" fill="#5A2D96"/>
<path d="M51.001 35.3856C51.001 33.4941 50.4333 31.6468 49.3724 30.0853C48.3114 28.5238 46.8066 27.3209 45.0549 26.6341C43.3031 25.9473 41.3861 25.8086 39.5547 26.2361C37.7233 26.6636 36.0629 27.6375 34.7907 29.0301V17.8703C34.7907 17.5293 34.6561 17.2022 34.4164 16.9611C34.1767 16.72 33.8516 16.5845 33.5126 16.5845H31.0822C30.7432 16.5845 30.4181 16.72 30.1784 16.9611C29.9387 17.2022 29.8041 17.5293 29.8041 17.8703V32.5785C29.7882 35.0455 29.0465 37.4525 27.6724 39.4959C26.2984 41.5393 24.3537 43.1275 22.0835 44.0603C19.8133 44.993 17.3194 45.2284 14.9164 44.7368C12.5134 44.2453 10.3089 43.0487 8.581 41.2981C6.85313 39.5476 5.67928 37.3214 5.20753 34.9004C4.73578 32.4795 4.98727 29.9721 5.93026 27.6948C6.87326 25.4175 8.46552 23.4721 10.5062 22.1041C12.5469 20.7361 14.9445 20.0068 17.3967 20.0081C20.3143 20.0081 22.9963 21.0235 25.2836 22.8029C25.3754 22.873 25.4848 22.9159 25.5995 22.9267C25.7143 22.9375 25.8297 22.9159 25.9329 22.8642C26.036 22.8125 26.1227 22.7328 26.1832 22.6341C26.2437 22.5354 26.2756 22.4217 26.2753 22.3058V17.8053C26.2756 17.6905 26.2451 17.5776 26.187 17.4787C26.1289 17.3798 26.0454 17.2984 25.9453 17.2432C23.3105 15.7693 20.3451 14.9971 17.3304 15C8.03619 15.0351 0.128376 22.9048 0.00266139 32.2588C-0.0456901 35.7541 0.94765 39.1838 2.85463 42.1058C4.76162 45.0279 7.49483 47.3083 10.7019 48.6532C13.909 49.998 17.443 50.3457 20.8483 49.6513C24.2536 48.9569 27.3741 47.2522 29.8076 44.7572V47.8804C29.8076 48.221 29.9417 48.5477 30.1806 48.789C30.4194 49.0304 30.7436 49.1666 31.0822 49.168H33.5057C33.6735 49.168 33.8397 49.1348 33.9948 49.0702C34.1498 49.0055 34.2907 48.9108 34.4094 48.7914C34.5281 48.672 34.6222 48.5303 34.6865 48.3743C34.7507 48.2183 34.7838 48.051 34.7838 47.8822V36.3763H34.7942C34.8615 34.9275 35.481 33.5605 36.5239 32.5591C37.5668 31.5578 38.953 30.9991 40.3947 30.9991C41.8363 30.9991 43.2225 31.5578 44.2654 32.5591C45.3084 33.5605 45.9278 34.9275 45.9951 36.3763V47.8822C45.9951 48.0521 46.0285 48.2203 46.0935 48.3771C46.1585 48.5339 46.2538 48.6762 46.3737 48.7958C46.4937 48.9154 46.6361 49.0098 46.7925 49.0737C46.949 49.1376 47.1165 49.1697 47.2854 49.168H49.7089C49.8767 49.168 50.0429 49.1348 50.198 49.0702C50.3531 49.0055 50.494 48.9108 50.6127 48.7914C50.7313 48.672 50.8255 48.5303 50.8897 48.3743C50.9539 48.2183 50.987 48.051 50.987 47.8822V35.8493C50.9957 35.6948 51.001 35.5419 51.001 35.3856Z" fill="#5A2D96"/>
<path d="M78.7514 25.7279H76.2313C75.8999 25.7279 75.582 25.865 75.3477 26.1091C75.1134 26.3532 74.9817 26.6843 74.9817 27.0296V27.3339C73.1881 25.9971 71.0754 25.2011 68.8759 25.0334C66.6763 24.8656 64.4749 25.3327 62.5135 26.3832C60.5522 27.4337 58.9066 29.0271 57.7577 30.9882C56.6088 32.9494 56.001 35.2025 56.001 37.5C56.001 39.7975 56.6088 42.0506 57.7577 44.0118C58.9066 45.9729 60.5522 47.5663 62.5135 48.6168C64.4749 49.6673 66.6763 50.1344 68.8759 49.9666C71.0754 49.7989 73.1881 49.0029 74.9817 47.6661V47.9723C74.9817 48.3175 75.1134 48.6486 75.3477 48.8927C75.582 49.1368 75.8999 49.274 76.2313 49.274H78.7514C79.0828 49.274 79.4007 49.1368 79.635 48.8927C79.8693 48.6486 80.001 48.3175 80.001 47.9723V27.0296C80.001 26.8586 79.9687 26.6893 79.9059 26.5314C79.8431 26.3735 79.751 26.23 79.635 26.1091C79.519 25.9882 79.3812 25.8924 79.2296 25.8269C79.078 25.7615 78.9155 25.7279 78.7514 25.7279ZM68.002 44.795C66.6377 44.7953 65.3031 44.38 64.1626 43.6001C63.0221 42.8202 62.1254 41.7098 61.583 40.4057C61.0407 39.1016 60.8762 37.6607 61.1101 36.2605C61.3439 34.8603 61.9657 33.5619 62.8989 32.5252C63.8322 31.4885 65.0361 30.7588 66.3624 30.426C67.6887 30.0931 69.0795 30.1716 70.3636 30.6518C71.6476 31.132 72.7688 31.993 73.589 33.1287C74.4093 34.2644 74.8928 35.6252 74.98 37.0435V37.9748C74.8642 39.8209 74.0788 41.5519 72.7829 42.8168C71.487 44.0816 69.7778 44.7856 68.002 44.7859V44.795Z" fill="#5A2D96"/>
</svg>
