<svg width="201" height="45" viewBox="0 0 201 45" fill="none" xmlns="http://www.w3.org/2000/svg">
<path d="M29.5775 18.6628L23.6352 24.628C23.3381 23.8052 22.9267 23.051 22.4238 22.3882C21.8982 21.7254 21.3268 21.154 20.6869 20.7198C20.0469 20.2627 19.3384 19.9198 18.5842 19.6684C17.83 19.4399 17.0529 19.3028 16.2758 19.3028C15.1559 19.3028 14.1274 19.5313 13.1446 19.9884C12.1619 20.4455 11.3162 21.0855 10.5849 21.9082C9.8535 22.731 9.28213 23.7138 8.87073 24.8337C8.43648 25.9536 8.23079 27.2106 8.23079 28.5819C8.23079 29.7019 8.43649 30.7303 8.84788 31.7131C9.25927 32.673 9.83065 33.5415 10.562 34.2729C11.2934 35.0042 12.139 35.5756 13.1218 35.987C14.1046 36.3984 15.1559 36.6041 16.253 36.6041C17.0529 36.6041 17.8071 36.4898 18.5385 36.2841C19.2698 36.0556 19.9555 35.7585 20.5954 35.3471C21.2354 34.9357 21.8068 34.4557 22.3096 33.8615C22.8124 33.2673 23.2238 32.6273 23.5437 31.9188L29.4861 37.884C28.7319 38.9582 27.8634 39.9181 26.8806 40.7638C25.8978 41.6094 24.8465 42.3408 23.7037 42.935C22.561 43.5292 21.3725 43.9863 20.1155 44.2834C18.8584 44.5806 17.5557 44.7406 16.2301 44.7406C13.9903 44.7406 11.8876 44.3292 9.92207 43.4835C7.95653 42.6379 6.21953 41.4951 4.7568 40.0324C3.27122 38.5697 2.1056 36.8555 1.25996 34.89C0.437178 32.9244 0.00292969 30.8218 0.00292969 28.5819C0.00292969 26.1364 0.437178 23.8738 1.28282 21.7483C2.12846 19.6227 3.29407 17.7715 4.77966 16.2173C6.26524 14.6403 7.97938 13.4061 9.94493 12.4919C11.9105 11.5777 14.0131 11.1206 16.253 11.1206C17.5786 11.1206 18.8813 11.2806 20.1612 11.6234C21.4411 11.9662 22.6524 12.4462 23.818 13.0861C24.9836 13.7261 26.0578 14.526 27.0177 15.4402C28.0234 16.3773 28.869 17.4515 29.5775 18.6628Z" fill="#4E7CDD"/>
<path d="M41.7593 43.826H33.6458V0.0126953H41.7593V13.383C42.7193 12.6516 43.7249 12.1259 44.7534 11.8288C45.7818 11.5317 46.8332 11.3717 47.9074 11.3717C49.8729 11.3717 51.7013 11.7374 53.4383 12.4916C55.1525 13.223 56.6609 14.2515 57.9408 15.5542C59.2207 16.857 60.2263 18.3654 60.9805 20.1024C61.7119 21.8394 62.1004 23.6906 62.1004 25.6333V43.826H53.9183V25.6333H53.9868C53.9868 24.8105 53.8269 24.0106 53.5069 23.2793C53.1869 22.525 52.7527 21.8851 52.2041 21.3366C51.6556 20.788 50.9928 20.3538 50.2615 20.0338C49.5301 19.7138 48.753 19.5539 47.9074 19.5539C47.0617 19.5539 46.2618 19.7138 45.5076 20.0338C44.7534 20.3538 44.0906 20.788 43.542 21.3366C42.9935 21.8851 42.5593 22.5479 42.2393 23.2793C41.9193 24.0335 41.7593 24.8105 41.7593 25.6333V43.826Z" fill="#4E7CDD"/>
<path d="M129.706 43.8263H103.171L116.564 20.1483H103.171V12.0576H129.706L116.29 35.7356H129.706V43.8263Z" fill="#4E7CDD"/>
<path d="M142.368 43.826H134.186V0.0126953H142.368V27.3932L154.458 12.0574H163.783L153.247 25.3134L163.783 43.826H154.458L148.013 32.2613L142.368 39.7578V43.826Z" fill="#4E7CDD"/>
<path d="M175.21 28.9702H167.028V43.8261H175.21V28.9702Z" fill="#4E7CDD"/>
<path d="M90.5091 11.9886V13.4056C89.8463 12.9713 89.1606 12.56 88.4293 12.2171C87.4693 11.76 86.4866 11.4172 85.4809 11.1429C84.4753 10.8915 83.4468 10.7544 82.4184 10.7544C80.1786 10.7544 78.0759 11.1658 76.1103 11.9886C74.1448 12.8114 72.4078 13.9541 70.9451 15.4397C69.4595 16.9253 68.2939 18.708 67.4482 20.765C66.6026 22.8448 66.1683 25.1074 66.1683 27.5758C66.1683 30.227 66.6026 32.6039 67.4482 34.6837C68.2939 36.7636 69.4595 38.5234 70.9451 39.9633C72.4306 41.4032 74.1448 42.5002 76.1103 43.2544C78.0759 44.0087 80.1786 44.3743 82.4184 44.3743C83.4468 44.3743 84.4753 44.2372 85.4581 43.9858C86.4637 43.7344 87.4236 43.3687 88.3836 42.9345C89.1149 42.5916 89.8006 42.1802 90.4862 41.746V43.7801H96.7028H98.6684V12.0114V11.9429H90.5091V11.9886ZM89.8691 30.8441C89.4349 31.8954 88.8635 32.8096 88.1321 33.6096C87.4008 34.4095 86.5323 35.0494 85.5724 35.5294C84.5896 36.0093 83.5383 36.2608 82.4412 36.2608C81.3213 36.2608 80.2928 36.0779 79.3101 35.6894C78.3273 35.3237 77.4816 34.7523 76.7503 34.021C76.0189 33.2896 75.4475 32.3754 75.0361 31.3012C74.6247 30.227 74.4191 28.9928 74.4191 27.5986C74.4191 26.2045 74.6247 24.9703 75.0361 23.8961C75.4475 22.8219 76.0189 21.9077 76.7503 21.1763C77.4816 20.445 78.3273 19.8965 79.3101 19.5079C80.2928 19.1422 81.3442 18.9365 82.4412 18.9365C83.5611 18.9365 84.5896 19.1879 85.5724 19.6679C86.5551 20.1479 87.4008 20.7878 88.1321 21.6106C88.8635 22.4105 89.4349 23.3247 89.8691 24.3761C90.2805 25.4046 90.5091 26.4559 90.5091 27.5529V27.6672C90.4862 28.7643 90.2805 29.8385 89.8691 30.8441Z" fill="#4E7CDD"/>
<path d="M176.719 11.8286C176.719 14.9141 174.228 17.4053 171.12 17.4053C168.034 17.4053 165.543 14.9141 165.543 11.8286C165.543 8.74317 168.034 6.25195 171.12 6.25195C174.205 6.25195 176.719 8.74317 176.719 11.8286Z" fill="#7FD344"/>
<path d="M192.169 44.0546L186.341 38.2265C193.564 31.0043 193.564 19.2339 186.341 12.0117L192.169 6.18359C202.614 16.6284 202.614 33.6098 192.169 44.0546Z" fill="#7FD344"/>
</svg>
