<svg width="201" height="42" viewBox="0 0 201 42" fill="none" xmlns="http://www.w3.org/2000/svg">
<path d="M15.329 0.619141C19.6246 0.619141 22.7206 1.97363 25.5844 4.56651C25.9714 4.91481 25.9714 5.4179 25.6231 5.7662L23.0302 8.43648C22.7206 8.78478 22.2949 8.78478 21.9853 8.43648C20.2051 6.84979 17.8445 5.921 15.4451 5.921C10.0271 5.921 6.00236 10.4489 6.00236 15.7894C5.96366 21.13 10.0658 25.6191 15.4838 25.6191C18.038 25.6191 20.2051 24.6516 21.9853 23.2198C22.3336 22.9102 22.798 22.9489 23.0302 23.2198L25.6618 25.9287C26.0101 26.2383 25.9327 26.7801 25.6231 27.0897C22.7206 29.8761 19.0829 31.1919 15.329 31.1919C6.81505 31.1532 0.00390625 24.4195 0.00390625 15.9442C0.00390625 7.46899 6.81505 0.619141 15.329 0.619141Z" fill="#333333"/>
<path d="M96.5984 15.3251C96.5984 19.6207 95.2439 22.7167 92.651 25.5805C92.3027 25.9675 91.7996 25.9675 91.4513 25.6192L88.781 23.0263C88.4328 22.7167 88.4328 22.291 88.781 21.9814C90.3677 20.2012 91.2965 17.8406 91.2965 15.4412C91.2965 10.0232 86.7687 5.99845 81.4281 5.99845C76.1263 5.99845 71.6371 10.0619 71.6371 15.4799C71.6371 18.0341 72.6046 20.2012 74.0365 21.9814C74.3461 22.3297 74.3074 22.7941 74.0365 23.0263L71.3275 25.6579C71.0179 26.0062 70.4761 25.9288 70.1665 25.6192C67.3801 22.7167 66.0643 19.0789 66.0643 15.3251C66.0643 6.81115 72.7981 0 81.2733 0C89.7485 0 96.5984 6.81115 96.5984 15.3251Z" fill="#333333"/>
<path d="M37.9688 1.85762C37.9688 1.43192 38.317 1.04492 38.7814 1.04492H42.6901C43.1158 1.04492 43.5028 1.43192 43.5028 1.85762V25.6579H54.3C54.7644 25.6579 55.1127 26.0449 55.1127 26.4706V29.9536C55.1127 30.3793 54.7644 30.7663 54.3 30.7663H38.7814C38.317 30.7663 37.9688 30.3793 37.9688 29.9536V1.85762Z" fill="#333333"/>
<path d="M106.544 1.39313C106.544 0.967438 106.931 0.619141 107.357 0.619141H108.402L126.049 19.3498H126.087V1.85753C126.087 1.43183 126.436 1.04484 126.9 1.04484H130.809C131.234 1.04484 131.621 1.43183 131.621 1.85753V30.3792C131.621 30.8049 131.234 31.1532 130.809 31.1532H129.802L112.078 11.6873H112.039V29.9148C112.039 30.3405 111.691 30.7275 111.227 30.7275H107.357C106.931 30.7275 106.544 30.3405 106.544 29.9148V1.39313Z" fill="#333333"/>
<path d="M146.134 1.85762C146.134 1.43192 146.482 1.04492 146.946 1.04492H164.207C164.671 1.04492 165.019 1.43192 165.019 1.85762V5.34059C165.019 5.76628 164.671 6.15328 164.207 6.15328H151.668V13.1192H162.155C162.581 13.1192 162.968 13.5062 162.968 13.9319V17.4149C162.968 17.8793 162.581 18.2276 162.155 18.2276H151.668V25.6579H164.207C164.671 25.6579 165.019 26.0449 165.019 26.4706V29.9536C165.019 30.3793 164.671 30.7663 164.207 30.7663H146.946C146.482 30.7663 146.134 30.3793 146.134 29.9536V1.85762Z" fill="#333333"/>
<path d="M177.829 1.85762C177.829 1.43192 178.178 1.04492 178.642 1.04492H190.755C195.825 1.04492 200.004 5.10839 200.004 10.178C200.004 14.0867 197.411 17.2601 193.735 18.7307L199.54 29.4892C199.849 30.031 199.54 30.7276 198.805 30.7276H194.354C193.967 30.7276 193.774 30.5341 193.658 30.3406L188.007 19.1177H183.286V29.9149C183.286 30.3406 182.899 30.7276 182.473 30.7276H178.565C178.1 30.7276 177.752 30.3406 177.752 29.9149V1.85762H177.829ZM190.291 14.5898C192.535 14.5898 194.47 12.6548 194.47 10.2554C194.47 8.01087 192.535 6.15328 190.291 6.15328H183.363V14.5898H190.291Z" fill="#333333"/>
<path fill-rule="evenodd" clip-rule="evenodd" d="M72.992 27.7094L79.3001 20.55C79.7645 20.0469 80.3837 19.7373 81.1189 19.7373C81.8542 19.7373 82.4734 20.0469 82.9378 20.55L89.2459 27.7094C89.6329 28.1351 89.8651 28.7156 89.8651 29.3348C89.8651 30.6893 88.7815 31.7729 87.427 31.7729C86.6917 31.7729 86.0725 31.4633 85.6081 30.9602L83.557 28.5608V38.8937C83.557 40.2481 82.4734 41.3317 81.1189 41.3317C79.7645 41.3317 78.6809 40.2481 78.6809 38.8937V28.5995L76.6298 30.9989C76.1654 31.502 75.5462 31.8116 74.8109 31.8116C73.4564 31.8116 72.3728 30.728 72.3728 29.3735C72.3341 28.7156 72.605 28.1351 72.992 27.7094Z" fill="#00B593"/>
</svg>
