<svg width="124" height="60" viewBox="0 0 124 60" fill="none" xmlns="http://www.w3.org/2000/svg">
<path d="M18.5492 58.9699C17.8368 59.465 16.8054 59.9986 14.9047 59.9986C12.2917 59.9986 10.8257 59.1074 9.85476 57.9577C8.60602 56.4916 8.09167 54.6103 8.09167 52.6904C8.09167 48.174 10.9247 45.3438 14.9047 45.3438C18.9838 45.3438 20.6891 48.2951 20.6891 49.6621C20.6891 50.1187 20.3315 50.8888 19.4211 50.8888C18.6895 50.8888 18.4694 50.4927 17.8753 49.3843C17.2812 48.2951 16.1315 47.6212 14.8855 47.6212C12.7676 47.6212 11.0045 49.145 11.0045 52.8114C11.0045 54.8303 11.4996 55.9993 12.2312 56.7337C13.0839 57.5864 14.1126 57.7239 14.8057 57.7239C16.8246 57.7239 17.757 56.4174 18.1531 55.3089C18.3704 54.7148 18.629 54.0409 19.4789 54.0409C20.073 54.0409 20.7469 54.4755 20.7469 55.2897C20.7496 56.3541 19.9767 57.9577 18.5492 58.9699Z" fill="#00ADB8"/>
<path d="M25.7603 57.8187C25.7603 58.7704 25.7603 59.2435 25.4027 59.5818C25.2047 59.7798 24.8691 59.9971 24.4511 59.9971C24.0935 59.9971 23.7387 59.8376 23.4801 59.5818C23.1226 59.2462 23.1226 58.7511 23.1226 57.8187V47.5207C23.1226 46.569 23.1226 46.0959 23.4801 45.7576C23.6782 45.5403 24.0137 45.3423 24.4318 45.3423C24.7894 45.3423 25.1442 45.4798 25.4027 45.7384C25.7603 46.0959 25.7603 46.591 25.7603 47.5207V57.8187Z" fill="#00ADB8"/>
<path d="M33.1651 59.9972C29.185 59.9972 27.8373 57.0652 27.8373 54.6309C27.8373 51.8391 29.5206 49.2646 33.1045 49.2646C36.7297 49.2646 38.3718 51.8777 38.3718 54.6309C38.3746 57.64 36.4519 59.9972 33.1651 59.9972ZM33.1045 51.223C31.5587 51.223 30.5108 52.4498 30.5108 54.6309C30.5108 56.8479 31.5615 58.0361 33.1045 58.0361C34.6503 58.0361 35.6983 56.8286 35.6983 54.6309C35.6983 52.4305 34.6503 51.223 33.1045 51.223Z" fill="#00ADB8"/>
<path d="M45.3836 51.3409C45.6422 50.4498 45.7192 50.1142 45.9777 49.7759C46.1565 49.5393 46.6104 49.2615 47.1275 49.2615C47.5841 49.2615 48.0571 49.4788 48.2772 49.7759C48.5357 50.1335 48.6348 50.5295 48.8713 51.3409L50.4556 56.8062L52.1774 50.9036C52.4745 49.9134 52.6533 49.2588 53.5637 49.2588C54.1963 49.2588 54.7327 49.7924 54.7327 50.3673C54.7327 50.6836 54.6722 50.8816 54.4356 51.594L52.2765 57.912C51.9601 58.8224 51.8419 59.1607 51.5833 59.477C51.3853 59.7356 50.9287 59.9914 50.4556 59.9914C49.2481 59.9914 48.9703 59.1002 48.6127 57.8322L47.1275 52.6832L45.6614 57.8377C45.4249 58.6904 45.3039 59.0864 45.0481 59.4412C44.8693 59.6778 44.3934 59.9969 43.8406 59.9969C43.406 59.9969 42.9109 59.7796 42.6716 59.4825C42.4131 59.1469 42.2948 58.8086 41.9977 57.9175L39.8386 51.5995C39.602 50.9256 39.5415 50.7083 39.5415 50.3728C39.5415 49.8391 40.0173 49.2643 40.7105 49.2643C41.6209 49.2643 41.7804 49.9189 42.0775 50.9091L43.8213 56.8117L45.3836 51.3409Z" fill="#00ADB8"/>
<path d="M63.5061 58.2338C62.9312 58.927 62.04 59.9969 60.0597 59.9969C57.1496 59.9969 55.6423 57.4829 55.6423 54.4904C55.6423 51.8168 56.9681 49.2616 60.0404 49.2616C61.9603 49.2616 62.8927 50.2518 63.5061 50.8844V47.4573C63.5061 46.3488 63.5061 45.3394 64.8346 45.3394C65.2306 45.3394 65.844 45.5374 66.0421 46.192C66.1603 46.5688 66.1411 46.8054 66.1411 47.5398V57.9368C66.1411 58.7482 66.1411 59.323 65.7835 59.6394C65.525 59.8979 65.1289 59.9969 64.8126 59.9969C63.5638 59.9969 63.5061 58.9077 63.5061 58.4924V58.2338ZM63.3685 54.7489C63.3685 52.631 62.3398 51.264 60.7555 51.264C59.449 51.264 58.3186 52.3339 58.3186 54.5729C58.3186 56.2755 58.7752 56.8503 59.1712 57.2657C59.7461 57.8598 60.321 57.978 60.7748 57.978C62.04 57.978 63.3685 57.0456 63.3685 54.7489Z" fill="#00ADB8"/>
<path d="M74.2788 57.5407C73.902 58.9875 73.6242 59.9969 72.2379 59.9969C70.8517 59.9969 70.5931 58.9682 70.2383 57.4609L67.8811 47.9139C67.8426 47.7956 67.6638 47.0227 67.6638 46.6073C67.6638 46.0132 68.1974 45.3394 68.9896 45.3394C70.098 45.3394 70.2768 46.192 70.5134 47.3005L72.3947 55.5796L74.4741 47.8368C74.7327 46.8466 74.8895 46.313 75.247 45.895C75.4066 45.6969 75.9402 45.3394 76.5948 45.3394C77.1504 45.3394 77.7225 45.6172 77.9425 45.895C78.3001 46.3295 78.4184 46.7669 78.7154 47.8368L80.7948 55.5796L82.6762 47.3005C82.855 46.4093 82.9733 45.9142 83.3308 45.6364C83.5894 45.4384 83.8864 45.3394 84.1835 45.3394C85.0142 45.3394 85.5313 46.0132 85.5313 46.6266C85.5313 47.0227 85.3525 47.7543 85.314 47.9139L82.9568 57.4609C82.5799 58.9655 82.3434 59.9969 80.9571 59.9969C79.5709 59.9969 79.2931 58.9682 78.897 57.5407L76.6003 49.0251L74.2788 57.5407Z" fill="#7DD600"/>
<path d="M91.4271 59.9972C87.4471 59.9972 86.0993 57.0652 86.0993 54.6309C86.0993 51.8391 87.7827 49.2646 91.3666 49.2646C94.9918 49.2646 96.6339 51.8777 96.6339 54.6309C96.6366 57.64 94.714 59.9972 91.4271 59.9972ZM91.3693 51.223C89.8236 51.223 88.7756 52.4498 88.7756 54.6309C88.7756 56.8479 89.8263 58.0361 91.3693 58.0361C92.9124 58.0361 93.9631 56.8286 93.9631 54.6309C93.9631 52.4305 92.9124 51.223 91.3693 51.223Z" fill="#7DD600"/>
<path d="M98.6945 51.0441C98.6945 50.5682 98.6945 49.2617 100.001 49.2617C101.208 49.2617 101.25 50.4114 101.269 50.9065C101.684 50.1529 102.199 49.2617 103.546 49.2617C104.08 49.2617 105.942 49.5973 105.942 50.7663C105.942 51.4786 105.348 51.8747 104.913 51.8747C104.438 51.8747 103.904 51.5392 103.211 51.5392C101.508 51.5392 101.33 53.7176 101.33 56.1931V57.7168C101.33 58.5695 101.329 58.9656 101.151 59.3424C101.013 59.6202 100.557 59.997 100.023 59.997C99.5472 59.997 99.0328 59.7 98.8733 59.3424C98.6945 58.9656 98.6945 58.6685 98.6945 57.8186V51.0441Z" fill="#7DD600"/>
<path d="M109.687 56.3141V57.6014C109.687 58.6521 109.706 59.205 109.33 59.5818C109.131 59.7606 108.815 59.9971 108.359 59.9971C107.883 59.9971 107.388 59.7 107.209 59.3425C107.049 58.9657 107.049 58.5888 107.049 57.7389V47.639C107.049 46.9458 107.049 46.4507 107.267 45.9749C107.404 45.6586 107.899 45.3423 108.436 45.3423C108.911 45.3423 109.228 45.5596 109.407 45.8181C109.684 46.2142 109.684 46.7478 109.684 47.5812V53.3848L112.674 50.296C113.466 49.4653 113.703 49.2673 114.198 49.2673C114.971 49.2673 115.367 49.8807 115.367 50.318C115.367 50.9121 114.575 51.6437 114.278 51.9216L112.891 53.2088L115.584 57.4666C115.92 58.0002 116.159 58.3385 116.159 58.7924C116.159 59.227 115.843 59.9999 114.91 59.9999C114.198 59.9999 113.86 59.4855 113.444 58.7924L111.128 54.9691L109.687 56.3141Z" fill="#7DD600"/>
<path d="M1.91261 49.6058C1.70082 49.2592 1.48078 48.8632 1.27174 48.4148C1.0572 47.9582 0.892167 47.5264 0.762892 47.1358C0.5456 46.55 0.328308 45.8238 0.18253 44.9767C0.0312512 44.0937 -0.0072562 43.3043 0.00649645 42.6607C-0.00175514 42.0308 0.0312512 41.2964 0.149524 40.485C0.251294 39.7782 0.399822 39.1455 0.556602 38.6037C0.743638 38.0398 0.991186 37.4017 1.3295 36.7251C1.61556 36.1475 1.91811 35.6414 2.20692 35.204C2.46547 34.7584 2.77903 34.2716 3.1641 33.7682C3.50517 33.3199 3.84624 32.9293 4.16805 32.591C4.46235 32.2527 4.82817 31.8759 5.27376 31.4991C5.70834 31.1277 6.12918 30.8334 6.506 30.5969C7.0341 30.2998 7.55945 30 8.08755 29.703L9.56459 29.0153L11.49 28.3965C12.0071 28.3029 12.5242 28.2094 13.0413 28.1187C13.5859 28.0967 14.1332 28.0747 14.6778 28.0526H16.4739L16.9223 26.119L17.5109 24.565L18.3058 23.0109L19.307 21.3524L20.7592 19.6938L22.0382 18.4148L24.1451 16.7562L26.1833 15.546L28.0839 14.7868L30.3641 14.1652C31.1507 14.0442 31.9346 13.9232 32.7213 13.8049C33.5327 13.7884 34.3441 13.7691 35.1555 13.7526C35.5543 13.7636 35.9559 13.7719 36.3547 13.7829C36.8553 13.8737 37.3587 13.9644 37.8593 14.0552L39.4821 14.5283L41.578 15.3727L42.4912 13.7499L43.7757 11.8905L44.8566 10.4383L46.1741 8.98598L47.4916 7.66848L49.6893 5.84487L51.1774 4.79692L52.5636 3.85074L53.9499 3.00633L55.3692 2.29669L56.9562 1.58706L58.7798 1.01219L60.5704 0.506097L62.394 0.200789C62.8754 0.151279 63.3594 0.10177 63.8408 0.0522601C64.5834 0.0357569 65.3261 0.0165032 66.0687 0H68.1426C68.7202 0.0247548 69.3006 0.0522601 69.8782 0.0770148C70.3953 0.167782 70.9097 0.255799 71.4268 0.346567L74.7466 1.14147L77.0626 1.93637L79.241 2.94032L81.557 4.21931L83.5978 5.70735L84.8081 6.71129L86.7802 8.51014C86.7802 8.51014 87.6796 9.61585 87.7842 9.72037C87.8887 9.82489 89.374 11.8988 89.374 11.8988L91.0325 14.2147L92.0695 16.1869L92.9001 18.1232L93.42 19.1959L95.0098 18.7806C95.0098 18.7806 96.8416 18.401 97.0149 18.401C97.3587 18.401 98.0244 18.2388 98.8825 18.159C99.4601 18.1067 100.189 18.0572 101.042 18.0517C101.584 18.0985 102.125 18.1452 102.667 18.192L103.933 18.4313L106.292 18.9787C107.362 19.372 108.432 19.7653 109.502 20.1586C110.314 20.552 111.122 20.9425 111.934 21.3359L113.917 22.6011L115.625 24.0369L117.471 25.7807L119.008 27.6951L120.034 29.0979L121.198 31.2845L122.017 33.4712C122.152 33.8425 122.284 34.2386 122.408 34.6567C122.587 35.2618 122.727 35.8367 122.84 36.3785C122.941 37.2449 123.046 38.1113 123.148 38.9778L123.318 41.2332C123.326 41.6623 123.318 42.1244 123.291 42.6112C123.26 43.1311 123.211 43.6206 123.148 44.0717C123.073 44.5751 122.98 45.1004 122.867 45.6505C122.735 46.2914 122.587 46.8938 122.43 47.4576C122.339 47.7794 122.226 48.1205 122.089 48.4808C121.946 48.8549 121.794 49.1987 121.643 49.5068C121.486 49.6443 121.332 49.7791 121.176 49.9166L120.584 50.0651H119.891L119.407 49.8699L118.923 49.4683L118.45 48.8109L118.301 48.2003L118.45 47.3476C118.604 46.88 118.758 46.4124 118.909 45.9476C118.997 45.4195 119.085 44.8941 119.173 44.366L119.346 42.9165L119.3 40.7876L118.898 37.8638L118.472 36.1475L117.872 34.4779L117.215 33.0146L116.571 31.7604L115.903 30.5391L114.728 29.0896C114.341 28.6963 113.953 28.3029 113.568 27.9096C112.965 27.4173 112.363 26.9249 111.758 26.4298L110.025 25.2471L108.677 24.4522C107.913 24.1276 107.151 23.8003 106.386 23.4758C105.676 23.2475 104.967 23.0219 104.257 22.7936C103.583 22.6726 102.912 22.5516 102.238 22.4333C101.68 22.3811 101.121 22.3288 100.563 22.2765C99.5399 22.2875 98.5167 22.2958 97.4935 22.3068C96.8471 22.3976 96.2008 22.4883 95.5544 22.5818L93.552 23.1925L92.0585 23.8031L90.2926 24.6145L88.4938 25.6982L86.8627 26.9497L85.471 28.3717L84.2827 29.8625L83.331 31.1497L82.6847 31.6916L82.2171 31.8704C82.1016 31.8951 81.9613 31.9144 81.8018 31.9171C81.5625 31.9199 81.3617 31.8786 81.2159 31.8374C81.0013 31.7109 80.7868 31.5843 80.5695 31.4578L80.0002 30.7729L79.7196 29.934C79.7141 29.8102 79.7251 29.6149 79.8076 29.3977C79.8571 29.2656 79.9204 29.1584 79.9754 29.0813C80.1927 28.7705 80.41 28.4597 80.63 28.1517L81.9035 26.3996L83.3118 24.8318L84.5523 23.6931L85.8588 22.5763L87.3358 21.6467L89.0686 20.5134C89.0686 20.5134 88.6451 19.2097 88.6093 19.1437C88.5763 19.0749 87.9822 17.8564 87.9822 17.8564L87.1845 16.4867L86.1833 14.7593L85.1134 13.4061L83.7711 11.8163L82.6324 10.5978L81.5955 9.71762L80.6795 9.04099L79.9149 8.53214L78.3691 7.68498L76.859 7.00835L75.5168 6.39773L74.2103 5.95765L72.2244 5.39929L70.3568 4.9427L68.778 4.72266L66.231 4.6539L64.4349 4.67315C63.9866 4.69515 63.5382 4.71716 63.0899 4.73916C62.3995 4.84093 61.7119 4.94545 61.0215 5.04722L58.7111 5.70735L56.9122 6.29871L55.2151 7.11012L53.8234 7.83901L52.5004 8.66967L51.2599 9.54984L50.0386 10.5648L48.8669 11.665L47.7282 12.9L46.6417 14.5586L45.7753 15.8458L44.8071 17.7409L44.3148 18.9594L43.7894 20.4502L43.1953 22.227L42.7552 23.8168L42.4994 25.2719L42.2794 27.6758L42.2271 29.3344C42.2629 29.879 42.2986 30.4264 42.3344 30.971C42.3922 31.1938 42.5214 31.8016 42.2271 32.4315C42.1226 32.657 41.9878 32.8303 41.8696 32.9568L41.446 33.3117L40.9701 33.5812L40.1202 33.6307L39.3391 33.3942L39.0503 33.1054L38.778 32.8358C38.6542 32.6955 38.4837 32.4782 38.3544 32.1757C38.3186 32.0904 38.2251 31.8649 38.1398 31.2323C38.1151 31.059 38.0711 30.6849 38.0491 30.0743C38.0381 29.7662 38.0326 29.3619 38.0491 28.8833C38.0463 28.4625 38.0408 28.0416 38.0381 27.6236C38.0408 27.2853 38.0463 26.9387 38.0601 26.5811C38.0738 26.2318 38.0931 25.8935 38.1178 25.5634C38.1756 25.0188 38.2636 24.4302 38.3929 23.8058C38.4809 23.3767 38.5827 22.9724 38.6872 22.5956C38.8605 21.941 39.031 21.2836 39.2043 20.629L39.6884 19.1794L38.877 18.7834L37.9281 18.3873L36.4428 18.0077L35.3893 17.9032L32.9221 17.8179L31.1782 18.0242L29.0218 18.6293L27.399 19.284L25.8642 20.3017L24.6045 21.2341L23.7408 22.1995L22.7754 23.286L21.9997 24.3202L21.3451 25.6157L20.6712 27.1862L20.2752 28.6193C20.2064 29.2271 20.1376 29.835 20.0661 30.4429C20.0661 30.9765 20.0661 31.5128 20.0661 32.0464C20.0964 32.371 20.1266 32.6955 20.1569 33.0201C20.1844 33.4299 20.2119 33.837 20.2394 34.2468L20.0826 34.7749L19.7498 35.1765L19.296 35.5258C19.1722 35.5781 19.0154 35.6304 18.8311 35.6689C18.6413 35.7074 18.4708 35.7184 18.3333 35.7184C18.2013 35.7266 18.0252 35.7239 17.8217 35.6799C17.5989 35.6331 17.4228 35.5561 17.3018 35.4901C17.1671 35.4213 17.0048 35.3223 16.837 35.1765C16.7352 35.0858 16.65 34.995 16.5839 34.9125C16.4959 34.7859 16.3914 34.6017 16.3171 34.3679C16.2704 34.2193 16.2456 34.0818 16.2346 33.969C16.2236 33.6527 16.2126 33.3392 16.1989 33.0229L16.2511 31.8319L14.5706 31.7439C14.0892 31.7824 13.6051 31.8236 13.1238 31.8621C12.5627 31.9749 12.0016 32.0877 11.4377 32.1977L9.8974 32.7065L8.51388 33.4932L7.21838 34.4916L6.5005 35.1738L5.73035 36.2932C5.53781 36.538 5.33977 36.8158 5.14449 37.1321C4.91069 37.5117 4.72365 37.872 4.57513 38.1994C4.4321 38.6394 4.28907 39.0768 4.14604 39.5169C4.02502 40.0697 3.90675 40.6226 3.78572 41.1754C3.74447 41.5027 3.71421 41.8548 3.69771 42.2316C3.67845 42.7295 3.68671 43.1888 3.71696 43.6069C3.76097 44.003 3.80498 44.4018 3.84899 44.7979C3.94801 45.2517 4.06628 45.6313 4.1708 45.9201C4.30832 46.3024 4.41009 46.5912 4.61913 46.9515C4.74841 47.1798 4.81992 47.2513 5.07847 47.6777C5.19675 47.873 5.31227 48.0683 5.42229 48.258C5.43604 48.3186 5.44979 48.4011 5.44429 48.5001C5.43604 48.6734 5.37553 48.8026 5.33702 48.8769C5.33427 48.9429 5.32052 49.0309 5.28476 49.13C5.22425 49.2977 5.12248 49.4078 5.06197 49.4655C4.86118 49.6388 4.66039 49.8093 4.4596 49.9826C4.31658 50.0239 4.1763 50.0679 4.03327 50.1091C3.76647 50.1229 3.49967 50.1367 3.23287 50.1504C2.98257 50.1229 2.73227 50.0954 2.48197 50.0679C2.29219 49.9194 2.1024 49.7626 1.91261 49.6058Z" fill="#00ADB8"/>
</svg>
