<svg width="205" height="50" viewBox="0 0 205 50" fill="none" xmlns="http://www.w3.org/2000/svg">
<path fill-rule="evenodd" clip-rule="evenodd" d="M65.939 2.3945V49.6769H72.6579V0L65.939 2.3945ZM185.95 14.0811C180.911 14.0811 176.551 15.8323 172.941 19.3347C169.367 22.8371 167.58 27.0543 167.58 31.9147C167.58 36.8109 169.367 40.9924 172.941 44.4948C176.515 47.9257 180.839 49.6412 185.95 49.6769C190.739 49.6769 194.885 48.1401 198.351 45.0666V49.6769H204.32V32.7725C204.32 32.4865 204.355 32.2006 204.355 31.9505C204.355 27.0543 202.568 22.8371 198.959 19.3704C195.349 15.8323 190.989 14.0811 185.95 14.0811ZM185.95 21.1931C188.988 21.1931 191.561 22.2295 193.741 24.3381C195.921 26.4467 196.993 28.9484 196.993 31.879C196.993 34.8453 195.921 37.347 193.741 39.4199C191.561 41.4927 188.952 42.5291 185.95 42.5291C182.876 42.5291 180.303 41.4927 178.123 39.4199C175.943 37.347 174.871 34.8096 174.871 31.879C174.871 28.9484 175.943 26.4467 178.123 24.3381C180.267 22.2295 182.876 21.1931 185.95 21.1931ZM112.292 1.96563L119.083 0.142955V29.8061L126.945 14.2955L134.021 14.2598L126.087 31.3072L142.885 49.6412H133.914L119.083 34.0591V49.6412H112.292V1.96563ZM45.8181 14.0811C40.8504 14.0811 36.6332 15.8323 33.0951 19.3347C29.5927 22.8371 27.8415 27.0543 27.8415 31.9147C27.8415 36.8109 29.5927 40.9924 33.0951 44.4948C36.5975 47.9257 40.8504 49.6412 45.8181 49.6769C50.7858 49.6769 55.0387 47.9614 58.5411 44.4948C62.0792 41.0281 63.8304 36.8467 63.8304 31.9147C63.8304 27.0185 62.0792 22.8013 58.5411 19.3347C55.003 15.8323 50.7858 14.0811 45.8181 14.0811ZM45.8181 21.1931C48.7844 21.1931 51.3219 22.2295 53.4305 24.3381C55.5748 26.4467 56.6112 28.9484 56.6112 31.879C56.6112 34.8453 55.539 37.347 53.4305 39.4199C51.2861 41.4927 48.7487 42.5291 45.8181 42.5291C42.816 42.5291 40.2786 41.4927 38.17 39.4199C36.0614 37.347 34.9892 34.8096 34.9892 31.879C34.9892 28.9484 36.0257 26.4467 38.17 24.3381C40.2428 22.2295 42.816 21.1931 45.8181 21.1931ZM26.5192 39.0982C27.3769 41.0281 28.6635 42.8508 30.3075 44.459L30.5576 44.6735C27.6628 47.4254 23.4099 49.6054 18.0133 49.6054C13.0456 49.6054 8.79272 47.8542 5.29032 44.4233C1.75218 40.9566 0.000976562 36.7752 0.000976562 31.8433C0.000976562 26.947 1.75218 22.7299 5.29032 19.1917C8.82846 15.6893 13.0814 13.9381 18.0133 13.9381L17.9776 14.0096C23.3384 14.0096 27.5913 16.2969 30.5576 19.013L30.3075 19.2632C28.6277 20.9429 27.3769 22.7656 26.4834 24.7312C24.2676 22.8371 20.7295 21.1574 18.0491 21.1574C15.047 21.1574 12.5096 22.1938 10.4367 24.3024C8.32811 26.411 7.25595 28.9484 7.25595 31.879C7.25595 34.8453 8.29237 37.347 10.4367 39.4556C12.5453 41.5285 15.0827 42.5649 18.0491 42.5649C20.8724 42.5649 24.3748 41.0281 26.5192 39.0982ZM158.824 7.29071V11.1862H164.9V5.57525L158.824 7.29071ZM158.86 14.0453V49.6769H164.9V14.0453H158.86ZM153.678 49.6412H156.358V44.5305L154.821 44.4948C154.107 44.4948 153.499 44.459 153.034 44.4233C152.57 44.3876 152.07 44.3161 151.605 44.2446C151.14 44.1731 150.711 44.0659 150.283 43.9587C149.818 43.8515 149.425 43.7085 149.103 43.4941C148.746 43.2797 148.46 43.0295 148.21 42.7436C147.995 42.4934 147.852 42.1718 147.674 41.8501C147.531 41.5285 147.423 41.2068 147.316 40.8137C147.209 40.4563 147.138 40.0274 147.102 39.5271C147.066 39.0625 147.03 38.5264 147.03 37.9903V20.9787H153.785L157.109 14.0453H147.066V4.789L140.454 6.82611V14.0453H135.951L132.556 20.9787L140.026 21.0859V37.6687C140.026 38.8123 140.24 40.635 140.454 41.7429C140.562 42.3505 140.705 42.8865 140.848 43.3869C140.99 43.8872 141.169 44.3518 141.348 44.7807C141.527 45.2096 141.741 45.5669 141.991 45.9243C142.241 46.2817 142.492 46.5676 142.813 46.8535C143.135 47.1395 143.421 47.4254 143.778 47.6398C144.1 47.8542 144.421 48.0687 144.779 48.2474C145.1 48.426 145.494 48.569 145.887 48.712C146.316 48.8549 146.744 48.9621 147.245 49.0693C147.781 49.1766 148.281 49.2838 148.746 49.3553C149.246 49.4267 149.711 49.4625 150.211 49.4982C150.711 49.534 151.248 49.5697 151.784 49.5697C152.32 49.6412 152.963 49.6412 153.678 49.6412Z" fill="#FA5E62"/>
<path fill-rule="evenodd" clip-rule="evenodd" d="M110.399 34.4164L82.4158 34.4522C83.4523 42.9223 93.5306 44.9951 101.751 38.3835L107.004 43.8872C92.8873 56.7532 74.0529 47.6041 73.9815 32.2364C73.91 21.9079 81.3079 14.1883 92.4584 14.2598C103.609 14.3312 111.078 22.6226 110.399 34.4164ZM92.7086 21.1931C87.9553 21.1931 83.8811 24.2309 82.4516 28.4481H103.001C101.536 24.2309 97.4976 21.1931 92.7086 21.1931Z" fill="#FA5E62"/>
</svg>
