<svg width="186" height="161" viewBox="0 0 186 161" fill="none" xmlns="http://www.w3.org/2000/svg">
<g style="mix-blend-mode:multiply" opacity="0.05">
<path d="M39.2155 6.84714C80.5574 -13.9075 128.632 21.3693 172.547 36.4159C206.352 47.9933 218.592 104.368 190.052 129.055C164.789 150.919 62.4691 181.638 23.1973 139.624C-23.973 89.1799 10.837 21.0869 39.2155 6.84714Z" fill="black"/>
</g>
<path opacity="0.15" d="M154.658 125.364C190.172 131.253 25.8694 130.285 8.72571 127.562C-8.41801 124.839 127.144 120.805 154.658 125.364Z" fill="black"/>
<path d="M155.084 126.271H23.5615C17.4316 126.271 12.4473 121.269 12.4473 115.118V36.5163C12.4473 30.3646 17.4316 25.3625 23.5615 25.3625H155.064C161.194 25.3625 166.178 30.3646 166.178 36.5163V115.118C166.198 121.29 161.214 126.271 155.084 126.271Z" fill="#0B2739"/>
<path d="M44.4227 94.5447H26.2741C25.0682 94.5447 24.1035 93.5564 24.1035 92.3663V78.7921C24.1035 77.5819 25.0883 76.6138 26.2741 76.6138H44.4227C45.6286 76.6138 46.5933 77.6021 46.5933 78.7921V92.3663C46.6134 93.5765 45.6286 94.5447 44.4227 94.5447Z" fill="#B6B7B7"/>
<path d="M166.178 44.0599H12.4473V67.255H166.178V44.0599Z" fill="#D3D4D3"/>
<path d="M52.7434 109.773H26.2741C25.0682 109.773 24.1035 108.784 24.1035 107.594V106.082C24.1035 104.871 25.0883 103.903 26.2741 103.903H52.7434C53.9493 103.903 54.914 104.892 54.914 106.082V107.594C54.914 108.784 53.9493 109.773 52.7434 109.773Z" fill="#D3D4D3"/>
<path d="M101.664 109.773H61.7487C60.5428 109.773 59.5781 108.784 59.5781 107.594V106.082C59.5781 104.871 60.5629 103.903 61.7487 103.903H101.664C102.869 103.903 103.834 104.892 103.834 106.082V107.594C103.854 108.784 102.869 109.773 101.664 109.773Z" fill="#D3D4D3"/>
<path opacity="0.05" d="M12.4473 115.118V36.5163C12.4473 30.3646 17.4316 25.3625 23.5615 25.3625H155.064L12.4473 115.118Z" fill="white"/>
<path opacity="0.15" d="M174.876 134.924C194.672 141.601 78.7061 139.624 69.1394 136.518C59.5928 133.412 159.541 129.761 174.876 134.924Z" fill="black"/>
<path d="M156.801 46.0567L159.816 47.8316L165.001 48.1947C169.503 109.047 174.889 132.726 174.889 132.726L159.213 137.627L156.801 46.0567Z" fill="#019DF4"/>
<path d="M115.801 51.4219C115.801 51.4219 116.102 19.8966 129.869 19.8966C143.637 19.8966 143.034 51.4219 143.034 51.4219" stroke="#86888C" stroke-miterlimit="10"/>
<path opacity="0.1" d="M159.209 137.627L163.209 129.539L174.865 132.726L159.209 137.627Z" fill="black"/>
<path opacity="0.3" d="M163.212 129.539L159.816 47.8316L156.801 46.0567L159.213 137.627L163.212 129.539Z" fill="black"/>
<path d="M110.01 49.1023C110.01 49.1023 110.311 17.577 124.079 17.577C137.846 17.577 137.243 49.1023 137.243 49.1023" stroke="#86888C" stroke-miterlimit="10"/>
<path d="M90.9589 46.0567C125.95 52.632 156.8 46.0567 156.8 46.0567L159.212 137.627L82.377 132.686C88.0044 94.706 87.5623 45.4113 90.9589 46.0567Z" fill="#019DF4"/>
<path opacity="0.1" d="M156.8 46.0567L159.212 137.627L82.377 132.686C115.8 127.078 156.8 46.0567 156.8 46.0567Z" fill="black"/>
</svg>
