<svg width="110" height="101" viewBox="0 0 110 101" fill="none" xmlns="http://www.w3.org/2000/svg">
<g style="mix-blend-mode:multiply" opacity="0.05">
<path d="M24.7461 4.0229C50.8341 -9.07387 81.1706 13.1868 108.882 22.6817C130.214 29.9873 137.938 65.5612 119.928 81.1398C103.986 94.9366 39.4198 114.321 14.6382 87.8091C-15.1277 55.9772 6.83843 13.0086 24.7461 4.0229Z" fill="black"/>
</g>
<path opacity="0.15" d="M97.5945 78.8103C120.004 82.5268 16.3249 81.9159 5.50676 80.1977C-5.31142 78.4794 80.2321 75.9339 97.5945 78.8103Z" fill="black"/>
<path d="M97.8613 79.3831H14.8669C10.9988 79.3831 7.85352 76.2266 7.85352 72.3447V22.745C7.85352 18.8631 10.9988 15.7066 14.8669 15.7066H97.8486C101.717 15.7066 104.862 18.8631 104.862 22.745V72.3447C104.875 76.2394 101.729 79.3831 97.8613 79.3831Z" fill="#0B2739"/>
<path d="M28.031 59.3626H16.5787C15.8177 59.3626 15.209 58.7389 15.209 57.988V49.4223C15.209 48.6586 15.8304 48.0477 16.5787 48.0477H28.031C28.792 48.0477 29.4007 48.6713 29.4007 49.4223V57.988C29.4134 58.7517 28.792 59.3626 28.031 59.3626Z" fill="#B6B7B7"/>
<path d="M104.862 27.5052H7.85352V42.142H104.862V27.5052Z" fill="#D3D4D3"/>
<path d="M33.2816 68.9719H16.5787C15.8177 68.9719 15.209 68.3482 15.209 67.5973V66.6427C15.209 65.8791 15.8304 65.2681 16.5787 65.2681H33.2816C34.0425 65.2681 34.6513 65.8918 34.6513 66.6427V67.5973C34.6513 68.3482 34.0425 68.9719 33.2816 68.9719Z" fill="#D3D4D3"/>
<path d="M64.1509 68.9719H38.9635C38.2025 68.9719 37.5938 68.3482 37.5938 67.5973V66.6427C37.5938 65.8791 38.2152 65.2681 38.9635 65.2681H64.1509C64.9118 65.2681 65.5206 65.8918 65.5206 66.6427V67.5973C65.5333 68.3482 64.9118 68.9719 64.1509 68.9719Z" fill="#D3D4D3"/>
<path opacity="0.05" d="M7.85352 72.3447V22.745C7.85352 18.8631 10.9988 15.7066 14.8669 15.7066H97.8486L7.85352 72.3447Z" fill="white"/>
<path opacity="0.15" d="M110.352 84.8434C122.844 89.0562 49.6662 87.8089 43.6293 85.8488C37.6051 83.8888 100.675 81.5851 110.352 84.8434Z" fill="black"/>
<path d="M98.9453 28.7653L100.848 29.8853L104.12 30.1144C106.961 68.5138 110.36 83.456 110.36 83.456L100.467 86.5488L98.9453 28.7653Z" fill="#019DF4"/>
<path d="M73.0742 32.1508C73.0742 32.1508 73.2645 12.2574 81.952 12.2574C90.6395 12.2574 90.259 32.1508 90.259 32.1508" stroke="#86888C" stroke-miterlimit="10"/>
<path opacity="0.1" d="M100.467 86.5488L102.991 81.445L110.346 83.456L100.467 86.5488Z" fill="black"/>
<path opacity="0.3" d="M102.991 81.4451L100.848 29.8853L98.9453 28.7653L100.467 86.5488L102.991 81.4451Z" fill="black"/>
<path d="M69.4199 30.6871C69.4199 30.6871 69.6102 10.7938 78.2977 10.7938C86.9852 10.7938 86.6048 30.6871 86.6048 30.6871" stroke="#86888C" stroke-miterlimit="10"/>
<path d="M57.3979 28.7652C79.4781 32.9145 98.9458 28.7652 98.9458 28.7652L100.468 86.5489L51.9824 83.4306C55.5335 59.4644 55.2545 28.358 57.3979 28.7652Z" fill="#019DF4"/>
<path opacity="0.1" d="M98.9458 28.7653L100.468 86.5488L51.9824 83.4306C73.0734 79.8923 98.9458 28.7653 98.9458 28.7653Z" fill="black"/>
</svg>
