<svg width="121" height="109" viewBox="0 0 121 109" fill="none" xmlns="http://www.w3.org/2000/svg">
<g style="mix-blend-mode:multiply" opacity="0.05">
<path d="M26.7939 4.34155C55.0406 -9.79259 87.8876 14.2313 117.892 24.4782C140.989 32.3626 149.352 70.7541 129.853 87.5668C112.591 102.456 42.6818 123.376 15.8495 94.7643C-16.3795 60.4111 7.40432 14.039 26.7939 4.34155Z" fill="black"/>
</g>
<path opacity="0.15" d="M120.308 88.5561C116.738 87.9654 109.185 87.6907 100.397 87.6358C112.769 87.1825 118.88 86.3721 110.998 85.0672C92.1988 81.9492 -0.423578 84.6963 11.2898 86.5644C17.0023 87.4709 44.9607 88.1028 70.3512 88.089C58.8163 88.4874 50.8105 89.078 53.9277 89.5725C61.9746 90.8362 136.732 91.2757 120.308 88.5561Z" fill="black"/>
<path d="M36.5462 85.754H30.257C29.694 85.754 29.282 85.2733 29.3369 84.7101L32.7425 53.3238H40.913L37.4938 84.9161C37.4251 85.3969 37.0269 85.754 36.5462 85.754Z" fill="#86888C"/>
<path d="M108.488 85.754H102.199C101.718 85.754 101.32 85.3969 101.279 84.9161L97.8184 53.3238H105.989L109.408 84.7101C109.463 85.2733 109.037 85.754 108.488 85.754Z" fill="#86888C"/>
<path d="M40.0912 87.5122H33.8019C33.2389 87.5122 32.8269 87.0315 32.8819 86.4683L36.2874 55.082H44.4579L41.0112 86.6744C40.97 87.1551 40.5718 87.5122 40.0912 87.5122Z" fill="#B6B7B7"/>
<path d="M104.945 87.5122H98.6559C98.1752 87.5122 97.777 87.1551 97.7358 86.6744L94.2891 55.082H102.46L105.879 86.4683C105.934 87.0315 105.494 87.5122 104.945 87.5122Z" fill="#B6B7B7"/>
<path d="M42.6985 20.7288H39.293V35.0415H42.6985V20.7288Z" fill="white"/>
<path d="M39.293 20.7288V28.3521C39.8148 28.5719 40.3915 28.6955 40.9957 28.6955C41.5999 28.6955 42.1767 28.5719 42.6985 28.3521V20.7288H39.293Z" fill="#D3D4D3"/>
<path d="M40.994 25.1517C43.4383 25.1517 45.4157 23.1737 45.4157 20.7288C45.4157 18.2838 43.4383 16.3058 40.994 16.3058C38.5497 16.3058 36.5723 18.2838 36.5723 20.7288C36.5723 23.1737 38.5497 25.1517 40.994 25.1517Z" fill="white"/>
<path d="M40.9978 24.2314C42.934 24.2314 44.4994 22.6655 44.4994 20.7288C44.4994 18.792 42.934 17.2261 40.9978 17.2261C39.0615 17.2261 37.4961 18.792 37.4961 20.7288C37.4961 22.6655 39.0615 24.2314 40.9978 24.2314Z" fill="#F28D15"/>
<path d="M99.5227 20.7288H96.1172V35.0415H99.5227V20.7288Z" fill="white"/>
<path d="M96.1172 20.7288V28.3521C96.639 28.5719 97.2157 28.6955 97.8199 28.6955C98.4242 28.6955 99.0009 28.5719 99.5227 28.3521V20.7288H96.1172Z" fill="#D3D4D3"/>
<path d="M97.8182 25.1517C100.262 25.1517 102.24 23.1737 102.24 20.7288C102.24 18.2838 100.262 16.3058 97.8182 16.3058C95.3739 16.3058 93.3965 18.2838 93.3965 20.7288C93.3965 23.1737 95.3739 25.1517 97.8182 25.1517Z" fill="white"/>
<path d="M97.8161 24.2314C99.7523 24.2314 101.318 22.6655 101.318 20.7288C101.318 18.792 99.7523 17.2261 97.8161 17.2261C95.8799 17.2261 94.3145 18.792 94.3145 20.7288C94.3145 22.6655 95.8799 24.2314 97.8161 24.2314Z" fill="#F8D2B3"/>
<path d="M100.718 22.6655C101.102 22.1023 101.322 21.443 101.322 20.7013C101.322 18.7646 99.7563 17.1987 97.8201 17.1987C96.7764 17.1987 95.8427 17.6657 95.1973 18.3799C95.4994 18.325 95.8015 18.2838 96.1173 18.2838C98.5753 18.2975 100.594 20.248 100.718 22.6655Z" fill="#F8D2B3"/>
<path d="M97.8161 24.2313C99.0383 24.2313 100.096 23.6132 100.741 22.6655C100.604 20.2205 98.5988 18.2975 96.1134 18.2975C95.7975 18.2975 95.4954 18.3387 95.1933 18.3936C94.6578 19.0117 94.3145 19.8359 94.3145 20.715C94.3145 22.6655 95.8662 24.2313 97.8161 24.2313Z" fill="#F28D15"/>
<path d="M102.818 44.8352C103.615 44.9313 104.397 45.0412 105.166 45.1511L108.448 31.7175C104.727 31.9922 99.7009 32.3218 93.5765 32.5554L90.8301 43.75C95.2792 44.0247 99.3164 44.3956 102.818 44.8352Z" fill="#0B2739"/>
<path d="M35.5874 44.8763C39.3088 44.4093 43.6756 44.011 48.4955 43.7088L51.1733 32.7614C45.5706 32.5965 40.7095 32.363 36.6448 32.1158L33.459 45.1236C34.173 45.0549 34.8734 44.945 35.5874 44.8763Z" fill="#0B2739"/>
<path d="M62.4473 43.1868C62.461 43.1868 62.461 43.1868 62.4885 43.1868C64.7268 43.1456 67.0338 43.1319 69.3682 43.1319C71.8674 43.1319 74.3117 43.1456 76.7148 43.1868C76.8521 43.1868 76.9895 43.1868 77.1405 43.1868L79.6397 32.9399C76.399 32.9948 72.9797 33.0223 69.3682 33.0223C67.8714 33.0223 66.3883 33.0223 64.919 33.0086L62.4473 43.1868Z" fill="#0B2739"/>
<path d="M86.2544 48.7635C86.9135 48.8047 90.2504 43.6264 90.8821 43.6676L93.6285 32.4729C89.4814 32.6515 84.84 32.7888 79.718 32.8712L77.2188 43.1319C81.3246 43.2143 82.5742 48.5712 86.2544 48.7635Z" fill="#019DF4"/>
<path d="M114.49 47.2114C114.573 47.2251 114.627 47.2663 114.71 47.2938L115.877 33.297C115.973 32.1157 114.971 31.1405 113.817 31.2367C112.54 31.3603 110.741 31.5114 108.448 31.6762L105.152 45.1236C109.341 45.7279 112.568 46.4559 114.49 47.2114Z" fill="#019DF4"/>
<path d="M50.1124 43.6263C53.9711 43.4065 58.1182 43.2692 62.4438 43.1868L64.9293 33.036C59.972 32.9948 55.3581 32.9124 51.1835 32.775L48.5195 43.7087C49.0413 43.695 49.5769 43.6538 50.1124 43.6263Z" fill="#019DF4"/>
<path d="M36.6704 32.1432C31.205 31.8273 27.2502 31.4839 24.957 31.2779C23.776 31.1817 22.8011 32.1569 22.8972 33.3382L24.0644 47.335C25.9457 46.5383 29.2139 45.7966 33.512 45.1785L36.6704 32.1432Z" fill="#019DF4"/>
<path d="M35.587 44.8763C34.8454 44.9724 34.1451 45.0548 33.4722 45.151L30.8906 55.7001C34.3374 55.9748 39.171 56.3182 45.3641 56.6066L48.5088 43.7362C43.6751 44.0109 39.3083 44.3955 35.587 44.8763Z" fill="#0B2739"/>
<path opacity="0.15" d="M35.587 44.8763C34.8454 44.9724 34.1451 45.0548 33.4722 45.151L30.8906 55.7001C34.3374 55.9748 39.171 56.3182 45.3641 56.6066L48.5088 43.7362C43.6751 44.0109 39.3083 44.3955 35.587 44.8763Z" fill="white"/>
<path d="M102.818 44.8351C99.3167 44.3956 95.2795 44.0385 90.8304 43.75L87.6445 56.799C93.5493 56.6204 98.5065 56.332 102.503 56.0847L105.18 45.1373C104.398 45.0274 103.615 44.9313 102.818 44.8351Z" fill="#0B2739"/>
<path opacity="0.15" d="M102.818 44.8351C99.3167 44.3956 95.2795 44.0385 90.8304 43.75L87.6445 56.799C93.5493 56.6204 98.5065 56.332 102.503 56.0847L105.18 45.1373C104.398 45.0274 103.615 44.9313 102.818 44.8351Z" fill="white"/>
<path d="M76.7139 43.1868C74.3108 43.1456 71.8666 43.1319 69.3673 43.1319C67.0192 43.1319 64.7259 43.1456 62.4876 43.1868C62.4739 43.1868 62.4739 43.1868 62.4464 43.1868L59.0684 57.0051C62.2954 57.06 65.7146 57.0875 69.3536 57.0875C70.8504 57.0875 72.2922 57.0875 73.7341 57.0737L77.1122 43.2006C77.0023 43.1868 76.865 43.1868 76.7139 43.1868Z" fill="#0B2739"/>
<path opacity="0.15" d="M76.7139 43.1868C74.3108 43.1456 71.8666 43.1319 69.3673 43.1319C67.0192 43.1319 64.7259 43.1456 62.4876 43.1868C62.4739 43.1868 62.4739 43.1868 62.4464 43.1868L59.0684 57.0051C62.2954 57.06 65.7146 57.0875 69.3536 57.0875C70.8504 57.0875 72.2922 57.0875 73.7341 57.0737L77.1122 43.2006C77.0023 43.1868 76.865 43.1868 76.7139 43.1868Z" fill="white"/>
<path d="M88.865 43.6263C85.1848 43.4203 81.2437 43.2692 77.1378 43.1868L73.7598 57.0599C78.8406 57.0187 83.4683 56.9226 87.6291 56.7989L90.8149 43.7499C90.1695 43.7087 89.5241 43.6675 88.865 43.6263Z" fill="#019DF4"/>
<path opacity="0.15" d="M88.865 43.6263C85.1848 43.4203 81.2437 43.2692 77.1378 43.1868L73.7598 57.0599C78.8406 57.0187 83.4683 56.9226 87.6291 56.7989L90.8149 43.7499C90.1695 43.7087 89.5241 43.6675 88.865 43.6263Z" fill="white"/>
<path d="M105.141 45.1373L102.463 56.0847C107.31 55.7688 110.675 55.4391 112.487 55.2605C113.394 55.1644 114.108 54.4364 114.19 53.5161L114.712 47.2938C114.657 47.2801 114.575 47.2388 114.492 47.2114C112.57 46.4559 109.343 45.7279 105.141 45.1373Z" fill="#019DF4"/>
<path opacity="0.15" d="M105.141 45.1373L102.463 56.0847C107.31 55.7688 110.675 55.4391 112.487 55.2605C113.394 55.1644 114.108 54.4364 114.19 53.5161L114.712 47.2938C114.657 47.2801 114.575 47.2388 114.492 47.2114C112.57 46.4559 109.343 45.7279 105.141 45.1373Z" fill="white"/>
<path d="M50.1146 43.6264C49.5791 43.6401 49.0298 43.6813 48.4942 43.7225L45.3496 56.5929C49.3456 56.7715 53.9321 56.9089 59.0541 57.0187L62.4322 43.2006C58.1204 43.2555 53.987 43.4066 50.1146 43.6264Z" fill="#019DF4"/>
<path opacity="0.15" d="M50.1146 43.6264C49.5791 43.6401 49.0298 43.6813 48.4942 43.7225L45.3496 56.5929C49.3456 56.7715 53.9321 56.9089 59.0541 57.0187L62.4322 43.2006C58.1204 43.2555 53.987 43.4066 50.1146 43.6264Z" fill="white"/>
<path d="M24.0371 47.3076L24.5589 53.5299C24.6413 54.4365 25.3416 55.1645 26.2617 55.2743C27.3053 55.398 28.857 55.5353 30.9306 55.7139L33.5122 45.1648C29.1866 45.7692 25.9184 46.5109 24.0371 47.3076Z" fill="#019DF4"/>
<path opacity="0.15" d="M24.0371 47.3076L24.5589 53.5299C24.6413 54.4365 25.3416 55.1645 26.2617 55.2743C27.3053 55.398 28.857 55.5353 30.9306 55.7139L33.5122 45.1648C29.1866 45.7692 25.9184 46.5109 24.0371 47.3076Z" fill="white"/>
<path d="M30.2568 85.7539H32.9346L35.5437 61.8124C34.0606 62.5267 32.7286 63.4333 31.5202 64.5321L29.3231 84.7375C29.2819 85.2732 29.7076 85.7539 30.2568 85.7539Z" fill="#B6B7B7"/>
<path d="M42.8922 60.123C41.9722 60.123 41.0521 60.2055 40.1733 60.3428C38.5529 60.6038 36.9875 61.0983 35.5731 61.7851L32.964 85.7403L32.8816 86.4545C32.8267 87.0177 33.2661 87.4985 33.8016 87.4985H40.0909C40.5715 87.4985 40.9697 87.1413 41.0109 86.6606L43.8946 60.1368C43.5788 60.1505 43.2355 60.123 42.8922 60.123Z" fill="#D3D4D3"/>
<path d="M105.797 85.7541H108.488C109.051 85.7541 109.463 85.2733 109.408 84.7102L107.211 64.5048C106.016 63.4197 104.671 62.4994 103.188 61.7851L105.797 85.7541Z" fill="#B6B7B7"/>
<path d="M105.88 86.4683L105.798 85.7541L103.189 61.8126C101.747 61.1121 100.209 60.6313 98.5886 60.3703C97.7098 60.233 96.7897 60.1506 95.8697 60.1506C95.5264 60.1506 95.1831 60.1643 94.8535 60.1918L97.7372 86.7156C97.7922 87.1963 98.2041 87.5535 98.6573 87.5535H104.947C105.496 87.5123 105.935 87.0315 105.88 86.4683Z" fill="#D3D4D3"/>
<path d="M43.8933 22.6655C44.2778 22.1023 44.4975 21.443 44.4975 20.7013C44.4975 18.7646 42.9321 17.1987 40.9959 17.1987C39.9522 17.1987 39.0185 17.6657 38.373 18.3799C38.6752 18.325 38.9773 18.2838 39.2931 18.2838C41.7511 18.2975 43.7697 20.248 43.8933 22.6655Z" fill="#F8D2B3"/>
<path d="M122.648 89.2291L110.92 90.6027C110.261 90.7538 109.561 90.7538 108.916 90.6027L97.1884 89.2291C96.9138 89.1742 96.9138 88.7896 97.1884 88.7209L108.916 87.3473C109.575 87.1962 110.275 87.1962 110.92 87.3473L122.648 88.7209C122.922 88.7758 122.922 89.1604 122.648 89.2291Z" fill="#9F591F"/>
<path d="M111.787 61.8812H108.024C107.736 61.8812 107.461 62.0873 107.406 62.3895L101.57 88.9682C101.57 88.9682 105.882 90.0533 109.906 90.0533C114.066 90.0533 118.241 88.9682 118.241 88.9682L112.405 62.3895C112.35 62.101 112.103 61.8812 111.787 61.8812Z" fill="#F28D15"/>
<path d="M111.784 61.8812C109.463 61.8675 110.424 69.1337 107.994 76.5511C105.893 82.9657 106.703 87.6908 110.699 88.0754C114.599 88.4463 117.716 86.6057 117.716 86.6057L112.402 62.362C112.347 62.101 112.004 61.8812 111.784 61.8812Z" fill="#F5A94F"/>
<path d="M105.852 69.491L105.221 72.3893H114.613L113.982 69.491H105.852Z" fill="#F8D2B3"/>
<path d="M104.288 76.5648L103.162 81.7295H116.647L115.507 76.5648H104.288Z" fill="#F8D2B3"/>
</svg>
