<svg width="187" height="161" viewBox="0 0 187 161" fill="none" xmlns="http://www.w3.org/2000/svg">
<g style="mix-blend-mode:multiply" opacity="0.05">
<path d="M39.3594 6.4658C80.853 -14.2968 129.104 20.9936 173.18 36.046C207.109 47.6279 219.394 104.024 190.749 128.721C165.393 150.594 62.6983 181.324 23.2824 139.294C-24.061 88.8303 10.8767 20.7111 39.3594 6.4658Z" fill="black"/>
</g>
<path opacity="0.15" d="M176.729 130.174C171.485 129.307 160.39 128.903 147.48 128.823C165.655 128.157 174.632 126.966 163.053 125.049C135.438 120.469 -0.621921 124.505 16.5847 127.249C24.9762 128.58 66.0462 129.509 103.344 129.488C86.3996 130.074 74.6394 130.941 79.2185 131.668C91.0392 133.524 200.855 134.17 176.729 130.174Z" fill="black"/>
<path d="M53.6854 126.058H44.4466C43.6196 126.058 43.0144 125.352 43.0951 124.525L48.0977 78.4193H60.1L55.0772 124.827C54.9764 125.534 54.3914 126.058 53.6854 126.058Z" fill="#86888C"/>
<path d="M159.367 126.058H150.128C149.422 126.058 148.837 125.534 148.777 124.827L143.693 78.4193H155.696L160.718 124.525C160.799 125.352 160.174 126.058 159.367 126.058Z" fill="#86888C"/>
<path d="M58.8943 128.641H49.6556C48.8286 128.641 48.2234 127.935 48.3041 127.108L53.3067 81.002H65.309L60.2458 127.41C60.1853 128.116 59.6003 128.641 58.8943 128.641Z" fill="#B6B7B7"/>
<path d="M154.163 128.641H144.924C144.218 128.641 143.633 128.116 143.573 127.41L138.51 81.002H150.512L155.535 127.108C155.616 127.935 154.97 128.641 154.163 128.641Z" fill="#B6B7B7"/>
<path d="M62.7233 30.5381H57.7207V51.563H62.7233V30.5381Z" fill="white"/>
<path d="M57.7207 30.5381V41.7366C58.4872 42.0594 59.3345 42.241 60.222 42.241C61.1096 42.241 61.9568 42.0594 62.7233 41.7366V30.5381H57.7207Z" fill="#D3D4D3"/>
<path d="M60.22 37.0353C63.8106 37.0353 66.7153 34.1297 66.7153 30.5381C66.7153 26.9465 63.8106 24.041 60.22 24.041C56.6294 24.041 53.7246 26.9465 53.7246 30.5381C53.7246 34.1297 56.6294 37.0353 60.22 37.0353Z" fill="white"/>
<path d="M60.2259 35.6834C63.0701 35.6834 65.3697 33.3832 65.3697 30.5381C65.3697 27.6931 63.0701 25.3929 60.2259 25.3929C57.3816 25.3929 55.082 27.6931 55.082 30.5381C55.082 33.3832 57.3816 35.6834 60.2259 35.6834Z" fill="#F28D15"/>
<path d="M146.198 30.5381H141.195V51.563H146.198V30.5381Z" fill="white"/>
<path d="M141.195 30.5381V41.7366C141.962 42.0594 142.809 42.241 143.697 42.241C144.584 42.241 145.431 42.0594 146.198 41.7366V30.5381H141.195Z" fill="#D3D4D3"/>
<path d="M143.693 37.0353C147.283 37.0353 150.188 34.1297 150.188 30.5381C150.188 26.9465 147.283 24.041 143.693 24.041C140.102 24.041 137.197 26.9465 137.197 30.5381C137.197 34.1297 140.102 37.0353 143.693 37.0353Z" fill="white"/>
<path d="M143.691 35.6834C146.535 35.6834 148.835 33.3832 148.835 30.5381C148.835 27.6931 146.535 25.3929 143.691 25.3929C140.846 25.3929 138.547 27.6931 138.547 30.5381C138.547 33.3832 140.846 35.6834 143.691 35.6834Z" fill="#F8D2B3"/>
<path d="M147.953 33.3831C148.518 32.5558 148.84 31.5873 148.84 30.4977C148.84 27.6527 146.541 25.3525 143.697 25.3525C142.164 25.3525 140.792 26.0385 139.844 27.0877C140.288 27.007 140.731 26.9465 141.195 26.9465C144.806 26.9667 147.771 29.8319 147.953 33.3831Z" fill="#F8D2B3"/>
<path d="M143.691 35.6833C145.486 35.6833 147.039 34.7753 147.987 33.3831C147.786 29.7915 144.841 26.9666 141.189 26.9666C140.725 26.9666 140.282 27.0271 139.838 27.1079C139.051 28.0158 138.547 29.2265 138.547 30.5179C138.547 33.3831 140.826 35.6833 143.691 35.6833Z" fill="#F28D15"/>
<path d="M151.038 65.9497C152.208 66.0909 153.358 66.2523 154.487 66.4137L159.308 46.6802C153.842 47.0837 146.459 47.568 137.462 47.911L133.428 64.3556C139.963 64.7592 145.894 65.304 151.038 65.9497Z" fill="#0B2739"/>
<path d="M52.277 66.0102C57.7436 65.3242 64.1583 64.739 71.2386 64.2951L75.1721 48.2137C66.942 47.9715 59.8011 47.6285 53.8303 47.2653L49.1504 66.3734C50.1993 66.2725 51.2281 66.1111 52.277 66.0102Z" fill="#0B2739"/>
<path d="M91.7344 63.5282C91.7545 63.5282 91.7545 63.5282 91.7949 63.5282C95.0829 63.4677 98.4718 63.4475 101.901 63.4475C105.572 63.4475 109.163 63.4677 112.693 63.5282C112.895 63.5282 113.096 63.5282 113.318 63.5282L116.99 48.4758C112.229 48.5565 107.206 48.5969 101.901 48.5969C99.7023 48.5969 97.5237 48.5969 95.3653 48.5767L91.7344 63.5282Z" fill="#0B2739"/>
<path d="M126.707 71.7204C127.675 71.7809 132.577 64.174 133.505 64.2345L137.539 47.7899C131.447 48.0522 124.629 48.254 117.105 48.3751L113.434 63.4476C119.465 63.5687 121.301 71.4379 126.707 71.7204Z" fill="#019DF4"/>
<path d="M168.184 69.4403C168.305 69.4605 168.385 69.521 168.506 69.5613L170.221 49.0005C170.362 47.2652 168.89 45.8326 167.195 45.9739C165.319 46.1555 162.677 46.3774 159.308 46.6195L154.467 66.3733C160.619 67.2611 165.36 68.3305 168.184 69.4403Z" fill="#019DF4"/>
<path d="M73.6153 64.1739C79.2836 63.8511 85.3756 63.6493 91.7297 63.5282L95.3808 48.6171C88.0988 48.5565 81.321 48.4355 75.1887 48.2337L71.2754 64.295C72.0419 64.2748 72.8286 64.2143 73.6153 64.1739Z" fill="#019DF4"/>
<path d="M53.869 47.3056C45.8406 46.8415 40.0311 46.3371 36.6624 46.0344C34.9276 45.8932 33.4954 47.3258 33.6366 49.061L35.3512 69.6219C38.1147 68.4516 42.9157 67.362 49.2295 66.454L53.869 47.3056Z" fill="#019DF4"/>
<path d="M52.2777 66.0101C51.1884 66.1513 50.1596 66.2724 49.1712 66.4136L45.3789 81.9099C50.4421 82.3135 57.5426 82.8179 66.6401 83.2416L71.2594 64.3353C64.1589 64.7389 57.7443 65.3038 52.2777 66.0101Z" fill="#0B2739"/>
<path opacity="0.15" d="M52.2777 66.0101C51.1884 66.1513 50.1596 66.2724 49.1712 66.4136L45.3789 81.9099C50.4421 82.3135 57.5426 82.8179 66.6401 83.2416L71.2594 64.3353C64.1589 64.7389 57.7443 65.3038 52.2777 66.0101Z" fill="white"/>
<path d="M151.038 65.9496C145.894 65.3039 139.964 64.7793 133.428 64.3556L128.748 83.5242C137.422 83.2619 144.704 82.8382 150.574 82.475L154.508 66.3935C153.358 66.2321 152.208 66.0909 151.038 65.9496Z" fill="#0B2739"/>
<path opacity="0.15" d="M151.038 65.9496C145.894 65.3039 139.964 64.7793 133.428 64.3556L128.748 83.5242C137.422 83.2619 144.704 82.8382 150.574 82.475L154.508 66.3935C153.358 66.2321 152.208 66.0909 151.038 65.9496Z" fill="white"/>
<path d="M112.69 63.5283C109.16 63.4678 105.57 63.4476 101.898 63.4476C98.449 63.4476 95.0803 63.4678 91.7923 63.5283C91.7721 63.5283 91.7722 63.5283 91.7318 63.5283L86.7695 83.8269C91.5099 83.9076 96.5327 83.9479 101.878 83.9479C104.077 83.9479 106.195 83.9479 108.313 83.9278L113.275 63.5485C113.114 63.5283 112.912 63.5283 112.69 63.5283Z" fill="#0B2739"/>
<path opacity="0.15" d="M112.69 63.5283C109.16 63.4678 105.57 63.4476 101.898 63.4476C98.449 63.4476 95.0803 63.4678 91.7923 63.5283C91.7721 63.5283 91.7722 63.5283 91.7318 63.5283L86.7695 83.8269C91.5099 83.9076 96.5327 83.9479 101.878 83.9479C104.077 83.9479 106.195 83.9479 108.313 83.9278L113.275 63.5485C113.114 63.5283 112.912 63.5283 112.69 63.5283Z" fill="white"/>
<path d="M130.543 64.1739C125.137 63.8712 119.347 63.6493 113.316 63.5282L108.354 83.9075C115.817 83.8469 122.615 83.7057 128.727 83.5241L133.407 64.3555C132.459 64.2949 131.511 64.2344 130.543 64.1739Z" fill="#019DF4"/>
<path opacity="0.15" d="M130.543 64.1739C125.137 63.8712 119.347 63.6493 113.316 63.5282L108.354 83.9075C115.817 83.8469 122.615 83.7057 128.727 83.5241L133.407 64.3555C132.459 64.2949 131.511 64.2344 130.543 64.1739Z" fill="white"/>
<path d="M154.449 66.3934L150.516 82.4749C157.636 82.0108 162.578 81.5265 165.241 81.2642C166.572 81.123 167.621 80.0536 167.742 78.7017L168.509 69.5613C168.428 69.5411 168.307 69.4806 168.186 69.4402C165.362 68.3305 160.622 67.2611 154.449 66.3934Z" fill="#019DF4"/>
<path opacity="0.15" d="M154.449 66.3934L150.516 82.4749C157.636 82.0108 162.578 81.5265 165.241 81.2642C166.572 81.123 167.621 80.0536 167.742 78.7017L168.509 69.5613C168.428 69.5411 168.307 69.4806 168.186 69.4402C165.362 68.3305 160.622 67.2611 154.449 66.3934Z" fill="white"/>
<path d="M73.6168 64.174C72.8301 64.1941 72.0233 64.2547 71.2366 64.3152L66.6172 83.2215C72.4872 83.4838 79.2246 83.6855 86.7487 83.847L91.711 63.5485C85.3771 63.6292 79.3053 63.8511 73.6168 64.174Z" fill="#019DF4"/>
<path opacity="0.15" d="M73.6168 64.174C72.8301 64.1941 72.0233 64.2547 71.2366 64.3152L66.6172 83.2215C72.4872 83.4838 79.2246 83.6855 86.7487 83.847L91.711 63.5485C85.3771 63.6292 79.3053 63.8511 73.6168 64.174Z" fill="white"/>
<path d="M35.3105 69.5815L36.0771 78.7219C36.1981 80.0536 37.2269 81.123 38.5784 81.2845C40.1115 81.4661 42.3909 81.6678 45.4368 81.9301L49.2292 66.4338C42.875 67.3216 38.0741 68.4112 35.3105 69.5815Z" fill="#019DF4"/>
<path opacity="0.15" d="M35.3105 69.5815L36.0771 78.7219C36.1981 80.0536 37.2269 81.123 38.5784 81.2845C40.1115 81.4661 42.3909 81.6678 45.4368 81.9301L49.2292 66.4338C42.875 67.3216 38.0741 68.4112 35.3105 69.5815Z" fill="white"/>
<path d="M44.448 126.058H48.3815L52.2142 90.8888C50.0356 91.938 48.0789 93.2697 46.3038 94.8839L43.0763 124.565C43.0158 125.352 43.6411 126.058 44.448 126.058Z" fill="#B6B7B7"/>
<path d="M63.009 88.4071C61.6575 88.4071 60.306 88.5282 59.015 88.7299C56.6347 89.1133 54.3351 89.8397 52.2574 90.8486L48.4247 126.038L48.3037 127.087C48.223 127.915 48.8685 128.621 49.6552 128.621H58.8939C59.5999 128.621 60.1849 128.096 60.2454 127.39L64.4815 88.4273C64.0176 88.4475 63.5133 88.4071 63.009 88.4071Z" fill="#D3D4D3"/>
<path d="M155.415 126.058H159.368C160.195 126.058 160.801 125.352 160.72 124.525L157.492 94.8437C155.737 93.2497 153.761 91.8978 151.582 90.8486L155.415 126.058Z" fill="#B6B7B7"/>
<path d="M155.538 127.108L155.417 126.058L151.584 90.889C149.466 89.86 147.207 89.1538 144.827 88.7704C143.536 88.5686 142.184 88.4476 140.833 88.4476C140.328 88.4476 139.824 88.4678 139.34 88.5081L143.576 127.471C143.657 128.177 144.262 128.702 144.927 128.702H154.166C154.973 128.641 155.619 127.935 155.538 127.108Z" fill="#D3D4D3"/>
<path d="M64.4802 33.3831C65.045 32.5558 65.3678 31.5873 65.3678 30.4977C65.3678 27.6527 63.0682 25.3525 60.2239 25.3525C58.6909 25.3525 57.3192 26.0385 56.3711 27.0877C56.8149 27.007 57.2587 26.9465 57.7226 26.9465C61.3334 26.9667 64.2987 29.8319 64.4802 33.3831Z" fill="#F8D2B3"/>
<path d="M180.168 131.163L162.941 133.181C161.973 133.403 160.944 133.403 159.996 133.181L142.769 131.163C142.366 131.082 142.366 130.517 142.769 130.416L159.996 128.399C160.964 128.177 161.993 128.177 162.941 128.399L180.168 130.416C180.572 130.497 180.572 131.062 180.168 131.163Z" fill="#9F591F"/>
<path d="M164.213 90.9899H158.686C158.262 90.9899 157.859 91.2925 157.778 91.7364L149.205 130.78C149.205 130.78 155.539 132.374 161.449 132.374C167.562 132.374 173.694 130.78 173.694 130.78L165.121 91.7364C165.04 91.3127 164.677 90.9899 164.213 90.9899Z" fill="#F28D15"/>
<path d="M164.208 90.9899C160.799 90.9697 162.211 101.644 158.64 112.539C155.554 121.962 156.744 128.903 162.614 129.468C168.343 130.013 172.922 127.309 172.922 127.309L165.116 91.6961C165.035 91.3127 164.531 90.9899 164.208 90.9899Z" fill="#F5A94F"/>
<path d="M155.494 102.168L154.566 106.426H168.364L167.436 102.168H155.494Z" fill="#F8D2B3"/>
<path d="M153.197 112.56L151.543 120.146H171.352L169.677 112.56H153.197Z" fill="#F8D2B3"/>
</svg>
