<svg width="219" height="42" viewBox="0 0 219 42" fill="none" xmlns="http://www.w3.org/2000/svg">
<g clip-path="url(#clip0)">
<path d="M10.5233 29.8383C11.5059 29.8383 12.3373 29.5815 13.0176 29.0527C13.6978 28.5239 14.1211 27.829 14.2874 26.9527H20.3492C20.1074 29.4304 19.0643 31.4398 17.22 32.9657C15.4211 34.4916 13.1838 35.2621 10.493 35.2621C7.45456 35.2621 4.96028 34.3254 2.97997 32.452C0.984548 30.6088 0.00195312 28.1916 0.00195312 25.2153C0.00195312 22.2844 0.984548 19.8973 2.96485 18.0542C4.97539 16.1506 7.46967 15.2139 10.4779 15.2139C13.1083 15.2139 15.3607 15.9995 17.2049 17.5405C19.0492 19.0664 20.0922 21.0606 20.3341 23.5081H14.2874C14.1362 22.6319 13.7129 21.9369 13.0176 21.4081C12.3373 20.8793 11.5059 20.6225 10.5233 20.6225C9.20811 20.6225 8.13482 21.0455 7.33362 21.8916C6.53243 22.7376 6.12427 23.8405 6.12427 25.2153C6.12427 26.5901 6.53243 27.7081 7.33362 28.5542C8.14993 29.4153 9.20811 29.8383 10.5233 29.8383Z" fill="#4B22F4"/>
<path d="M36.5241 15.3193V21.4078C33.6519 21.5136 31.4448 22.3143 29.918 23.8251V34.8236H23.4631V15.6366H29.918V17.6913C31.7623 16.1049 33.9693 15.3193 36.5241 15.3193Z" fill="#4B22F4"/>
<path d="M58.2473 24.8069C58.2473 25.8342 58.202 26.6047 58.1264 27.1033H44.4759C45.0806 29.158 46.5167 30.1853 48.7842 30.1853C50.1296 30.1853 51.1122 29.717 51.7169 28.7954H58.081C57.6124 30.7745 56.524 32.3457 54.8158 33.509C53.1076 34.6724 51.082 35.2465 48.7086 35.2465C45.5945 35.2465 43.07 34.3098 41.1048 32.4364C39.185 30.5932 38.2175 28.1759 38.2175 25.1997C38.2175 22.2687 39.1548 19.8666 41.0293 18.0083C42.9491 16.1349 45.4283 15.1982 48.4667 15.1982C51.2634 15.1982 53.5913 16.0896 55.4658 17.8875C57.3252 19.6551 58.2473 21.9666 58.2473 24.8069ZM48.4365 20.1536C46.305 20.1536 44.9596 21.2263 44.4457 23.3565H52.2459C51.8983 21.2112 50.6284 20.1536 48.4365 20.1536Z" fill="#4B22F4"/>
<path d="M73.4853 15.0476C75.9191 15.0476 77.8843 15.8484 79.3808 17.4649C80.8774 19.0512 81.6333 21.1814 81.6333 23.8707V34.8239H75.2237V24.898C75.2237 23.5836 74.9063 22.5714 74.2865 21.8915C73.6667 21.2117 72.805 20.8642 71.7015 20.8642C70.4922 20.8642 69.3282 21.4987 68.2246 22.7678V34.8239H61.7698V6.73828H68.2246V16.9059C69.8573 15.6671 71.6108 15.0476 73.4853 15.0476Z" fill="#4B22F4"/>
<path d="M106.092 15.6369V34.8239H99.6825V33.7513C98.1557 34.7333 96.4021 35.2167 94.4218 35.2167C91.7763 35.2167 89.539 34.2498 87.6948 32.3311C85.8203 30.3822 84.8831 28.0103 84.8831 25.2153C84.8831 22.4203 85.8203 20.0484 87.6948 18.0995C89.539 16.1808 91.7915 15.2139 94.4218 15.2139C96.4021 15.2139 98.1557 15.6973 99.6825 16.6793V15.652H106.092V15.6369ZM95.7369 29.9592C97.294 29.9592 98.6092 29.37 99.6976 28.1765V22.2088C98.6092 21.0153 97.294 20.4261 95.7369 20.4261C94.4369 20.4261 93.3636 20.8944 92.4868 21.816C91.6101 22.7376 91.1868 23.8707 91.1868 25.2153C91.1868 26.5599 91.6252 27.693 92.4868 28.5995C93.3485 29.506 94.4369 29.9592 95.7369 29.9592Z" fill="#4B22F4"/>
<path d="M122.161 15.0479C124.595 15.0479 126.56 15.8486 128.057 17.4651C129.554 19.0514 130.309 21.1817 130.309 23.8709V34.8241H123.9V24.8982C123.9 23.5838 123.582 22.5716 122.963 21.8917C122.343 21.2119 121.481 20.8644 120.378 20.8644C119.168 20.8644 118.004 21.4989 116.901 22.768V34.8241H110.446V15.6371H116.901V16.9061C118.533 15.6673 120.287 15.0479 122.161 15.0479Z" fill="#4B22F4"/>
<path d="M154.768 15.6369V34.8239H148.359V33.7513C146.832 34.7333 145.078 35.2167 143.098 35.2167C140.453 35.2167 138.215 34.2498 136.371 32.3311C134.497 30.3822 133.559 28.0103 133.559 25.2153C133.559 22.4203 134.497 20.0484 136.371 18.0995C138.215 16.1808 140.468 15.2139 143.098 15.2139C145.078 15.2139 146.832 15.6973 148.359 16.6793V15.652H154.768V15.6369ZM144.398 29.9592C145.955 29.9592 147.27 29.37 148.359 28.1765V22.2088C147.27 21.0153 145.955 20.4261 144.398 20.4261C143.098 20.4261 142.025 20.8944 141.148 21.816C140.271 22.7376 139.848 23.8707 139.848 25.2153C139.848 26.5599 140.286 27.693 141.148 28.5995C142.025 29.506 143.113 29.9592 144.398 29.9592Z" fill="#4B22F4"/>
<path d="M196.989 0C185.38 0 175.977 9.39712 175.977 21C175.977 32.6029 185.38 42 196.989 42C208.599 42 218.002 32.6029 218.002 21C218.002 9.39712 208.599 0 196.989 0Z" fill="#4B22F4"/>
<path d="M193.407 10.4092H186.393V17.2228H193.407V10.4092Z" fill="#03CAD2"/>
<path d="M200.436 10.3643V17.2233H193.407V24.0974H200.436V30.9563H207.39V24.0974V17.2233V10.3643H200.436Z" fill="white"/>
<path d="M193.407 24.0977H186.393V30.9718H193.407V24.0977Z" fill="white"/>
</g>
<defs>
<clipPath id="clip0">
<rect width="218" height="42" fill="white" transform="translate(0.00195312)"/>
</clipPath>
</defs>
</svg>
