<svg width="200" height="33" viewBox="0 0 200 33" fill="none" xmlns="http://www.w3.org/2000/svg">
<g clip-path="url(#clip0)">
<path d="M62.9713 0.381836V25.1315H58.321V23.0855C56.9197 24.8234 54.7496 25.7847 52.5174 25.6492C47.7431 25.6492 43.8741 21.5448 43.8741 16.2818C43.8741 11.0188 47.7431 6.91436 52.5174 6.91436C54.762 6.77878 56.9197 7.74018 58.321 9.47807V0.381836H62.9713ZM58.321 16.2818C58.2466 13.5948 56.0021 11.4625 53.2863 11.5364C50.5829 11.6104 48.4376 13.8413 48.512 16.5406C48.5864 19.1783 50.7565 21.2859 53.4103 21.2859C56.0145 21.3969 58.2094 19.4001 58.321 16.8118C58.3334 16.6392 58.3334 16.4666 58.321 16.2818Z" fill="#151819"/>
<path d="M84.5114 7.44455V25.144H79.8611V23.098C78.4226 24.7866 76.2773 25.7356 74.0575 25.6617C69.2832 25.6617 65.4142 21.5573 65.4142 16.2943C65.4142 11.0313 69.2832 6.92687 74.0575 6.92687C76.2897 6.85292 78.4226 7.80199 79.8611 9.49058V7.44455H84.5114ZM79.9975 16.2819C79.9231 13.595 77.6786 11.4627 74.9628 11.5366C72.2594 11.6106 70.1141 13.8415 70.1885 16.5408C70.2629 19.1784 72.433 21.2861 75.0868 21.2861C77.691 21.397 79.8859 19.4003 79.9975 16.8119C80.0099 16.6394 80.0099 16.4668 79.9975 16.2819Z" fill="#151819"/>
<path d="M94.1971 11.9312V19.2403C94.1971 21.1631 95.6108 21.1631 98.2026 21.0398V25.1442C91.7541 25.9084 89.5592 23.9856 89.5592 19.2403V11.9312H86.459V7.56801H89.5592V3.98128L94.2095 2.57617V7.58034H98.215V11.9436H94.1971V11.9312Z" fill="#151819"/>
<path d="M118.329 7.44455V25.144H113.679V23.098C112.24 24.7866 110.095 25.7356 107.875 25.6617C103.101 25.6617 99.2317 21.5573 99.2317 16.2943C99.2317 11.0313 103.101 6.92687 107.875 6.92687C110.107 6.85292 112.24 7.80199 113.679 9.49058V7.44455H118.329ZM113.679 16.2819C113.604 13.595 111.36 11.4627 108.644 11.5366C105.941 11.6106 103.795 13.8415 103.87 16.5408C103.944 19.1784 106.114 21.2861 108.768 21.2861C111.36 21.397 113.567 19.4003 113.679 16.8119C113.691 16.6394 113.691 16.4668 113.679 16.2819Z" fill="#151819"/>
<path d="M139.869 7.44426V24.2439C139.869 30.0123 135.219 32.7116 130.581 32.7116C126.712 32.7116 123.748 31.3065 122.198 28.3484L126.067 26.1667C126.836 27.5718 128.001 28.6072 130.717 28.6072C133.557 28.6072 135.367 27.0665 135.367 24.2439V22.3212C134.016 24.0714 131.908 25.0698 129.688 25.0205C124.628 25.0205 120.524 20.9407 120.536 15.9119C120.536 10.8831 124.641 6.81566 129.688 6.81566C131.908 6.72938 134.041 7.74007 135.367 9.51495V7.30868H139.881L139.869 7.44426ZM135.355 16.0352C135.429 13.4098 133.359 11.2282 130.717 11.1542C130.581 11.1542 130.457 11.1542 130.32 11.1542C127.642 11.0556 125.385 13.1263 125.286 15.7886C125.286 15.8626 125.286 15.9489 125.286 16.0228C125.286 18.7837 127.543 21.027 130.32 21.027C133.098 21.027 135.355 18.7961 135.355 16.0352Z" fill="#151819"/>
<path d="M153.286 7.18589V12.3133C150.967 12.0545 147.867 13.0775 147.867 16.7998V25.2674H143.229V7.44473H147.879V10.5261C148.785 8.38147 150.955 7.03799 153.286 7.18589Z" fill="#151819"/>
<path d="M172.78 7.44455V25.144H168.13V23.098C166.692 24.7866 164.546 25.7356 162.327 25.6617C157.552 25.6617 153.683 21.5573 153.683 16.2943C153.683 11.0313 157.552 6.92687 162.327 6.92687C164.559 6.85292 166.692 7.80199 168.13 9.49058V7.44455H172.78ZM168.13 16.2819C168.056 13.595 165.811 11.4627 163.095 11.5366C160.392 11.6106 158.247 13.8415 158.321 16.5408C158.396 19.1784 160.566 21.2861 163.219 21.2861C165.811 21.397 168.019 19.4003 168.13 16.8119C168.143 16.6394 168.143 16.4668 168.13 16.2819Z" fill="#151819"/>
<path d="M192.77 14.3593V25.2673H188.257V15.0125C188.48 13.25 187.227 11.6476 185.454 11.4381C185.231 11.4135 184.995 11.4011 184.772 11.4258C182.577 11.4258 180.903 12.7076 180.903 15.789V25.2797H176.253V7.44463H180.903V9.36741C182.143 7.72812 184.127 6.8037 186.198 6.92696C189.931 7.05022 192.77 9.61392 192.77 14.3593Z" fill="#151819"/>
<path d="M200.001 9.87307C200.001 11.2166 198.897 12.3135 197.545 12.3135C196.206 12.2642 195.139 11.2042 195.09 9.87307C195.09 8.52959 196.193 7.43262 197.545 7.43262C198.884 7.48192 199.951 8.55424 200.001 9.87307ZM199.74 9.87307C199.765 8.64052 198.785 7.6175 197.545 7.5682C196.33 7.5682 195.338 8.55424 195.35 9.77447C195.35 9.81144 195.35 9.84842 195.35 9.88539C195.325 11.1179 196.305 12.141 197.545 12.1903C198.76 12.1903 199.753 11.2042 199.74 9.984C199.74 9.94702 199.74 9.91005 199.74 9.87307ZM198.066 10.2552L198.587 11.1549H198.066L197.682 10.2552H197.297V11.1549H196.776V8.59122H197.682C198.326 8.59122 198.587 8.97331 198.587 9.3554C198.587 9.87307 198.45 10.1319 198.066 10.2552ZM197.297 9.87307H197.682C197.892 9.87307 198.066 9.70051 198.066 9.49098C198.066 9.28144 197.892 9.10889 197.682 9.10889H197.297V9.87307Z" fill="#151819"/>
<path d="M25.942 13.0769C25.8304 20.2011 19.94 25.8831 12.7848 25.7722C5.61709 25.6736 -0.099674 19.819 -0.000467616 12.6948C0.11114 5.63229 5.91471 -0.0374544 13.0328 -0.000477812C20.1012 -0.0621054 25.88 5.59531 25.942 12.6209C25.942 12.7811 25.942 12.929 25.942 13.0769Z" fill="#00FF7F"/>
<path d="M34.0651 0.517578H29.0304V25.1317H38.9634V0.517578H34.0651Z" fill="#00FF7F"/>
</g>
<defs>
<clipPath id="clip0">
<rect width="200" height="32.6996" fill="white"/>
</clipPath>
</defs>
</svg>
