<svg width="113" height="107" viewBox="0 0 113 107" fill="none" xmlns="http://www.w3.org/2000/svg">
<g style="mix-blend-mode:multiply" opacity="0.05">
<path d="M24.3695 10.9831C50.0604 -1.98403 79.9353 20.0563 107.225 29.4571C128.232 36.6904 135.838 71.9121 118.103 87.3365C102.404 100.997 38.8199 120.189 14.4154 93.9397C-14.8974 62.4104 6.73436 19.8672 24.3695 10.9831Z" fill="black"/>
</g>
<path opacity="0.15" d="M105.683 91.5925C128.865 96.2098 23.3438 95.4635 11.9591 93.287C0.948675 91.1727 88.012 88.079 105.683 91.5925Z" fill="black"/>
<path d="M93.8657 0H33.036C30.1934 0 27.8984 2.23936 27.8984 5.0131V87.8951C27.8984 90.6565 30.137 92.8951 32.8984 92.8951H94.0033C96.7647 92.8951 99.0033 90.6565 99.0033 87.8951V5.0131C99.0033 2.23936 96.6953 0 93.8657 0Z" fill="white"/>
<path d="M40.1755 24.9032H86.7297C88.024 24.9032 89.0673 23.8574 89.0673 22.56V14.0346C89.0673 12.7372 88.024 11.6914 86.7297 11.6914H40.1755C38.8812 11.6914 37.8379 12.7372 37.8379 14.0346V22.5732C37.8379 23.8574 38.8812 24.9032 40.1755 24.9032Z" fill="#0B2739"/>
<path d="M39.5812 33.5999H87.3372C88.3013 33.5999 89.0805 32.8188 89.0805 31.8524C89.0805 30.886 88.3013 30.105 87.3372 30.105H39.5812C38.6171 30.105 37.8379 30.886 37.8379 31.8524C37.8379 32.8188 38.6171 33.5999 39.5812 33.5999Z" fill="#E7E9EB"/>
<path d="M39.5812 42.2971H60.6065C61.5706 42.2971 62.3498 41.5161 62.3498 40.5497C62.3498 39.5833 61.5706 38.8022 60.6065 38.8022H39.5812C38.6171 38.8022 37.8379 39.5833 37.8379 40.5497C37.8379 41.5161 38.6171 42.2971 39.5812 42.2971Z" fill="#E7E9EB"/>
<path d="M39.5812 50.9954H60.6065C61.5706 50.9954 62.3498 50.2143 62.3498 49.2479C62.3498 48.2815 61.5706 47.5005 60.6065 47.5005H39.5812C38.6171 47.5005 37.8379 48.2815 37.8379 49.2479C37.8379 50.2143 38.6171 50.9954 39.5812 50.9954Z" fill="#E7E9EB"/>
<path d="M39.5812 59.6785H60.6065C61.5706 59.6785 62.3498 58.8975 62.3498 57.9311C62.3498 56.9647 61.5706 56.1836 60.6065 56.1836H39.5812C38.6171 56.1836 37.8379 56.9647 37.8379 57.9311C37.8379 58.8975 38.6171 59.6785 39.5812 59.6785Z" fill="#E7E9EB"/>
<path d="M66.298 42.2971H87.3233C88.2874 42.2971 89.0666 41.5161 89.0666 40.5497C89.0666 39.5833 88.2874 38.8022 87.3233 38.8022H66.298C65.3339 38.8022 64.5547 39.5833 64.5547 40.5497C64.5679 41.5161 65.3471 42.2971 66.298 42.2971Z" fill="#E7E9EB"/>
<path d="M66.298 50.9954H87.3233C88.2874 50.9954 89.0666 50.2143 89.0666 49.2479C89.0666 48.2815 88.2874 47.5005 87.3233 47.5005H66.298C65.3339 47.5005 64.5547 48.2815 64.5547 49.2479C64.5679 50.2143 65.3471 50.9954 66.298 50.9954Z" fill="#E7E9EB"/>
<path d="M39.5812 68.3767H60.6065C61.5706 68.3767 62.3498 67.5957 62.3498 66.6293C62.3498 65.6629 61.5706 64.8818 60.6065 64.8818H39.5812C38.6171 64.8818 37.8379 65.6629 37.8379 66.6293C37.8379 67.5957 38.6171 68.3767 39.5812 68.3767Z" fill="#E7E9EB"/>
<path opacity="0.03" d="M94.0038 92.8951C96.7652 92.8951 99.0038 90.6565 99.0038 87.8951V5.10217C99.0038 2.29025 96.761 0 93.9966 0H78.2056C83.0042 78.441 92.0407 79.2681 87.0204 81.7746C87.0204 81.7746 54.6822 79.1917 38.9565 85.8844C27.9902 90.5412 32.4873 92.8951 32.4873 92.8951H94.0038Z" fill="black"/>
<path d="M70.7332 78.1726C70.4426 77.974 70.3105 77.749 70.3105 77.418C70.3238 76.9812 70.6803 76.6237 71.1162 76.6237C71.3275 76.637 71.5388 76.7032 71.7105 76.8223C72.9651 77.6696 74.7348 78.5036 76.7819 78.5036C79.8459 78.5036 81.7213 76.9282 81.7213 74.5983C81.7213 72.692 80.6515 71.3417 77.1517 70.8916L76.2536 70.7857C72.5293 70.2959 70.7992 68.5087 70.7992 65.7287C70.7992 62.4059 73.15 60.3672 76.7687 60.3672C78.7893 60.3672 80.493 60.91 81.6684 61.6248C82.025 61.8499 82.2099 62.1279 82.2099 62.4059C82.2099 62.8295 81.8798 63.1605 81.4703 63.1605H81.4571C81.259 63.1472 81.0741 63.0943 80.9024 63.0016C79.6082 62.3 78.2743 61.8763 76.7291 61.8763C73.9556 61.8763 72.4104 63.4252 72.4104 65.5831C72.4104 67.5556 73.6123 68.8132 76.9008 69.2368L77.7724 69.3427C81.5496 69.8193 83.3589 71.6197 83.3589 74.4791C83.3589 77.7093 81.0609 80.0127 76.6366 80.0127C74.4971 80.0127 72.4633 79.3641 70.7332 78.1726Z" fill="#019DF4"/>
<path d="M76.5999 80.8604C74.3415 80.8339 72.136 80.1455 70.2738 78.8481C69.7587 78.4907 69.5078 78.0009 69.5078 77.4184C69.521 76.5182 70.2474 75.8033 71.1455 75.8033C71.5153 75.8166 71.885 75.9225 72.1888 76.1343C73.7208 77.1536 75.2792 77.6832 76.798 77.6832C79.3337 77.6832 80.9053 76.505 80.9053 74.6119C80.9053 73.3675 80.4299 72.1496 77.0621 71.726L76.1641 71.6201C71.053 70.9581 69.9833 68.059 69.9833 65.7555C69.9833 61.9958 72.651 59.5732 76.7716 59.5732C78.7658 59.5732 80.6676 60.0631 82.1072 60.9633C82.9128 61.4531 83.0317 62.1018 83.0317 62.4459C83.0317 63.3197 82.3185 64.0345 81.4468 64.0345C81.1167 64.0213 80.7997 63.9419 80.5091 63.783L80.4827 63.7698C79.2017 63.0681 77.9998 62.7504 76.7056 62.7504C74.5264 62.7504 73.2057 63.8227 73.2057 65.6231C73.2057 66.3777 73.2057 67.9795 76.9829 68.4561L77.8546 68.562C83.0449 69.2239 84.141 72.1628 84.141 74.5192C84.141 76.3991 83.4543 77.9877 82.16 79.1261C80.8393 80.2382 78.9111 80.8604 76.5999 80.8604ZM71.2115 77.5111C71.6869 77.842 72.1756 78.12 72.7039 78.3583C72.2152 78.12 71.7266 77.842 71.2643 77.5243C71.2379 77.4978 71.1983 77.4978 71.1719 77.4846C71.1851 77.4714 71.1851 77.4846 71.2115 77.5111ZM78.5941 70.3227C80.3639 70.7463 81.5261 71.5141 82.1072 72.6262C81.3808 71.1038 79.7696 70.561 78.5941 70.3227ZM71.8322 67.172C72.2813 68.4826 73.417 69.3431 75.2528 69.7667C73.4567 69.3034 72.3209 68.4561 71.8322 67.172Z" fill="#019DF4"/>
<path d="M76.7446 83.826C75.8333 83.826 75.0938 83.0846 75.0938 82.1712V57.8525C75.0938 56.9391 75.8333 56.1978 76.7446 56.1978C77.6559 56.1978 78.3955 56.9391 78.3955 57.8525V82.1844C78.3955 83.0714 77.6559 83.826 76.7446 83.826Z" fill="#019DF4"/>
<path d="M38.6435 84.2997C38.1945 84.2997 37.8379 83.9423 37.8379 83.4922V73.8945C37.8379 73.4444 38.1945 73.0869 38.6435 73.0869C39.0925 73.0869 39.4491 73.4444 39.4491 73.8945V83.4922C39.4491 83.929 39.0925 84.2997 38.6435 84.2997Z" fill="#0B2739"/>
<path d="M41.9853 84.3012C41.5363 84.3012 41.1797 83.9437 41.1797 83.4936V73.8959C41.1797 73.4458 41.5363 73.0884 41.9853 73.0884C42.4343 73.0884 42.7909 73.4458 42.7909 73.8959V83.4936C42.7909 83.9305 42.4343 84.3012 41.9853 84.3012Z" fill="#0B2739"/>
<path d="M48.2451 84.3012C47.796 84.3012 47.4395 83.9437 47.4395 83.4936V73.8959C47.4395 73.4458 47.796 73.0884 48.2451 73.0884C48.6941 73.0884 49.0507 73.4458 49.0507 73.8959V83.4936C49.0639 83.9305 48.6941 84.3012 48.2451 84.3012Z" fill="#0B2739"/>
<path d="M54.2808 84.3012H52.2998C51.8507 84.3012 51.4941 83.9437 51.4941 83.4936V73.8959C51.4941 73.4458 51.8507 73.0884 52.2998 73.0884H54.2808C54.7298 73.0884 55.0864 73.4458 55.0864 73.8959V83.4936C55.0864 83.9305 54.7166 84.3012 54.2808 84.3012Z" fill="#0B2739"/>
<path d="M58.3877 84.3012C57.9386 84.3012 57.582 83.9437 57.582 83.4936V73.8959C57.582 73.4458 57.9386 73.0884 58.3877 73.0884C58.8367 73.0884 59.1933 73.4458 59.1933 73.8959V83.4936C59.1933 83.9305 58.8235 84.3012 58.3877 84.3012Z" fill="#0B2739"/>
<path d="M61.8056 84.3017C61.5151 84.3017 61.2773 84.0634 61.2773 83.7722V73.6052C61.2773 73.314 61.5151 73.0757 61.8056 73.0757C62.0962 73.0757 62.3339 73.314 62.3339 73.6052V83.7589C62.3339 84.0634 62.0962 84.3017 61.8056 84.3017Z" fill="#0B2739"/>
<path d="M45.0869 84.3017C44.7963 84.3017 44.5586 84.0634 44.5586 83.7722V73.6052C44.5586 73.314 44.7963 73.0757 45.0869 73.0757C45.3774 73.0757 45.6151 73.314 45.6151 73.6052V83.7589C45.6151 84.0634 45.3774 84.3017 45.0869 84.3017Z" fill="#0B2739"/>
</svg>
