<svg width="179" height="167" viewBox="0 0 179 167" fill="none" xmlns="http://www.w3.org/2000/svg">
<g style="mix-blend-mode:multiply" opacity="0.05">
<path d="M37.887 17.3995C77.8283 -2.76032 124.274 31.5054 166.701 46.1208C199.361 57.3664 211.186 112.125 183.614 136.105C159.206 157.342 60.3528 187.181 22.4114 146.371C-23.1609 97.3529 10.4698 31.2116 37.887 17.3995Z" fill="black"/>
</g>
<path opacity="0.15" d="M164.304 142.722C200.345 149.9 36.2922 148.74 18.5926 145.356C1.47489 142.069 136.831 137.26 164.304 142.722Z" fill="black"/>
<path d="M145.932 0.324219H51.3604C46.941 0.324219 43.373 3.80572 43.373 8.11803V139.747C43.373 142.508 45.6116 144.747 48.373 144.747H148.919C151.68 144.747 153.919 142.508 153.919 139.747V8.11803C153.919 3.80572 150.331 0.324219 145.932 0.324219Z" fill="white"/>
<path d="M62.4604 39.0407H134.838C136.85 39.0407 138.472 37.4147 138.472 35.3978V22.1434C138.472 20.1264 136.85 18.5005 134.838 18.5005H62.4604C60.4482 18.5005 58.8262 20.1264 58.8262 22.1434V35.4183C58.8262 37.4147 60.4482 39.0407 62.4604 39.0407Z" fill="#0B2739"/>
<path d="M61.5365 52.5614H135.782C137.281 52.5614 138.492 51.3471 138.492 49.8447C138.492 48.3422 137.281 47.1279 135.782 47.1279H61.5365C60.0376 47.1279 58.8262 48.3422 58.8262 49.8447C58.8262 51.3471 60.0376 52.5614 61.5365 52.5614Z" fill="#E7E9EB"/>
<path d="M61.5365 66.0829H94.2243C95.7232 66.0829 96.9346 64.8686 96.9346 63.3661C96.9346 61.8637 95.7232 60.6494 94.2243 60.6494H61.5365C60.0376 60.6494 58.8262 61.8637 58.8262 63.3661C58.8262 64.8686 60.0376 66.0829 61.5365 66.0829Z" fill="#E7E9EB"/>
<path d="M61.5365 79.6058H94.2243C95.7232 79.6058 96.9346 78.3915 96.9346 76.8891C96.9346 75.3867 95.7232 74.1724 94.2243 74.1724H61.5365C60.0376 74.1724 58.8262 75.3867 58.8262 76.8891C58.8262 78.3915 60.0376 79.6058 61.5365 79.6058Z" fill="#E7E9EB"/>
<path d="M61.5365 93.1059H94.2243C95.7232 93.1059 96.9346 91.8916 96.9346 90.3891C96.9346 88.8867 95.7232 87.6724 94.2243 87.6724H61.5365C60.0376 87.6724 58.8262 88.8867 58.8262 90.3891C58.8262 91.8916 60.0376 93.1059 61.5365 93.1059Z" fill="#E7E9EB"/>
<path d="M103.074 66.0829H135.761C137.26 66.0829 138.472 64.8686 138.472 63.3661C138.472 61.8637 137.26 60.6494 135.761 60.6494H103.074C101.575 60.6494 100.363 61.8637 100.363 63.3661C100.384 64.8686 101.595 66.0829 103.074 66.0829Z" fill="#E7E9EB"/>
<path d="M103.074 79.6058H135.761C137.26 79.6058 138.472 78.3915 138.472 76.8891C138.472 75.3867 137.26 74.1724 135.761 74.1724H103.074C101.575 74.1724 100.363 75.3867 100.363 76.8891C100.384 78.3915 101.595 79.6058 103.074 79.6058Z" fill="#E7E9EB"/>
<path d="M61.5365 106.629H94.2243C95.7232 106.629 96.9346 105.414 96.9346 103.912C96.9346 102.41 95.7232 101.195 94.2243 101.195H61.5365C60.0376 101.195 58.8262 102.41 58.8262 103.912C58.8262 105.414 60.0376 106.629 61.5365 106.629Z" fill="#E7E9EB"/>
<path opacity="0.03" d="M148.92 144.747C151.681 144.747 153.92 142.508 153.92 139.747V8.25649C153.92 3.88484 150.433 0.324219 146.135 0.324219H121.585C129.045 122.276 143.094 123.561 135.289 127.458C135.289 127.458 85.0136 123.443 60.565 133.848C43.5159 141.088 50.5075 144.747 50.5075 144.747H148.92Z" fill="black"/>
<path d="M109.968 121.859C109.516 121.55 109.311 121.2 109.311 120.685C109.331 120.006 109.885 119.451 110.563 119.451C110.892 119.471 111.22 119.574 111.487 119.759C113.438 121.077 116.189 122.373 119.371 122.373C124.135 122.373 127.051 119.924 127.051 116.302C127.051 113.338 125.388 111.239 119.946 110.539L118.55 110.374C112.76 109.613 110.07 106.834 110.07 102.512C110.07 97.3463 113.725 94.1768 119.351 94.1768C122.492 94.1768 125.141 95.0206 126.969 96.132C127.523 96.4819 127.81 96.9141 127.81 97.3463C127.81 98.0049 127.297 98.5194 126.661 98.5194H126.64C126.332 98.4988 126.045 98.4165 125.778 98.2724C123.765 97.1816 121.692 96.523 119.289 96.523C114.978 96.523 112.575 98.931 112.575 102.286C112.575 105.352 114.444 107.308 119.556 107.966L120.911 108.131C126.784 108.872 129.597 111.671 129.597 116.116C129.597 121.138 126.024 124.719 119.146 124.719C115.819 124.719 112.657 123.711 109.968 121.859Z" fill="#019DF4"/>
<path d="M119.088 126.037C115.577 125.996 112.148 124.925 109.253 122.908C108.453 122.353 108.062 121.591 108.062 120.686C108.083 119.286 109.212 118.175 110.609 118.175C111.183 118.195 111.758 118.36 112.231 118.689C114.612 120.274 117.035 121.097 119.396 121.097C123.339 121.097 125.782 119.265 125.782 116.322C125.782 114.388 125.043 112.494 119.807 111.836L118.411 111.671C110.465 110.642 108.802 106.135 108.802 102.553C108.802 96.7083 112.949 92.9419 119.355 92.9419C122.456 92.9419 125.413 93.7034 127.651 95.1029C128.903 95.8644 129.088 96.8729 129.088 97.4081C129.088 98.7664 127.979 99.8778 126.624 99.8778C126.111 99.8572 125.618 99.7337 125.166 99.4868L125.125 99.4662C123.133 98.3754 121.265 97.8814 119.253 97.8814C115.865 97.8814 113.812 99.5485 113.812 102.348C113.812 103.521 113.812 106.011 119.684 106.752L121.039 106.917C129.108 107.946 130.813 112.515 130.813 116.178C130.813 119.101 129.745 121.571 127.733 123.341C125.679 125.069 122.682 126.037 119.088 126.037ZM110.711 120.83C111.45 121.344 112.21 121.776 113.031 122.147C112.272 121.776 111.512 121.344 110.793 120.85C110.752 120.809 110.691 120.809 110.65 120.788C110.67 120.768 110.67 120.788 110.711 120.83ZM122.189 109.654C124.94 110.313 126.747 111.506 127.651 113.235C126.521 110.868 124.016 110.024 122.189 109.654ZM111.676 104.756C112.374 106.793 114.14 108.131 116.994 108.79C114.202 108.069 112.436 106.752 111.676 104.756Z" fill="#019DF4"/>
<path d="M119.313 130.648C117.896 130.648 116.746 129.495 116.746 128.075V90.267C116.746 88.8469 117.896 87.6943 119.313 87.6943C120.729 87.6943 121.879 88.8469 121.879 90.267V128.095C121.879 129.474 120.729 130.648 119.313 130.648Z" fill="#019DF4"/>
<path d="M60.0806 131.383C59.3825 131.383 58.8281 130.827 58.8281 130.127V115.206C58.8281 114.506 59.3825 113.95 60.0806 113.95C60.7787 113.95 61.3331 114.506 61.3331 115.206V130.127C61.3331 130.806 60.7787 131.383 60.0806 131.383Z" fill="#0B2739"/>
<path d="M65.2759 131.386C64.5778 131.386 64.0234 130.83 64.0234 130.13V115.209C64.0234 114.509 64.5778 113.953 65.2759 113.953C65.974 113.953 66.5284 114.509 66.5284 115.209V130.13C66.5284 130.809 65.974 131.386 65.2759 131.386Z" fill="#0B2739"/>
<path d="M75.0064 131.386C74.3083 131.386 73.7539 130.83 73.7539 130.13V115.209C73.7539 114.509 74.3083 113.953 75.0064 113.953C75.7045 113.953 76.2589 114.509 76.2589 115.209V130.13C76.2794 130.809 75.7045 131.386 75.0064 131.386Z" fill="#0B2739"/>
<path d="M84.391 131.386H81.3111C80.613 131.386 80.0586 130.83 80.0586 130.13V115.209C80.0586 114.509 80.613 113.953 81.3111 113.953H84.391C85.0891 113.953 85.6435 114.509 85.6435 115.209V130.13C85.6435 130.809 85.0685 131.386 84.391 131.386Z" fill="#0B2739"/>
<path d="M90.7759 131.386C90.0778 131.386 89.5234 130.83 89.5234 130.13V115.209C89.5234 114.509 90.0778 113.953 90.7759 113.953C91.474 113.953 92.0284 114.509 92.0284 115.209V130.13C92.0284 130.809 91.4535 131.386 90.7759 131.386Z" fill="#0B2739"/>
<path d="M96.0889 131.387C95.6372 131.387 95.2676 131.016 95.2676 130.563V114.757C95.2676 114.304 95.6372 113.934 96.0889 113.934C96.5406 113.934 96.9102 114.304 96.9102 114.757V130.543C96.9102 131.016 96.5406 131.387 96.0889 131.387Z" fill="#0B2739"/>
<path d="M70.0967 131.387C69.645 131.387 69.2754 131.016 69.2754 130.563V114.757C69.2754 114.304 69.645 113.934 70.0967 113.934C70.5484 113.934 70.918 114.304 70.918 114.757V130.543C70.918 131.016 70.5484 131.387 70.0967 131.387Z" fill="#0B2739"/>
</svg>
