<svg width="200" height="60" viewBox="0 0 200 60" fill="none" xmlns="http://www.w3.org/2000/svg">
<path d="M7.91905 60.0001C5.87392 60.0001 4.21082 58.336 4.21082 56.2917V54.49C4.21082 53.9059 4.68548 53.4312 5.26956 53.4312H11.7632V22.7585C11.7632 21.4235 12.8493 20.3374 14.1841 20.3374H65.4836C66.8185 20.3374 67.9046 21.4235 67.9046 22.7585V53.4312H74.5958C75.1799 53.4312 75.6546 53.9059 75.6546 54.49V56.2917C75.6546 58.3369 73.9915 60.0001 71.9464 60.0001H7.91905ZM5.97185 56.2917C5.97185 57.3655 6.84531 58.239 7.91905 58.239H71.9472C73.021 58.239 73.8944 57.3655 73.8944 56.2917V55.1923H48.5058V55.7879C48.5058 56.4646 47.9553 57.0143 47.2795 57.0143H32.5083C31.8325 57.0143 31.2819 56.4637 31.2819 55.7879V55.1923H5.97185V56.2917Z" fill="#0B2739"/>
<path d="M71.9866 59.6468H7.95847C6.10832 59.6468 4.60315 58.1415 4.60315 56.2913V54.4905C4.60315 54.1014 4.91989 53.7847 5.30898 53.7847H74.6361C75.0252 53.7847 75.342 54.1014 75.342 54.4905V56.2913C75.342 58.1415 73.8368 59.6468 71.9866 59.6468ZM5.65836 54.839V56.2913C5.65836 57.5601 6.69063 58.5915 7.95847 58.5915H71.9866C73.2554 58.5915 74.2868 57.5592 74.2868 56.2913V54.839H5.65836Z" fill="#0B2739"/>
<path d="M71.9861 59.7348H7.95796C6.05928 59.7348 4.5144 58.1898 4.5144 56.2911V54.4894C4.5144 54.0518 4.87085 53.6953 5.30846 53.6953H74.6356C75.0732 53.6953 75.4297 54.0518 75.4297 54.4894V56.2911C75.4297 58.1898 73.8848 59.7348 71.9861 59.7348ZM5.30846 53.8718C4.9679 53.8718 4.69086 54.1488 4.69086 54.4894V56.2911C4.69086 58.0928 6.15633 59.5583 7.95796 59.5583H71.9861C73.7878 59.5583 75.2532 58.0928 75.2532 56.2911V54.4894C75.2532 54.1488 74.9762 53.8718 74.6356 53.8718H5.30846ZM71.9861 58.6795H7.95796C6.64071 58.6795 5.56962 57.6084 5.56962 56.2911V54.7506H74.3745V56.2911C74.3745 57.6084 73.3034 58.6795 71.9861 58.6795ZM5.74607 54.927V56.2911C5.74607 57.5113 6.73864 58.503 7.95796 58.503H71.9861C73.2054 58.503 74.198 57.5104 74.198 56.2911V54.927H5.74607Z" fill="#0B2739"/>
<path d="M65.6014 22.7794H55.4702V21.7241H66.0082C66.3655 21.7241 66.6566 22.0153 66.6566 22.3726V51.6725C66.6566 52.0299 66.3655 52.321 66.0082 52.321H13.9367C13.5794 52.321 13.2882 52.0299 13.2882 51.6725V22.3726C13.2882 22.0153 13.5794 21.7241 13.9367 21.7241H23.3383V22.7794" fill="#019BF2"/>
<path d="M66.007 52.4091H13.9364C13.5306 52.4091 13.1997 52.0782 13.1997 51.6724V22.3725C13.1997 21.9666 13.5306 21.6357 13.9364 21.6357H23.4263V22.7792H23.2498V21.8122H13.9364C13.6276 21.8122 13.3762 22.0637 13.3762 22.3725V51.6724C13.3762 51.9812 13.6276 52.2326 13.9364 52.2326H66.007C66.3158 52.2326 66.5672 51.9812 66.5672 51.6724V22.3725C66.5672 22.0637 66.3158 21.8122 66.007 21.8122H55.5581V22.691H65.6011V22.8675H55.3817V21.6357H66.0079C66.4146 21.6357 66.7446 21.9666 66.7446 22.3725V51.6724C66.7446 52.0782 66.4137 52.4091 66.007 52.4091Z" fill="#019BF2"/>
<path d="M24.6463 48.6896C24.6251 48.4884 24.7601 48.3032 24.9578 48.2617C25.0275 48.2467 25.9839 48.0296 26.7276 47.3459H24.926C24.5519 47.3459 24.2475 47.0415 24.2475 46.6674V2.12197C24.2475 1.88992 24.4363 1.70022 24.6693 1.70022H41.6223V7.20851C41.6223 9.31106 42.3131 11.1127 43.6198 12.4195C44.9265 13.7262 46.7281 14.417 48.8306 14.417H54.3387V44.5569H56.0388V13.5665C56.0388 13.5109 56.0335 13.4544 56.0221 13.3988C56.0159 13.3697 56.0071 13.3415 55.9903 13.2912C55.9859 13.2735 55.9806 13.2568 55.9735 13.2391C55.9594 13.2056 55.9418 13.1738 55.9188 13.1341L55.8959 13.0935C55.8694 13.0538 55.8385 13.0159 55.805 12.9806L43.0737 0.248813L43.0569 0.233813C43.0225 0.201168 42.9854 0.170287 42.944 0.142935C42.9316 0.134994 42.9184 0.127936 42.8972 0.117348C42.8655 0.0988192 42.8328 0.0802906 42.8002 0.0661736C42.7825 0.059115 42.7649 0.0538212 42.7243 0.0414688C42.6969 0.0317633 42.6696 0.0229402 42.6405 0.0176463C42.5858 0.0061762 42.5293 0 42.472 0H24.6693C23.5982 0 22.5474 1.05084 22.5474 2.12197V46.925C22.5474 48.0349 23.5585 49.0461 24.6693 49.0461L24.6463 48.6896ZM43.3225 2.90193L53.137 12.7168H48.8306C45.4841 12.7168 43.3225 10.5542 43.3225 7.20851V2.90193Z" fill="#019BF2"/>
<path d="M54.3568 22.3737V43.8977L53.7128 44.3036L27.6219 44.1616L27.3934 45.7506L26.729 47.3467C26.729 47.3467 25.5591 47.3467 24.9274 47.3467C24.2965 47.3467 24.2489 46.6682 24.2489 46.6682V43.8977V2.08753C24.2489 1.87313 24.4227 1.7002 24.6362 1.7002H29.8496H41.6237V7.28877C41.6237 7.71317 41.674 8.13756 41.7816 8.54783C42.2334 10.2683 43.8382 14.3967 48.832 14.3967C55.1394 14.3967 54.3401 14.4161 54.3401 14.4161L54.3568 22.3737Z" fill="#954B97"/>
<path d="M26.7878 47.4339H24.928C24.3633 47.4339 24.1798 46.9363 24.1613 46.6734V43.8967V2.08738C24.1613 1.82534 24.3748 1.61182 24.6368 1.61182H41.7125V7.28862C41.7125 7.71743 41.7646 8.13388 41.8678 8.52563C42.3248 10.2647 43.9173 14.3092 48.8325 14.3092C51.0038 14.3092 52.5708 14.3118 53.4901 14.3163C53.8686 14.318 54.0901 14.3198 54.2162 14.3224C54.4139 14.3251 54.4606 14.326 54.4615 14.4142C54.4615 14.4451 54.4509 14.468 54.4289 14.4839L54.4447 22.3744V43.947L53.738 44.3926H53.7124L27.6983 44.2514L27.4751 45.7857L26.7878 47.4339ZM24.6368 1.78828C24.4718 1.78828 24.3377 1.92239 24.3377 2.08738V46.6672C24.3395 46.6848 24.3889 47.2574 24.928 47.2574H26.6705L27.3075 45.7266L27.5448 44.0723L53.6869 44.2143L54.2674 43.8482V22.3727L54.2515 14.498C53.9365 14.4927 52.7878 14.4848 48.8308 14.4848C43.7929 14.4848 42.1625 10.3485 41.6949 8.56974C41.5881 8.163 41.5343 7.73243 41.5343 7.28774V1.78828H24.6368Z" fill="#954B97"/>
<path d="M34.3875 44.8208H28.1356C28.2115 46.319 27.4775 47.2763 26.7205 47.8595H54.3518C56.0881 47.8595 57.5024 46.5351 57.6286 44.8208H34.3875Z" fill="#954B97"/>
<path d="M48.8301 37.6654H29.7552C29.3952 37.6654 29.1031 37.3733 29.1031 37.0134C29.1031 36.6534 29.3952 36.3613 29.7552 36.3613H48.8301C49.1901 36.3613 49.4821 36.6534 49.4821 37.0134C49.4821 37.3733 49.1901 37.6654 48.8301 37.6654Z" fill="white"/>
<path d="M48.8313 37.7102H29.7563C29.3725 37.7102 29.0602 37.3978 29.0602 37.014C29.0602 36.6302 29.3725 36.3179 29.7563 36.3179H48.8313C49.215 36.3179 49.5274 36.6302 49.5274 37.014C49.5274 37.3978 49.215 37.7102 48.8313 37.7102ZM29.7563 36.4061C29.421 36.4061 29.1484 36.6787 29.1484 37.014C29.1484 37.3493 29.421 37.6219 29.7563 37.6219H48.8313C49.1665 37.6219 49.4391 37.3493 49.4391 37.014C49.4391 36.6787 49.1665 36.4061 48.8313 36.4061H29.7563Z" fill="white"/>
<path d="M48.8306 37.9943H29.7557C29.2148 37.9943 28.7737 37.554 28.7737 37.0123C28.7737 36.4705 29.2139 36.0303 29.7557 36.0303H48.8306C49.3723 36.0303 49.8126 36.4705 49.8126 37.0123C49.8126 37.554 49.3723 37.9943 48.8306 37.9943ZM29.7557 36.6902C29.5783 36.6902 29.4336 36.8349 29.4336 37.0123C29.4336 37.1905 29.5783 37.3352 29.7557 37.3352H48.8306C49.008 37.3352 49.1535 37.1905 49.1535 37.0123C49.1535 36.8349 49.0088 36.6902 48.8306 36.6902H29.7557Z" fill="white"/>
<path d="M48.832 38.0401H29.7571C29.1915 38.0401 28.731 37.5795 28.731 37.0139C28.731 36.4484 29.1915 35.9878 29.7571 35.9878H48.832C49.3976 35.9878 49.8581 36.4484 49.8581 37.0139C49.8581 37.5795 49.3976 38.0401 48.832 38.0401ZM29.7571 36.076C29.24 36.076 28.8192 36.4969 28.8192 37.0139C28.8192 37.531 29.24 37.9518 29.7571 37.9518H48.832C49.349 37.9518 49.7699 37.531 49.7699 37.0139C49.7699 36.4969 49.349 36.076 48.832 36.076H29.7571ZM48.832 37.381H29.7571C29.555 37.381 29.3909 37.2169 29.3909 37.0139C29.3909 36.8119 29.555 36.6478 29.7571 36.6478H48.832C49.0341 36.6478 49.1991 36.8119 49.1991 37.0139C49.1991 37.216 49.0341 37.381 48.832 37.381ZM29.7571 36.736C29.6035 36.736 29.4791 36.8604 29.4791 37.0139C29.4791 37.1674 29.6035 37.2927 29.7571 37.2927H48.832C48.9855 37.2927 49.1108 37.1674 49.1108 37.0139C49.1108 36.8604 48.9855 36.736 48.832 36.736H29.7571Z" fill="white"/>
<path d="M48.8301 30.6712H29.7552C29.3952 30.6712 29.1031 30.3792 29.1031 30.0192C29.1031 29.6592 29.3952 29.3672 29.7552 29.3672H48.8301C49.1901 29.3672 49.4821 29.6592 49.4821 30.0192C49.4821 30.3792 49.1901 30.6712 48.8301 30.6712Z" fill="white"/>
<path d="M48.8313 30.716H29.7563C29.3725 30.716 29.0602 30.4037 29.0602 30.0199C29.0602 29.6361 29.3725 29.3237 29.7563 29.3237H48.8313C49.215 29.3237 49.5274 29.6361 49.5274 30.0199C49.5274 30.4037 49.215 30.716 48.8313 30.716ZM29.7563 29.412C29.421 29.412 29.1484 29.6846 29.1484 30.0199C29.1484 30.3552 29.421 30.6278 29.7563 30.6278H48.8313C49.1665 30.6278 49.4391 30.3552 49.4391 30.0199C49.4391 29.6846 49.1665 29.412 48.8313 29.412H29.7563Z" fill="white"/>
<path d="M48.8306 31.0002H29.7557C29.2148 31.0002 28.7737 30.5599 28.7737 30.0181C28.7737 29.4764 29.2139 29.0361 29.7557 29.0361H48.8306C49.3723 29.0361 49.8126 29.4764 49.8126 30.0181C49.8126 30.559 49.3723 31.0002 48.8306 31.0002ZM29.7557 29.6952C29.5783 29.6952 29.4336 29.8399 29.4336 30.0173C29.4336 30.1955 29.5783 30.3393 29.7557 30.3393H48.8306C49.008 30.3393 49.1535 30.1946 49.1535 30.0173C49.1535 29.8399 49.0088 29.6952 48.8306 29.6952H29.7557Z" fill="white"/>
<path d="M48.832 31.0459H29.7571C29.1915 31.0459 28.731 30.5853 28.731 30.0198C28.731 29.4542 29.1915 28.9937 29.7571 28.9937H48.832C49.3976 28.9937 49.8581 29.4542 49.8581 30.0198C49.8581 30.5853 49.3976 31.0459 48.832 31.0459ZM29.7571 29.0819C29.24 29.0819 28.8192 29.5027 28.8192 30.0198C28.8192 30.5368 29.24 30.9577 29.7571 30.9577H48.832C49.349 30.9577 49.7699 30.5368 49.7699 30.0198C49.7699 29.5027 49.349 29.0819 48.832 29.0819H29.7571ZM48.832 30.3859H29.7571C29.555 30.3859 29.3909 30.2218 29.3909 30.0189C29.3909 29.8169 29.555 29.6527 29.7571 29.6527H48.832C49.0341 29.6527 49.1991 29.8169 49.1991 30.0189C49.1991 30.2218 49.0341 30.3859 48.832 30.3859ZM29.7571 29.741C29.6035 29.741 29.4791 29.8654 29.4791 30.0189C29.4791 30.1724 29.6035 30.2977 29.7571 30.2977H48.832C48.9855 30.2977 49.1108 30.1724 49.1108 30.0189C49.1108 29.8654 48.9855 29.741 48.832 29.741H29.7571Z" fill="white"/>
<path d="M48.8301 23.6771H29.7552C29.3952 23.6771 29.1031 23.3851 29.1031 23.0251C29.1031 22.6651 29.3952 22.373 29.7552 22.373H48.8301C49.1901 22.373 49.4821 22.6651 49.4821 23.0251C49.4821 23.3851 49.1901 23.6771 48.8301 23.6771Z" fill="white"/>
<path d="M48.8313 23.7219H29.7563C29.3725 23.7219 29.0602 23.4095 29.0602 23.0257C29.0602 22.6419 29.3725 22.3296 29.7563 22.3296H48.8313C49.215 22.3296 49.5274 22.6419 49.5274 23.0257C49.5274 23.4095 49.215 23.7219 48.8313 23.7219ZM29.7563 22.4178C29.421 22.4178 29.1484 22.6905 29.1484 23.0257C29.1484 23.361 29.421 23.6336 29.7563 23.6336H48.8313C49.1665 23.6336 49.4391 23.361 49.4391 23.0257C49.4391 22.6905 49.1665 22.4178 48.8313 22.4178H29.7563Z" fill="white"/>
<path d="M48.8306 24.005H29.7557C29.2148 24.005 28.7737 23.5648 28.7737 23.023C28.7737 22.4813 29.2139 22.041 29.7557 22.041H48.8306C49.3723 22.041 49.8126 22.4813 49.8126 23.023C49.8126 23.5648 49.3723 24.005 48.8306 24.005ZM29.7557 22.701C29.5783 22.701 29.4336 22.8457 29.4336 23.023C29.4336 23.2004 29.5783 23.3451 29.7557 23.3451H48.8306C49.008 23.3451 49.1535 23.2004 49.1535 23.023C49.1535 22.8448 49.0088 22.701 48.8306 22.701H29.7557Z" fill="white"/>
<path d="M48.832 24.0508H29.7571C29.1915 24.0508 28.731 23.5902 28.731 23.0247C28.731 22.4591 29.1915 21.9985 29.7571 21.9985H48.832C49.3976 21.9985 49.8581 22.4591 49.8581 23.0247C49.8581 23.5911 49.3976 24.0508 48.832 24.0508ZM29.7571 22.0876C29.24 22.0876 28.8192 22.5085 28.8192 23.0255C28.8192 23.5426 29.24 23.9634 29.7571 23.9634H48.832C49.349 23.9634 49.7699 23.5426 49.7699 23.0255C49.7699 22.5085 49.349 22.0876 48.832 22.0876H29.7571ZM48.832 23.3917H29.7571C29.555 23.3917 29.3909 23.2276 29.3909 23.0255C29.3909 22.8235 29.555 22.6594 29.7571 22.6594H48.832C49.0341 22.6594 49.1991 22.8235 49.1991 23.0255C49.1991 23.2276 49.0341 23.3917 48.832 23.3917ZM29.7571 22.7467C29.6035 22.7467 29.4791 22.872 29.4791 23.0247C29.4791 23.1782 29.6035 23.3026 29.7571 23.3026H48.832C48.9855 23.3026 49.1108 23.1782 49.1108 23.0247C49.1108 22.8711 48.9855 22.7467 48.832 22.7467H29.7571Z" fill="white"/>
<path d="M5.75647 54.8394V56.2916C5.75647 57.5604 6.78874 58.5918 8.05658 58.5918H72.0847C73.3535 58.5918 74.3849 57.5595 74.3849 56.2916V54.8394H5.75647Z" fill="white"/>
<path d="M47.7228 56.3974H32.1408C32.0279 56.3974 31.937 56.3057 31.937 56.1936V54.7925H47.9266V56.1936C47.9266 56.3057 47.8357 56.3974 47.7228 56.3974Z" fill="#0B2739"/>
<path d="M47.3189 56.6614H32.5486C32.0669 56.6614 31.6752 56.2696 31.6752 55.7879V54.7926L31.939 54.5288H47.9286L48.1924 54.7926V55.7879C48.1924 56.2696 47.8006 56.6614 47.3189 56.6614ZM32.2028 55.0564V55.7879C32.2028 55.9784 32.3581 56.1337 32.5486 56.1337H47.3189C47.5095 56.1337 47.6648 55.9784 47.6648 55.7879V55.0564H32.2028Z" fill="#0B2739"/>
<path d="M43.3232 2.90186L53.1378 12.7167H48.8313C45.4848 12.7167 43.3232 10.5542 43.3232 7.20843V2.90186Z" fill="#954B97"/>
<path d="M25.0398 48.7381C24.8369 48.7381 24.9472 48.6905 24.6463 48.6905C24.4434 48.6905 24.7601 48.304 24.9578 48.2626C25.0275 48.2476 25.9839 48.0305 26.7276 47.3467H24.926C24.5519 47.3467 24.2475 47.0423 24.2475 46.6682V2.12197C24.2475 1.88992 24.4363 1.70022 24.6693 1.70022H41.6223V7.20851C41.6223 9.31106 42.3131 11.1127 43.6198 12.4195C44.9265 13.7262 46.7281 14.417 48.8306 14.417H54.3387V44.5569H56.0388V13.5665C56.0388 13.5109 56.0335 13.4544 56.0221 13.3988C56.0159 13.3697 56.0071 13.3415 55.9903 13.2912C55.9859 13.2735 55.9806 13.2568 55.9735 13.2391C55.9594 13.2056 55.9418 13.1738 55.9188 13.1341L55.8959 13.0935C55.8694 13.0538 55.8385 13.0159 55.805 12.9806L43.0737 0.248813L43.0569 0.233813C43.0225 0.201168 42.9854 0.170287 42.944 0.142935C42.9316 0.134994 42.9184 0.127936 42.8972 0.117348C42.8655 0.0988192 42.8328 0.0802906 42.8002 0.0661736C42.7825 0.059115 42.7649 0.0538212 42.7243 0.0414688C42.6969 0.0317633 42.6696 0.0229402 42.6405 0.0176463C42.5858 0.0061762 42.5293 0 42.472 0H24.6693C23.5982 0 22.5474 1.05084 22.5474 2.12197V46.6179C22.5474 47.7279 23.5585 48.739 24.6693 48.739L25.0398 48.7381ZM43.3225 2.90193L53.137 12.7168H48.8306C45.4841 12.7168 43.3225 10.5542 43.3225 7.20851V2.90193Z" fill="#0B2739"/>
<path d="M57.8849 43.8965H27.6208C27.4849 43.8965 27.357 43.9556 27.2688 44.0597C27.1814 44.1638 27.1435 44.2997 27.1664 44.4338C27.6261 47.1849 24.7446 47.8422 24.6219 47.8687C24.3899 47.9172 24.2337 48.1325 24.2584 48.3681C24.2831 48.6036 24.4975 48.7377 24.7349 48.7377L54.3522 48.7819C56.6735 48.7819 58.5616 46.8937 58.5616 44.5723C58.5607 44.2 58.2572 43.8965 57.8849 43.8965ZM28.1352 44.8203H34.387H57.6281C57.502 46.5355 56.0877 47.859 54.3513 47.859H26.72C27.477 47.2757 28.2111 46.3176 28.1352 44.8203Z" fill="#0B2739"/>
<path d="M54.3506 48.8044L24.7324 48.7603C24.4633 48.7603 24.2586 48.5997 24.2348 48.3703C24.2092 48.1232 24.3733 47.8983 24.6159 47.8471C24.7377 47.8206 27.5998 47.1703 27.1428 44.4378C27.119 44.2975 27.1587 44.1546 27.2504 44.0452C27.3431 43.9367 27.4781 43.874 27.6201 43.874H57.8842C58.2689 43.874 58.5821 44.1872 58.5821 44.5719C58.5821 46.9065 56.6834 48.8044 54.3506 48.8044ZM27.6201 43.919C27.4913 43.919 27.3687 43.9755 27.2849 44.0743C27.201 44.1731 27.1657 44.3028 27.1869 44.4308C27.6501 47.2048 24.7492 47.8638 24.6257 47.8903C24.4042 47.9371 24.256 48.1418 24.2789 48.3659C24.3036 48.6068 24.5321 48.7162 24.7333 48.7162L54.3506 48.7603C56.6596 48.7603 58.538 46.8818 58.538 44.5728C58.538 44.2119 58.245 43.919 57.8842 43.919H27.6201ZM54.3506 47.8815H26.6549L26.7061 47.8418C27.3907 47.3133 28.191 46.3613 28.1124 44.8216L28.1116 44.7987H57.6513L57.6495 44.8225C57.5877 45.6589 57.2181 46.4319 56.6084 47.0001C55.9961 47.5683 55.195 47.8815 54.3506 47.8815ZM26.7837 47.8374H54.3506C56.072 47.8374 57.466 46.5518 57.6036 44.8428H28.1574C28.2254 46.3498 27.4613 47.2983 26.7837 47.8374Z" fill="#0B2739"/>
<path d="M86.1292 39.3291H88.3958L93.64 54.5296H91.5737L90.2406 50.4851H84.4846L83.2406 54.5296H81.3075L86.1292 39.3291ZM89.7289 48.9296L87.2841 41.4184H87.262L84.9734 48.9296H89.7289Z" fill="#313235"/>
<path d="M95.618 38.6411H97.4629V54.5307H95.618V38.6411Z" fill="#313235"/>
<path d="M108.907 40.8846H104.063V39.3291H115.818L115.641 40.8846H110.885V54.5296H108.907V40.8846Z" fill="#313235"/>
<path d="M115.24 49.0858C115.24 45.463 116.818 43.3296 120.196 43.3296C123.574 43.3296 125.152 45.463 125.152 49.0858C125.152 52.7086 123.574 54.842 120.196 54.842C116.818 54.842 115.24 52.7077 115.24 49.0858ZM123.219 49.0858C123.219 46.3083 122.418 44.841 120.196 44.841C117.973 44.841 117.174 46.3074 117.174 49.0858C117.174 51.8633 117.974 53.3306 120.196 53.3306C122.417 53.3306 123.219 51.8633 123.219 49.0858Z" fill="#313235"/>
<path d="M127.683 38.6411H129.528V49.1751L134.395 43.6412H136.528L132.684 47.8639L136.929 54.5307H134.818L131.484 49.1301L129.528 51.3076V54.5298H127.683V38.6411Z" fill="#313235"/>
<path d="M139.417 53.53C138.44 52.5524 137.995 51.0631 137.995 49.1079C137.995 45.2186 139.928 43.3296 142.707 43.3296C145.751 43.3296 147.218 45.4851 147.218 49.0629V49.4855C147.218 49.6637 147.129 49.7299 146.951 49.7299H139.929C139.929 50.9298 140.241 51.9074 140.885 52.5074C141.463 53.0403 142.285 53.3297 143.663 53.3297C144.441 53.3297 145.508 53.2186 146.352 53.0412L146.53 54.4194C145.597 54.6859 144.308 54.842 143.308 54.842C141.618 54.8411 140.307 54.4194 139.417 53.53ZM145.396 48.3747C145.329 46.2853 144.529 44.8189 142.707 44.8189C140.862 44.8189 139.951 46.1742 139.929 48.3747H145.396Z" fill="#313235"/>
<path d="M83.5493 6.79053H99.6474L99.2187 10.8245H89.1183V16.7501H97.1135V20.9261H89.1183V31.2068H83.5502V6.79053H83.5493Z" fill="#313235"/>
<path d="M99.8617 25.9596C99.8617 24.3891 100.397 22.9615 101.397 21.9971C102.646 20.8192 104.574 20.3904 107.822 20.3904H110.606V19.8195C110.606 18.8561 110.392 18.249 109.964 17.8564C109.357 17.3208 108.393 17.1426 107.001 17.1426C105.359 17.1426 103.325 17.357 102.111 17.6067L101.861 13.8586C103.646 13.5013 105.966 13.2163 108.072 13.2163C110.749 13.2163 113.141 13.7872 114.355 15.2156C115.247 16.2506 115.711 17.7496 115.711 19.8557V31.2067H111.677L111.248 30.1356C109.749 31.0991 107.858 31.7061 106.001 31.7061C102.003 31.7061 99.8617 29.3503 99.8617 25.9596ZM110.605 27.2804V23.6753H107.892C106.678 23.6753 105.929 23.8182 105.465 24.2823C105.144 24.6035 104.966 25.1037 104.966 25.746C104.966 27.0307 105.608 27.8168 107.464 27.8168C108.428 27.816 109.785 27.5301 110.605 27.2804Z" fill="#313235"/>
<path d="M120.421 28.2086C119.457 26.7448 118.993 24.7817 118.993 22.8538C118.993 19.9272 119.672 17.5352 121.242 15.8218C122.813 14.1436 125.348 13.2163 128.239 13.2163C129.845 13.2163 131.701 13.3945 133.379 13.8586L133.058 17.642C131.987 17.3561 130.488 17.1426 129.024 17.1426C127.454 17.1426 126.24 17.6067 125.491 18.392C124.634 19.3202 124.313 20.6763 124.313 22.4612C124.313 26.0663 125.776 27.816 129.453 27.816C130.595 27.816 131.987 27.673 133.094 27.4586L133.487 31.1352C131.773 31.5279 130.489 31.7061 128.561 31.7061C125.561 31.7061 122.242 31.0285 120.421 28.2086Z" fill="#313235"/>
<path d="M138.019 25.9234V17.0358H135.056V14.2512L138.019 13.7157V9.82467C139.554 9.36058 141.481 9.07471 143.123 9.07471V13.7148H147.656V17.0349H143.123V25.2096C143.123 27.1727 143.516 27.8865 145.586 27.8865C146.3 27.8865 147.443 27.7436 148.05 27.6721L148.228 31.2773C147.085 31.527 145.301 31.7052 143.766 31.7052C139.411 31.7061 138.019 29.7791 138.019 25.9234Z" fill="#313235"/>
<path d="M152.617 30.3148C151.546 29.2798 151.118 27.7446 151.118 25.71V13.7158H156.222V24.9953C156.222 25.8873 156.4 26.4944 156.758 26.8517C157.222 27.2796 157.936 27.4226 158.97 27.4226C159.862 27.4226 161.291 27.2082 162.148 26.9232V13.7158H167.252V31.2068H162.825L162.682 30.0289C160.791 31.2068 158.613 31.6709 156.828 31.6709C155.294 31.6709 153.581 31.2783 152.617 30.3148Z" fill="#313235"/>
<path d="M171.534 13.7156H175.961L176.139 15.1431C177.495 13.8938 179.816 13.2515 181.494 13.2515C181.78 13.2515 182.172 13.2868 182.386 13.3229V17.7848C181.815 17.7133 180.958 17.6419 180.137 17.6419C178.781 17.6419 177.745 17.8201 176.638 18.0698V31.2057H171.534V13.7156Z" fill="#313235"/>
<path d="M183.741 25.9596C183.741 24.3891 184.276 22.9615 185.276 21.9971C186.525 20.8192 188.453 20.3904 191.701 20.3904H194.485V19.8195C194.485 18.8561 194.271 18.249 193.843 17.8564C193.236 17.3208 192.273 17.1426 190.88 17.1426C189.238 17.1426 187.204 17.357 185.99 17.6067L185.74 13.8586C187.525 13.5013 189.845 13.2163 191.951 13.2163C194.628 13.2163 197.02 13.7872 198.234 15.2156C199.126 16.2506 199.59 17.7496 199.59 19.8557V31.2067H195.556L195.128 30.1356C193.629 31.0991 191.737 31.7061 189.881 31.7061C185.883 31.7061 183.741 29.3503 183.741 25.9596ZM194.485 27.2804V23.6753H191.772C190.558 23.6753 189.809 23.8182 189.345 24.2823C189.024 24.6035 188.846 25.1037 188.846 25.746C188.846 27.0307 189.488 27.8168 191.344 27.8168C192.308 27.816 193.665 27.5301 194.485 27.2804Z" fill="#313235"/>
<path d="M5.52483 10.0794C7.89993 8.37923 10.9976 7.49691 14.4235 7.90984C14.7897 7.95395 15.2246 8.19571 15.4364 8.48599C15.5899 8.69686 15.5555 9.25978 15.3764 9.44683C15.132 9.7027 14.6565 9.89769 14.3044 9.86504C12.3987 9.68858 10.5459 9.86328 8.78398 10.6141C5.0731 12.197 2.83651 14.9939 2.05392 18.952C2.03363 19.0543 2.02657 19.1593 2.00363 19.2608C1.86512 19.874 1.3878 20.2269 0.834609 20.1299C0.269948 20.0311 -0.132373 19.5396 0.0396719 18.9255C0.432288 17.5279 0.81167 16.1092 1.39839 14.7884C2.17391 13.0414 3.57233 11.5353 5.52483 10.0794Z" fill="#0B2739"/>
<path d="M7.46226 13.6187C9.40152 12.2088 11.5322 11.5929 13.8994 11.8532C14.6643 11.937 15.0852 12.387 15.0067 13.002C14.929 13.6072 14.4791 13.9002 13.7044 13.849C9.73414 13.5852 6.80673 15.798 5.98179 19.689C5.82563 20.4266 5.39596 20.784 4.78983 20.6807C4.20752 20.581 3.88019 20.049 4.00195 19.344C4.40956 16.975 5.5927 15.0745 7.46226 13.6187Z" fill="#0B2739"/>
<path d="M9.89496 16.8096C10.9087 16.0984 12.0213 15.7605 13.2529 15.8487C13.8573 15.892 14.2526 16.2908 14.2464 16.8307C14.2402 17.4069 13.8149 17.7951 13.1815 17.8022C11.4195 17.8233 10.4446 18.5777 9.98671 20.2726C9.80673 20.9397 9.34 21.2644 8.75769 21.1276C8.17274 20.9909 7.89217 20.5012 8.03246 19.8183C8.28567 18.5874 8.92268 17.5904 9.89496 16.8096Z" fill="#0B2739"/>
</svg>
