<svg width="211" height="51" viewBox="0 0 211 51" fill="none" xmlns="http://www.w3.org/2000/svg">
<path d="M135.185 44.0879H136.786C137.805 44.0879 138.387 44.6761 138.387 45.7055V49.0879C138.387 50.1173 137.805 50.7055 136.786 50.7055H135.185V44.0879ZM136.204 45.1173V49.9702H136.786C137.077 49.9702 137.368 49.8232 137.368 49.382V45.8526C137.368 45.4114 137.223 45.2644 136.786 45.2644H136.204V45.1173Z" fill="#22AFE5"/>
<path d="M143.771 50.8526H142.752L142.607 49.6761H141.152L141.006 50.8526H139.987L141.006 44.0879H142.607L143.771 50.8526ZM141.297 48.7938H142.316L141.879 45.4114L141.297 48.7938Z" fill="#22AFE5"/>
<path d="M144.79 44.0879H147.991V45.1173H146.972V50.8526H145.954V45.1173H144.79V44.0879Z" fill="#22AFE5"/>
<path d="M152.793 50.8526H151.774L151.629 49.6761H150.319L150.174 50.8526H149.155L150.174 44.0879H151.774L152.793 50.8526ZM150.465 48.7938H151.483L151.047 45.4114L150.465 48.7938Z" fill="#22AFE5"/>
<path d="M180.878 48.3532V49.2355C180.878 50.2649 180.296 51.0002 179.277 51.0002C178.259 51.0002 177.677 50.412 177.677 49.2355V45.7061C177.677 44.6767 178.259 43.9414 179.277 43.9414C180.296 43.9414 180.878 44.5296 180.878 45.7061V46.2943H179.859V45.5591C179.859 45.1179 179.714 44.8238 179.277 44.8238C178.986 44.8238 178.695 44.9708 178.695 45.5591V49.2355C178.695 49.6767 178.841 49.8238 179.277 49.8238C179.568 49.8238 179.859 49.6767 179.859 49.2355V48.2061H180.878V48.3532Z" fill="#22AFE5"/>
<path d="M182.77 45.7061C182.77 44.6767 183.352 43.9414 184.37 43.9414C185.389 43.9414 185.971 44.5296 185.971 45.7061V49.2355C185.971 50.2649 185.389 51.0002 184.37 51.0002C183.352 51.0002 182.77 50.412 182.77 49.2355V45.7061ZM183.788 49.3826C183.788 49.8238 183.934 50.1179 184.37 50.1179C184.661 50.1179 184.952 49.9708 184.952 49.3826V45.7061C184.952 45.2649 184.807 44.9708 184.37 44.9708C184.079 44.9708 183.788 45.1179 183.788 45.7061V49.3826Z" fill="#22AFE5"/>
<path d="M188.881 46.0006V50.8536H187.863V44.0889H189.172L190.191 48.2065V44.0889H191.064V50.8536H190.046L188.881 46.0006Z" fill="#22AFE5"/>
<path d="M192.956 44.0889H196.157V45.1183H194.993V50.8536H193.975V45.1183H192.81V44.0889H192.956Z" fill="#22AFE5"/>
<path d="M198.922 47.0295H200.377V48.0589H198.922V49.9706H200.814V51.0001H197.904V44.2354H200.814V45.1177H198.922V47.0295Z" fill="#22AFE5"/>
<path d="M203.579 46.0006V50.8536H202.56V44.0889H203.87L204.888 48.2065V44.0889H205.761V50.8536H204.743L203.579 46.0006Z" fill="#22AFE5"/>
<path d="M207.799 44.0889H211V45.1183H209.836V50.8536H208.817V45.1183H207.653V44.0889H207.799Z" fill="#22AFE5"/>
<path d="M19.7903 31V21V11H9.89508V21V31V41H19.7903V31Z" fill="#9EDBF3"/>
<path d="M39.5807 11H29.6856H19.7904V21H29.6856H39.5807V11Z" fill="#CEEBF6"/>
<path d="M39.5807 21H29.6855V31H39.5807V21Z" fill="#22AFE5"/>
<path d="M29.6855 41.2943V41.0002V40.8531V30.8531H19.7903V40.8531H9.89517V30.8531V20.8531V11.0002H19.7903H29.6855H39.5807V21.0002H49.4759V11.0002C49.4759 8.35313 48.4572 5.85313 46.5655 3.7943C44.6738 1.88254 42.0545 0.853129 39.4352 1.00019H29.54H19.6448H9.89517H9.16759C6.83931 1.14725 4.51103 2.0296 2.76483 3.7943C1.01862 5.55901 0.145517 7.91195 0 10.2649V11.0002V21.0002V31.0002V41.0002V41.5884C0.145517 43.9414 1.01862 46.2943 2.76483 48.059C4.51103 49.8237 6.83931 50.8531 9.16759 50.8531H9.74966H19.6448H19.7903H20.0814C22.5552 50.8531 24.8834 49.8237 26.7752 48.059C28.6669 46.1472 29.54 43.7943 29.6855 41.2943Z" fill="#22AFE5"/>
<path d="M62.5725 1.14746H85.7098C86.2918 1.14746 86.8739 1.7357 86.8739 2.32393V8.05923C86.8739 8.64746 86.4374 9.2357 85.7098 9.2357H71.3036C70.7215 9.2357 70.1394 9.82393 70.1394 10.4122V13.6475C70.1394 14.2357 70.576 14.8239 71.3036 14.8239H84.1091C84.6911 14.8239 85.2732 15.4122 85.2732 16.0004V21.4416C85.2732 22.0298 84.8367 22.618 84.1091 22.618H71.3036C70.7215 22.618 70.1394 23.2063 70.1394 23.7945V33.3533C70.1394 33.9416 69.7029 34.5298 68.9753 34.5298H62.5725C61.9905 34.5298 61.4084 33.9416 61.4084 33.3533V2.32393C61.4084 1.58864 61.8449 1.14746 62.5725 1.14746Z" fill="#22AFE5"/>
<path d="M172.583 1.14746H178.841C179.423 1.14746 179.859 1.7357 179.859 2.32393V33.5004C179.859 34.0886 179.423 34.6769 178.841 34.6769H172.583C172.001 34.6769 171.565 34.0886 171.565 33.5004V2.32393C171.419 1.58864 172.001 1.14746 172.583 1.14746Z" fill="#22AFE5"/>
<path d="M184.225 2.32393C184.225 1.7357 184.661 1.14746 185.389 1.14746H197.903C199.941 1.14746 201.687 1.44158 203.288 1.88275C204.888 2.47099 206.344 3.20628 207.508 4.2357C208.672 5.26511 209.545 6.44158 210.127 7.91217C210.709 9.38275 211 11.0004 211 12.9122V13.0592C211 14.971 210.709 16.7357 209.981 18.3533C209.254 19.8239 208.381 21.1475 207.217 22.1769C206.052 23.2063 204.597 23.9416 202.851 24.5298C201.105 25.118 199.359 25.2651 197.467 25.2651H194.266C193.683 25.2651 193.101 25.8533 193.101 26.4416V33.6475C193.101 34.2357 192.665 34.8239 191.937 34.8239H185.389C184.807 34.8239 184.225 34.2357 184.225 33.6475V2.32393ZM197.176 17.7651C198.777 17.7651 199.941 17.3239 200.814 16.5886C201.687 15.8533 202.123 14.6769 202.123 13.3533C202.123 11.8828 201.687 10.8533 200.814 10.118C199.941 9.38275 198.631 8.94158 197.03 8.94158H193.975C193.392 8.94158 192.81 9.52981 192.81 10.118V16.7357C192.81 17.3239 193.247 17.9122 193.975 17.9122H197.176V17.7651Z" fill="#22AFE5"/>
<path d="M91.5304 1.29395H98.0787C98.6608 1.29395 99.2428 1.88218 99.2428 2.47042V25.4116C99.2428 25.9998 99.6794 26.5881 100.407 26.5881H123.108C123.544 26.5881 123.981 26.8822 124.126 27.3234L126.6 33.0587C126.891 33.7939 126.455 34.6763 125.581 34.6763H91.5304C90.9483 34.6763 90.3663 34.0881 90.3663 33.4998V2.32336C90.3663 1.73512 90.9483 1.29395 91.5304 1.29395Z" fill="#22AFE5"/>
<path d="M158.032 1.88275L152.211 19.0886C151.92 20.118 150.465 20.118 150.174 19.0886L144.062 1.88275C143.917 1.44158 143.48 1.14746 143.044 1.14746H140.861C139.988 1.14746 138.678 2.02981 138.969 2.76511C140.133 5.41217 139.988 10.4122 139.988 9.82393C139.988 8.94158 141.588 19.971 141.588 19.971C141.588 20.118 146.536 34.0886 146.536 34.0886C146.681 34.5298 147.118 34.8239 147.555 34.8239H154.248C154.685 34.8239 155.121 34.5298 155.267 34.0886L167.199 2.91217C167.49 2.17687 166.908 1.29452 166.181 1.29452H158.905C158.614 1.14746 158.177 1.44158 158.032 1.88275Z" fill="#22AFE5"/>
<path d="M127.328 34.5298C124.999 34.5298 122.962 34.2357 121.216 33.6475C119.47 33.0592 117.869 32.1769 116.559 30.8533C115.25 29.5298 114.377 28.0592 113.649 26.1475C112.921 24.2357 112.63 22.0298 112.63 19.3828V2.32393C112.63 1.7357 113.067 1.14746 113.794 1.14746H120.488C121.07 1.14746 121.652 1.7357 121.652 2.32393V19.0886C121.652 21.4416 122.234 23.2063 123.253 24.3828C124.272 25.5592 125.727 26.1475 127.473 26.1475C129.219 26.1475 130.674 25.5592 131.693 24.5298C132.712 23.3533 133.294 21.7357 133.294 19.3828V9.38275C133.294 4.82393 136.786 1.14746 141.006 1.14746H141.152C141.734 1.14746 142.316 1.7357 142.316 2.32393V18.9416C142.316 21.5886 142.025 23.9416 141.297 25.8533C140.57 27.7651 139.551 29.3828 138.241 30.7063C136.932 32.0298 135.477 32.9122 133.585 33.5004C131.548 34.2357 129.51 34.5298 127.328 34.5298Z" fill="#22AFE5"/>
<path d="M123.544 47.1765H124.708V47.9118H123.544V49.0882H122.817V47.9118H121.652V47.1765H122.817V46H123.544V47.1765Z" fill="#22AFE5"/>
<path d="M165.599 47.1765H166.763V47.9118H165.599V49.0882H164.871V47.9118H163.707V47.1765H164.871V46H165.599V47.1765Z" fill="#22AFE5"/>
<path d="M61.4084 44.0889H62.427V50.8536H61.4084V44.0889Z" fill="#22AFE5"/>
<path d="M65.4829 46.0006V50.8536H64.4643V44.0889H65.774L66.7926 48.2065V44.0889H67.6657V50.8536H66.6471L65.4829 46.0006Z" fill="#22AFE5"/>
<path d="M70.8669 47.1771H72.1765V48.0595H70.8669V50.8536H69.8483V44.0889H72.6131V45.1183H70.8669V47.1771Z" fill="#22AFE5"/>
<path d="M74.3594 44.0889H75.378V49.8242H77.1242V50.8536H74.3594V44.0889Z" fill="#22AFE5"/>
<path d="M79.8891 44.0889V49.383C79.8891 49.8242 80.0346 49.9712 80.4712 49.9712C80.7622 49.9712 81.0532 49.8242 81.0532 49.383V44.0889H82.0719V49.2359C82.0719 50.2653 81.4898 51.0006 80.4712 51.0006C79.4525 51.0006 78.8705 50.4124 78.8705 49.2359V44.0889H79.8891Z" fill="#22AFE5"/>
<path d="M84.9822 47.0295H86.4374V48.0589H84.9822V49.9706H86.8739V51.0001H83.9636V44.2354H86.8739V45.1177H84.9822V47.0295Z" fill="#22AFE5"/>
<path d="M89.7842 46.0006V50.8536H88.7656V44.0889H90.0752L91.0938 48.2065V44.0889H91.9669V50.8536H90.9483L89.7842 46.0006Z" fill="#22AFE5"/>
<path d="M97.2056 48.3532V49.2355C97.2056 50.2649 96.6235 51.0002 95.6049 51.0002C94.5863 51.0002 94.0042 50.412 94.0042 49.2355V45.7061C94.0042 44.6767 94.5863 43.9414 95.6049 43.9414C96.6235 43.9414 97.2056 44.5296 97.2056 45.7061V46.2943H96.187V45.5591C96.187 45.1179 96.0415 44.8238 95.6049 44.8238C95.3139 44.8238 95.0228 44.9708 95.0228 45.5591V49.2355C95.0228 49.6767 95.1683 49.8238 95.6049 49.8238C95.8959 49.8238 96.187 49.6767 96.187 49.2355V48.2061H97.2056V48.3532Z" fill="#22AFE5"/>
<path d="M100.116 47.0295H101.571V48.0589H100.116V49.9706H101.862V51.0001H98.9517V44.2354H101.862V45.1177H100.116V47.0295Z" fill="#22AFE5"/>
<path d="M106.082 50.8536C106.082 50.7065 105.937 50.5595 105.937 49.9712V48.9418C105.937 48.3536 105.791 48.0595 105.209 48.0595H104.918V50.8536H103.9V44.0889H105.5C106.664 44.0889 107.101 44.53 107.101 45.7065V46.2947C107.101 47.03 106.955 47.4712 106.373 47.6183C106.955 47.9124 107.101 48.3536 107.101 49.0889V50.1183C107.101 50.4124 107.101 50.7065 107.246 51.0006H106.082V50.8536ZM104.918 45.1183V47.1771H105.355C105.791 47.1771 105.937 47.03 105.937 46.4418V45.7065C105.937 45.2653 105.791 44.9712 105.355 44.9712H104.918V45.1183Z" fill="#22AFE5"/>
<path d="M110.448 44.0889C111.466 44.0889 112.048 44.6771 112.048 45.8536V46.0006H111.03V45.7065C111.03 45.2653 110.884 44.9712 110.448 44.9712C110.157 44.9712 109.866 45.1183 109.866 45.7065C109.866 47.03 111.903 47.3242 111.903 49.2359C111.903 50.2653 111.321 51.0006 110.302 51.0006C109.284 51.0006 108.701 50.4124 108.701 49.2359V48.7948H109.72V49.2359C109.72 49.6771 109.866 49.8242 110.302 49.8242C110.739 49.8242 110.884 49.6771 110.884 49.2359C110.884 47.9124 108.847 47.6183 108.847 45.7065C108.847 44.6771 109.429 44.0889 110.448 44.0889Z" fill="#22AFE5"/>
</svg>
