<svg width="66" height="61" viewBox="0 0 66 61" fill="none" xmlns="http://www.w3.org/2000/svg">
<ellipse cx="44.0617" cy="59.4946" rx="5.92202" ry="1.269" fill="#019BF2"/>
<mask id="path-2-inside-1" fill="white">
<path d="M44.0619 54.9078C44.0619 54.9078 31.6903 42.5104 28.6014 37.6798C25.5125 32.8491 23.0059 28.7649 23.0059 21.8197C23.0059 14.8745 24.8886 9.53953 28.6014 5.9597C32.1783 2.51165 37.3827 0.763672 44.0619 0.763672C50.7411 0.763672 55.9456 2.51165 59.5224 5.9597C63.2352 9.53833 65.118 14.8745 65.118 21.8197C65.118 28.7649 62.11 33.8518 59.5224 37.6798C56.5282 42.1093 44.0619 54.9078 44.0619 54.9078Z"/>
</mask>
<path d="M44.0619 54.9078L41.5845 57.3801C42.2462 58.0433 43.1463 58.4134 44.0831 58.4078C45.02 58.4021 45.9154 58.0211 46.5691 57.3499L44.0619 54.9078ZM28.6014 5.9597L26.1723 3.43987L26.1721 3.44011L28.6014 5.9597ZM59.5224 5.9597L57.0933 8.47952L57.0935 8.47969L59.5224 5.9597ZM59.5224 37.6798L56.6227 35.7197L59.5224 37.6798ZM44.0619 54.9078C46.5394 52.4355 46.5394 52.4356 46.5394 52.4356C46.5393 52.4355 46.5393 52.4354 46.5391 52.4353C46.5389 52.435 46.5384 52.4346 46.5378 52.4339C46.5365 52.4327 46.5345 52.4307 46.5318 52.4279C46.5263 52.4224 46.5178 52.4139 46.5066 52.4026C46.484 52.38 46.4501 52.3458 46.4054 52.3008C46.316 52.2109 46.1837 52.0775 46.0138 51.9055C45.6739 51.5616 45.1837 51.0636 44.5853 50.4505C43.3876 49.2235 41.7608 47.5396 40.0409 45.7088C36.4967 41.9362 32.8836 37.8796 31.5501 35.7943L25.6527 39.5653C27.4082 42.3106 31.5254 46.868 34.9391 50.5018C36.6982 52.3742 38.3574 54.0915 39.5759 55.34C40.1856 55.9646 40.686 56.4729 41.0348 56.8258C41.2092 57.0023 41.3457 57.14 41.4391 57.234C41.4858 57.281 41.5217 57.3171 41.5461 57.3416C41.5583 57.3539 41.5677 57.3633 41.5741 57.3697C41.5773 57.373 41.5798 57.3754 41.5815 57.3772C41.5824 57.378 41.5831 57.3787 41.5836 57.3792C41.5838 57.3795 41.584 57.3797 41.5842 57.3798C41.5843 57.38 41.5845 57.3801 44.0619 54.9078ZM31.5501 35.7943C28.51 31.0398 26.5059 27.6899 26.5059 21.8197H19.5059C19.5059 29.84 22.5151 34.6583 25.6527 39.5653L31.5501 35.7943ZM26.5059 21.8197C26.5059 15.4842 28.2137 11.1954 31.0308 8.47928L26.1721 3.44011C21.5635 7.88361 19.5059 14.2648 19.5059 21.8197H26.5059ZM31.0305 8.47952C33.7559 5.85224 37.9682 4.26367 44.0619 4.26367V-2.73633C36.7971 -2.73633 30.6006 -0.828934 26.1723 3.43987L31.0305 8.47952ZM44.0619 4.26367C50.1556 4.26367 54.3679 5.85224 57.0933 8.47952L61.9515 3.43987C57.5232 -0.828935 51.3267 -2.73633 44.0619 -2.73633V4.26367ZM57.0935 8.47969C59.9099 11.1943 61.618 15.4838 61.618 21.8197H68.618C68.618 14.2652 66.5605 7.88231 61.9513 3.4397L57.0935 8.47969ZM61.618 21.8197C61.618 27.6835 59.1097 32.0405 56.6227 35.7197L62.4221 39.6398C65.1102 35.6631 68.618 29.8463 68.618 21.8197H61.618ZM56.6227 35.7197C55.311 37.6603 51.6615 41.7489 48.1065 45.5712C46.3761 47.4318 44.7366 49.157 43.5289 50.4179C42.9254 51.048 42.4306 51.5612 42.0872 51.9164C41.9155 52.094 41.7817 52.232 41.6912 52.3253C41.6459 52.3719 41.6115 52.4074 41.5885 52.431C41.577 52.4428 41.5684 52.4516 41.5627 52.4575C41.5599 52.4604 41.5578 52.4625 41.5565 52.4639C41.5558 52.4646 41.5553 52.4651 41.555 52.4654C41.5549 52.4655 41.5548 52.4656 41.5547 52.4657C41.5547 52.4657 41.5547 52.4657 44.0619 54.9078C46.5691 57.3499 46.5692 57.3498 46.5694 57.3497C46.5695 57.3495 46.5697 57.3493 46.5699 57.3491C46.5704 57.3486 46.5711 57.3479 46.5719 57.3471C46.5736 57.3454 46.576 57.3429 46.5792 57.3396C46.5855 57.3331 46.5948 57.3235 46.607 57.311C46.6314 57.2859 46.6673 57.2489 46.7141 57.2007C46.8076 57.1044 46.9446 56.9631 47.1197 56.7821C47.4697 56.42 47.9722 55.8988 48.5842 55.2598C49.8075 53.9825 51.4718 52.2313 53.2322 50.3385C56.6589 46.6542 60.7396 42.1288 62.4221 39.6398L56.6227 35.7197Z" fill="#019BF2" mask="url(#path-2-inside-1)"/>
<path d="M39.3871 26.6021L39.3872 26.6022C40.3241 27.5053 41.8107 28.0915 44.0624 28.0915C46.3141 28.0915 47.8006 27.5053 48.7375 26.6022C49.704 25.6703 50.3337 24.161 50.3337 21.8202C50.3337 19.479 49.7038 17.9696 48.7376 17.0383L48.7375 17.0382C47.8006 16.135 46.3141 15.5488 44.0624 15.5488C41.8108 15.5488 40.3242 16.135 39.3873 17.0381L39.3871 26.6021ZM39.3871 26.6021C38.4209 25.6708 37.791 24.1613 37.791 21.8202M39.3871 26.6021L37.791 21.8202M37.791 21.8202C37.791 19.4793 38.4208 17.9701 39.3872 17.0382L37.791 21.8202Z" stroke="#019BF2" stroke-width="3.5"/>
<path d="M20.625 34.5137C16.9801 34.5137 14.1354 33.4587 12.1692 31.3782C10.3157 29.417 9.375 26.6867 9.375 23.2637C9.375 19.8407 10.3148 17.1112 12.1692 15.1492C14.1354 13.0686 16.9809 12.0137 20.625 12.0137C24.2691 12.0137 27.1146 13.0686 29.0808 15.1492C30.9344 17.1103 31.875 19.8407 31.875 23.2637C31.875 26.6867 30.9352 29.4162 29.0808 31.3782C27.1146 33.4587 24.2699 34.5137 20.625 34.5137Z" fill="#F5F5F5"/>
<path d="M20.625 34.5137C16.9801 34.5137 14.1354 33.4589 12.1692 31.3788C10.3157 29.418 9.375 26.6882 9.375 23.2658C9.375 19.8434 10.3148 17.1144 12.1692 15.1528C14.1354 13.0727 16.9801 12.0137 20.625 12.0137C24.2699 12.0137 27.1146 13.0685 29.0808 15.1486C30.9344 17.1094 31.875 19.8392 31.875 23.2616C31.875 26.6839 30.9352 29.4129 29.0808 31.3746C27.1146 33.4589 24.2699 34.5137 20.625 34.5137ZM20.625 15.3797C15.3913 15.3797 12.7375 18.0331 12.7375 23.2658C12.7375 28.4985 15.3913 31.1518 20.625 31.1518C25.8587 31.1518 28.5125 28.4985 28.5125 23.2658C28.5125 18.0331 25.8587 15.3755 20.625 15.3755V15.3797Z" fill="#019BF2"/>
<path d="M38.5939 55.1387H1.71865C1.26283 55.1387 0.825688 54.956 0.50338 54.6309C0.181071 54.3058 0 53.8648 0 53.405L0 50.1917C0 46.0309 1.0922 42.8167 3.24566 40.6288C5.39912 38.4409 8.57862 37.3262 12.6836 37.3262H27.6289C31.7339 37.3262 34.9091 38.4375 37.0669 40.6288C39.2246 42.8202 40.3125 46.0335 40.3125 50.1917V53.4059C40.3123 53.8655 40.1311 54.3063 39.8089 54.6312C39.4866 54.9562 39.0496 55.1387 38.5939 55.1387Z" fill="#F5F5F5"/>
<path d="M39.4914 55.1387H1.75861C1.2922 55.1387 0.84489 54.956 0.515086 54.6309C0.185282 54.3058 0 53.8649 0 53.4051L0 50.1911C0 46.0305 1.1176 42.8164 3.32114 40.6286C5.52469 38.4409 8.77812 37.3262 12.9786 37.3262H28.2715C32.4719 37.3262 35.721 38.4374 37.9289 40.6286C40.1368 42.8199 41.25 46.0331 41.25 50.1911V53.4051C41.25 53.8649 41.0648 54.3058 40.735 54.6309C40.4052 54.956 39.9579 55.1387 39.4914 55.1387ZM3.51723 51.6715H37.7328V50.1911C37.7328 46.9839 36.959 44.5864 35.4334 43.0721C33.9078 41.5578 31.5003 40.7933 28.2715 40.7933H12.9786C9.74976 40.7933 7.33958 41.5604 5.81662 43.0721C4.29366 44.5838 3.51723 46.9813 3.51723 50.1911V51.6715Z" fill="#019BF2"/>
</svg>
