<svg width="219" height="52" viewBox="0 0 219 52" fill="none" xmlns="http://www.w3.org/2000/svg">
<path d="M13.3637 17.4227C10.6114 17.1657 9.03465 16.366 9.03465 12.9101C9.03465 12.3388 9.03465 11.4249 9.06332 10.5109C9.06332 9.59695 9.09199 8.68299 9.09199 8.11177C9.09199 4.79867 7.34318 1.22852 2.38344 1.22852H0.00390625V5.1414H1.63804C3.81689 5.1414 4.76296 6.11248 4.76296 8.36882V14.3667C4.79163 16.366 5.93839 18.6223 8.37526 19.5077C5.93839 20.3931 4.79163 22.7065 4.76296 24.763V30.7323C4.76296 32.9886 3.81689 33.9597 1.63804 33.9597H0.00390625V37.8726H2.38344C7.31451 37.8726 9.09199 34.331 9.09199 30.9893C9.09199 30.4181 9.09199 29.5041 9.06332 28.5902C9.06332 27.6762 9.03465 26.7622 9.03465 26.191C9.03465 23.1064 10.2101 21.8783 13.3637 21.6498L13.6504 21.6212V17.4227H13.3637Z" fill="#00AEEF"/>
<path d="M29.5627 10.9965C27.3265 10.9965 25.9791 12.5959 25.9791 14.7666C25.9791 16.9372 27.3552 18.5081 29.5627 18.5081C31.7702 18.5081 33.1463 16.9658 33.1463 14.7666C33.1463 12.5959 31.7702 10.9965 29.5627 10.9965ZM30.4514 28.3617H26.6385C25.5777 28.6759 24.8036 29.5613 24.8036 30.8466C24.8036 33.4171 27.9859 33.6456 29.9067 33.6456C31.8562 33.6456 35.2965 33.5313 35.2965 30.8466C35.2965 28.3617 32.2862 28.3617 30.4514 28.3617ZM30.1074 37.4728C27.6419 37.4728 25.033 37.2728 22.9401 35.8162C21.392 34.7309 20.4746 33.2743 20.4746 31.3892C20.4746 29.647 21.3347 28.0476 22.8828 27.2764C21.5927 26.5624 20.8473 25.1343 20.8473 23.8205C20.8473 22.1068 21.6214 20.7645 23.2555 19.7362C21.9941 18.4796 21.22 16.823 21.22 14.7666C21.22 9.93975 24.9756 7.34068 29.534 7.34068C31.1968 7.34068 32.8023 7.79766 34.1211 8.59737C34.9811 6.85514 36.5293 6.08398 38.2494 6.08398C38.5648 6.08398 39.2528 6.08398 39.5682 6.16967V9.93975C39.4535 9.93975 39.3102 9.91119 39.1668 9.91119C38.0487 9.91119 37.0166 10.2254 36.7013 11.1964C37.3607 12.2818 37.762 13.4813 37.762 14.8523C37.762 19.4792 33.863 22.1925 29.5054 22.1925C28.3586 22.1925 27.2405 21.9926 26.2371 21.6498C25.7784 21.9355 25.2337 22.421 25.2337 23.0779C25.2337 24.2775 26.4378 24.5631 27.4699 24.5631H30.8241C32.8596 24.5631 35.4972 24.5917 37.418 25.934C39.1668 27.1336 39.8835 28.8473 39.8835 30.7894C39.8835 36.0447 34.6371 37.4728 30.1074 37.4728Z" fill="#00AEEF"/>
<path d="M53.042 12.3952C52.3826 11.7097 51.3792 11.2242 49.9744 11.2242C48.4836 11.2242 47.2795 11.8525 46.5914 12.7665C45.9034 13.6519 45.588 14.5944 45.5307 15.9082H54.3034C54.2461 14.423 53.816 13.252 53.042 12.3952ZM59.1198 19.4498H45.5593C45.5307 20.9921 46.0754 22.4773 47.0501 23.4198C47.7669 24.0767 48.7416 24.6765 50.0604 24.6765C51.4652 24.6765 52.3252 24.3909 53.0133 23.7054C53.4433 23.277 53.7874 22.7343 53.988 21.9917H58.6611C58.5464 23.1913 57.715 24.7907 56.9409 25.7333C55.2208 27.7611 52.6979 28.5608 50.1177 28.5608C47.3368 28.5608 45.33 27.5897 43.7245 26.076C41.689 24.1338 40.5996 21.3063 40.5996 17.9932C40.5996 14.7658 41.5744 11.8811 43.5238 9.91035C45.0433 8.36805 47.2221 7.33984 50.003 7.33984C53.0133 7.33984 55.7368 8.53941 57.3996 11.0814C58.8904 13.3091 59.2345 15.594 59.1485 18.1074C59.1485 18.1074 59.1198 19.0214 59.1198 19.4498Z" fill="#00AEEF"/>
<path d="M69.5542 28.3041C65.4545 28.3041 63.419 25.9621 63.419 22.0777V11.8528H59.7207V7.85426H63.419V2.71324L68.2927 1.51367V7.85426H73.3958V11.8528H68.2927V21.6779C68.2927 23.2202 68.9808 23.9057 70.5576 23.9057C71.561 23.9057 72.3924 23.8771 73.7112 23.7057V27.79C72.3638 28.1327 70.9876 28.3041 69.5542 28.3041Z" fill="#00AEEF"/>
<path d="M88.046 19.0787L82.8856 19.4786C81.3948 19.5928 79.9613 20.4782 79.9613 22.1348C79.9613 23.6771 81.3374 24.6482 82.8569 24.6482C85.8958 24.6482 88.046 23.0202 88.046 20.0213V19.0787ZM92.1457 28.3611C90.0528 28.3611 88.8774 27.0473 88.7054 25.5336C87.7593 27.1616 85.4371 28.5611 82.5415 28.5611C77.6965 28.5611 75.2023 25.5336 75.2023 22.2205C75.2023 18.3647 78.2125 16.1655 82.0542 15.8799L88.0173 15.4515V14.1948C88.0173 12.2812 87.3579 10.9959 84.577 10.9959C82.3122 10.9959 80.9934 11.9956 80.8787 13.8806H76.1484C76.435 9.33937 80.0473 7.31152 84.577 7.31152C88.046 7.31152 90.9989 8.39685 92.1743 11.4243C92.6904 12.7096 92.7477 14.1377 92.7477 15.5086V22.9916C92.7477 23.9342 93.0631 24.2769 93.8658 24.2769C94.1812 24.2769 94.4965 24.1912 94.4965 24.1912V27.7614C93.7511 28.1612 93.3211 28.3611 92.1457 28.3611Z" fill="black"/>
<path d="M109.778 13.0239C109.062 12.1385 108.029 11.4245 106.51 11.4245C102.697 11.4245 101.923 14.9946 101.923 17.9079C101.923 19.8786 102.267 22.1349 103.672 23.4202C104.331 24.0485 105.277 24.4198 106.51 24.4198C108.029 24.4198 109.09 23.7058 109.778 22.8204C110.782 21.5066 111.068 19.6216 111.068 17.8793C111.068 16.1656 110.782 14.3377 109.778 13.0239ZM112.387 26.7904C111.154 27.7901 109.492 28.5041 107.485 28.5041C105.277 28.5041 103.012 27.7044 101.78 25.8193L101.464 28.0471H97.2499V0H102.124V9.31096C103.07 8.19707 105.019 7.34023 107.427 7.34023C109.492 7.34023 111.126 7.96858 112.387 8.96822C114.795 10.9389 116.028 14.0236 116.028 17.9936C115.999 21.7922 114.795 24.8197 112.387 26.7904Z" fill="black"/>
<path d="M133.143 26.2191C131.509 27.847 128.986 28.5611 126.205 28.5611C123.625 28.5611 121.331 27.8185 119.64 26.2191C118.464 25.1052 117.49 23.4201 117.49 21.5065H122.048C122.048 22.3918 122.507 23.3629 123.137 23.877C123.911 24.5054 124.829 24.7624 126.234 24.7624C127.868 24.7624 130.362 24.4197 130.362 22.1919C130.362 21.0209 129.588 20.2498 128.326 20.0498C126.52 19.7928 124.513 19.65 122.707 19.2787C119.926 18.7075 118.063 16.4511 118.063 13.8806C118.063 11.8242 118.923 10.3961 120.127 9.33937C121.618 8.05412 123.768 7.31152 126.291 7.31152C128.699 7.31152 131.165 8.08268 132.655 9.68211C133.745 10.8531 134.462 12.3669 134.462 13.852H129.817C129.817 13.0809 129.473 12.4525 128.986 11.9384C128.412 11.3672 127.352 10.9959 126.348 10.9959C125.632 10.9959 124.972 10.9959 124.255 11.3101C123.395 11.6528 122.707 12.3954 122.707 13.4522C122.707 14.8802 123.969 15.3087 125.058 15.48C126.893 15.7085 127.409 15.7371 129.387 16.0513C132.569 16.5654 134.92 18.5646 134.92 21.7635C134.892 23.7342 134.175 25.1623 133.143 26.2191Z" fill="black"/>
<path d="M145.528 28.3041C141.428 28.3041 139.393 25.9621 139.393 22.0777V11.8528H135.694V7.85426H139.393V2.71324L144.267 1.51367V7.85426H149.37V11.8528H144.267V21.6779C144.267 23.2202 144.983 23.9057 146.531 23.9057C147.535 23.9057 148.366 23.8771 149.685 23.7057V27.79C148.337 28.1327 146.961 28.3041 145.528 28.3041Z" fill="black"/>
<path d="M162.674 12.1667C159.234 12.1667 157.456 14.623 157.456 17.879V28.0467H152.525V7.85397H156.654L157.084 10.8815C158.03 8.53944 160.438 7.56836 162.818 7.56836C163.334 7.56836 163.821 7.59692 164.337 7.6826V12.3381C163.792 12.2238 163.219 12.1667 162.674 12.1667Z" fill="black"/>
<path d="M177.493 19.0787L172.362 19.4786C170.871 19.5928 169.437 20.4782 169.437 22.1348C169.437 23.6771 170.813 24.6482 172.333 24.6482C175.372 24.6482 177.522 23.0202 177.522 20.0213V19.0787H177.493ZM181.593 28.3611C179.5 28.3611 178.325 27.0473 178.153 25.5336C177.207 27.1616 174.884 28.5611 171.989 28.5611C167.144 28.5611 164.65 25.5336 164.65 22.2205C164.65 18.3647 167.66 16.1655 171.501 15.8799L177.465 15.4515V14.1948C177.465 12.2812 176.805 10.9959 174.024 10.9959C171.759 10.9959 170.441 11.9956 170.326 13.8806H165.624C165.882 9.33937 169.523 7.31152 174.053 7.31152C177.522 7.31152 180.503 8.39685 181.65 11.4243C182.166 12.7096 182.224 14.1377 182.224 15.5086V22.9916C182.224 23.9342 182.539 24.2769 183.342 24.2769C183.657 24.2769 183.972 24.1912 183.972 24.1912V27.7614C183.17 28.1612 182.74 28.3611 181.593 28.3611Z" fill="black"/>
<path d="M211.61 23.8771C210.062 23.8771 209.345 23.2202 209.345 21.6493V11.8528H214.448V7.79714H209.345V1.51367L204.471 2.71324V7.34016H195.613C195.269 7.3116 194.925 7.34016 194.552 7.34016C191.456 7.34016 188.904 8.82534 187.499 10.539C185.98 12.4526 185.263 14.966 185.263 17.9078C185.263 20.8496 185.951 23.3916 187.499 25.2766C188.904 26.9903 191.484 28.4755 194.552 28.4755C197.619 28.4755 200.085 27.0474 201.49 25.2766C202.436 24.077 202.981 22.4776 203.038 20.8782H198.25C198.221 21.6208 197.992 22.2491 197.677 22.7347C197.103 23.6201 196.043 24.2484 194.552 24.2484C193.233 24.2484 192.258 23.6772 191.599 22.9631C190.423 21.6779 190.223 19.7643 190.223 17.8792C190.223 15.9656 190.423 14.0235 191.599 12.7668C192.258 12.0813 193.233 11.5101 194.552 11.5101C194.609 11.5101 194.724 11.5101 194.724 11.5101H204.471V22.0777C204.471 25.9621 206.507 28.3041 210.578 28.3041C212.011 28.3041 213.387 28.1042 214.763 27.7614V23.7057C213.445 23.8485 212.642 23.8771 211.61 23.8771Z" fill="black"/>
<path d="M212.958 44.6415H209.489C209.518 43.699 210.091 42.7279 211.266 42.7279C211.84 42.7279 212.27 42.9564 212.556 43.3277C212.814 43.6704 212.958 44.1559 212.958 44.6415ZM214.076 44.9271C214.076 44.0703 213.789 43.2134 213.245 42.6422C212.757 42.1281 212.098 41.8139 211.266 41.8139C210.148 41.8139 209.288 42.3851 208.801 43.1563C208.428 43.7561 208.313 44.4415 208.313 45.2413C208.313 46.1552 208.571 47.0121 209.116 47.6404C209.604 48.2402 210.378 48.6115 211.266 48.6115C211.868 48.6115 212.47 48.4401 212.929 48.1259C213.445 47.7546 213.847 47.1549 213.933 46.5265H212.872C212.786 46.8692 212.671 47.0406 212.499 47.2405C212.241 47.5262 211.811 47.669 211.295 47.669C210.808 47.669 210.406 47.4976 210.091 47.212C209.69 46.8121 209.46 46.1838 209.46 45.584H214.047L214.076 44.9271ZM206.45 49.4398C206.45 49.7254 206.335 49.9253 206.192 50.0967C205.791 50.4965 204.959 50.5536 204.414 50.5536C203.841 50.5536 203.096 50.5251 202.666 50.0967C202.494 49.9253 202.408 49.7254 202.408 49.4112C202.408 48.8971 202.78 48.5258 203.239 48.383H204.414C205.246 48.4116 206.45 48.3259 206.45 49.4398ZM205.705 44.1274C205.705 44.9556 205.103 45.584 204.214 45.584C203.296 45.584 202.723 44.9556 202.723 44.1274C202.723 43.2991 203.325 42.6993 204.214 42.6993C205.16 42.6993 205.705 43.2991 205.705 44.1274ZM207.511 49.4398C207.511 48.8971 207.31 48.4687 206.995 48.1831C206.479 47.669 205.619 47.4976 204.844 47.4976C204.844 47.4976 203.984 47.4976 203.554 47.4976C203.153 47.4976 202.551 47.4119 202.58 46.8693C202.608 46.5551 202.895 46.3837 203.124 46.298C203.526 46.4408 203.784 46.4694 204.214 46.4694C205.074 46.4694 205.733 46.1552 206.163 45.6982C206.507 45.2984 206.765 44.7557 206.765 44.1559C206.765 43.5847 206.622 43.1563 206.335 42.8136C206.393 42.4423 206.708 42.2138 207.138 42.2138C207.224 42.2138 207.31 42.2138 207.396 42.2138V41.3284C207.281 41.3284 207.167 41.2998 207.081 41.2998C206.479 41.2998 205.963 41.6425 205.733 42.2138C205.332 41.9853 204.844 41.8425 204.242 41.8425C203.382 41.8425 202.752 42.0995 202.322 42.5851C201.949 42.9564 201.72 43.4419 201.72 44.1559C201.72 44.7843 201.978 45.4126 202.465 45.841C201.978 46.0695 201.605 46.5265 201.605 47.0977C201.605 47.5833 201.92 48.0117 202.35 48.1831C201.834 48.4401 201.433 48.9257 201.433 49.6111C201.433 50.1252 201.634 50.4965 201.892 50.7536C202.522 51.3819 203.497 51.4962 204.357 51.4962C205.275 51.4962 206.335 51.3534 206.966 50.7536C207.281 50.4394 207.511 49.9824 207.511 49.4398ZM198.566 45.2413C198.566 46.041 198.394 46.8407 197.849 47.2977C197.591 47.5262 197.276 47.7261 196.788 47.7261C195.326 47.7261 194.954 46.4408 194.954 45.2413C194.954 44.0417 195.326 42.7564 196.788 42.7564C197.276 42.7564 197.591 42.9564 197.849 43.1849C198.394 43.6418 198.566 44.413 198.566 45.2413ZM199.598 48.4687V39.2434H198.509V42.7564C198.165 42.1566 197.333 41.8425 196.616 41.8425C195.871 41.8425 195.24 42.0995 194.839 42.4994C194.18 43.1277 193.864 44.1559 193.864 45.2698C193.864 46.3551 194.18 47.3262 194.81 47.9546C195.24 48.383 195.842 48.6686 196.645 48.6686C197.391 48.6686 198.222 48.2973 198.595 47.669L198.681 48.4972H199.598V48.4687ZM191.399 44.6415H187.93C187.958 43.699 188.532 42.7279 189.707 42.7279C190.281 42.7279 190.711 42.9564 190.997 43.3277C191.255 43.6704 191.399 44.1559 191.399 44.6415ZM192.517 44.9271C192.517 44.0703 192.23 43.2134 191.685 42.6422C191.198 42.1281 190.539 41.8139 189.707 41.8139C188.589 41.8139 187.729 42.3851 187.242 43.1563C186.869 43.7561 186.754 44.4415 186.754 45.2413C186.754 46.1552 187.012 47.0121 187.557 47.6404C188.044 48.2402 188.79 48.6115 189.707 48.6115C190.338 48.6115 190.911 48.4401 191.37 48.1259C191.886 47.7546 192.287 47.1549 192.373 46.5265H191.313C191.227 46.8692 191.112 47.0406 190.94 47.2405C190.682 47.5262 190.252 47.669 189.736 47.669C189.249 47.669 188.847 47.4976 188.532 47.212C188.13 46.8121 187.901 46.1838 187.901 45.584H192.488L192.517 44.9271ZM185.722 48.4687V47.5547C185.722 47.5547 185.636 47.5547 185.264 47.5547C184.805 47.5547 184.661 47.3262 184.661 46.8978V39.2434H183.572V46.9835C183.572 48.0117 183.973 48.5544 184.92 48.5544C185.464 48.5544 185.722 48.4687 185.722 48.4687ZM181.967 41.9853H180.906L179.644 46.8693L178.01 42.071H177.064L175.401 46.8693L174.169 41.9853H173.079L174.742 48.4687H175.774L177.494 43.5276L179.186 48.4687H180.246L181.967 41.9853ZM170.872 45.2413C170.872 45.9839 170.728 46.7836 170.27 47.2405C170.012 47.4976 169.61 47.6975 169.094 47.6975C168.578 47.6975 168.205 47.4976 167.919 47.2405C167.46 46.755 167.317 45.9839 167.317 45.2413C167.317 44.4987 167.46 43.699 167.919 43.242C168.177 42.9849 168.578 42.785 169.094 42.785C169.61 42.785 169.983 42.9849 170.27 43.242C170.728 43.699 170.872 44.4701 170.872 45.2413ZM171.99 45.2413C171.99 44.2131 171.76 43.2705 171.072 42.5851C170.585 42.1281 169.926 41.8425 169.094 41.8425C168.263 41.8425 167.603 42.1281 167.116 42.5851C166.399 43.2705 166.199 44.2131 166.199 45.2413C166.199 46.2695 166.428 47.212 167.116 47.8975C167.603 48.3544 168.263 48.64 169.094 48.64C169.926 48.64 170.585 48.3544 171.072 47.8975C171.76 47.1834 171.99 46.2409 171.99 45.2413ZM164.45 48.4687V44.2131C164.45 42.7279 163.676 41.8425 162.214 41.8425C161.468 41.8425 160.58 42.2423 160.235 42.9849L160.149 42.0138H159.203V48.4972H160.293V45.4983C160.293 44.9842 160.293 44.3273 160.522 43.8418C160.809 43.242 161.296 42.8421 161.927 42.8421C162.959 42.8421 163.36 43.4133 163.36 44.3844V48.4972H164.45V48.4687ZM157.827 48.4687L155.276 44.5558L157.598 41.9853H156.25L153.298 45.2413V39.2148H152.208V48.4401H153.298V46.6979L154.53 45.3269L156.566 48.4401H157.827V48.4687ZM145.872 45.2413C145.872 46.041 145.7 46.8407 145.156 47.2977C144.898 47.5262 144.582 47.7261 144.095 47.7261C142.633 47.7261 142.26 46.4408 142.26 45.2413C142.26 44.0417 142.633 42.7564 144.095 42.7564C144.582 42.7564 144.898 42.9564 145.156 43.1849C145.7 43.6418 145.872 44.413 145.872 45.2413ZM146.904 48.4687V39.2434H145.815V42.7564C145.471 42.1566 144.64 41.8425 143.923 41.8425C143.177 41.8425 142.547 42.0995 142.145 42.4994C141.486 43.1277 141.171 44.1559 141.171 45.2698C141.171 46.3551 141.486 47.3262 142.117 47.9546C142.547 48.383 143.149 48.6686 143.951 48.6686C144.697 48.6686 145.528 48.2973 145.901 47.669L145.987 48.4972H146.904V48.4687ZM138.705 44.6415H135.236C135.265 43.699 135.838 42.7279 137.014 42.7279C137.587 42.7279 138.017 42.9564 138.304 43.3277C138.562 43.6704 138.705 44.1559 138.705 44.6415ZM139.823 44.9271C139.823 44.0703 139.536 43.2134 138.992 42.6422C138.504 42.1281 137.845 41.8139 137.014 41.8139C135.895 41.8139 135.035 42.3851 134.548 43.1563C134.175 43.7561 134.061 44.4415 134.061 45.2413C134.061 46.1552 134.319 47.0121 134.863 47.6404C135.351 48.2402 136.096 48.6115 137.014 48.6115C137.644 48.6115 138.218 48.4401 138.676 48.1259C139.192 47.7546 139.594 47.1549 139.68 46.5265H138.619C138.533 46.8692 138.418 47.0406 138.246 47.2405C137.988 47.5262 137.558 47.669 137.042 47.669C136.555 47.669 136.154 47.4976 135.838 47.212C135.437 46.8121 135.207 46.1838 135.207 45.584H139.794L139.823 44.9271ZM132.713 46.5836C132.713 45.6126 131.997 44.9556 131.05 44.7843C130.362 44.67 129.846 44.6129 129.474 44.5558C128.929 44.4701 128.585 44.2416 128.585 43.699C128.585 43.3277 128.843 42.9849 129.244 42.8421C129.56 42.7279 129.76 42.7279 129.99 42.7279C130.42 42.7279 130.792 42.8421 131.05 43.0706C131.251 43.242 131.423 43.5562 131.423 43.8703H132.513C132.513 43.3562 132.341 42.9849 132.054 42.6422C131.624 42.0995 130.85 41.8139 129.99 41.8139C129.187 41.8139 128.499 42.0995 128.069 42.5279C127.782 42.8136 127.524 43.2991 127.524 43.7846C127.524 44.7843 128.126 45.3841 129.101 45.5269C129.56 45.584 130.276 45.6697 130.563 45.7268C131.222 45.8125 131.566 46.1552 131.566 46.6408C131.566 46.9264 131.423 47.212 131.251 47.3548C130.907 47.6404 130.506 47.7261 130.047 47.7261C129.646 47.7261 129.187 47.6404 128.872 47.4405C128.556 47.212 128.356 46.8693 128.356 46.4408H127.266C127.266 46.9835 127.495 47.5547 127.897 47.926C128.442 48.4687 129.187 48.64 129.99 48.64C130.85 48.64 131.595 48.4116 132.111 47.926C132.513 47.5833 132.713 47.1549 132.713 46.5836ZM126.033 46.5836C126.033 45.6126 125.317 44.9556 124.371 44.7843C123.682 44.67 123.166 44.6129 122.794 44.5558C122.249 44.4701 121.934 44.2416 121.934 43.699C121.934 43.3277 122.192 42.9849 122.593 42.8421C122.908 42.7279 123.109 42.7279 123.338 42.7279C123.769 42.7279 124.141 42.8421 124.399 43.0706C124.6 43.242 124.743 43.5562 124.772 43.8703H125.861C125.861 43.3562 125.689 42.9849 125.403 42.6422C124.973 42.0995 124.199 41.8139 123.338 41.8139C122.536 41.8139 121.848 42.0995 121.418 42.5279C121.131 42.8136 120.873 43.2991 120.873 43.7846C120.873 44.7843 121.475 45.3841 122.45 45.5269C122.908 45.584 123.625 45.6697 123.912 45.7268C124.571 45.8125 124.915 46.1552 124.915 46.6408C124.915 46.9264 124.772 47.212 124.6 47.3548C124.256 47.6404 123.855 47.7261 123.396 47.7261C122.994 47.7261 122.536 47.6404 122.22 47.4405C121.905 47.212 121.704 46.8693 121.704 46.4408H120.615C120.615 46.9835 120.844 47.5547 121.246 47.926C121.79 48.4687 122.536 48.64 123.338 48.64C124.199 48.64 124.944 48.4116 125.46 47.926C125.833 47.5833 126.033 47.1549 126.033 46.5836ZM118.293 44.6415H114.824C114.852 43.699 115.426 42.7279 116.601 42.7279C117.175 42.7279 117.605 42.9564 117.891 43.3277C118.149 43.6704 118.293 44.1559 118.293 44.6415ZM119.411 44.9271C119.411 44.0703 119.124 43.2134 118.579 42.6422C118.092 42.1281 117.433 41.8139 116.601 41.8139C115.483 41.8139 114.623 42.3851 114.136 43.1563C113.763 43.7561 113.648 44.4415 113.648 45.2413C113.648 46.1552 113.906 47.0121 114.451 47.6404C114.938 48.2402 115.684 48.6115 116.601 48.6115C117.232 48.6115 117.805 48.4401 118.264 48.1259C118.78 47.7546 119.181 47.1549 119.267 46.5265H118.207C118.121 46.8692 118.006 47.0406 117.834 47.2405C117.576 47.5262 117.146 47.669 116.63 47.669C116.143 47.669 115.741 47.4976 115.426 47.212C115.024 46.8121 114.795 46.1838 114.795 45.584H119.382L119.411 44.9271ZM112.874 43.042V41.9853C112.702 41.9567 112.53 41.9567 112.358 41.9567C111.527 41.9567 110.753 42.328 110.409 43.1277L110.323 41.9853H109.348V48.4687H110.437V45.584C110.437 44.8985 110.495 44.0131 111.039 43.499C111.326 43.2134 111.756 42.9849 112.272 42.9849C112.473 43.0135 112.702 43.0135 112.874 43.042ZM106.395 45.2413C106.395 46.4408 106.022 47.7261 104.56 47.7261C104.073 47.7261 103.758 47.5262 103.5 47.2977C102.955 46.8121 102.783 46.041 102.783 45.2413C102.783 44.4415 102.955 43.6418 103.5 43.1849C103.758 42.9564 104.073 42.7564 104.56 42.7564C105.994 42.7564 106.395 44.0417 106.395 45.2413ZM107.513 45.2413C107.513 44.1559 107.198 43.1849 106.567 42.5565C106.137 42.1281 105.535 41.8425 104.732 41.8425C103.987 41.8425 103.155 42.2138 102.783 42.8421L102.697 41.9853H101.722V51.2106H102.811V47.6975C103.155 48.2973 103.987 48.6115 104.704 48.6115C105.449 48.6115 106.08 48.3544 106.481 47.9546C107.169 47.3548 107.513 46.3551 107.513 45.2413ZM99.4858 48.4687V44.2131C99.4858 42.785 98.7978 41.8425 97.307 41.8425C96.4756 41.8425 95.6442 42.2709 95.3002 43.0706C95.0135 42.2709 94.3254 41.8425 93.3507 41.8425C92.6053 41.8425 91.8599 42.2138 91.5159 42.9278L91.4012 42.0138H90.4551V48.4972H91.5445V45.0699C91.5445 44.5272 91.6592 43.8418 91.9746 43.4419C92.2326 43.0992 92.6053 42.8707 93.0927 42.8707C94.1247 42.8707 94.4114 43.499 94.4114 44.413V48.5258H95.5009V45.0985C95.5009 44.413 95.6155 43.7561 96.0456 43.3277C96.3036 43.0706 96.6189 42.8992 97.0203 42.8992C98.0524 42.8992 98.3391 43.5276 98.3391 44.4415V48.5544H99.4858V48.4687ZM87.5022 45.2413C87.5022 45.9839 87.3589 46.7836 86.9001 47.2405C86.6421 47.4976 86.2408 47.6975 85.7247 47.6975C85.2087 47.6975 84.836 47.4976 84.5493 47.2405C84.0906 46.755 83.9472 45.9839 83.9472 45.2413C83.9472 44.4987 84.0906 43.699 84.5493 43.242C84.8073 42.9849 85.2087 42.785 85.7247 42.785C86.2408 42.785 86.6135 42.9849 86.9001 43.242C87.3589 43.699 87.5022 44.4701 87.5022 45.2413ZM88.6203 45.2413C88.6203 44.2131 88.3909 43.2705 87.7029 42.5851C87.2155 42.1281 86.5561 41.8425 85.7247 41.8425C84.8933 41.8425 84.2339 42.1281 83.7466 42.5851C83.0298 43.2705 82.8291 44.2131 82.8291 45.2413C82.8291 46.2695 83.0585 47.212 83.7466 47.8975C84.2339 48.3544 84.8933 48.64 85.7247 48.64C86.5561 48.64 87.2155 48.3544 87.7029 47.8975C88.3909 47.1834 88.6203 46.2409 88.6203 45.2413ZM81.5677 46.298H80.4496C80.3923 46.7264 80.2489 47.0121 80.0196 47.2691C79.7616 47.5262 79.3602 47.6975 78.9015 47.6975C78.4141 47.6975 78.0414 47.5262 77.7834 47.2691C77.2674 46.8407 77.124 46.041 77.124 45.2413C77.124 44.4415 77.2674 43.6418 77.7834 43.2134C78.0701 42.9564 78.4141 42.785 78.9015 42.785C79.3315 42.785 79.7042 42.9278 79.9622 43.1849C80.1916 43.4419 80.3636 43.7561 80.4209 44.1845H81.539C81.4817 43.4705 81.195 42.9564 80.765 42.5279C80.3063 42.0995 79.6756 41.8425 78.9015 41.8425C77.7261 41.8425 77.0093 42.3851 76.5506 43.0706C76.2066 43.5847 76.0059 44.2987 76.0059 45.2698C76.0059 46.2409 76.2066 46.9549 76.5506 47.469C77.0093 48.1545 77.7547 48.6972 78.9302 48.6972C79.7329 48.6972 80.3349 48.4401 80.7936 47.9831C81.2523 47.4976 81.5104 46.9835 81.5677 46.298Z" fill="black"/>
<path d="M217.116 0.114245C217.288 0.199929 217.46 0.285612 217.574 0.428418C217.718 0.571224 217.804 0.71403 217.89 0.885398C217.976 1.05677 218.004 1.25669 218.004 1.45662C218.004 1.65655 217.976 1.85648 217.89 2.02785C217.804 2.19921 217.718 2.37058 217.574 2.48483C217.431 2.62763 217.288 2.71332 217.116 2.799C216.944 2.88468 216.743 2.91324 216.542 2.91324C216.342 2.91324 216.141 2.88468 215.969 2.799C215.797 2.71332 215.625 2.62763 215.51 2.48483C215.367 2.34202 215.281 2.19921 215.195 2.02785C215.109 1.85648 215.08 1.65655 215.08 1.45662C215.08 1.25669 215.109 1.05677 215.195 0.885398C215.281 0.71403 215.367 0.542663 215.51 0.428418C215.654 0.285612 215.797 0.199929 215.969 0.114245C216.141 0.0285612 216.342 0 216.542 0C216.743 0 216.944 0.0285612 217.116 0.114245ZM216.055 0.314173C215.912 0.371296 215.768 0.45698 215.654 0.571224C215.539 0.685469 215.453 0.828275 215.395 0.971081C215.338 1.11389 215.309 1.28525 215.309 1.45662C215.309 1.62799 215.338 1.79936 215.395 1.94216C215.453 2.08497 215.539 2.22778 215.654 2.34202C215.768 2.45626 215.883 2.54195 216.055 2.59907C216.198 2.65619 216.37 2.68475 216.542 2.68475C216.714 2.68475 216.886 2.65619 217.03 2.59907C217.173 2.54195 217.316 2.45626 217.431 2.34202C217.546 2.22778 217.632 2.08497 217.689 1.94216C217.746 1.79936 217.775 1.62799 217.775 1.45662C217.775 1.28525 217.746 1.11389 217.689 0.971081C217.632 0.828275 217.546 0.685469 217.431 0.571224C217.316 0.45698 217.202 0.371296 217.03 0.314173C216.886 0.257051 216.714 0.22849 216.542 0.22849C216.37 0.199929 216.198 0.22849 216.055 0.314173ZM216.026 2.31346V0.628347H216.686C216.886 0.628347 217.03 0.656908 217.116 0.742592C217.202 0.828275 217.259 0.94252 217.259 1.08533C217.259 1.17101 217.259 1.22813 217.23 1.28525C217.202 1.34238 217.173 1.3995 217.144 1.42806C217.116 1.45662 217.058 1.48518 217.001 1.51374C216.944 1.54231 216.886 1.54231 216.829 1.57087L217.345 2.31346H217.087L216.6 1.57087H216.256V2.31346H216.026ZM216.686 1.37094C216.743 1.37094 216.8 1.34238 216.858 1.34238C216.915 1.31382 216.944 1.28525 216.972 1.25669C217.001 1.22813 217.03 1.17101 217.03 1.08533C217.03 1.0282 217.03 0.971081 217.001 0.94252C216.972 0.913959 216.944 0.885398 216.915 0.856837C216.886 0.828275 216.829 0.828275 216.8 0.799714C216.743 0.799714 216.714 0.799714 216.657 0.799714H216.284V1.37094H216.571C216.571 1.37094 216.628 1.37094 216.686 1.37094Z" fill="black"/>
</svg>
