<svg width="99" height="110" viewBox="0 0 99 110" fill="none" xmlns="http://www.w3.org/2000/svg">
<g style="mix-blend-mode:multiply" opacity="0.05">
<path d="M23.7495 18.952C48.3297 6.65595 76.9129 27.5556 103.023 36.47C123.122 43.329 130.399 76.7279 113.431 91.3541C98.4101 104.307 37.5751 122.506 14.2257 97.6156C-13.8198 67.7299 6.8768 27.3883 23.7495 18.952Z" fill="black"/>
</g>
<path opacity="0.15" d="M107.17 86.0567C133.221 98.1714 18.3218 96.2817 5.04433 90.3424C-6.94859 84.9769 87.9143 77.1141 107.17 86.0567Z" fill="black"/>
<path d="M80.3747 1.57739H45.8047V88.4982H80.3747V1.57739Z" fill="#019DF4"/>
<path d="M47.5968 1.49369V87.7095C47.5968 88.534 46.9276 89.2032 46.1031 89.2032H45.4937C44.6692 89.2032 44 88.534 44 87.7095V1.49369C44 0.669173 44.6692 0 45.4937 0H46.1031C46.9276 0 47.5968 0.669173 47.5968 1.49369Z" fill="#D3D4D3"/>
<path d="M82.1652 1.49369V87.7095C82.1652 88.534 81.496 89.2032 80.6715 89.2032H80.062C79.2375 89.2032 78.5684 88.534 78.5684 87.7095V1.49369C78.5684 0.669173 79.2375 0 80.062 0H80.6715C81.496 0 82.1652 0.669173 82.1652 1.49369Z" fill="#D3D4D3"/>
<path d="M63.9434 0.716971V88.4981C63.9434 88.8925 63.6207 89.2151 63.2264 89.2151H62.9396C62.5453 89.2151 62.2227 88.8925 62.2227 88.4981V0.716971C62.2227 0.322637 62.5453 0 62.9396 0H63.2264C63.6207 0 63.9434 0.322637 63.9434 0.716971Z" fill="#D3D4D3"/>
<path d="M71.7813 0.716971V88.4981C71.7813 88.8925 71.4586 89.2151 71.0643 89.2151H70.7775C70.3832 89.2151 70.0605 88.8925 70.0605 88.4981V0.716971C70.0605 0.322637 70.3832 0 70.7775 0H71.0643C71.4706 0 71.7813 0.322637 71.7813 0.716971Z" fill="#D3D4D3"/>
<path d="M55.5547 0.716971V88.4981C55.5547 88.8925 55.2321 89.2151 54.8377 89.2151H54.551C54.1566 89.2151 53.834 88.8925 53.834 88.4981V0.716971C53.834 0.322637 54.1566 0 54.551 0H54.8377C55.244 0 55.5547 0.322637 55.5547 0.716971Z" fill="#D3D4D3"/>
<path d="M51.6016 0.716971V88.4981C51.6016 88.8925 51.279 89.2151 50.8846 89.2151H50.5978C50.2035 89.2151 49.8809 88.8925 49.8809 88.4981V0.716971C49.8809 0.322637 50.2035 0 50.5978 0H50.8846C51.279 0 51.6016 0.322637 51.6016 0.716971Z" fill="#D3D4D3"/>
<path d="M67.9102 0.716971V88.4981C67.9102 88.8925 67.5875 89.2151 67.1932 89.2151H66.9064C66.5121 89.2151 66.1895 88.8925 66.1895 88.4981V0.716971C66.1895 0.322637 66.5121 0 66.9064 0H67.1932C67.5875 0 67.9102 0.322637 67.9102 0.716971Z" fill="#D3D4D3"/>
<path d="M75.7617 0.716971V88.4981C75.7617 88.8925 75.4391 89.2151 75.0448 89.2151H74.758C74.3637 89.2151 74.041 88.8925 74.041 88.4981V0.716971C74.041 0.322637 74.3637 0 74.758 0H75.0448C75.4391 0 75.7617 0.322637 75.7617 0.716971Z" fill="#D3D4D3"/>
<path d="M59.5352 0.716971V88.4981C59.5352 88.8925 59.2125 89.2151 58.8182 89.2151H58.5314C58.1371 89.2151 57.8145 88.8925 57.8145 88.4981V0.716971C57.8145 0.322637 58.1371 0 58.5314 0H58.8182C59.2125 0 59.5352 0.322637 59.5352 0.716971Z" fill="#D3D4D3"/>
<path opacity="0.1" d="M55.1538 28.9417H89.1263C90.2854 28.9417 91.2174 29.8857 91.2174 31.0329V57.6683C91.2174 58.8274 90.2734 59.7595 89.1263 59.7595H55.1538C53.9947 59.7595 53.0626 58.8155 53.0626 57.6683V31.0448C53.0507 29.8857 53.9947 28.9417 55.1538 28.9417Z" fill="black"/>
<path d="M61.3448 50.4269H20.4297V87.3031H61.3448V50.4269Z" fill="#019DF4"/>
<path d="M61.7731 53.8445H19.9976C19.1731 53.8445 18.5039 53.1754 18.5039 52.3509V48.5151C18.5039 47.6905 19.1731 47.0214 19.9976 47.0214H61.7612C62.5857 47.0214 63.2549 47.6905 63.2549 48.5151V52.3389C63.2668 53.1754 62.5976 53.8445 61.7731 53.8445Z" fill="#D3D4D3"/>
<path d="M61.7768 90.7208H20.0132C19.1887 90.7208 18.5195 90.0516 18.5195 89.2271V85.3913C18.5195 84.5668 19.1887 83.8976 20.0132 83.8976H61.7768C62.6013 83.8976 63.2705 84.5668 63.2705 85.3913V89.2271C63.2705 90.0516 62.6013 90.7208 61.7768 90.7208Z" fill="#D3D4D3"/>
<path d="M61.7731 59.3772H19.9976C19.1731 59.3772 18.5039 58.708 18.5039 57.8835C18.5039 57.0589 19.1731 56.3898 19.9976 56.3898H61.7612C62.5857 56.3898 63.2549 57.0589 63.2549 57.8835C63.2668 58.696 62.5976 59.3772 61.7731 59.3772Z" fill="#D3D4D3"/>
<path d="M61.7731 64.8979H19.9976C19.1731 64.8979 18.5039 64.2287 18.5039 63.4042C18.5039 62.5797 19.1731 61.9105 19.9976 61.9105H61.7612C62.5857 61.9105 63.2549 62.5797 63.2549 63.4042C63.2668 64.2287 62.5976 64.8979 61.7731 64.8979Z" fill="#D3D4D3"/>
<path d="M61.7731 70.4305H19.9976C19.1731 70.4305 18.5039 69.7613 18.5039 68.9368C18.5039 68.1123 19.1731 67.4431 19.9976 67.4431H61.7612C62.5857 67.4431 63.2549 68.1123 63.2549 68.9368C63.2668 69.7613 62.5976 70.4305 61.7731 70.4305Z" fill="#D3D4D3"/>
<path d="M61.7768 75.9632H20.0132C19.1887 75.9632 18.5195 75.294 18.5195 74.4695C18.5195 73.645 19.1887 72.9758 20.0132 72.9758H61.7768C62.6013 72.9758 63.2705 73.645 63.2705 74.4695C63.2705 75.294 62.6013 75.9632 61.7768 75.9632Z" fill="#D3D4D3"/>
<path d="M61.7731 81.4958H19.9976C19.1731 81.4958 18.5039 80.8266 18.5039 80.0021C18.5039 79.1776 19.1731 78.5084 19.9976 78.5084H61.7612C62.5857 78.5084 63.2549 79.1776 63.2549 80.0021C63.2668 80.8266 62.5976 81.4958 61.7731 81.4958Z" fill="#D3D4D3"/>
<path opacity="0.1" d="M86.1043 47.0093H47.9375V90.7327H86.1043V47.0093Z" fill="black"/>
<path d="M58.2949 91.8679H94.0957V16.9324H58.2949C57.566 16.9324 56.9805 17.518 56.9805 18.2469V90.5654C56.9805 91.2823 57.566 91.8679 58.2949 91.8679Z" fill="#019DF4"/>
<path opacity="0.15" d="M94.0974 26.6713V24.7713H90.8352V16.9324H88.9352V24.7713H83.6655V16.9324H81.7655V24.7713H76.4958V16.9324H74.5958V24.7713H69.326V16.9324H67.4261V24.7713H62.1563V16.9324H60.2564V24.7713H56.9941V26.6713H60.2564V39.1107H56.9941V41.0107H60.2564V53.4502H56.9941V55.3501H60.2564V67.7896H56.9941V69.6896H60.2564V82.129H56.9941V84.029H60.2564V91.8679H62.1563V84.029H67.4261V91.8679H69.326V84.029H74.5958V91.8679H76.4958V84.029H81.7655V91.8679H83.6655V84.029H88.9352V91.8679H90.8352V84.029H94.0974V82.129H90.8352V69.6896H94.0974V67.7896H90.8352V55.3501H94.0974V53.4502H90.8352V41.0107H94.0974V39.1107H90.8352V26.6713H94.0974ZM81.7655 26.6713V39.1107H76.4958V26.6713H81.7655ZM74.5958 55.3501V67.7896H69.326V55.3501H74.5958ZM69.326 53.4502V41.0107H74.5958V53.4502H69.326ZM76.4958 55.3501H81.7655V67.7896H76.4958V55.3501ZM76.4958 53.4502V41.0107H81.7655V53.4502H76.4958ZM74.5958 26.6713V39.1107H69.326V26.6713H74.5958ZM62.1563 26.6713H67.4261V39.1107H62.1563V26.6713ZM62.1563 41.0107H67.4261V53.4502H62.1563V41.0107ZM62.1563 55.3501H67.4261V67.7896H62.1563V55.3501ZM62.1563 82.129V69.6896H67.4261V82.129H62.1563ZM69.326 82.129V69.6896H74.5958V82.129H69.326ZM76.4958 82.129V69.6896H81.7655V82.129H76.4958ZM88.9352 82.129H83.6655V69.6896H88.9352V82.129ZM88.9352 67.7896H83.6655V55.3501H88.9352V67.7896ZM88.9352 53.4502H83.6655V41.0107H88.9352V53.4502ZM88.9352 39.1107H83.6655V26.6713H88.9352V39.1107Z" fill="white"/>
<path d="M94.0957 91.8679L99.5088 89.8842C100.166 89.6453 100.608 89.0119 100.608 88.3069V20.4934C100.608 19.7884 100.166 19.167 99.5088 18.9161L94.0957 16.9324V91.8679Z" fill="#0B2739"/>
<path d="M75.3923 77.3014H67.3145V91.8678H75.3923V77.3014Z" fill="#0B2739"/>
<path d="M83.9509 77.3014H75.873V91.8678H83.9509V77.3014Z" fill="#0B2739"/>
<path d="M76.4942 83.7542H74.7734V86.861H76.4942V83.7542Z" fill="#D3D4D3"/>
<path d="M85.2789 76.704H65.9804C65.7056 76.704 65.4785 76.931 65.4785 77.2059C65.4785 77.4807 65.7056 77.7077 65.9804 77.7077H85.2789C85.5537 77.7077 85.7807 77.4807 85.7807 77.2059C85.7688 76.931 85.5537 76.704 85.2789 76.704Z" fill="#DEE4E3"/>
<path d="M22.5078 43.078L23.2367 44.5597C23.3084 44.7031 23.4398 44.7987 23.5952 44.8226L25.2322 45.0616C25.6266 45.1214 25.7819 45.6113 25.4951 45.8861L24.3121 47.0333C24.1926 47.1408 24.1448 47.3081 24.1687 47.4635L24.4436 49.0886C24.5153 49.483 24.097 49.7817 23.7386 49.6025L22.2807 48.8377C22.1373 48.766 21.97 48.766 21.8266 48.8377L20.3688 49.6025C20.0103 49.7936 19.604 49.483 19.6638 49.0886L19.9386 47.4635C19.9625 47.3081 19.9147 47.1408 19.7952 47.0333L18.6122 45.8861C18.3254 45.6113 18.4808 45.1214 18.8751 45.0616L20.5122 44.8226C20.6675 44.7987 20.8109 44.7031 20.8707 44.5597L21.5996 43.078C21.8266 42.7195 22.3405 42.7195 22.5078 43.078Z" fill="#F28D15"/>
<path opacity="0.1" d="M22.5078 43.078L23.2368 44.5597C23.3085 44.7031 23.4399 44.7987 23.5952 44.8226L25.2323 45.0616C25.6267 45.1214 25.782 45.6113 25.4952 45.8861L24.3122 47.0333C24.1927 47.1408 24.1449 47.3081 24.1688 47.4635L24.4437 49.0886C24.5154 49.483 24.0971 49.7817 23.7386 49.6025L22.2808 48.8377C22.6393 46.0056 20.823 44.7031 20.8946 44.5597L21.6236 43.078C21.8267 42.7195 22.3405 42.7195 22.5078 43.078Z" fill="white"/>
<path d="M30.3105 43.078L31.0394 44.5597C31.1111 44.7031 31.2425 44.7987 31.3979 44.8226L33.035 45.0616C33.4293 45.1214 33.5847 45.6113 33.2979 45.8861L32.1149 47.0333C31.9954 47.1408 31.9476 47.3081 31.9715 47.4635L32.2463 49.0886C32.318 49.483 31.8998 49.7817 31.5413 49.6025L30.0834 48.8377C29.9401 48.766 29.7728 48.766 29.6294 48.8377L28.1715 49.6025C27.813 49.7936 27.4068 49.483 27.4665 49.0886L27.7413 47.4635C27.7652 47.3081 27.7174 47.1408 27.5979 47.0333L26.4149 45.8861C26.1282 45.6113 26.2835 45.1214 26.6778 45.0616L28.3149 44.8226C28.4703 44.7987 28.6137 44.7031 28.6734 44.5597L29.4023 43.078C29.6174 42.7195 30.1312 42.7195 30.3105 43.078Z" fill="#F28D15"/>
<path opacity="0.1" d="M30.3106 43.078L31.0395 44.5597C31.1112 44.7031 31.2426 44.7987 31.398 44.8226L33.0351 45.0616C33.4294 45.1214 33.5847 45.6113 33.2979 45.8861L32.1149 47.0333C31.9954 47.1408 31.9476 47.3081 31.9715 47.4635L32.2464 49.0886C32.3181 49.483 31.8998 49.7817 31.5414 49.6025L30.0835 48.8377C30.442 46.0056 28.6257 44.7031 28.6974 44.5597L29.4263 43.078C29.6175 42.7195 30.1313 42.7195 30.3106 43.078Z" fill="white"/>
<path d="M38.1035 43.078L38.8324 44.5597C38.9041 44.7031 39.0355 44.7987 39.1909 44.8226L40.828 45.0616C41.2223 45.1214 41.3776 45.6113 41.0908 45.8861L39.9078 47.0333C39.7883 47.1408 39.7405 47.3081 39.7644 47.4635L40.0393 49.0886C40.111 49.483 39.6927 49.7817 39.3343 49.6025L37.8764 48.8377C37.733 48.766 37.5657 48.766 37.4223 48.8377L35.9645 49.6025C35.606 49.7936 35.1997 49.483 35.2595 49.0886L35.5343 47.4635C35.5582 47.3081 35.5104 47.1408 35.3909 47.0333L34.2079 45.8861C33.9211 45.6113 34.0765 45.1214 34.4708 45.0616L36.1079 44.8226C36.2632 44.7987 36.4066 44.7031 36.4664 44.5597L37.1953 43.078C37.4104 42.7195 37.9242 42.7195 38.1035 43.078Z" fill="#F28D15"/>
<path opacity="0.1" d="M38.1035 43.078L38.8325 44.5597C38.9041 44.7031 39.0356 44.7987 39.1909 44.8226L40.828 45.0616C41.2224 45.1214 41.3777 45.6113 41.0909 45.8861L39.9079 47.0333C39.7884 47.1408 39.7406 47.3081 39.7645 47.4635L40.0393 49.0886C40.111 49.483 39.6928 49.7817 39.3343 49.6025L37.8765 48.8377C38.235 46.0056 36.4187 44.7031 36.4904 44.5597L37.2193 43.078C37.4105 42.7195 37.9243 42.7195 38.1035 43.078Z" fill="white"/>
<path d="M45.8945 43.078L46.6234 44.5597C46.6951 44.7031 46.8265 44.7987 46.9819 44.8226L48.619 45.0616C49.0133 45.1214 49.1686 45.6113 48.8819 45.8861L47.6989 47.0333C47.5794 47.1408 47.5316 47.3081 47.5555 47.4635L47.8303 49.0886C47.902 49.483 47.4838 49.7817 47.1253 49.6025L45.6674 48.8377C45.524 48.766 45.3567 48.766 45.2134 48.8377L43.7555 49.6025C43.397 49.7936 42.9907 49.483 43.0505 49.0886L43.3253 47.4635C43.3492 47.3081 43.3014 47.1408 43.1819 47.0333L41.9989 45.8861C41.7121 45.6113 41.8675 45.1214 42.2618 45.0616L43.8989 44.8226C44.0542 44.7987 44.1976 44.7031 44.2574 44.5597L44.9863 43.078C45.2014 42.7195 45.7152 42.7195 45.8945 43.078Z" fill="#F28D15"/>
<path opacity="0.1" d="M45.8946 43.078L46.6235 44.5597C46.6952 44.7031 46.8266 44.7987 46.982 44.8226L48.619 45.0616C49.0134 45.1214 49.1687 45.6113 48.8819 45.8861L47.6989 47.0333C47.5794 47.1408 47.5316 47.3081 47.5555 47.4635L47.8304 49.0886C47.9021 49.483 47.4838 49.7817 47.1254 49.6025L45.6675 48.8377C46.026 46.0056 44.2097 44.7031 44.2814 44.5597L45.0103 43.078C45.2015 42.7195 45.7153 42.7195 45.8946 43.078Z" fill="white"/>
<path d="M53.6835 43.078L54.4125 44.5597C54.4841 44.7031 54.6156 44.7987 54.7709 44.8226L56.408 45.0616C56.8024 45.1214 56.9577 45.6113 56.6709 45.8861L55.4879 47.0333C55.3684 47.1408 55.3206 47.3081 55.3445 47.4635L55.6194 49.0886C55.691 49.483 55.2728 49.7817 54.9143 49.6025L53.4565 48.8377C53.3131 48.766 53.1458 48.766 53.0024 48.8377L51.5446 49.6025C51.1861 49.7936 50.7798 49.483 50.8395 49.0886L51.1144 47.4635C51.1383 47.3081 51.0905 47.1408 50.971 47.0333L49.788 45.8861C49.5012 45.6113 49.6565 45.1214 50.0509 45.0616L51.688 44.8226C51.8433 44.7987 51.9867 44.7031 52.0464 44.5597L52.7754 43.078C53.0024 42.7195 53.5043 42.7195 53.6835 43.078Z" fill="#F28D15"/>
<path opacity="0.1" d="M53.6856 43.078L54.4145 44.5597C54.4862 44.7031 54.6176 44.7987 54.773 44.8226L56.4101 45.0616C56.8044 45.1214 56.9598 45.6113 56.673 45.8861L55.49 47.0333C55.3705 47.1408 55.3227 47.3081 55.3466 47.4635L55.6214 49.0886C55.6931 49.483 55.2749 49.7817 54.9164 49.6025L53.4585 48.8377C53.817 46.0056 52.0007 44.7031 52.0724 44.5597L52.8013 43.078C53.0045 42.7195 53.5063 42.7195 53.6856 43.078Z" fill="white"/>
</svg>
