<svg width="187" height="186" viewBox="0 0 187 186" fill="none" xmlns="http://www.w3.org/2000/svg">
<g style="mix-blend-mode:multiply" opacity="0.05">
<path d="M39.4102 32.0691C80.9574 11.2855 129.271 46.6116 173.403 61.6793C207.376 73.2729 219.677 129.726 190.996 154.448C165.607 176.343 62.7793 207.104 23.3125 165.032C-24.0921 114.517 10.8908 46.3289 39.4102 32.0691Z" fill="black"/>
</g>
<path opacity="0.15" d="M180.415 145.494C224.448 165.971 30.237 162.777 7.7945 152.738C-12.4768 143.669 147.867 130.379 180.415 145.494Z" fill="black"/>
<path d="M135.122 2.70129H76.6895V149.621H135.122V2.70129Z" fill="#019DF4"/>
<path d="M79.7202 2.55978V148.288C79.7202 149.682 78.5891 150.813 77.1955 150.813H76.1654C74.7717 150.813 73.6406 149.682 73.6406 148.288V2.55978C73.6406 1.16612 74.7717 0.0350342 76.1654 0.0350342H77.1955C78.5891 0.0350342 79.7202 1.16612 79.7202 2.55978Z" fill="#D3D4D3"/>
<path d="M138.15 2.55978V148.288C138.15 149.682 137.019 150.813 135.625 150.813H134.595C133.201 150.813 132.07 149.682 132.07 148.288V2.55978C132.07 1.16612 133.201 0.0350342 134.595 0.0350342H135.625C137.019 0.0350342 138.15 1.16612 138.15 2.55978Z" fill="#D3D4D3"/>
<path d="M107.35 1.24691V149.621C107.35 150.287 106.805 150.833 106.138 150.833H105.653C104.987 150.833 104.441 150.287 104.441 149.621V1.24691C104.441 0.580378 104.987 0.0350342 105.653 0.0350342H106.138C106.805 0.0350342 107.35 0.580378 107.35 1.24691Z" fill="#D3D4D3"/>
<path d="M120.596 1.24691V149.621C120.596 150.287 120.051 150.833 119.384 150.833H118.899C118.233 150.833 117.688 150.287 117.688 149.621V1.24691C117.688 0.580378 118.233 0.0350342 118.899 0.0350342H119.384C120.071 0.0350342 120.596 0.580378 120.596 1.24691Z" fill="#D3D4D3"/>
<path d="M93.1702 1.24691V149.621C93.1702 150.287 92.6249 150.833 91.9583 150.833H91.4736C90.8071 150.833 90.2617 150.287 90.2617 149.621V1.24691C90.2617 0.580378 90.8071 0.0350342 91.4736 0.0350342H91.9583C92.6451 0.0350342 93.1702 0.580378 93.1702 1.24691Z" fill="#D3D4D3"/>
<path d="M86.4886 1.24691V149.621C86.4886 150.287 85.9432 150.833 85.2767 150.833H84.792C84.1254 150.833 83.5801 150.287 83.5801 149.621V1.24691C83.5801 0.580378 84.1254 0.0350342 84.792 0.0350342H85.2767C85.9432 0.0350342 86.4886 0.580378 86.4886 1.24691Z" fill="#D3D4D3"/>
<path d="M114.057 1.24691V149.621C114.057 150.287 113.512 150.833 112.845 150.833H112.36C111.694 150.833 111.148 150.287 111.148 149.621V1.24691C111.148 0.580378 111.694 0.0350342 112.36 0.0350342H112.845C113.512 0.0350342 114.057 0.580378 114.057 1.24691Z" fill="#D3D4D3"/>
<path d="M127.326 1.24691V149.621C127.326 150.287 126.781 150.833 126.115 150.833H125.63C124.963 150.833 124.418 150.287 124.418 149.621V1.24691C124.418 0.580378 124.963 0.0350342 125.63 0.0350342H126.115C126.781 0.0350342 127.326 0.580378 127.326 1.24691Z" fill="#D3D4D3"/>
<path d="M99.9007 1.24691V149.621C99.9007 150.287 99.3553 150.833 98.6888 150.833H98.2041C97.5375 150.833 96.9922 150.287 96.9922 149.621V1.24691C96.9922 0.580378 97.5375 0.0350342 98.2041 0.0350342H98.6888C99.3553 0.0350342 99.9007 0.580378 99.9007 1.24691Z" fill="#D3D4D3"/>
<path opacity="0.1" d="M92.4919 48.9545H149.915C151.874 48.9545 153.449 50.5501 153.449 52.4891V97.5103C153.449 99.4695 151.854 101.045 149.915 101.045H92.4919C90.5327 101.045 88.9572 99.4493 88.9572 97.5103V52.5093C88.937 50.5501 90.5327 48.9545 92.4919 48.9545Z" fill="black"/>
<path d="M102.953 85.2705H33.7949V147.601H102.953V85.2705Z" fill="#019DF4"/>
<path d="M103.676 91.0469H33.0638C31.6701 91.0469 30.5391 89.9159 30.5391 88.5222V82.0387C30.5391 80.645 31.6701 79.5139 33.0638 79.5139H103.656C105.049 79.5139 106.18 80.645 106.18 82.0387V88.502C106.201 89.9159 105.069 91.0469 103.676 91.0469Z" fill="#D3D4D3"/>
<path d="M103.681 153.378H33.0892C31.6955 153.378 30.5645 152.247 30.5645 150.853V144.369C30.5645 142.976 31.6955 141.845 33.0892 141.845H103.681C105.075 141.845 106.206 142.976 106.206 144.369V150.853C106.206 152.247 105.075 153.378 103.681 153.378Z" fill="#D3D4D3"/>
<path d="M103.676 100.399H33.0638C31.6701 100.399 30.5391 99.2675 30.5391 97.8739C30.5391 96.4802 31.6701 95.3491 33.0638 95.3491H103.656C105.049 95.3491 106.18 96.4802 106.18 97.8739C106.201 99.2473 105.069 100.399 103.676 100.399Z" fill="#D3D4D3"/>
<path d="M103.676 109.73H33.0638C31.6701 109.73 30.5391 108.599 30.5391 107.205C30.5391 105.812 31.6701 104.681 33.0638 104.681H103.656C105.049 104.681 106.18 105.812 106.18 107.205C106.201 108.599 105.069 109.73 103.676 109.73Z" fill="#D3D4D3"/>
<path d="M103.676 119.082H33.0638C31.6701 119.082 30.5391 117.951 30.5391 116.557C30.5391 115.163 31.6701 114.032 33.0638 114.032H103.656C105.049 114.032 106.18 115.163 106.18 116.557C106.201 117.951 105.069 119.082 103.676 119.082Z" fill="#D3D4D3"/>
<path d="M103.681 128.434H33.0892C31.6955 128.434 30.5645 127.302 30.5645 125.909C30.5645 124.515 31.6955 123.384 33.0892 123.384H103.681C105.075 123.384 106.206 124.515 106.206 125.909C106.206 127.302 105.075 128.434 103.681 128.434Z" fill="#D3D4D3"/>
<path d="M103.676 137.785H33.0638C31.6701 137.785 30.5391 136.654 30.5391 135.26C30.5391 133.867 31.6701 132.736 33.0638 132.736H103.656C105.049 132.736 106.18 133.867 106.18 135.26C106.201 136.654 105.069 137.785 103.676 137.785Z" fill="#D3D4D3"/>
<path opacity="0.1" d="M144.807 79.4937H80.2949V153.398H144.807V79.4937Z" fill="black"/>
<path d="M97.8019 155.317H158.315V28.6556H97.8019C96.5698 28.6556 95.5801 29.6453 95.5801 30.8774V153.115C95.5801 154.327 96.5698 155.317 97.8019 155.317Z" fill="#019DF4"/>
<path opacity="0.15" d="M158.316 45.117V41.9055H152.802V28.6556H149.591V41.9055H140.683V28.6556H137.472V41.9055H128.565V28.6556H125.353V41.9055H116.446V28.6556H113.234V41.9055H104.327V28.6556H101.116V41.9055H95.6016V45.117H101.116V66.143H95.6016V69.3545H101.116V90.3805H95.6016V93.592H101.116V114.618H95.6016V117.83H101.116V138.856H95.6016V142.067H101.116V155.317H104.327V142.067H113.234V155.317H116.446V142.067H125.353V155.317H128.565V142.067H137.472V155.317H140.683V142.067H149.591V155.317H152.802V142.067H158.316V138.856H152.802V117.83H158.316V114.618H152.802V93.592H158.316V90.3805H152.802V69.3545H158.316V66.143H152.802V45.117H158.316ZM137.472 45.117V66.143H128.565V45.117H137.472ZM125.353 93.592V114.618H116.446V93.592H125.353ZM116.446 90.3805V69.3545H125.353V90.3805H116.446ZM128.565 93.592H137.472V114.618H128.565V93.592ZM128.565 90.3805V69.3545H137.472V90.3805H128.565ZM125.353 45.117V66.143H116.446V45.117H125.353ZM104.327 45.117H113.234V66.143H104.327V45.117ZM104.327 69.3545H113.234V90.3805H104.327V69.3545ZM104.327 93.592H113.234V114.618H104.327V93.592ZM104.327 138.856V117.83H113.234V138.856H104.327ZM116.446 138.856V117.83H125.353V138.856H116.446ZM128.565 138.856V117.83H137.472V138.856H128.565ZM149.591 138.856H140.683V117.83H149.591V138.856ZM149.591 114.618H140.683V93.592H149.591V114.618ZM149.591 90.3805H140.683V69.3545H149.591V90.3805ZM149.591 66.143H140.683V45.117H149.591V66.143Z" fill="white"/>
<path d="M158.314 155.317L167.464 151.964C168.575 151.56 169.322 150.49 169.322 149.298V34.6746C169.322 33.4829 168.575 32.4327 167.464 32.0085L158.314 28.6556V155.317Z" fill="#0B2739"/>
<path d="M126.699 130.695H113.045V155.317H126.699V130.695Z" fill="#0B2739"/>
<path d="M141.167 130.695H127.514V155.317H141.167V130.695Z" fill="#0B2739"/>
<path d="M128.561 141.602H125.652V146.854H128.561V141.602Z" fill="#D3D4D3"/>
<path d="M143.413 129.686H110.794C110.329 129.686 109.945 130.07 109.945 130.534C109.945 130.999 110.329 131.382 110.794 131.382H143.413C143.878 131.382 144.262 130.999 144.262 130.534C144.241 130.07 143.878 129.686 143.413 129.686Z" fill="#DEE4E3"/>
<path d="M37.3102 72.8485L38.5423 75.353C38.6634 75.5954 38.8856 75.757 39.1482 75.7974L41.9153 76.2014C42.5818 76.3023 42.8444 77.1305 42.3597 77.595L40.3601 79.534C40.1581 79.7158 40.0773 79.9986 40.1177 80.2611L40.5822 83.0081C40.7034 83.6746 39.9965 84.1796 39.3906 83.8766L36.9264 82.5839C36.684 82.4627 36.4013 82.4627 36.1589 82.5839L33.6947 83.8766C33.0888 84.1997 32.4021 83.6746 32.5031 83.0081L32.9676 80.2611C33.008 79.9986 32.9272 79.7158 32.7252 79.534L30.7256 77.595C30.2409 77.1305 30.5035 76.3023 31.17 76.2014L33.9371 75.7974C34.1997 75.757 34.4421 75.5954 34.5431 75.353L35.7751 72.8485C36.1589 72.2426 37.0274 72.2426 37.3102 72.8485Z" fill="#F28D15"/>
<path opacity="0.1" d="M37.3123 72.8485L38.5443 75.353C38.6655 75.5954 38.8877 75.757 39.1503 75.7974L41.9174 76.2014C42.5839 76.3023 42.8465 77.1305 42.3617 77.595L40.3621 79.534C40.1602 79.7158 40.0794 79.9986 40.1198 80.2612L40.5843 83.0081C40.7055 83.6746 39.9986 84.1796 39.3926 83.8766L36.9285 82.5839C37.5344 77.797 34.4643 75.5954 34.5855 75.353L35.8176 72.8485C36.161 72.2426 37.0295 72.2426 37.3123 72.8485Z" fill="white"/>
<path d="M50.4996 72.8485L51.7317 75.353C51.8529 75.5954 52.0751 75.757 52.3376 75.7974L55.1048 76.2014C55.7713 76.3023 56.0339 77.1305 55.5491 77.595L53.5495 79.534C53.3475 79.7158 53.2667 79.9986 53.3071 80.2611L53.7717 83.0081C53.8929 83.6746 53.186 84.1796 52.58 83.8766L50.1159 82.5839C49.8735 82.4627 49.5907 82.4627 49.3483 82.5839L46.8842 83.8766C46.2783 84.1997 45.5915 83.6746 45.6925 83.0081L46.1571 80.2611C46.1975 79.9986 46.1167 79.7158 45.9147 79.534L43.9151 77.595C43.4303 77.1305 43.6929 76.3023 44.3595 76.2014L47.1266 75.7974C47.3891 75.757 47.6315 75.5954 47.7325 75.353L48.9646 72.8485C49.3281 72.2426 50.1967 72.2426 50.4996 72.8485Z" fill="#F28D15"/>
<path opacity="0.1" d="M50.4997 72.8485L51.7318 75.353C51.853 75.5954 52.0752 75.757 52.3378 75.7974L55.1049 76.2014C55.7714 76.3023 56.034 77.1305 55.5492 77.595L53.5496 79.534C53.3477 79.7158 53.2669 79.9986 53.3073 80.2612L53.7718 83.0081C53.893 83.6746 53.1861 84.1796 52.5801 83.8766L50.116 82.5839C50.7219 77.797 47.6518 75.5954 47.773 75.353L49.0051 72.8485C49.3283 72.2426 50.1968 72.2426 50.4997 72.8485Z" fill="white"/>
<path d="M63.6715 72.8485L64.9036 75.353C65.0248 75.5954 65.2469 75.757 65.5095 75.7974L68.2766 76.2014C68.9432 76.3023 69.2058 77.1305 68.721 77.595L66.7214 79.534C66.5194 79.7158 66.4386 79.9986 66.479 80.2611L66.9436 83.0081C67.0648 83.6746 66.3578 84.1796 65.7519 83.8766L63.2877 82.5839C63.0454 82.4627 62.7626 82.4627 62.5202 82.5839L60.0561 83.8766C59.4501 84.1997 58.7634 83.6746 58.8644 83.0081L59.329 80.2611C59.3693 79.9986 59.2886 79.7158 59.0866 79.534L57.087 77.595C56.6022 77.1305 56.8648 76.3023 57.5313 76.2014L60.2984 75.7974C60.561 75.757 60.8034 75.5954 60.9044 75.353L62.1365 72.8485C62.5 72.2426 63.3685 72.2426 63.6715 72.8485Z" fill="#F28D15"/>
<path opacity="0.1" d="M63.6736 72.8485L64.9056 75.353C65.0268 75.5954 65.249 75.757 65.5116 75.7974L68.2787 76.2014C68.9452 76.3023 69.2078 77.1305 68.7231 77.595L66.7235 79.534C66.5215 79.7158 66.4407 79.9986 66.4811 80.2612L66.9456 83.0081C67.0668 83.6746 66.3599 84.1796 65.754 83.8766L63.2898 82.5839C63.8957 77.797 60.8257 75.5954 60.9469 75.353L62.1789 72.8485C62.5021 72.2426 63.3706 72.2426 63.6736 72.8485Z" fill="white"/>
<path d="M76.8414 72.8485L78.0735 75.353C78.1947 75.5954 78.4169 75.757 78.6795 75.7974L81.4466 76.2014C82.1131 76.3023 82.3757 77.1305 81.8909 77.595L79.8913 79.534C79.6894 79.7158 79.6086 79.9986 79.649 80.2611L80.1135 83.0081C80.2347 83.6746 79.5278 84.1796 78.9218 83.8766L76.4577 82.5839C76.2153 82.4627 75.9325 82.4627 75.6902 82.5839L73.226 83.8766C72.6201 84.1997 71.9333 83.6746 72.0343 83.0081L72.4989 80.2611C72.5393 79.9986 72.4585 79.7158 72.2565 79.534L70.2569 77.595C69.7721 77.1305 70.0347 76.3023 70.7013 76.2014L73.4684 75.7974C73.731 75.757 73.9733 75.5954 74.0743 75.353L75.3064 72.8485C75.67 72.2426 76.5385 72.2426 76.8414 72.8485Z" fill="#F28D15"/>
<path opacity="0.1" d="M76.8416 72.8485L78.0736 75.353C78.1948 75.5954 78.417 75.757 78.6796 75.7974L81.4467 76.2014C82.1132 76.3023 82.3758 77.1305 81.891 77.595L79.8914 79.534C79.6895 79.7158 79.6087 79.9986 79.6491 80.2612L80.1136 83.0081C80.2348 83.6746 79.5279 84.1796 78.9219 83.8766L76.4578 82.5839C77.0637 77.797 73.9936 75.5954 74.1148 75.353L75.3469 72.8485C75.6701 72.2426 76.5386 72.2426 76.8416 72.8485Z" fill="white"/>
<path d="M90.0074 72.8485L91.2395 75.353C91.3607 75.5954 91.5829 75.757 91.8455 75.7974L94.6126 76.2014C95.2791 76.3023 95.5417 77.1305 95.0569 77.595L93.0573 79.534C92.8554 79.7158 92.7746 79.9986 92.815 80.2611L93.2795 83.0081C93.4007 83.6746 92.6938 84.1796 92.0878 83.8766L89.6237 82.5839C89.3813 82.4627 89.0985 82.4627 88.8562 82.5839L86.392 83.8766C85.7861 84.1997 85.0993 83.6746 85.2003 83.0081L85.6649 80.2611C85.7053 79.9986 85.6245 79.7158 85.4225 79.534L83.4229 77.595C82.9382 77.1305 83.2007 76.3023 83.8673 76.2014L86.6344 75.7974C86.897 75.757 87.1393 75.5954 87.2403 75.353L88.4724 72.8485C88.8562 72.2426 89.7045 72.2426 90.0074 72.8485Z" fill="#F28D15"/>
<path opacity="0.1" d="M90.0095 72.8485L91.2416 75.353C91.3628 75.5954 91.585 75.757 91.8476 75.7974L94.6147 76.2014C95.2812 76.3023 95.5438 77.1305 95.059 77.595L93.0594 79.534C92.8575 79.7158 92.7767 79.9986 92.8171 80.2612L93.2816 83.0081C93.4028 83.6746 92.6959 84.1796 92.0899 83.8766L89.6258 82.5839C90.2317 77.797 87.1616 75.5954 87.2828 75.353L88.5149 72.8485C88.8582 72.2426 89.7066 72.2426 90.0095 72.8485Z" fill="white"/>
</svg>
