<svg width="200" height="47" viewBox="0 0 200 47" fill="none" xmlns="http://www.w3.org/2000/svg">
<g clip-path="url(#clip0)">
<path d="M10.4154 46.811C7.72381 46.811 5.03218 45.7578 3.04271 43.7683C1.05325 41.7788 0 39.2042 0 36.3956V10.4154C0 7.72382 1.05325 5.03218 3.04271 3.04272C5.03218 1.05325 7.60679 0 10.4154 0H36.5126C39.2042 0 41.8958 1.05325 43.8853 3.04272C45.7578 5.03218 46.811 7.60679 46.811 10.4154V36.5126C46.811 39.2042 45.7578 41.8958 43.7683 43.8853C41.7788 45.8748 39.2042 46.928 36.3956 46.928H10.4154V46.811ZM2.5746 10.4154V36.5126C2.5746 38.6191 3.3938 40.6085 4.91515 42.0129C6.43651 43.5342 8.42598 44.3534 10.4154 44.3534H36.5126C38.6191 44.3534 40.6085 43.5342 42.0129 42.0129C43.4172 40.4915 44.3534 38.6191 44.3534 36.5126V10.4154C44.3534 8.30895 43.5342 6.31949 42.0129 4.91515C40.4915 3.3938 38.6191 2.57461 36.5126 2.57461H10.4154C8.30895 2.57461 6.31948 3.3938 4.91515 4.91515C3.3938 6.31949 2.5746 8.30895 2.5746 10.4154ZM31.2463 33.938L23.4055 17.9052L15.7987 33.938H10.7665L20.9479 12.873H25.8631L36.0445 33.938H31.2463Z" fill="#01A77B"/>
<path fill-rule="evenodd" clip-rule="evenodd" d="M104.623 34.0552C104.155 34.2893 102.399 34.5233 100.176 34.5233C96.899 34.5233 92.2179 32.6509 92.2179 25.6292V21.2992C92.2179 14.0435 96.899 12.4051 100.176 12.4051C101.697 12.4051 102.984 12.6392 103.804 12.7562C104.155 12.8732 104.389 12.8732 104.623 12.8732C104.74 12.8732 104.74 12.9903 104.857 12.9903C105.208 13.1073 105.325 13.2243 105.325 13.5754V15.6819C105.325 16.15 105.091 16.384 104.623 16.384C104.272 16.384 103.687 16.384 102.984 16.267C102.048 16.15 101.112 16.15 100.176 16.15C97.7182 16.15 95.9627 17.5543 95.9627 21.6503V25.9803C95.9627 30.0763 97.7182 31.4806 100.176 31.4806C100.995 31.4806 101.931 31.3636 102.75 31.3636C103.453 31.3636 104.155 31.2465 104.623 31.2465C105.091 31.2465 105.325 31.4806 105.325 31.9487V34.0552C105.325 33.8211 105.091 34.0552 104.623 34.0552ZM61.5567 34.2893H64.2483C64.7164 34.2893 64.9505 34.0552 65.1845 33.5871V12.9903C65.1845 12.7562 64.7164 12.5221 64.4823 12.5221H61.5567C61.0885 12.5221 60.8545 12.7562 60.8545 12.9903V33.5871C60.8545 34.0552 61.3226 34.2893 61.5567 34.2893ZM82.6216 34.2893H85.5473C86.2495 34.2893 86.7176 33.8211 86.7176 33.353V13.2243C86.7176 12.9903 86.4835 12.7562 86.2495 12.7562H83.7919C83.5578 12.7562 83.3238 12.9903 83.3238 13.2243V28.5549C83.3238 28.789 83.0897 28.789 83.0897 28.789C83.0897 28.789 82.8557 28.789 82.8557 28.5549L76.1851 13.4584C75.717 12.7562 75.4829 12.5221 74.8978 12.5221H71.738C71.0359 12.5221 70.6848 12.9903 70.6848 13.6924V33.5871C70.6848 34.0552 71.1529 34.2893 71.387 34.2893H73.7275C73.9616 34.2893 74.1956 33.8211 74.1956 33.5871V18.9587C74.1956 18.7246 74.4297 18.7246 74.4297 18.7246C74.4297 18.7246 74.6637 18.7246 74.6637 18.9587L80.8662 33.119C81.3343 34.2893 82.0365 34.2893 82.6216 34.2893ZM121.826 34.2893H125.337C125.571 34.2893 125.805 34.2893 125.571 33.8211V33.5871L121.124 25.1611C123.347 24.2249 124.869 22.4695 124.869 19.1927V18.9587C124.869 13.9265 121.124 12.2881 116.677 12.2881C114.687 12.2881 112.698 12.5221 111.176 12.7562C111.059 12.7562 110.942 12.8732 110.942 12.8732C110.591 12.9903 110.357 13.1073 110.357 13.6924V33.5871C110.357 34.0552 110.825 34.2893 111.059 34.2893H113.985C114.219 34.2893 114.453 33.8211 114.453 33.5871V25.6292C115.155 25.8633 116.208 25.8633 116.911 25.8633H117.379L121.358 33.5871C121.358 34.0552 121.592 34.2893 121.826 34.2893ZM116.911 15.7989C119.836 15.7989 121.124 16.7351 121.124 18.9587V19.1927C121.124 21.6503 119.836 22.5865 116.911 22.5865H114.453V15.9159C114.921 15.7989 116.208 15.7989 116.911 15.7989ZM142.189 34.0552C141.252 34.2893 140.199 34.5233 136.805 34.5233C133.06 34.5233 130.135 33.5871 130.135 28.5549V18.2565C130.135 13.2243 133.06 12.2881 136.805 12.2881C140.082 12.2881 141.252 12.5221 142.189 12.7562C142.657 12.7562 142.891 12.9903 142.891 13.4584V15.3308C142.891 15.5649 142.657 16.033 142.189 16.033H136.454C134.933 16.033 134.231 16.7351 134.231 18.4905V21.6503H141.955C142.189 21.6503 142.657 21.8843 142.657 22.3525V24.4589C142.657 24.693 142.423 25.1611 141.955 25.1611H134.231V29.023C134.231 30.8955 134.933 31.4806 136.454 31.4806H142.189C142.423 31.4806 142.891 31.7147 142.891 32.1828V34.0552H142.189ZM161.147 34.2893H164.307C164.541 34.2893 164.775 34.0552 164.775 33.8211V33.5871L160.094 15.3308C159.392 12.6392 157.402 12.4051 156.115 12.4051C154.945 12.4051 152.721 12.6392 152.136 15.3308L147.455 33.5871V33.8211C147.455 34.0552 147.689 34.2893 147.923 34.2893H151.083C151.317 34.2893 151.551 34.0552 151.551 33.8211L152.838 28.3209H159.509L160.796 33.8211C160.679 34.0552 160.913 34.2893 161.147 34.2893ZM155.998 15.7989C156.232 15.7989 156.466 15.7989 156.466 16.267L158.689 24.9271H153.54L155.53 16.267C155.53 16.033 155.764 15.7989 155.998 15.7989ZM174.956 34.5233C172.733 34.5233 171.211 34.2893 169.807 34.0552C169.573 34.0552 169.339 33.8211 169.339 33.353V31.2465C169.339 31.0125 169.573 30.7784 169.807 30.7784C170.86 31.0125 173.786 31.0125 174.956 31.0125C177.414 31.0125 178.35 30.0763 178.35 28.3209C178.35 27.1506 177.882 26.4484 175.893 25.3952L172.148 23.0546C169.456 21.4162 168.871 19.8949 168.871 17.7884C168.871 14.6286 170.626 12.2881 176.01 12.2881C177.765 12.2881 180.457 12.5221 181.51 12.7562C181.744 12.7562 181.978 12.9903 181.978 13.2243V15.3308C181.978 15.5649 181.744 15.7989 181.51 15.7989C180.223 15.9159 178.935 15.9159 177.648 15.7989C177.063 15.7989 176.361 15.7989 175.658 15.7989C173.669 15.7989 172.733 16.5011 172.733 17.9054C172.733 18.8416 173.201 19.5438 174.956 20.363L178.35 22.4695C181.51 24.3419 182.329 26.0973 182.329 28.4379C182.212 31.3636 180.457 34.5233 174.956 34.5233ZM194.032 34.5233C197.426 34.5233 198.479 34.2893 199.415 34.0552H200.117V32.1828C200.117 31.7147 199.649 31.4806 199.415 31.4806H193.681C192.159 31.4806 191.457 30.7784 191.457 29.023V25.1611H199.181C199.649 25.1611 199.883 24.693 199.883 24.4589V22.3525C199.883 21.8843 199.415 21.6503 199.181 21.6503H191.457V18.4905C191.457 16.6181 192.159 16.033 193.681 16.033H199.415C199.883 16.033 200.117 15.5649 200.117 15.3308V13.4584C200.117 12.9903 199.883 12.7562 199.415 12.7562C198.479 12.5221 197.426 12.2881 194.032 12.2881C190.287 12.2881 187.361 13.2243 187.361 18.2565V28.5549C187.361 33.5871 190.287 34.5233 194.032 34.5233Z" fill="#182026"/>
</g>
<defs>
<clipPath id="clip0">
<rect width="200" height="46.811" fill="white"/>
</clipPath>
</defs>
</svg>
