<svg width="110" height="116" viewBox="0 0 110 116" fill="none" xmlns="http://www.w3.org/2000/svg">
<g style="mix-blend-mode:multiply" opacity="0.05">
<path d="M29.0392 21.9464C54.0371 9.37882 83.1061 30.7401 109.659 39.8513C130.1 46.8618 137.501 80.9982 120.244 95.9474C104.969 109.187 43.0998 127.788 19.3536 102.347C-9.16848 71.8015 11.8919 30.5691 29.0392 21.9464Z" fill="black"/>
</g>
<path opacity="0.15" d="M115.894 88.4729C94.6266 84.9432 -10.0923 88.0576 3.15406 90.1705C6.05853 90.6346 13.3865 91.0377 23.0478 91.343C13.2893 91.5262 4.68529 92.0025 7.03073 92.3689C11.9525 93.1506 54.2678 93.4071 45.3114 91.8316C85.0989 92.3934 135.058 91.6606 115.894 88.4729Z" fill="black"/>
<path d="M64.5864 13.5191H50.7324V89.572H64.5864V13.5191Z" fill="#D3D4D3"/>
<path d="M64.5742 11.3818H50.7324V8.96354C50.7324 7.90097 51.5466 7.02161 52.6039 6.96054C53.9164 6.87504 55.7757 6.78955 57.6594 6.78955C59.6403 6.78955 61.4388 6.87504 62.7149 6.96054C63.7721 7.03382 64.5864 7.90097 64.5864 8.96354V11.3818H64.5742Z" fill="#0B2739"/>
<path d="M64.5864 11.3818H50.7324V15.6565H64.5864V11.3818Z" fill="#A13EA1"/>
<path opacity="0.15" d="M64.5742 89.572H50.7324C50.7324 89.572 62.7027 29.2256 58.7045 6.78955C58.7045 6.78955 61.7548 6.87504 62.727 6.96054C63.7235 7.04603 64.5378 7.82769 64.5742 8.91468V89.572V89.572Z" fill="black"/>
<path opacity="0.15" d="M54.718 4.35911C57.0027 0.817226 66.3845 3.29655 69.3862 2.85687C73.2993 2.28283 67.8914 0.756159 74.4781 0.145488C81.0648 -0.452969 96.2798 0.902719 93.5334 2.24619C90.7869 3.60188 84.3582 1.50118 79.1082 2.17291C73.8583 2.84465 83.8599 4.95757 77.4555 5.25069C73.5424 5.43389 68.2317 5.1652 62.3984 4.45682C56.6624 3.76066 54.001 5.47054 54.718 4.35911Z" fill="black"/>
<path d="M86.145 21.3235H72.291V89.4377H86.145V21.3235Z" fill="#D3D4D3"/>
<path d="M86.145 19.1862H72.291V16.7679C72.291 15.7054 73.1052 14.826 74.1625 14.7649C75.475 14.6794 77.3343 14.5939 79.218 14.5939C81.1989 14.5939 82.9974 14.6794 84.2735 14.7649C85.3307 14.8382 86.145 15.7054 86.145 16.7679V19.1862Z" fill="#0B2739"/>
<path d="M86.145 19.1862H72.291V23.4609H86.145V19.1862Z" fill="#A13EA1"/>
<path opacity="0.15" d="M73.8965 88.7782C76.886 72.2046 83.4363 32.3278 80.2766 14.5939C80.2766 14.5939 83.3269 14.6794 84.2991 14.7649C85.2956 14.8504 86.1098 15.6321 86.1463 16.7191V88.3263L73.8965 88.7782Z" fill="black"/>
<path opacity="0.15" d="M76.2771 12.1635C78.5617 8.6216 87.9435 11.1009 90.9452 10.6612C94.8583 10.0872 89.4504 8.56053 96.0371 7.94986C102.624 7.33919 117.839 8.70709 115.092 10.0506C112.346 11.394 105.917 9.30555 100.667 9.97728C95.4295 10.649 105.419 12.7619 99.0145 13.0551C95.1014 13.2383 89.7907 12.9696 83.9575 12.2612C78.2336 11.5528 75.5722 13.2749 76.2771 12.1635Z" fill="black"/>
<path d="M117.001 89.682H43.8544C41.4482 89.682 39.4673 87.7767 39.3701 85.3584L38.2034 57.4874C38.094 54.9226 40.1357 52.7853 42.6877 52.7853H118.18C120.732 52.7853 122.773 54.9226 122.664 57.4874L121.497 85.3584C121.388 87.7767 119.407 89.682 117.001 89.682Z" fill="#0B2739"/>
<path d="M114.338 72.2901H46.5025C45.4695 72.2901 44.631 71.484 44.5702 70.4459L43.999 59.3561C43.9383 58.2447 44.8254 57.3165 45.9313 57.3165H114.909C116.015 57.3165 116.89 58.2447 116.842 59.3561L116.27 70.4459C116.21 71.484 115.359 72.2901 114.338 72.2901Z" fill="#019DF4"/>
<path opacity="0.15" d="M114.339 72.2901H46.5028C45.4698 72.2901 44.6313 71.484 44.5705 70.4459L44.4004 67.0994C44.4004 67.0994 99.0506 71.2153 105.613 57.3165H114.91C116.016 57.3165 116.891 58.2447 116.842 59.3561L116.271 70.4459C116.21 71.484 115.359 72.2901 114.339 72.2901Z" fill="white"/>
<path d="M80.4199 55.3867V73.1694" stroke="#0B2739" stroke-width="2" stroke-miterlimit="10"/>
<path d="M61.7891 55.3867V73.1694" stroke="#0B2739" stroke-width="2" stroke-miterlimit="10"/>
<path d="M99.0508 55.3867V73.1694" stroke="#0B2739" stroke-width="2" stroke-miterlimit="10"/>
<path d="M47.7173 92.2085H8.42793C7.66232 92.2085 7.05469 91.5856 7.05469 90.8284V85.9919C7.05469 85.2224 7.67447 84.6118 8.42793 84.6118H47.7173C48.4829 84.6118 49.0905 85.2346 49.0905 85.9919V90.8284C49.0905 91.5856 48.4829 92.2085 47.7173 92.2085Z" fill="#0B2739"/>
<path opacity="0.15" d="M49.0905 89.5216L7.05469 90.3032V82.6943H49.0905V89.5216Z" fill="black"/>
<path d="M53.0159 88.3979H3.12957C1.70772 88.3979 0.686905 87.03 1.08794 85.6499L6.05835 68.5389C6.3257 67.6229 7.15208 67 8.09998 67H48.0455C48.9934 67 49.8319 67.6229 50.0872 68.5389L55.0576 85.6499C55.4586 87.03 54.4378 88.3979 53.0159 88.3979Z" fill="#019DF4"/>
<path opacity="0.2" d="M3.12957 88.3979C1.70772 88.3979 0.686905 87.03 1.08794 85.6499L6.05835 68.5389C6.3257 67.6229 7.15208 67 8.09998 67H48.0455C48.9934 67 49.8319 67.6229 50.0872 68.5389C50.0872 68.5389 38.8825 67.6473 29.0996 71.006C15.6467 75.6349 3.12957 88.3979 3.12957 88.3979Z" fill="white"/>
<path d="M28.0684 67V88.3979" stroke="#0B2739" stroke-miterlimit="10"/>
<path d="M17.2024 67L14.1035 88.3979" stroke="#0B2739" stroke-miterlimit="10"/>
<path d="M38.9453 67L42.0442 88.3979" stroke="#0B2739" stroke-miterlimit="10"/>
<path d="M5.2207 71.4579H50.9266" stroke="#0B2739" stroke-miterlimit="10"/>
<path d="M2.91211 79.2623H53.2238" stroke="#0B2739" stroke-miterlimit="10"/>
<path d="M53.0159 88.3979H3.12957C1.70772 88.3979 0.686905 87.03 1.08794 85.6499L6.05835 68.5389C6.3257 67.6229 7.15208 67 8.09998 67H48.0455C48.9934 67 49.8319 67.6229 50.0872 68.5389L55.0576 85.6499C55.4586 87.03 54.4378 88.3979 53.0159 88.3979Z" stroke="#0B2739" stroke-width="2" stroke-miterlimit="10"/>
</svg>
