<svg width="183" height="181" viewBox="0 0 183 181" fill="none" xmlns="http://www.w3.org/2000/svg">
<g style="mix-blend-mode:multiply" opacity="0.05">
<path d="M44.9223 34.8058C84.0801 15.1194 129.615 48.5806 171.209 62.8528C203.229 73.8343 214.822 127.307 187.79 150.724C163.861 171.463 66.9474 200.6 29.7503 160.749C-14.928 112.901 18.062 48.3128 44.9223 34.8058Z" fill="black"/>
</g>
<path opacity="0.15" d="M180.974 139.016C147.661 133.487 -16.3754 138.365 4.37418 141.675C8.92387 142.402 20.4028 143.033 35.5367 143.512C20.2505 143.799 6.77276 144.545 10.4468 145.119C18.1565 146.343 84.4411 146.745 70.4113 144.277C132.736 145.157 210.995 144.009 180.974 139.016Z" fill="black"/>
<path d="M100.604 21.6049H78.9023V140.738H100.604V21.6049Z" fill="#D3D4D3"/>
<path d="M100.585 18.2569H78.9023V14.4688C78.9023 12.8044 80.1778 11.4269 81.8339 11.3313C83.8899 11.1973 86.8024 11.0634 89.7531 11.0634C92.856 11.0634 95.6734 11.1973 97.6722 11.3313C99.3283 11.446 100.604 12.8044 100.604 14.4688V18.2569H100.585Z" fill="#0B2739"/>
<path d="M100.604 18.257H78.9023V24.9531H100.604V18.257Z" fill="#A13EA1"/>
<path opacity="0.15" d="M100.585 140.738H78.9023C78.9023 140.738 97.6532 46.2082 91.3902 11.0634C91.3902 11.0634 96.1683 11.1973 97.6912 11.3313C99.2522 11.4652 100.528 12.6896 100.585 14.3923V140.738V140.738Z" fill="black"/>
<path opacity="0.15" d="M85.1481 7.25629C88.7269 1.70812 103.423 5.59184 108.125 4.9031C114.255 4.00391 105.784 1.61246 116.101 0.655877C126.419 -0.281573 150.252 1.84204 145.95 3.94652C141.648 6.07013 131.578 2.77949 123.354 3.83173C115.13 4.88397 130.797 8.19374 120.765 8.6529C114.635 8.93987 106.317 8.51898 97.1791 7.40934C88.1939 6.31884 84.025 8.99727 85.1481 7.25629Z" fill="black"/>
<path d="M134.375 33.8301H112.674V140.527H134.375V33.8301Z" fill="#D3D4D3"/>
<path d="M134.375 30.4821H112.674V26.694C112.674 25.0296 113.949 23.6521 115.605 23.5564C117.661 23.4225 120.574 23.2886 123.525 23.2886C126.627 23.2886 129.445 23.4225 131.444 23.5564C133.1 23.6712 134.375 25.0296 134.375 26.694V30.4821Z" fill="#0B2739"/>
<path d="M134.375 30.4821H112.674V37.1782H134.375V30.4821Z" fill="#A13EA1"/>
<path opacity="0.15" d="M115.188 139.494C119.87 113.533 130.131 51.0677 125.182 23.2886C125.182 23.2886 129.96 23.4225 131.483 23.5564C133.044 23.6903 134.319 24.9148 134.376 26.6175V138.786L115.188 139.494Z" fill="black"/>
<path opacity="0.15" d="M118.918 19.4814C122.497 13.9332 137.193 17.817 141.895 17.1282C148.025 16.229 139.553 13.8376 149.871 12.881C160.189 11.9244 184.022 14.0672 179.72 16.1716C175.418 18.2761 165.348 15.0046 157.124 16.0568C148.919 17.1091 164.567 20.4189 154.535 20.878C148.405 21.165 140.086 20.7441 130.949 19.6345C121.983 18.5248 117.814 21.2224 118.918 19.4814Z" fill="black"/>
<path d="M182.71 140.91H68.13C64.3608 140.91 61.2578 137.925 61.1056 134.137L59.2781 90.4789C59.1067 86.4613 62.3048 83.1132 66.3025 83.1132H184.556C188.554 83.1132 191.752 86.4613 191.581 90.4789L189.753 134.137C189.582 137.925 186.479 140.91 182.71 140.91Z" fill="#0B2739"/>
<path d="M178.539 113.666H72.2777C70.6596 113.666 69.3461 112.404 69.2509 110.778L68.3562 93.406C68.261 91.6651 69.6506 90.2111 71.383 90.2111H179.433C181.166 90.2111 182.536 91.6651 182.46 93.406L181.565 110.778C181.47 112.404 180.138 113.666 178.539 113.666Z" fill="#019DF4"/>
<path opacity="0.15" d="M178.539 113.666H72.2777C70.6596 113.666 69.3461 112.404 69.2509 110.778L68.9844 105.535C68.9844 105.535 154.591 111.983 164.87 90.2111H179.433C181.166 90.2111 182.536 91.6651 182.46 93.406L181.565 110.778C181.47 112.404 180.138 113.666 178.539 113.666Z" fill="white"/>
<path d="M125.406 87.1882V115.044" stroke="#0B2739" stroke-width="2" stroke-miterlimit="10"/>
<path d="M96.2227 87.1882V115.044" stroke="#0B2739" stroke-width="2" stroke-miterlimit="10"/>
<path d="M154.592 87.1882V115.044" stroke="#0B2739" stroke-width="2" stroke-miterlimit="10"/>
<path d="M74.18 144.868H12.6355C11.4362 144.868 10.4844 143.892 10.4844 142.706V135.13C10.4844 133.924 11.4552 132.968 12.6355 132.968H74.18C75.3793 132.968 76.3312 133.943 76.3312 135.13V142.706C76.3312 143.892 75.3793 144.868 74.18 144.868Z" fill="#0B2739"/>
<path opacity="0.15" d="M76.3312 140.659L10.4844 141.883V129.964H76.3312V140.659Z" fill="black"/>
<path d="M82.4801 138.898H4.33586C2.10861 138.898 0.509554 136.756 1.13775 134.594L8.92362 107.79C9.34242 106.355 10.6369 105.38 12.1217 105.38H74.6942C76.179 105.38 77.4925 106.355 77.8923 107.79L85.6782 134.594C86.3064 136.756 84.7073 138.898 82.4801 138.898Z" fill="#019DF4"/>
<path opacity="0.2" d="M4.33586 138.898C2.10861 138.898 0.509554 136.756 1.13775 134.594L8.92362 107.79C9.34242 106.355 10.6369 105.38 12.1217 105.38H74.6942C76.179 105.38 77.4925 106.355 77.8923 107.79C77.8923 107.79 60.3408 106.394 45.0165 111.655C23.9433 118.906 4.33586 138.898 4.33586 138.898Z" fill="white"/>
<path d="M43.4023 105.38V138.898" stroke="#0B2739" stroke-miterlimit="10"/>
<path d="M26.3797 105.38L21.5254 138.898" stroke="#0B2739" stroke-miterlimit="10"/>
<path d="M60.4375 105.38L65.2918 138.898" stroke="#0B2739" stroke-miterlimit="10"/>
<path d="M7.61133 112.363H79.207" stroke="#0B2739" stroke-miterlimit="10"/>
<path d="M3.99609 124.588H82.8066" stroke="#0B2739" stroke-miterlimit="10"/>
<path d="M82.4801 138.898H4.33586C2.10861 138.898 0.509554 136.756 1.13775 134.594L8.92362 107.79C9.34242 106.355 10.6369 105.38 12.1217 105.38H74.6942C76.179 105.38 77.4925 106.355 77.8923 107.79L85.6782 134.594C86.3064 136.756 84.7073 138.898 82.4801 138.898Z" stroke="#0B2739" stroke-width="2" stroke-miterlimit="10"/>
</svg>
