<svg width="201" height="48" viewBox="0 0 201 48" fill="none" xmlns="http://www.w3.org/2000/svg">
<path d="M59.8828 6.6963V46.3014H65.6662V0.734375C65.6662 0.734375 64.6338 0.842016 63.5133 1.37534C62.9041 1.66646 62.2876 2.1533 61.7543 2.65482C60.1226 4.19606 59.8828 6.42719 59.8828 6.6963Z" fill="#0FA2B7"/>
<path d="M93.3112 3.56682C92.5014 2.60294 91.2855 1.7736 89.666 1.07637C88.0465 0.379142 85.808 0.0244141 82.9506 0.0244141C80.0907 0.0244141 78.6865 0.376696 77.0645 1.07637C75.445 1.7736 74.2218 2.60294 73.3851 3.56682C72.5509 4.53071 72.042 5.50684 71.8487 6.49764C71.6604 7.4811 71.5625 8.24194 71.5625 8.77036L71.5968 46.2911L77.4339 46.3107L77.3997 32.5471C77.4363 30.4701 77.8767 29.9931 78.5177 29.6334C79.0632 29.3325 87.567 26.3087 87.6624 26.3087C90.3755 25.4916 92.2935 24.3125 93.4139 22.7688C94.5319 21.2275 95.0922 19.5884 95.0922 17.8539V8.76791C95.0922 8.23949 94.9968 7.47865 94.8035 6.49519C94.62 5.50684 94.116 4.53071 93.3112 3.56682ZM89.2208 16.7726C89.2208 17.3989 89.0593 18.0986 88.7388 18.8667C88.4159 19.6374 87.6526 20.2392 86.4612 20.6746L77.4192 23.9993V9.99846C77.4192 9.56789 77.4755 9.09818 77.5905 8.59177C77.7055 8.08536 77.9721 7.59119 78.3856 7.10679C78.799 6.62974 79.3886 6.22853 80.147 5.91539C80.9029 5.60469 81.906 5.44323 83.1512 5.44323C84.482 5.44323 85.5413 5.60225 86.3218 5.91539C87.1046 6.22853 87.7138 6.60284 88.1517 7.03585C88.5896 7.47132 88.8783 7.93858 89.0153 8.44254C89.1547 8.9514 89.2208 9.41622 89.2208 9.85413V16.7726Z" fill="#0FA2B7"/>
<path d="M200.725 6.47567C200.54 5.48487 200.05 4.50875 199.272 3.54486C198.485 2.57852 197.31 1.74919 195.745 1.04707C194.179 0.347391 192.014 0 189.249 0C187.035 0 185.24 0.22996 183.86 0.684994C182.48 1.14492 181.323 1.7125 180.405 2.38771C179.53 1.7125 178.402 1.14737 177.017 0.684994C176.621 0.555334 176.188 0.442803 175.718 0.352285C174.581 0.122322 173.237 0.00244642 171.689 0C171.667 0 171.647 0 171.625 0C168.866 0 166.696 0.349838 165.13 1.04707C163.562 1.74919 162.378 2.58097 161.575 3.54486C160.766 4.50875 160.271 5.48243 160.088 6.47567C159.902 7.46647 159.812 8.22486 159.812 8.75574V46.2985H165.683V9.98629C165.683 9.55082 165.742 9.08111 165.859 8.57226C165.972 8.06829 166.238 7.57412 166.649 7.08973C167.068 6.60778 167.655 6.20902 168.413 5.89832C168.844 5.72218 169.35 5.59007 169.932 5.51667C170.385 5.45551 170.877 5.42616 171.42 5.42616C172.758 5.42616 173.812 5.58273 174.598 5.89832C175.023 6.06712 175.393 6.25794 175.718 6.46588C175.99 6.63713 176.229 6.82062 176.428 7.02123C176.868 7.45424 177.157 7.92395 177.294 8.43036C177.436 8.93432 177.504 9.40648 177.504 9.8395V46.2985H183.378V33.1147V9.98629C183.378 9.55082 183.437 9.08111 183.552 8.57226C183.664 8.06829 183.919 7.57412 184.312 7.08973C184.701 6.60778 185.276 6.20902 186.037 5.89832C186.796 5.58273 187.701 5.27203 188.995 5.27203C190.331 5.27203 191.392 5.4286 192.175 5.7393C192.961 6.05489 193.57 6.42674 194.005 6.8622C194.445 7.29277 194.734 7.76494 194.869 8.27379C195.008 8.77775 195.074 9.24746 195.06 9.69271L195.099 46.2765C195.155 46.2642 199.404 45.8801 200.637 41.7726C201.034 40.4515 200.999 39.2699 200.999 38.125V9.62176V8.75574C200.997 8.22486 200.904 7.46647 200.725 6.47567Z" fill="#0FA2B7"/>
<path d="M148.165 37.5285C148.165 37.9028 148.096 38.3407 147.959 38.8325C147.817 39.3242 147.531 39.7817 147.096 40.2049C146.655 40.6257 146.048 40.9902 145.266 41.2985C144.483 41.6043 143.426 41.7559 142.093 41.7559C140.852 41.7559 139.849 41.6043 139.088 41.2985C138.33 40.9902 137.745 40.6159 137.332 40.1707C136.918 39.723 136.649 39.2533 136.537 38.764C136.422 38.2698 136.363 37.8099 136.363 37.3866V0.739265H130.499V36.7555V38.5144C130.499 39.0306 130.592 39.7719 130.775 40.7333C130.959 41.6948 131.441 42.6489 132.224 43.5859C133.007 44.5253 134.181 45.3326 135.744 46.0152C137.305 46.6977 139.472 47.0378 142.227 47.0378C144.992 47.0378 147.152 46.6953 148.718 46.0152C150.281 45.3326 151.394 44.4739 152.235 43.5859C154.029 41.6997 154.029 37.8099 154.029 37.8099V0.734375H148.165V37.5285Z" fill="#0FA2B7"/>
<path d="M122.957 3.50816C122.167 2.55651 120.983 1.72962 119.41 1.03484C117.829 0.344948 115.652 0 112.863 0C110.079 0 107.902 0.344948 106.321 1.03484C104.743 1.72962 103.559 2.55651 102.774 3.50816C101.986 4.46472 101.495 5.43105 101.311 6.40962C101.123 7.38819 101.032 8.13924 101.032 8.66277V17.6044C101.032 19.3243 101.566 20.9462 102.632 22.4728C103.699 24.0018 105.553 25.1761 108.198 25.9859C108.291 25.9859 115.716 28.6109 115.992 28.7087C117.201 29.1418 117.964 29.7485 118.292 30.5338C118.617 31.3288 118.779 32.0041 118.779 32.579V37.3642C118.779 37.7483 118.71 38.1862 118.568 38.6901C118.429 39.1892 118.14 39.6565 117.697 40.087C117.257 40.5176 116.64 40.8846 115.85 41.1977C115.062 41.506 113.996 41.6625 112.65 41.6625C111.398 41.6625 110.39 41.506 109.624 41.1977C108.858 40.8846 108.266 40.5054 107.845 40.0503C107.427 39.5977 107.165 39.1207 107.048 38.6167C106.933 38.1177 106.874 36.3416 106.874 35.9134V35.27H101.032V38.3672C101.032 38.8907 101.123 39.6467 101.311 40.6228C101.492 41.6038 101.984 42.5701 102.774 43.5218C103.559 44.4808 104.746 45.3028 106.321 45.9951C107.902 46.6875 110.079 47.0349 112.863 47.0349C115.652 47.0349 117.827 46.6899 119.41 45.9951C120.985 45.3028 122.167 44.4808 122.957 43.5218C123.745 42.5701 124.232 41.6136 124.418 40.657C124.606 39.7029 124.694 38.9397 124.694 38.3672V32.4322V31.5686C124.694 29.9491 124.256 28.469 123.373 27.1308C122.908 26.414 122.363 25.7828 121.739 25.2348C121.11 24.6844 120.379 24.2685 119.547 23.9798C118.894 23.6471 109.918 20.4937 109.732 20.3982C108.521 19.9677 107.745 19.3732 107.395 18.6099C107.053 17.8466 106.879 17.1518 106.879 16.5329V9.88353C106.879 9.45052 106.938 8.98326 107.053 8.48174C107.17 7.98267 107.432 7.49339 107.85 7.01389C108.271 6.53684 108.861 6.14541 109.629 5.83471C110.395 5.52157 111.403 5.36744 112.655 5.36744C114.003 5.36744 115.07 5.52157 115.855 5.83471C116.645 6.14785 117.262 6.51237 117.702 6.94539C118.142 7.37351 118.434 7.84322 118.573 8.34229C118.715 8.84381 118.783 10.5221 118.783 10.9502V11.7379H124.696V8.66277C124.696 8.13924 124.606 7.38574 124.42 6.40962C124.232 5.43105 123.745 4.46472 122.957 3.50816Z" fill="#0FA2B7"/>
<path d="M41.368 0H7.71503C3.86437 0 0.953125 3.01644 0.953125 6.74478V40.2876C0.953125 44.0111 3.72981 47.0349 7.71503 47.0349H41.368C45.4266 47.0349 48.1299 44.0111 48.1299 40.2876V6.74478C48.1274 3.01644 45.3092 0 41.368 0Z" fill="url(#paint0_linear)"/>
<path d="M15.1621 30.0712L26.0707 40.5198V10.8448L17.6354 2.96484L17.6208 31.3237L15.1621 30.0712Z" fill="url(#paint1_linear)"/>
<path d="M19.4316 32.1339L29.6895 42.24V18.0351L23.4902 12.3203V33.9613L19.4316 31.2727V32.1339Z" fill="url(#paint2_linear)"/>
<path d="M25.332 34.5088L35.7 44.3189V20.1165L29.3491 14.4971V36.1332L25.332 33.6476V34.5088Z" fill="url(#paint3_linear)"/>
<path d="M33.358 16.3545L31.1855 43.9795L34.5812 47.035H41.2452C42.669 47.035 47.5007 46.5702 48.1246 40.5202V30.4018L33.358 16.3545Z" fill="url(#paint4_linear)"/>
<path d="M17.6366 2.96484C17.6366 2.96484 12.6875 3.83822 12.6875 9.624C12.6875 11.1579 12.6875 23.3655 12.6875 24.9019C12.6875 30.0418 17.6366 31.3825 17.6366 31.3825V2.96484Z" fill="white"/>
<path d="M31.187 43.8053C31.187 43.8053 35.9771 42.7557 35.9796 37.2048C35.9796 35.6758 35.9796 22.9544 35.9796 21.4205C35.9796 16.2047 31.1846 15.1748 31.1846 15.1748L31.187 43.8053Z" fill="white"/>
<path d="M19.4316 10.7979V32.1208L23.4902 33.7746V12.3195L19.4316 10.7979Z" fill="white"/>
<path d="M25.332 13.0068V34.5084L29.3491 36.1157V14.4967L25.332 13.0068Z" fill="white"/>
<defs>
<linearGradient id="paint0_linear" x1="-1.2169" y1="8.6511" x2="50.3281" y2="38.4106" gradientUnits="userSpaceOnUse">
<stop offset="0.0578" stop-color="#4ABFCE"/>
<stop offset="0.2736" stop-color="#2AB3C5"/>
<stop offset="0.5221" stop-color="#00A5BA"/>
<stop offset="0.9911" stop-color="#558FA6"/>
<stop offset="1" stop-color="#578EA6"/>
</linearGradient>
<linearGradient id="paint1_linear" x1="15.1617" y1="21.7423" x2="26.0695" y2="21.7423" gradientUnits="userSpaceOnUse">
<stop stop-color="#266E8C"/>
<stop offset="1" stop-color="#00A5BA" stop-opacity="0"/>
</linearGradient>
<linearGradient id="paint2_linear" x1="19.432" y1="27.2797" x2="29.6897" y2="27.2797" gradientUnits="userSpaceOnUse">
<stop stop-color="#266E8C"/>
<stop offset="1" stop-color="#00A5BA" stop-opacity="0"/>
</linearGradient>
<linearGradient id="paint3_linear" x1="25.3317" y1="29.4078" x2="35.6993" y2="29.4078" gradientUnits="userSpaceOnUse">
<stop stop-color="#266E8C"/>
<stop offset="1" stop-color="#00A5BA" stop-opacity="0"/>
</linearGradient>
<linearGradient id="paint4_linear" x1="31.1864" y1="31.6944" x2="48.1276" y2="31.6944" gradientUnits="userSpaceOnUse">
<stop stop-color="#266E8C"/>
<stop offset="0.163" stop-color="#1B7E99" stop-opacity="0.837"/>
<stop offset="0.456" stop-color="#0C93AB" stop-opacity="0.544"/>
<stop offset="0.7394" stop-color="#03A0B6" stop-opacity="0.2606"/>
<stop offset="1" stop-color="#00A5BA" stop-opacity="0"/>
</linearGradient>
</defs>
</svg>
