<svg width="203" height="180" viewBox="0 0 203 180" fill="none" xmlns="http://www.w3.org/2000/svg">
<g style="mix-blend-mode:multiply" opacity="0.05">
<path d="M43.5836 15.2039C88.1401 -7.05179 139.953 30.7764 187.282 46.9112C223.715 59.326 236.907 119.778 206.148 146.251C178.921 169.696 68.6453 202.636 26.3199 157.584C-24.5181 103.491 13.0202 30.4736 43.5836 15.2039Z" fill="black"/>
</g>
<path opacity="0.15" d="M204.113 143.095C199.911 142.121 191.507 141.516 180.698 141.191C180.503 141.126 180.286 141.083 180.07 141.018C157.391 135.373 11.0283 138.682 25.1512 142.1C28.6386 142.943 41.6351 143.743 58.8122 144.371C50.3428 145.128 46.2922 145.885 49.2598 146.555C63.426 149.735 233.486 149.908 204.113 143.095Z" fill="black"/>
<path d="M21.4004 32.5842C21.4004 11.172 52.4621 11.5397 52.4621 32.5842C52.4621 49.9086 36.8446 68.0981 36.8446 68.0981C36.8446 68.0981 21.4004 49.9086 21.4004 32.5842Z" fill="#019DF4"/>
<path d="M36.9277 41.2998C41.1626 41.2998 44.5957 37.8719 44.5957 33.6433C44.5957 29.4147 41.1626 25.9868 36.9277 25.9868C32.6928 25.9868 29.2598 29.4147 29.2598 33.6433C29.2598 37.8719 32.6928 41.2998 36.9277 41.2998Z" fill="white"/>
<path d="M36.459 70.3687C36.459 70.7181 36.3723 71.0501 36.2207 71.3995" stroke="#0B2739" stroke-miterlimit="10"/>
<path d="M34.791 73.1108C29.809 77.3743 15.7944 81.0436 21.5345 86.0933C31.2169 94.6202 43.7369 93.4844 54.9356 103.968C66.1343 114.452 14.4298 125.81 1.60652 136.748C-7.14447 144.209 40.0546 145.135 75.2535 144.977" stroke="#0B2739" stroke-miterlimit="10" stroke-dasharray="2 2"/>
<path d="M76.5332 146.035C76.9664 146.035 77.3996 146.035 77.8329 146.035" stroke="white" stroke-width="5" stroke-miterlimit="10"/>
<path d="M166.398 14.4476C166.398 14.4476 173.048 16.3076 173.481 27.6193C174.001 41.3318 154.549 42.0239 154.549 42.0239C154.549 42.0239 109.993 44.6842 112.571 31.1448C115.148 17.5404 126.499 18.4056 129.726 20.6117C132.953 22.8394 138.802 26.4081 141.336 23.9425C144.239 21.1091 151.582 11.917 166.398 14.4476Z" fill="#0B2739"/>
<path d="M129.079 58.9587C129.079 58.9587 142.53 74.2933 151.281 102.497L145.368 106.476C140.191 99.2742 122.147 78.8137 114.674 70.6381C110.602 66.1826 108.263 61.9218 107.288 57.7259C105.88 51.6699 107.375 45.7437 110.602 39.5796" fill="#50535A"/>
<path d="M156.068 43.4952L152.385 55.5423L147.273 54.1364L147.663 49.5944L152.039 42.6733L156.068 43.4952Z" fill="#0178DF"/>
<path d="M163.887 31.5988C163.887 31.5988 152.32 29.025 147.295 28.3978C137.136 27.1217 118.291 27.0785 109.215 39.7095C105.359 45.0734 103.648 51.151 107.135 58.1153C114.782 57.9423 126.782 57.4016 136.724 54.4601C136.724 54.4385 162.522 45.1599 163.887 31.5988Z" fill="#019DF4"/>
<path d="M153.143 116.232C153.251 116.47 153.338 116.708 153.446 116.924L156.197 116.729C155.439 115.886 155.027 114.458 154.637 113.442C154.226 112.382 152.709 106.802 150.435 101.827L145.713 105.72C147.684 109.267 150.868 112.771 153.143 116.232Z" fill="#50535A"/>
<path d="M167.589 17.54C167.589 17.54 168.91 29.3276 160.267 29.1329C151.624 28.9599 155.74 21.5846 156.282 21.2169C156.845 20.8708 167.589 17.54 167.589 17.54Z" fill="#0B2739"/>
<path opacity="0.2" d="M149.522 28.7439C148.677 28.6141 147.919 28.4843 147.269 28.3978C137.11 27.1217 118.265 27.0785 109.189 39.7095C105.334 45.0734 103.623 51.151 107.11 58.1153C108.236 58.0937 109.493 58.0504 110.792 58.0072C113.868 56.7311 117.009 54.6764 120.237 51.6917C128.251 44.2515 134.034 38.6064 141.118 33.4372C144.107 31.2528 146.944 29.6955 149.522 28.7439Z" fill="white"/>
<path opacity="0.1" d="M153.141 29.3936C150.433 30.6047 147.791 32.335 145.321 34.606C137.697 41.6569 130.787 49.2701 126.953 53.0335C124.679 55.2612 122.318 56.7536 119.805 57.3375L119.783 57.4457C125.35 56.9266 131.328 56.0398 136.7 54.461C136.7 54.461 162.498 45.1823 163.863 31.6213C163.885 31.5997 158.253 30.3668 153.141 29.3936Z" fill="black"/>
<path d="M149.527 28.7446C149.527 28.7446 130.877 34.0004 121.412 42.2841C119.051 44.3604 119.375 48.1238 122.04 49.8108C124.379 51.2815 127.542 52.9685 131.332 54.1581L138.957 49.2484L133.802 46.1123L142.661 42.3706C147.968 40.0996 150.892 34.3464 149.527 28.7446Z" fill="#019DF4"/>
<path d="M150.824 28.9604C151.127 29.5228 151.409 30.0419 151.647 30.4961C153.359 33.7836 155.503 36.1627 158.579 36.0546C161.091 35.9681 162.456 34.4757 163.734 32.0101C163.734 31.9884 163.821 31.7722 163.907 31.6208C163.019 31.4045 156.153 29.9121 150.824 28.9604Z" fill="#E7CAAC"/>
<path opacity="0.1" d="M158.945 36.0331C161.068 35.8168 162.324 34.5407 163.472 32.4644L161.155 32.486C161.956 35.1679 158.967 36.0114 158.945 36.0331Z" fill="black"/>
<path d="M168.565 27.7715C168.565 27.7715 159.879 28.5069 158.861 28.7231C158.081 28.8745 158.796 33.1353 159.857 33.1786C162.175 33.2651 168.305 30.9509 168.305 30.9509L168.565 27.7715Z" fill="#E7CAAC"/>
<path opacity="0.1" d="M164.429 32.227C166.465 31.6214 168.284 30.9509 168.284 30.9509L168.566 27.7715C168.566 27.7715 166.205 27.9661 163.8 28.2041C163.302 29.5234 162.977 30.9509 164.429 32.227Z" fill="black"/>
<path d="M172.36 24.0727C172.533 24.3539 172.815 24.6999 173.01 24.8297C173.226 24.9811 173.356 25.1758 173.313 25.392C173.269 25.5651 173.161 25.6732 172.966 25.7381C172.815 25.7814 172.576 25.8462 172.316 25.9328V24.0078C172.338 24.0294 172.36 24.0511 172.36 24.0727Z" fill="#E7CAAC"/>
<path d="M170.126 18.8815C168.588 17.7352 166.227 16.7835 163.563 18.0164C160.855 19.2492 158.841 21.1957 159.577 24.8726C159.815 26.0405 160.53 27.2517 161.245 28.2034C161.397 28.398 161.765 28.7873 161.765 28.7873C161.765 28.7873 163.584 31.3611 169.628 31.9883C170.841 32.1397 171.967 31.3179 172.184 30.1067L172.314 29.3497C173.267 20.8713 170.126 18.8815 170.126 18.8815Z" fill="#E7CAAC"/>
<path d="M167.354 24.3535C167.853 22.8827 168.264 20.6334 168.481 19.0545C168.567 18.4273 168.654 17.8217 168.741 17.2161L157.131 15.2695L153.968 20.828C153.903 21.8662 153.86 22.926 153.925 23.683C154.163 26.884 155.549 30.1067 159.167 30.6041C163.022 31.1448 166.12 28.0736 167.354 24.3535Z" fill="#0B2739"/>
<path opacity="0.2" d="M157.714 30.1935C157.909 30.28 158.125 30.3449 158.364 30.4098C158.667 30.4747 158.97 30.5395 159.252 30.6044C160.356 30.7558 161.375 30.6044 162.328 30.2151C163.194 27.5981 163.736 25.0459 163.887 22.5586C164.104 19.163 163.064 16.3945 160.66 14.967C160.118 14.6426 159.49 14.3614 158.797 14.1235C148.963 15.1401 143.699 21.6286 141.338 23.9212C138.804 26.3869 132.934 22.8182 129.728 20.5904C128.233 19.5523 124.963 18.8169 121.648 19.7037C121.735 20.2228 121.8 20.7851 121.822 21.3907C121.93 23.5535 122.082 27.252 122.277 30.3232C130.984 27.252 140.883 27.5764 147.295 28.3767C149.829 28.7011 154.01 29.5014 157.562 30.2367L157.714 30.1935Z" fill="black"/>
<path d="M192.528 126.389L194.789 124.713L188.993 116.915L186.731 118.591L192.528 126.389Z" fill="#642A72"/>
<path opacity="0.3" d="M192.528 126.389L194.789 124.713L188.993 116.915L186.731 118.591L192.528 126.389Z" fill="black"/>
<path d="M64.203 91.7481C63.0983 93.0026 61.4521 97.1768 62.4485 101.265L69.25 91.2506C69.25 91.2506 65.5027 90.2557 64.203 91.7481Z" fill="#F28D15"/>
<path d="M74.0169 90.601C74.0169 90.601 69.0349 90.0171 67.6919 90.5794C66.5872 91.0336 62.45 100.139 62.2334 102.172C62.0168 104.162 74.0169 90.601 74.0169 90.601Z" fill="#0B2739"/>
<path opacity="0.3" d="M74.0169 90.601C74.0169 90.601 69.0349 90.0171 67.6919 90.5794C66.5872 91.0336 62.45 100.139 62.2334 102.172C62.0168 104.162 74.0169 90.601 74.0169 90.601Z" fill="black"/>
<path d="M59.9143 110.607C59.9143 110.607 51.8564 120.946 53.3944 125.12C54.694 128.667 58.2897 117.031 64.0732 115.041C69.8566 113.03 74.2105 115.452 74.2105 115.452L61.7121 108.985L59.9143 110.607Z" fill="#0B2739"/>
<path opacity="0.3" d="M59.9143 110.607C59.9143 110.607 51.8564 120.946 53.3944 125.12C54.694 128.667 58.2897 117.031 64.0732 115.041C69.8566 113.03 74.2105 115.452 74.2105 115.452L61.7121 108.985L59.9143 110.607Z" fill="black"/>
<path d="M117.358 129.793C117.358 129.793 85.7983 131.047 81.8127 126.656C77.8271 122.266 80.8163 116.686 80.8163 116.686L105.358 114.977L113.438 120.016L117.358 129.793Z" fill="#0B2739"/>
<path opacity="0.3" d="M117.358 129.793C117.358 129.793 85.7983 131.047 81.8127 126.656C77.8271 122.266 80.8163 116.686 80.8163 116.686L105.358 114.977L113.438 120.016L117.358 129.793Z" fill="black"/>
<path d="M104.06 129.922C94.9187 129.793 84.0449 129.101 81.8139 126.656C77.8283 122.266 95.7851 120.384 101.569 120.947C107.157 121.487 111.251 130.031 104.06 129.922Z" fill="#0B2739"/>
<path d="M196.014 110.067C185.681 110.067 177.32 118.416 177.32 128.733C177.32 139.05 185.681 147.398 196.014 147.398C206.346 147.398 214.707 139.05 214.707 128.733C214.707 118.416 206.324 110.067 196.014 110.067ZM196.014 142.467C188.411 142.467 182.237 136.303 182.237 128.711C182.237 121.12 188.411 114.955 196.014 114.955C203.617 114.955 209.79 121.12 209.79 128.711C209.79 136.303 203.617 142.467 196.014 142.467Z" fill="#642A72"/>
<path d="M196.009 136.476C200.303 136.476 203.785 132.999 203.785 128.711C203.785 124.423 200.303 120.946 196.009 120.946C191.714 120.946 188.232 124.423 188.232 128.711C188.232 132.999 191.714 136.476 196.009 136.476Z" fill="#A13EA1"/>
<path d="M197.419 115.042H194.604V142.38H197.419V115.042Z" fill="#A13EA1"/>
<path d="M207.159 136.783L208.568 134.349L184.866 120.664L183.456 123.098L207.159 136.783Z" fill="#A13EA1"/>
<path d="M208.58 123.093L207.172 120.658L183.461 134.327L184.869 136.762L208.58 123.093Z" fill="#A13EA1"/>
<path d="M77.8301 110.067C67.4978 110.067 59.1367 118.416 59.1367 128.733C59.1367 139.05 67.4978 147.398 77.8301 147.398C88.1623 147.398 96.5234 139.05 96.5234 128.733C96.5234 118.416 88.1406 110.067 77.8301 110.067ZM77.8301 142.467C70.2271 142.467 64.0537 136.303 64.0537 128.711C64.0537 121.12 70.2271 114.955 77.8301 114.955C85.433 114.955 91.6064 121.12 91.6064 128.711C91.5847 136.303 85.433 142.467 77.8301 142.467Z" fill="#642A72"/>
<path d="M77.827 136.476C82.1217 136.476 85.6033 132.999 85.6033 128.711C85.6033 124.423 82.1217 120.946 77.827 120.946C73.5323 120.946 70.0508 124.423 70.0508 128.711C70.0508 132.999 73.5323 136.476 77.827 136.476Z" fill="#A13EA1"/>
<path d="M79.2378 115.042H76.4219V142.38H79.2378V115.042Z" fill="#A13EA1"/>
<path d="M88.9751 136.783L90.3848 134.349L66.6825 120.664L65.2728 123.098L88.9751 136.783Z" fill="#A13EA1"/>
<path d="M90.3982 123.098L88.9902 120.663L65.2797 134.332L66.6877 136.767L90.3982 123.098Z" fill="#A13EA1"/>
<path d="M189.601 99.8374C197.312 99.8374 209.68 110.327 208.879 111.387C208.077 112.447 193.716 109.138 185.203 115.648C176.691 122.158 176.149 121.747 163.781 121.747C151.412 121.747 178.943 99.8374 189.601 99.8374Z" fill="#0B2739"/>
<path d="M189.598 99.8374C189.858 99.8374 183.62 104.769 183.62 112.36C183.62 118.459 178.096 120.817 174.761 121.401C172.248 121.834 169.107 121.769 163.8 121.769C151.41 121.747 178.941 99.8374 189.598 99.8374Z" fill="#0B2739"/>
<path d="M190.529 96.2464C190.529 98.777 170.038 131.436 161.525 131.436C153.012 131.436 124.42 137.016 119.481 132.106C114.543 127.197 110.969 120.427 110.969 120.427C110.969 120.427 58.9609 116.036 58.9609 109.007C58.9609 101.978 79.1705 84.1777 86.3619 84.3075C93.5534 84.4373 128.124 90.1472 129.727 92.8075C131.33 95.4678 128.926 99.1879 128.926 102.108C128.926 105.028 128.666 116.729 145.02 116.729C161.374 116.729 167.655 116.166 167.655 98.6255C167.655 81.0849 152.623 62.2248 152.623 58.9157C152.623 55.5849 158.081 47.7554 167.114 47.7554C167.114 47.7554 168.977 49.0747 169.778 54.7846C170.579 60.4945 169.648 62.0951 169.648 62.0951H167.244C167.244 62.1167 190.529 92.5263 190.529 96.2464Z" fill="#0B2739"/>
<path opacity="0.3" d="M190.528 96.2465C190.528 97.8037 183.207 109.397 180.434 113.095C178.116 116.188 180.326 106.066 179.958 97.1549C179.654 89.8877 164.817 69.4271 164.817 67.2859C164.795 63.1116 167.243 62.1167 167.243 62.1167C167.243 62.1167 190.528 92.5264 190.528 96.2465Z" fill="black"/>
<path d="M79.9288 81.1062C82.5064 80.7601 134.991 74.6609 134.991 85.8212C134.991 96.9815 132.001 97.4141 128.796 95.5973C125.612 93.7805 109.972 86.0159 92.687 86.0159C75.4017 86.0159 77.4594 81.4306 79.9288 81.1062Z" fill="#9F591F"/>
<path opacity="0.3" d="M100.96 88.5039C80.815 88.5039 59.8906 105.807 59.8906 105.807V105.85C67.5153 101.978 86.6635 92.7863 95.956 92.7863C107.718 92.7863 113.415 100.659 113.415 107.732C113.415 114.804 106.613 120.017 106.613 120.017L110.945 120.428C110.945 120.428 119.198 115.107 119.198 106.412C119.22 97.6744 112.635 88.5039 100.96 88.5039Z" fill="black"/>
<path opacity="0.1" d="M77.8281 100.054C77.8281 100.054 86.0593 95.5981 95.785 95.5981C105.511 95.5981 111.446 104.055 111.446 104.055C111.446 104.055 104.471 97.9773 96.0883 97.9773C87.7055 97.9773 77.8281 100.054 77.8281 100.054Z" fill="white"/>
<path d="M168.371 47.7554C168.371 47.7554 174.457 49.3559 174.457 55.7146C174.457 62.0734 170.602 62.095 170.602 62.095L167.938 54.2223L168.371 47.7554Z" fill="#F28D15"/>
<path d="M98.1653 44.0781H58.4609V79.5056H98.1653V44.0781Z" fill="#642A72"/>
<path d="M97.778 40.4883H58.8751C57.9437 40.4883 57.1855 41.2453 57.1855 42.1753V47.3229C57.1855 47.5608 57.3805 47.7555 57.6188 47.7555H99.0344C99.2726 47.7555 99.4676 47.5608 99.4676 47.3229V42.1753C99.4676 41.2453 98.7094 40.4883 97.778 40.4883Z" fill="#A13EA1"/>
<path d="M89.3534 40.4883H86.9707V79.506H89.3534V40.4883Z" fill="#0B2739"/>
<path d="M69.5936 40.4883H67.2109V79.506H69.5936V40.4883Z" fill="#0B2739"/>
<path d="M94.9953 79.5059H61.1035V81.3227H94.9953V79.5059Z" fill="#0B2739"/>
<path d="M75.7846 91.6692L68.3848 80.1943L66.8549 81.1779L74.2548 92.6528L75.7846 91.6692Z" fill="#0B2739"/>
<path d="M86.7298 90.9911L76.7441 79.5063H79.1485L88.636 90.4071L86.7298 90.9911Z" fill="#0B2739"/>
<path d="M153.924 58.9157C153.924 55.5849 159.382 47.7554 168.415 47.7554C168.415 47.7554 170.278 49.0747 171.079 54.7846C171.881 60.4946 170.949 62.0951 170.949 62.0951H168.545C168.545 62.1167 153.924 62.2465 153.924 58.9157Z" fill="#D3D4D3"/>
<path d="M152.625 58.9157C152.625 55.5849 158.084 47.7554 167.116 47.7554C167.116 47.7554 168.979 49.0747 169.78 54.7846C170.582 60.4946 169.65 62.0951 169.65 62.0951H167.246C167.246 62.1167 152.625 62.2465 152.625 58.9157Z" fill="#0B2739"/>
<path opacity="0.05" d="M152.625 58.9158C152.625 57.3369 153.86 54.7199 156.134 52.4272C156.134 52.4272 166.575 54.6334 165.968 57.3153C165.232 60.6028 152.625 58.9158 152.625 58.9158Z" fill="#F5F5F5"/>
<path d="M155.981 58.8722C157.082 58.8722 157.974 57.9813 157.974 56.8824C157.974 55.7834 157.082 54.8926 155.981 54.8926C154.88 54.8926 153.988 55.7834 153.988 56.8824C153.988 57.9813 154.88 58.8722 155.981 58.8722Z" fill="#F5F5F5"/>
<path d="M139.973 113.961C140.385 113.506 137.85 109.505 135.966 107.299C136.377 108.186 136.681 109.267 135.359 108.878C133.453 108.316 130.226 105.525 129.923 103.687C128.969 104.314 128.103 105.439 127.583 106.282C126.912 107.364 138.327 115.777 139.973 113.961Z" fill="#0B2739"/>
<path d="M135.361 108.878C136.66 109.267 136.379 108.185 135.967 107.299C134.797 105.914 133.779 104.833 133.584 104.53C133.086 103.752 133.303 102.973 133.303 102.973L132.653 102.346C132.653 102.346 130.227 103.492 129.945 103.687C130.249 105.525 133.454 108.294 135.361 108.878Z" fill="#E7CAAC"/>
<path d="M132.242 102.562C131.982 102.821 131.744 103.059 131.506 103.319L134.127 105.72C134.82 104.292 136.228 103.081 137.138 102.151C138.242 101.005 144.199 95.4461 149.441 89.8875L140.582 85.7349C137.029 90.1903 135.491 97.8252 132.242 102.562Z" fill="#E7CAAC"/>
<path d="M107.115 58.0937C107.115 58.0937 112.141 67.9995 148.726 72.0441C148.726 72.0441 140.538 79.0301 137.722 88.6115L147.275 93.1318C147.275 93.1318 155.722 87.1624 160.878 79.6789C164.3 74.7044 163.455 67.9346 158.928 63.9334C154.942 60.4079 148.184 56.6013 136.704 54.4385L107.115 58.0937Z" fill="#D3D4D3"/>
<path d="M157.669 53.4003L159.055 55.3469C159.358 55.7578 159.207 56.3418 158.752 56.5797L158.188 56.8608L158.405 57.6827C158.513 58.1153 158.015 58.4613 157.647 58.2234L155.069 56.5148L153.553 57.8341L151.365 57.2069L155.394 53.2056C156.044 52.5568 157.127 52.6433 157.669 53.4003Z" fill="#E7CAAC"/>
<path d="M133.457 52.7731L152.692 57.5314L153.082 55.5416L138.937 49.2261L133.457 52.7731Z" fill="#E7CAAC"/>
</svg>
