<svg width="115" height="109" viewBox="0 0 115 109" fill="none" xmlns="http://www.w3.org/2000/svg">
<g style="mix-blend-mode:multiply" opacity="0.05">
<path d="M27.1517 9.12291C53.8867 -4.23109 84.9757 18.4668 113.374 28.1481C135.235 35.5973 143.151 71.8699 124.695 87.7545C108.357 101.822 42.1893 121.587 16.793 94.5548C-13.7112 62.0977 8.81279 18.2851 27.1517 9.12291Z" fill="black"/>
</g>
<path opacity="0.15" d="M123.472 85.8602C120.951 85.2762 115.908 84.9128 109.422 84.7182C109.306 84.6792 109.176 84.6533 109.046 84.6143C95.4376 81.2272 7.61627 83.2128 16.0904 85.2632C18.1829 85.7694 25.9812 86.2495 36.2878 86.6259C31.206 87.0801 28.7755 87.5343 30.5561 87.9366C39.0562 89.8443 141.096 89.9482 123.472 85.8602Z" fill="black"/>
<path d="M13.8398 19.5514C13.8398 6.70353 32.4777 6.92415 32.4777 19.5514C32.4777 29.9465 23.1068 40.8607 23.1068 40.8607C23.1068 40.8607 13.8398 29.9465 13.8398 19.5514Z" fill="#019DF4"/>
<path d="M23.1576 24.7814C25.6987 24.7814 27.7586 22.7246 27.7586 20.1873C27.7586 17.6501 25.6987 15.5933 23.1576 15.5933C20.6166 15.5933 18.5566 17.6501 18.5566 20.1873C18.5566 22.7246 20.6166 24.7814 23.1576 24.7814Z" fill="white"/>
<path d="M22.8754 42.2231C22.8754 42.4328 22.8234 42.632 22.7324 42.8417" stroke="#0B2739" stroke-miterlimit="10"/>
<path d="M21.8747 43.8687C18.8854 46.4268 10.4763 48.6285 13.9205 51.6585C19.7302 56.7748 27.2425 56.0933 33.962 62.3839C40.6815 68.6745 9.65744 75.4893 1.96316 82.0524C-3.28766 86.5292 25.033 87.0849 46.1533 86.9905" stroke="#0B2739" stroke-miterlimit="10" stroke-dasharray="2 2"/>
<path d="M46.9199 87.625C47.1799 87.625 47.4398 87.625 47.6998 87.625" stroke="white" stroke-width="5" stroke-miterlimit="10"/>
<path d="M100.843 8.66924C100.843 8.66924 104.833 9.78532 105.093 16.5726C105.405 24.8005 93.7334 25.2157 93.7334 25.2157C93.7334 25.2157 66.9984 26.812 68.5451 18.688C70.0917 10.525 76.9022 11.0442 78.8388 12.3679C80.7753 13.7046 84.2846 15.8459 85.8052 14.3664C87.5468 12.6664 91.9528 7.15086 100.843 8.66924Z" fill="#0B2739"/>
<path d="M78.4499 35.377C78.4499 35.377 86.5211 44.5782 91.7719 61.501L88.2237 63.8889C85.1174 59.5674 74.2908 47.2905 69.8068 42.3849C67.3634 39.7115 65.9597 37.1549 65.3748 34.6373C64.53 31.0035 65.4268 27.4477 67.3634 23.749" fill="#50535A"/>
<path d="M94.644 26.0981L92.4345 33.3267L89.3672 32.4831L89.6011 29.7578L92.2265 25.605L94.644 26.0981Z" fill="#0178DF"/>
<path d="M99.3356 18.9603C99.3356 18.9603 92.3952 17.4159 89.3798 17.0396C83.2842 16.2739 71.9768 16.2479 66.531 23.8269C64.2175 27.0453 63.1907 30.6921 65.2833 34.8709C69.8712 34.767 77.0716 34.4426 83.0373 32.6776C83.0373 32.6647 98.5168 27.0972 99.3356 18.9603Z" fill="#019DF4"/>
<path d="M92.8896 69.7422C92.9546 69.885 93.0066 70.0277 93.0716 70.1575L94.7222 70.0407C94.2673 69.5346 94.0204 68.6781 93.7864 68.0681C93.5395 67.4322 92.6297 64.084 91.265 61.0991L88.4316 63.4351C89.6144 65.5634 91.5249 67.6658 92.8896 69.7422Z" fill="#50535A"/>
<path d="M101.558 10.5249C101.558 10.5249 102.351 17.5977 97.1647 17.4809C91.9789 17.3771 94.4483 12.9517 94.7733 12.7311C95.1112 12.5235 101.558 10.5249 101.558 10.5249Z" fill="#0B2739"/>
<path opacity="0.2" d="M90.7179 17.2472C90.211 17.1693 89.7561 17.0915 89.3662 17.0396C83.2706 16.2739 71.9631 16.2479 66.5173 23.8269C64.2038 27.0453 63.1771 30.6921 65.2696 34.8709C65.9454 34.8579 66.6993 34.8319 67.4791 34.806C69.3247 34.0403 71.2093 32.8074 73.1458 31.0165C77.9547 26.5522 81.425 23.165 85.675 20.0634C87.4686 18.7526 89.1712 17.8182 90.7179 17.2472Z" fill="white"/>
<path opacity="0.1" d="M92.8885 17.6367C91.2639 18.3635 89.6783 19.4017 88.1966 20.7643C83.6216 24.995 79.4756 29.5632 77.1751 31.8213C75.8104 33.158 74.3937 34.0534 72.886 34.4038L72.873 34.4687C76.2133 34.1573 79.8005 33.6252 83.0238 32.6778C83.0238 32.6778 98.5033 27.1104 99.3221 18.9734C99.3351 18.9604 95.9559 18.2207 92.8885 17.6367Z" fill="black"/>
<path d="M90.7191 17.2476C90.7191 17.2476 79.5286 20.4011 73.8489 25.3716C72.4322 26.6174 72.6272 28.8755 74.2258 29.8878C75.6295 30.7703 77.5271 31.7825 79.8016 32.4963L84.3766 29.5504L81.2833 27.6686L86.5991 25.4235C89.7834 24.0608 91.538 20.6088 90.7191 17.2476Z" fill="#019DF4"/>
<path d="M91.498 17.377C91.68 17.7144 91.849 18.0258 91.9919 18.2984C93.0187 20.271 94.3054 21.6985 96.151 21.6336C97.6587 21.5817 98.4775 20.6863 99.2443 19.2068C99.2443 19.1938 99.2963 19.0641 99.3483 18.9732C98.8154 18.8434 94.6953 17.948 91.498 17.377Z" fill="#E7CAAC"/>
<path opacity="0.1" d="M96.3711 21.6208C97.6448 21.491 98.3986 20.7253 99.0875 19.4795L97.6968 19.4925C98.1777 21.1017 96.3841 21.6078 96.3711 21.6208Z" fill="black"/>
<path d="M102.143 16.6636C102.143 16.6636 96.9315 17.1048 96.3207 17.2346C95.8528 17.3254 96.2817 19.882 96.9185 19.908C98.3092 19.9599 101.987 18.5713 101.987 18.5713L102.143 16.6636Z" fill="#E7CAAC"/>
<path opacity="0.1" d="M99.6611 19.337C100.883 18.9736 101.975 18.5713 101.975 18.5713L102.143 16.6636C102.143 16.6636 100.727 16.7804 99.2842 16.9231C98.9852 17.7148 98.7903 18.5713 99.6611 19.337Z" fill="black"/>
<path d="M104.419 14.4442C104.523 14.6129 104.692 14.8206 104.808 14.8984C104.938 14.9893 105.016 15.1061 104.99 15.2358C104.964 15.3397 104.899 15.4046 104.782 15.4435C104.692 15.4694 104.549 15.5084 104.393 15.5603V14.4053C104.406 14.4183 104.419 14.4312 104.419 14.4442Z" fill="#E7CAAC"/>
<path d="M103.08 11.3295C102.157 10.6417 100.74 10.0707 99.1416 10.8104C97.517 11.5501 96.3082 12.7181 96.7501 14.9243C96.8931 15.6251 97.322 16.3519 97.7509 16.9229C97.8419 17.0397 98.0628 17.2733 98.0628 17.2733C98.0628 17.2733 99.1546 18.8176 102.781 19.194C103.509 19.2848 104.184 18.7917 104.314 18.0649L104.392 17.6107C104.964 12.5235 103.08 11.3295 103.08 11.3295Z" fill="#E7CAAC"/>
<path d="M101.415 14.6127C101.714 13.7302 101.961 12.3806 102.091 11.4332C102.143 11.0568 102.195 10.6935 102.247 10.3301L95.2807 9.16211L93.3832 12.4974C93.3442 13.1203 93.3182 13.7562 93.3572 14.2104C93.5001 16.1311 94.332 18.0648 96.5025 18.3633C98.8159 18.6877 100.675 16.8449 101.415 14.6127Z" fill="#0B2739"/>
<path opacity="0.2" d="M95.6324 18.117C95.7493 18.1689 95.8793 18.2078 96.0223 18.2468C96.2042 18.2857 96.3862 18.3246 96.5552 18.3636C97.218 18.4544 97.8289 18.3636 98.4008 18.13C98.9206 16.5597 99.2456 15.0283 99.3365 13.5359C99.4665 11.4984 98.8427 9.83726 97.4 8.98074C97.0751 8.78607 96.6981 8.61736 96.2822 8.47461C90.3815 9.08456 87.2232 12.9779 85.8066 14.3535C84.2859 15.8329 80.7637 13.6916 78.8401 12.3549C77.9433 11.732 75.9807 11.2908 73.9922 11.8228C74.0442 12.1343 74.0832 12.4717 74.0962 12.8351C74.1612 14.1329 74.2521 16.352 74.3691 18.1949C79.5939 16.352 85.5336 16.5467 89.3808 17.0269C90.9014 17.2215 93.4099 17.7017 95.5414 18.143L95.6324 18.117Z" fill="black"/>
<path d="M116.52 75.8366L117.877 74.8311L114.399 70.152L113.042 71.1575L116.52 75.8366Z" fill="#642A72"/>
<path opacity="0.3" d="M116.52 75.8366L117.877 74.8311L114.399 70.152L113.042 71.1575L116.52 75.8366Z" fill="black"/>
<path d="M39.5227 55.051C38.8598 55.8037 37.872 58.3084 38.4699 60.7612L42.551 54.7525C42.551 54.7525 40.3025 54.1556 39.5227 55.051Z" fill="#F28D15"/>
<path d="M45.4101 54.3633C45.4101 54.3633 42.4207 54.0129 41.6149 54.3503C40.952 54.6228 38.4696 60.0864 38.3396 61.3063C38.2097 62.5003 45.4101 54.3633 45.4101 54.3633Z" fill="#0B2739"/>
<path opacity="0.3" d="M45.4101 54.3633C45.4101 54.3633 42.4207 54.0129 41.6149 54.3503C40.952 54.6228 38.4696 60.0864 38.3396 61.3063C38.2097 62.5003 45.4101 54.3633 45.4101 54.3633Z" fill="black"/>
<path d="M36.9491 66.3674C36.9491 66.3674 32.1142 72.5707 33.037 75.0754C33.8168 77.2037 35.9743 70.2217 39.4446 69.0278C42.9148 67.8209 45.5272 69.2744 45.5272 69.2744L38.0279 65.394L36.9491 66.3674Z" fill="#0B2739"/>
<path opacity="0.3" d="M36.9491 66.3674C36.9491 66.3674 32.1142 72.5707 33.037 75.0754C33.8168 77.2037 35.9743 70.2217 39.4446 69.0278C42.9148 67.8209 45.5272 69.2744 45.5272 69.2744L38.0279 65.394L36.9491 66.3674Z" fill="black"/>
<path d="M71.4174 77.8789C71.4174 77.8789 52.4807 78.6316 50.0893 75.9972C47.6978 73.3627 49.4914 70.0145 49.4914 70.0145L64.2171 68.9893L69.065 72.0131L71.4174 77.8789Z" fill="#0B2739"/>
<path opacity="0.3" d="M71.4174 77.8789C71.4174 77.8789 52.4807 78.6316 50.0893 75.9972C47.6978 73.3627 49.4914 70.0145 49.4914 70.0145L64.2171 68.9893L69.065 72.0131L71.4174 77.8789Z" fill="black"/>
<path d="M63.4371 77.9566C57.9524 77.8788 51.4278 77.4635 50.0891 75.997C47.6977 73.3625 58.4722 72.2334 61.9425 72.5709C65.2957 72.8953 67.7522 78.0215 63.4371 77.9566Z" fill="#0B2739"/>
<path d="M118.611 66.043C112.411 66.043 107.395 71.0523 107.395 77.2427C107.395 83.433 112.411 88.4424 118.611 88.4424C124.811 88.4424 129.828 83.433 129.828 77.2427C129.828 71.0523 124.798 66.043 118.611 66.043ZM118.611 85.4835C114.049 85.4835 110.345 81.7849 110.345 77.2297C110.345 72.6746 114.049 68.9759 118.611 68.9759C123.173 68.9759 126.877 72.6746 126.877 77.2297C126.877 81.7849 123.173 85.4835 118.611 85.4835Z" fill="#642A72"/>
<path d="M118.609 81.8888C121.186 81.8888 123.275 79.8029 123.275 77.2298C123.275 74.6567 121.186 72.5708 118.609 72.5708C116.032 72.5708 113.943 74.6567 113.943 77.2298C113.943 79.8029 116.032 81.8888 118.609 81.8888Z" fill="#A13EA1"/>
<path d="M125.299 82.0733L126.145 80.6128L111.923 72.4011L111.077 73.8616L125.299 82.0733Z" fill="#A13EA1"/>
<path d="M126.151 73.859L125.307 72.3979L111.08 80.5998L111.925 82.0609L126.151 73.859Z" fill="#A13EA1"/>
<path d="M47.6989 66.043C41.4993 66.043 36.4824 71.0523 36.4824 77.2427C36.4824 83.433 41.4993 88.4424 47.6989 88.4424C53.8985 88.4424 58.9154 83.433 58.9154 77.2427C58.9154 71.0523 53.8855 66.043 47.6989 66.043ZM47.6989 85.4835C43.1369 85.4835 39.4328 81.7849 39.4328 77.2297C39.4328 72.6746 43.1369 68.9759 47.6989 68.9759C52.2609 68.9759 55.9651 72.6746 55.9651 77.2297C55.9521 81.7849 52.2609 85.4835 47.6989 85.4835Z" fill="#642A72"/>
<path d="M47.6972 81.8888C50.2741 81.8888 52.3632 79.8029 52.3632 77.2298C52.3632 74.6567 50.2741 72.5708 47.6972 72.5708C45.1203 72.5708 43.0312 74.6567 43.0312 77.2298C43.0312 79.8029 45.1203 81.8888 47.6972 81.8888Z" fill="#A13EA1"/>
<path d="M48.5431 69.0278H46.8535V85.4316H48.5431V69.0278Z" fill="#A13EA1"/>
<path d="M54.3866 82.0733L55.2324 80.6128L41.0104 72.4011L40.1646 73.8616L54.3866 82.0733Z" fill="#A13EA1"/>
<path d="M55.2393 73.8619L54.3945 72.4009L40.1676 80.6027L41.0124 82.0638L55.2393 73.8619Z" fill="#A13EA1"/>
<path d="M114.763 59.9048C119.39 59.9048 126.811 66.1989 126.33 66.8348C125.849 67.4707 117.232 65.4852 112.124 69.3914C107.016 73.2977 106.692 73.0511 99.2702 73.0511C91.8488 73.0511 108.368 59.9048 114.763 59.9048Z" fill="#0B2739"/>
<path d="M114.763 59.9048C114.919 59.9048 111.176 62.8637 111.176 67.4188C111.176 71.0785 107.862 72.4931 105.86 72.8435C104.353 73.103 102.468 73.0641 99.2837 73.0641C91.8494 73.0511 108.369 59.9048 114.763 59.9048Z" fill="#0B2739"/>
<path d="M115.321 57.7502C115.321 59.2686 103.026 78.8648 97.9182 78.8648C92.8103 78.8648 75.6542 82.2131 72.6908 79.2671C69.7275 76.3212 67.583 72.2592 67.583 72.2592C67.583 72.2592 36.377 69.6247 36.377 65.407C36.377 61.1893 48.5032 50.5087 52.8183 50.5865C57.1333 50.6644 77.8767 54.0905 78.8385 55.6867C79.8002 57.283 78.3576 59.5152 78.3576 61.2671C78.3576 63.0191 78.2016 70.04 88.0144 70.04C97.8272 70.04 101.596 69.7026 101.596 59.1777C101.596 48.6529 92.5764 37.3363 92.5764 35.3508C92.5764 33.3522 95.8516 28.6543 101.271 28.6543C101.271 28.6543 102.389 29.4459 102.87 32.872C103.351 36.2981 102.792 37.2585 102.792 37.2585H101.349C101.349 37.2715 115.321 55.518 115.321 57.7502Z" fill="#0B2739"/>
<path opacity="0.3" d="M115.32 57.7502C115.32 58.6846 110.927 65.6407 109.264 67.8598C107.873 69.7157 109.199 63.6421 108.978 58.2953C108.796 53.9348 99.8927 41.6579 99.8927 40.3731C99.8797 37.8685 101.348 37.2715 101.348 37.2715C101.348 37.2715 115.32 55.5181 115.32 57.7502Z" fill="black"/>
<path d="M48.9577 48.6659C50.5044 48.4583 81.9963 44.7986 81.9963 51.495C81.9963 58.1915 80.2027 58.4511 78.2791 57.3609C76.3685 56.2708 66.9847 51.6119 56.613 51.6119C46.2413 51.6119 47.476 48.8606 48.9577 48.6659Z" fill="#9F591F"/>
<path opacity="0.3" d="M61.578 53.1045C49.4907 53.1045 36.9355 63.4866 36.9355 63.4866V63.5126C41.5105 61.1896 53 55.6741 58.5757 55.6741C65.6331 55.6741 69.0514 60.3979 69.0514 64.6416C69.0514 68.8853 64.9703 72.0129 64.9703 72.0129L67.5697 72.2595C67.5697 72.2595 72.5216 69.067 72.5216 63.85C72.5346 58.607 68.5835 53.1045 61.578 53.1045Z" fill="black"/>
<path opacity="0.1" d="M47.6973 60.0347C47.6973 60.0347 52.6362 57.3613 58.4719 57.3613C64.3076 57.3613 67.8688 62.4356 67.8688 62.4356C67.8688 62.4356 63.6837 58.7889 58.6538 58.7889C53.6239 58.7889 47.6973 60.0347 47.6973 60.0347Z" fill="white"/>
<path d="M102.026 28.6543C102.026 28.6543 105.678 29.6146 105.678 33.4301C105.678 37.2455 103.364 37.2585 103.364 37.2585L101.766 32.5346L102.026 28.6543Z" fill="#F28D15"/>
<path d="M59.9018 26.4482H36.0781V47.7056H59.9018V26.4482Z" fill="#642A72"/>
<path d="M59.669 24.2939H36.3263C35.7674 24.2939 35.3125 24.7482 35.3125 25.3062V28.3949C35.3125 28.5376 35.4295 28.6544 35.5724 28.6544H60.4229C60.5658 28.6544 60.6828 28.5376 60.6828 28.3949V25.3062C60.6828 24.7482 60.2279 24.2939 59.669 24.2939Z" fill="#A13EA1"/>
<path d="M54.6133 24.2939H53.1836V47.7056H54.6133V24.2939Z" fill="#0B2739"/>
<path d="M42.7578 24.2939H41.3281V47.7056H42.7578V24.2939Z" fill="#0B2739"/>
<path d="M58 47.7056H37.6641V48.7957H58V47.7056Z" fill="#0B2739"/>
<path d="M46.4714 55.0039L42.0312 48.1187L41.1133 48.7088L45.5534 55.5941L46.4714 55.0039Z" fill="#0B2739"/>
<path d="M53.0385 54.5967L47.0469 47.7056H48.4896L54.1823 54.2463L53.0385 54.5967Z" fill="#0B2739"/>
<path d="M93.3574 35.3508C93.3574 33.3522 96.6327 28.6543 102.052 28.6543C102.052 28.6543 103.17 29.4459 103.651 32.872C104.132 36.2981 103.573 37.2585 103.573 37.2585H102.13C102.13 37.2715 93.3574 37.3493 93.3574 35.3508Z" fill="#D3D4D3"/>
<path d="M92.5781 35.3508C92.5781 33.3522 95.8534 28.6543 101.273 28.6543C101.273 28.6543 102.391 29.4459 102.872 32.872C103.353 36.2981 102.794 37.2585 102.794 37.2585H101.351C101.351 37.2715 92.5781 37.3493 92.5781 35.3508Z" fill="#0B2739"/>
<path opacity="0.05" d="M92.5781 35.3508C92.5781 34.4034 93.319 32.8331 94.6837 31.4575C94.6837 31.4575 100.948 32.7812 100.584 34.3905C100.142 36.3631 92.5781 35.3508 92.5781 35.3508Z" fill="#F5F5F5"/>
<path d="M94.5922 35.3249C95.2526 35.3249 95.7879 34.7903 95.7879 34.1309C95.7879 33.4716 95.2526 32.937 94.5922 32.937C93.9318 32.937 93.3965 33.4716 93.3965 34.1309C93.3965 34.7903 93.9318 35.3249 94.5922 35.3249Z" fill="#F5F5F5"/>
<path d="M84.9866 68.3793C85.2335 68.1067 83.7129 65.7058 82.5821 64.3821C82.8291 64.9142 83.011 65.5631 82.2182 65.3295C81.0745 64.9921 79.1379 63.3179 78.9559 62.2148C78.384 62.5912 77.8642 63.266 77.5522 63.7722C77.1493 64.4211 83.9988 69.4694 84.9866 68.3793Z" fill="#0B2739"/>
<path d="M82.218 65.3294C82.9979 65.563 82.8289 64.9141 82.5819 64.382C81.8801 63.5515 81.2692 62.9026 81.1523 62.7209C80.8533 62.2537 80.9833 61.7865 80.9833 61.7865L80.5934 61.4102C80.5934 61.4102 79.1377 62.098 78.9688 62.2148C79.1507 63.3179 81.0743 64.979 82.218 65.3294Z" fill="#E7CAAC"/>
<path d="M80.3482 61.54C80.1922 61.6957 80.0492 61.8385 79.9062 61.9942L81.4789 63.4347C81.8948 62.5782 82.7396 61.8515 83.2855 61.2934C83.9483 60.6056 87.5225 57.2703 90.6678 53.9351L85.352 51.4434C83.2205 54.1168 82.2977 58.6979 80.3482 61.54Z" fill="#E7CAAC"/>
<path d="M65.2715 34.8578C65.2715 34.8578 68.2868 40.8015 90.2389 43.2284C90.2389 43.2284 85.326 47.4201 83.6364 53.1692L89.3681 55.8816C89.3681 55.8816 94.437 52.2997 97.5303 47.8095C99.5838 44.8246 99.0769 40.7626 96.3605 38.3617C93.9691 36.2464 89.914 33.9623 83.0255 32.6646L65.2715 34.8578Z" fill="#D3D4D3"/>
<path d="M95.6044 32.0419L96.4363 33.2099C96.6182 33.4565 96.5272 33.8069 96.2543 33.9497L95.9164 34.1184L96.0463 34.6115C96.1113 34.8711 95.8124 35.0787 95.5914 34.936L94.0448 33.9107L93.135 34.7024L91.8223 34.326L94.2397 31.9252C94.6297 31.5358 95.2795 31.5877 95.6044 32.0419Z" fill="#E7CAAC"/>
<path d="M81.0762 31.6654L92.6176 34.5205L92.8515 33.3266L84.3644 29.5371L81.0762 31.6654Z" fill="#E7CAAC"/>
</svg>
