<svg width="178" height="154" viewBox="0 0 178 154" fill="none" xmlns="http://www.w3.org/2000/svg">
<g style="mix-blend-mode:multiply" opacity="0.05">
<path d="M37.5902 6.76355C77.2185 -13.0603 123.301 20.6345 165.395 35.0063C197.799 46.0644 209.531 99.9105 182.175 123.491C157.959 144.374 59.8799 173.715 22.2358 133.586C-22.9794 85.4039 10.3878 20.3647 37.5902 6.76355Z" fill="black"/>
</g>
<path opacity="0.1" d="M101.643 143.584C138.787 143.584 168.898 142.135 168.898 140.348C168.898 138.56 138.787 137.111 101.643 137.111C64.4996 137.111 34.3887 138.56 34.3887 140.348C34.3887 142.135 64.4996 143.584 101.643 143.584Z" fill="black"/>
<path d="M110.055 137.713L126.406 112.301L111.36 105.632L102.059 132.229C101.276 134.438 101.879 136.909 103.586 138.516C105.515 140.324 108.628 139.963 110.055 137.713Z" fill="#019DF4"/>
<path opacity="0.2" d="M105.129 123.43C106.816 123.33 112.381 122.667 115.273 117.805C117.423 114.23 116.82 110.553 116.599 109.529L110.995 106.636L105.129 123.43Z" fill="black"/>
<path d="M177.849 99.9475C177.849 99.9475 114.853 74.9578 95.809 11.6396L40.2852 101.776C40.2852 101.776 108.786 94.1219 158.786 129.136C158.786 129.136 175.76 121.542 177.849 99.9475Z" fill="#019DF4"/>
<path d="M97.741 44.5442C102.944 48.2605 103.446 52.7603 104.029 56.4967C104.651 60.4742 103.968 70.4379 103.506 75.6006C102.984 81.5266 104.29 86.8902 108.528 89.3811C112.004 91.4101 115.599 90.9279 119.476 88.6781C123.273 86.4684 130.304 81.7878 137.777 77.73C138.259 77.4688 139.172 76.2503 139.654 76.0293C121.463 60.2113 104.511 41.1694 95.8125 11.6396L74.3984 46.8945C86.1902 38.7186 93.9845 41.8725 97.741 44.5442Z" fill="white" fill-opacity="0.2"/>
<path d="M78.099 62.2912C93.4868 36.7333 100.475 12.7116 93.7079 8.63718C86.9406 4.56275 68.9804 21.9785 53.5926 47.5364C38.2048 73.0942 31.2164 97.116 37.9837 101.19C44.751 105.265 62.7112 87.849 78.099 62.2912Z" fill="#0B2739"/>
<path opacity="0.2" d="M71.8452 40.2469C64.2318 51.4159 58.7276 62.6653 50.9334 77.6512C46.5341 86.1284 41.4517 91.8134 35.7065 95.369C35.5458 95.4694 35.4453 95.6502 35.4654 95.8511C35.6864 98.4626 36.51 100.291 37.9765 101.195C44.7462 105.273 62.7051 87.856 78.0927 62.3038C86.6703 48.0612 92.6365 34.3007 95.0672 24.1964C88.5185 22.6094 79.7801 28.6158 71.8452 40.2469Z" fill="black"/>
<path d="M66.5995 80.9042C66.5995 80.9042 62.381 72.6278 54.3457 65.1952L68.3271 43.52C68.3271 43.52 75.6392 47.397 89.7211 47.5979L66.5995 80.9042Z" fill="#019DF4"/>
<g opacity="0.3">
<path opacity="0.35" d="M66.098 79.9841C66.098 79.9841 62.381 72.6278 54.3457 65.1952L68.3271 43.52C68.3271 43.52 72.4252 45.9754 85.8705 47.5572C85.8705 47.5572 85.0796 51.5117 77.1706 65.1952C69.2616 78.8787 66.098 79.9841 66.098 79.9841Z" fill="black"/>
</g>
<path d="M64.1518 56.1408C67.9833 50.1235 69.7997 44.4244 68.2088 43.4114C66.6179 42.3984 62.2222 46.4551 58.3907 52.4724C54.5592 58.4897 52.7428 64.1889 54.3337 65.2019C55.9246 66.2149 60.3203 62.1581 64.1518 56.1408Z" fill="#019DF4"/>
<path d="M157.469 30.8638H121.21C117.715 30.8638 114.902 33.6962 114.902 37.1715V57.7016C114.902 61.197 117.735 64.0093 121.21 64.0093H133.846L138.406 70.9197C138.888 71.6429 139.952 71.6429 140.414 70.9197L144.974 64.0093H157.469C160.965 64.0093 163.777 61.1769 163.777 57.7016V37.1715C163.777 33.6962 160.965 30.8638 157.469 30.8638Z" fill="#A13EA1"/>
<path opacity="0.1" d="M157.469 30.8638H121.21C117.715 30.8638 114.902 33.6962 114.902 37.1715V57.7016L163.777 37.1715C163.777 33.6962 160.965 30.8638 157.469 30.8638Z" fill="white"/>
<path d="M141.555 54.1262C142.861 52.7803 143.644 51.816 144.669 50.2291C145.874 48.3609 146.718 46.4726 147.16 44.6244C147.582 42.8567 147.3 41.3099 146.195 40.3456C144.97 39.3011 142.841 39.06 140.812 40.1849C140.43 40.3858 140.069 40.6068 139.707 40.8278C139.606 40.888 139.466 40.9282 139.345 40.9282C139.205 40.9282 139.084 40.888 138.964 40.8278C138.602 40.6068 138.22 40.4059 137.859 40.1849C135.83 39.06 133.701 39.281 132.475 40.3456C131.37 41.2898 131.089 42.8366 131.511 44.6244C131.953 46.4726 132.817 48.3609 134.002 50.2291C135.026 51.816 135.81 52.7803 137.116 54.1262C137.377 54.3873 137.758 54.7489 138.04 54.9498C138.321 55.1507 138.642 55.2913 138.964 55.3716C139.044 55.3917 139.144 55.4118 139.245 55.4118C139.285 55.4118 139.305 55.4118 139.345 55.4118C139.386 55.4118 139.406 55.4118 139.446 55.4118C139.546 55.4118 139.627 55.3917 139.727 55.3716C140.048 55.3114 140.37 55.1507 140.651 54.9498C140.932 54.769 141.314 54.4074 141.555 54.1262Z" stroke="white" stroke-miterlimit="10" stroke-linecap="round" stroke-linejoin="round"/>
</svg>
