<svg width="115" height="102" viewBox="0 0 115 102" fill="none" xmlns="http://www.w3.org/2000/svg">
<g style="mix-blend-mode:multiply" opacity="0.05">
<path d="M24.8342 4.63618C51.015 -8.46059 81.4596 13.8001 109.27 23.2949C130.677 30.6006 138.429 66.1745 120.355 81.7531C104.357 95.5499 39.5601 114.934 14.6903 88.4224C-15.1815 56.5905 6.86278 13.6219 24.8342 4.63618Z" fill="black"/>
</g>
<path opacity="0.1" d="M67.153 95.028C91.6922 95.028 111.585 94.0706 111.585 92.8897C111.585 91.7088 91.6922 90.7515 67.153 90.7515C42.6137 90.7515 22.7207 91.7088 22.7207 92.8897C22.7207 94.0706 42.6137 95.028 67.153 95.028Z" fill="black"/>
<path d="M72.7089 91.1486L83.5119 74.3602L73.5716 69.9541L67.4269 87.5255C66.9093 88.9854 67.3075 90.6178 68.4355 91.6795C69.7096 92.8739 71.7667 92.635 72.7089 91.1486Z" fill="#019DF4"/>
<path opacity="0.2" d="M69.4551 81.7126C70.5699 81.6463 74.2461 81.2083 76.1572 77.9966C77.5772 75.6343 77.1791 73.2056 77.0331 72.5288L73.3304 70.6177L69.4551 81.7126Z" fill="black"/>
<path d="M117.498 66.1987C117.498 66.1987 75.8789 49.689 63.2975 7.85742L26.6152 67.4064C26.6152 67.4064 71.8709 62.35 104.904 85.4821C104.904 85.4821 116.118 80.4655 117.498 66.1987Z" fill="#019DF4"/>
<path d="M64.5738 29.5961C68.0111 32.0513 68.3429 35.0241 68.7277 37.4926C69.1391 40.1203 68.6879 46.703 68.3827 50.1137C68.0376 54.0288 68.9003 57.5723 71.7005 59.218C73.9965 60.5584 76.3721 60.2399 78.9335 58.7535C81.4418 57.2936 86.0868 54.2013 91.0238 51.5205C91.3423 51.348 91.9454 50.543 92.2639 50.397C80.2461 39.9467 69.0462 27.3665 63.2997 7.85742L49.1523 31.1488C56.9427 25.7473 62.092 27.831 64.5738 29.5961Z" fill="white" fill-opacity="0.2"/>
<path d="M51.5977 41.3209C61.7638 24.4359 66.3807 8.56572 61.9098 5.87392C57.439 3.18212 45.5734 14.688 35.4073 31.573C25.2412 48.458 20.6243 64.3281 25.0952 67.0199C29.566 69.7117 41.4316 58.2059 51.5977 41.3209Z" fill="#0B2739"/>
<path opacity="0.2" d="M47.466 26.7571C42.4361 34.136 38.7997 41.568 33.6504 51.4685C30.7439 57.0691 27.3863 60.8249 23.5906 63.1739C23.4845 63.2403 23.4181 63.3597 23.4314 63.4924C23.5774 65.2177 24.1215 66.4254 25.0903 67.0226C29.5628 69.7168 41.4275 58.2104 51.5934 41.3291C57.2603 31.9196 61.2019 22.8287 62.8078 16.1532C58.4813 15.1047 52.7082 19.0729 47.466 26.7571Z" fill="black"/>
<path d="M43.9999 53.6176C43.9999 53.6176 41.2129 48.1497 35.9043 43.2393L45.1412 28.9194C45.1412 28.9194 49.972 31.4808 59.2753 31.6135L43.9999 53.6176Z" fill="#019DF4"/>
<g opacity="0.3">
<path opacity="0.35" d="M43.6685 53.0097C43.6685 53.0097 41.2129 48.1497 35.9043 43.2393L45.1412 28.9194C45.1412 28.9194 47.8487 30.5416 56.7314 31.5866C56.7314 31.5866 56.2089 34.1992 50.9838 43.2393C45.7586 52.2794 43.6685 53.0097 43.6685 53.0097Z" fill="black"/>
</g>
<path d="M42.3836 37.2577C44.9149 33.2824 46.115 29.5172 45.0639 28.8479C44.0129 28.1787 41.1088 30.8588 38.5775 34.8342C36.0462 38.8096 34.8462 42.5748 35.8972 43.244C36.9482 43.9132 39.8523 41.2331 42.3836 37.2577Z" fill="#019DF4"/>
<path d="M104.034 20.5581H80.0793C77.7701 20.5581 75.9121 22.4294 75.9121 24.7253V38.2888C75.9121 40.598 77.7834 42.456 80.0793 42.456H88.4271L91.4397 47.0214C91.7582 47.4991 92.4616 47.4991 92.7668 47.0214L95.7794 42.456H104.034C106.344 42.456 108.202 40.5847 108.202 38.2888V24.7253C108.202 22.4294 106.344 20.5581 104.034 20.5581Z" fill="#A13EA1"/>
<path opacity="0.1" d="M104.034 20.5581H80.0793C77.7701 20.5581 75.9121 22.4294 75.9121 24.7253V38.2888L108.202 24.7253C108.202 22.4294 106.344 20.5581 104.034 20.5581Z" fill="white"/>
<path d="M93.5208 35.9265C94.3835 35.0373 94.901 34.4003 95.5779 33.3519C96.3742 32.1176 96.9316 30.8701 97.2236 29.6491C97.5023 28.4812 97.3165 27.4593 96.5865 26.8223C95.777 26.1322 94.3702 25.9729 93.0298 26.7161C92.7776 26.8488 92.5387 26.9948 92.2998 27.1408C92.2335 27.1806 92.1406 27.2072 92.0609 27.2072C91.968 27.2072 91.8884 27.1806 91.8088 27.1408C91.5699 26.9948 91.3177 26.8621 91.0789 26.7161C89.7384 25.9729 88.3317 26.1189 87.5221 26.8223C86.7922 27.4461 86.6064 28.468 86.8851 29.6491C87.177 30.8701 87.7477 32.1176 88.5307 33.3519C89.2076 34.4003 89.7252 35.0373 90.5878 35.9265C90.7603 36.099 91.0125 36.3379 91.1983 36.4707C91.3841 36.6034 91.5964 36.6963 91.8088 36.7494C91.8619 36.7626 91.9282 36.7759 91.9946 36.7759C92.0211 36.7759 92.0344 36.7759 92.0609 36.7759C92.0875 36.7759 92.1008 36.7759 92.1273 36.7759C92.1937 36.7759 92.2467 36.7626 92.3131 36.7494C92.5255 36.7095 92.7378 36.6034 92.9236 36.4707C93.1094 36.3512 93.3616 36.1123 93.5208 35.9265Z" stroke="white" stroke-miterlimit="10" stroke-linecap="round" stroke-linejoin="round"/>
</svg>
