<svg width="75" height="70" viewBox="0 0 75 70" fill="none" xmlns="http://www.w3.org/2000/svg">
<path d="M64.686 68.8889H9.81991C4.93888 68.8889 0.969238 64.9193 0.969238 60.0382V9.85067C0.969238 4.96964 4.93888 1 9.81991 1H64.686C69.567 1 73.5367 4.96964 73.5367 9.85067V60.0382C73.5164 64.9193 69.567 68.8889 64.686 68.8889Z" fill="#FFBF07" stroke="#FFBF07" stroke-miterlimit="10"/>
<path d="M58.9558 43.613C58.9558 44.6459 58.1254 45.4966 57.0723 45.4966H10.0442C9.01129 45.4966 8.18091 44.6662 8.18091 43.6333V15.542C8.18091 14.5091 9.01129 13.6787 10.0442 13.6787H57.0723C58.1052 13.6787 58.9558 14.5091 58.9558 15.542V43.613Z" fill="#03A8F3"/>
<path d="M60.5955 43.6333C60.5955 44.6662 59.7651 45.4966 58.7119 45.4966H13.7902C12.7573 45.4966 11.9269 44.6662 11.9269 43.6333V15.542C11.9269 14.5091 12.7573 13.6787 13.7902 13.6787H58.7322C59.7651 13.6787 60.6157 14.5091 60.6157 15.542V43.6333H60.5955Z" fill="#FFBF07"/>
<path d="M66.2058 43.6333C66.2058 44.6662 65.3754 45.4966 64.3425 45.4966H17.5372C16.5043 45.4966 15.6537 44.6662 15.6537 43.6333V15.542C15.6537 14.5091 16.4841 13.6787 17.5372 13.6787H64.3425C65.3754 13.6787 66.2058 14.5091 66.2058 15.542V43.6333Z" fill="#58267D"/>
<path d="M24.0789 28.6458C23.8359 28.6458 23.6739 28.5445 23.5929 28.342L21.203 21.6179C21.1625 21.4762 21.1625 21.3749 21.2232 21.2939C21.284 21.2129 21.365 21.1724 21.5068 21.1724H23.046C23.2891 21.1724 23.4511 21.2939 23.5118 21.5167L24.403 24.4736L24.9296 26.418H24.9701L25.4764 24.4736L26.3676 21.5167C26.4486 21.2736 26.5903 21.1724 26.8334 21.1724H28.3929C28.5144 21.1724 28.6157 21.2129 28.6764 21.2939C28.7372 21.3749 28.7372 21.4762 28.6764 21.6179L26.2865 28.342C26.2055 28.5445 26.0435 28.6458 25.8005 28.6458H24.0789Z" fill="white"/>
<path d="M34.8735 26.7829C35.1165 26.6614 35.2785 26.7424 35.3798 27.026L35.6228 27.7753C35.6836 27.9779 35.6026 28.1399 35.3798 28.2614C34.6102 28.6462 33.7595 28.8285 32.8076 28.8285C31.5114 28.8285 30.4988 28.4842 29.7697 27.8158C29.0608 27.1272 28.6962 26.1753 28.6962 24.9196C28.6962 23.6639 29.0203 22.712 29.6886 22.0234C30.357 21.3348 31.2684 21.0107 32.4026 21.0107C33.5165 21.0107 34.3671 21.3348 34.995 22.0032C35.6228 22.6513 35.9266 23.5424 35.9266 24.6361V25.3247C35.9266 25.5677 35.7849 25.7095 35.5216 25.7095H30.9443C31.0254 26.1956 31.2481 26.5601 31.5924 26.8234C31.9367 27.0867 32.4026 27.2285 32.9697 27.2285C33.6583 27.2082 34.2861 27.0665 34.8735 26.7829ZM30.9241 24.3728H33.9216V24.2715C33.9216 23.7449 33.8 23.3399 33.557 23.0563C33.314 22.7728 32.9494 22.6107 32.4836 22.6107C31.5317 22.6107 31.0051 23.1981 30.9241 24.3728Z" fill="white"/>
<path d="M43.9682 28.2612C43.9682 28.5244 43.8467 28.646 43.5834 28.646H42.0644C41.8011 28.646 41.6594 28.5244 41.6594 28.2612V24.2308C41.6594 23.7852 41.5784 23.4409 41.4163 23.2383C41.2543 23.0156 40.9505 22.9143 40.5657 22.9143C40.1201 22.9143 39.7961 23.0561 39.5733 23.3194C39.3505 23.5827 39.229 23.9472 39.229 24.413V28.2814C39.229 28.5447 39.1075 28.6662 38.8442 28.6662H37.3252C37.0821 28.6662 36.9404 28.5447 36.9404 28.2814V21.5573C36.9404 21.294 37.0619 21.1725 37.3252 21.1725H38.6821C38.9252 21.1725 39.0467 21.2738 39.067 21.4763L39.1885 22.1042C39.6746 21.3548 40.4239 20.9902 41.4771 20.9902C43.1379 20.9902 43.9682 21.9219 43.9682 23.7852V28.2612Z" fill="white"/>
<path d="M50.2452 27.7144C50.0426 28.0587 49.7186 28.322 49.2933 28.5042C48.8679 28.6865 48.4224 28.7878 47.9565 28.7878C46.9641 28.7878 46.2148 28.4637 45.6679 27.7954C45.1413 27.1473 44.8578 26.1751 44.8578 24.8789C44.8578 23.5827 45.1211 22.6105 45.6679 21.9422C46.1945 21.2941 46.9641 20.9498 47.9565 20.9498C48.4021 20.9498 48.8477 21.051 49.2527 21.2333C49.6781 21.4156 49.9819 21.6586 50.1641 21.9827V19.0865C50.1641 18.8434 50.2857 18.7017 50.549 18.7017H52.0679C52.3312 18.7017 52.4528 18.8232 52.4528 19.0865V28.2612C52.4528 28.5245 52.3312 28.646 52.0679 28.646H50.711C50.4882 28.646 50.3464 28.5447 50.3262 28.3422L50.2452 27.7144ZM48.6654 22.7726C48.1793 22.7726 47.8148 22.9346 47.5717 23.2789C47.3287 23.6029 47.2072 24.1498 47.2072 24.8992C47.2072 25.6485 47.3287 26.1751 47.5717 26.5194C47.8148 26.8435 48.1793 27.0257 48.6654 27.0257C49.6781 27.0257 50.1641 26.3169 50.1641 24.9194C50.1844 23.4814 49.6781 22.7726 48.6654 22.7726Z" fill="white"/>
<path d="M59.5214 26.7829C59.7645 26.6614 59.9265 26.7424 60.0278 27.026L60.2708 27.7753C60.3315 27.9779 60.2505 28.1399 60.0278 28.2614C59.2581 28.6462 58.4075 28.8285 57.4556 28.8285C56.1594 28.8285 55.1467 28.4842 54.4176 27.8158C53.7087 27.1272 53.3442 26.1753 53.3442 24.9196C53.3442 23.6639 53.6682 22.712 54.3366 22.0234C55.0049 21.3348 55.9163 21.0107 57.0505 21.0107C58.1645 21.0107 59.0151 21.3348 59.6429 22.0032C60.2708 22.6513 60.5746 23.5424 60.5746 24.6361V25.3247C60.5746 25.5677 60.4531 25.7095 60.1898 25.7095H55.6125C55.6936 26.1956 55.9163 26.5601 56.2606 26.8234C56.605 27.0867 57.0708 27.2285 57.6581 27.2285C58.3062 27.2082 58.9138 27.0665 59.5214 26.7829ZM55.5518 24.3728H58.5493V24.2715C58.5493 23.7449 58.4277 23.3399 58.1847 23.0563C57.9417 22.7728 57.5771 22.6107 57.1113 22.6107C56.1796 22.6107 55.653 23.1981 55.5518 24.3728Z" fill="white"/>
<path d="M41.3334 39.4813C41.3334 39.7446 41.2119 39.8662 40.9486 39.8662H39.4499C39.1866 39.8662 39.0651 39.7446 39.0651 39.4813V35.3902C39.0651 34.9649 38.9841 34.6408 38.8423 34.4383C38.7005 34.2358 38.4372 34.1142 38.0929 34.1142C37.6879 34.1142 37.3841 34.256 37.1613 34.499C36.9385 34.7623 36.8372 35.1066 36.8372 35.532V39.4611C36.8372 39.7244 36.7157 39.8459 36.4524 39.8459H34.9537C34.6904 39.8459 34.5688 39.7244 34.5688 39.4611V32.737C34.5688 32.494 34.6904 32.3522 34.9537 32.3522H36.3106C36.5537 32.3522 36.6752 32.4535 36.6954 32.656L36.817 33.2839C37.303 32.5345 38.0322 32.1699 39.0246 32.1699C40.0575 32.1699 40.7663 32.5547 41.1107 33.3446C41.617 32.5547 42.4271 32.1699 43.5208 32.1699C45.06 32.1699 45.8499 33.0813 45.8499 34.9244V39.4206C45.8499 39.6839 45.7284 39.8054 45.4651 39.8054H43.9664C43.7031 39.8054 43.5815 39.6839 43.5815 39.4206V35.3294C43.5815 34.4788 43.2575 34.0535 42.5891 34.0535C42.1841 34.0535 41.8803 34.175 41.6575 34.4383C41.4347 34.7016 41.3334 35.0256 41.3334 35.451V39.4813Z" fill="white"/>
<path d="M53.7695 39.4813C53.7695 39.7446 53.648 39.8662 53.3847 39.8662H52.1087C51.8859 39.8662 51.7442 39.7649 51.7239 39.5624L51.6429 38.9345C51.1366 39.6231 50.3062 39.9674 49.172 39.9674C48.4429 39.9674 47.8758 39.7851 47.4302 39.4003C46.9846 39.0155 46.7821 38.4889 46.7821 37.7598C46.7821 37.3548 46.8631 36.9902 47.0049 36.6864C47.1669 36.3826 47.3695 36.1396 47.6125 35.9775C47.8758 35.7953 48.1998 35.6535 48.6454 35.5522C49.0707 35.451 49.5163 35.3699 49.9416 35.3294C50.3872 35.2889 50.9138 35.2687 51.5619 35.2484V34.9851C51.5619 34.2763 51.0758 33.932 50.1036 33.932C49.4555 33.932 48.7872 34.0535 48.0783 34.3168C47.8353 34.418 47.6732 34.337 47.5922 34.0737L47.3087 33.2028C47.2277 32.9801 47.3087 32.818 47.5315 32.7168C48.3821 32.3522 49.334 32.1699 50.4277 32.1699C52.6555 32.1699 53.7695 33.0611 53.7695 34.8434V39.4813ZM51.5416 36.5041C50.6302 36.5244 49.9619 36.6054 49.5568 36.7674C49.1517 36.9294 48.929 37.213 48.929 37.6383C48.929 37.9016 49.0302 38.1041 49.2125 38.2662C49.3948 38.4282 49.6581 38.5092 49.9821 38.5092C50.4885 38.5092 50.8935 38.3877 51.1366 38.1244C51.3998 37.8611 51.5214 37.5168 51.5214 37.1117V36.5041H51.5416Z" fill="white"/>
<path d="M57.4157 40.028C56.484 40.028 55.6537 39.8862 54.9448 39.6229C54.7018 39.5216 54.6207 39.3799 54.6815 39.1571L54.9245 38.347C54.9853 38.1039 55.1473 38.0229 55.4106 38.1039C55.9575 38.2862 56.5043 38.3672 57.0309 38.3672C57.922 38.3672 58.3473 38.1647 58.3473 37.7394C58.3473 37.5368 58.2461 37.3748 58.0435 37.2533C57.841 37.1318 57.4967 36.99 57.0309 36.8482C56.2613 36.5849 55.7347 36.3419 55.4714 36.1393C54.9448 35.7545 54.7018 35.1874 54.7018 34.4178C54.7018 33.6887 54.9651 33.1419 55.4916 32.7773C56.0182 32.4127 56.7473 32.2305 57.6992 32.2305C58.6511 32.2305 59.4208 32.352 60.0284 32.6153C60.2714 32.7165 60.3524 32.8786 60.2917 33.1014L60.0486 33.8912C59.9676 34.1343 59.8056 34.2153 59.5625 34.1343C59.0562 33.9723 58.5499 33.8912 58.0638 33.8912C57.3347 33.8912 56.9701 34.0938 56.9701 34.4988C56.9701 34.7014 57.0714 34.8634 57.2739 34.9849C57.4765 35.1064 57.8208 35.2482 58.3068 35.4305C58.6916 35.5723 58.9954 35.6938 59.2182 35.795C59.441 35.8963 59.6638 36.0381 59.9068 36.2204C60.1499 36.4026 60.3322 36.6254 60.4334 36.8887C60.5549 37.152 60.5955 37.4558 60.5955 37.8204C60.5955 39.2989 59.5423 40.028 57.4157 40.028Z" fill="white"/>
<path d="M50.0224 30.1041C50.1034 29.9218 50.2452 29.8408 50.4477 29.8408H52.1085C52.23 29.8408 52.311 29.8813 52.3313 29.9826C52.3515 30.0839 52.3313 30.1649 52.23 30.2459L51.0351 31.4408C50.9135 31.5623 50.7313 31.6434 50.549 31.6434H49.6781C49.5768 31.6434 49.4958 31.6231 49.4553 31.5421C49.4148 31.4813 49.4148 31.4003 49.4553 31.3193L50.0224 30.1041Z" fill="white"/>
<path d="M40.4632 56.1498H41.6987V50.0333H40.4632V56.1498ZM55.8962 56.1498H57.1316V50.0333H55.8962V56.1498ZM63.6127 50.0941H58.1241V51.3296H61.9722L58.1241 54.6713V56.1093H63.6127V54.8739H59.7646L63.6127 51.5321V50.0941ZM51.9671 50.0739C51.2785 50.0739 50.6304 50.2966 50.124 50.6815V48.4131H48.8886V53.1523C48.8886 54.8536 50.2658 56.2308 51.9671 56.2308C53.6683 56.2308 55.0456 54.8536 55.0456 53.1523C55.0456 51.4511 53.6683 50.0739 51.9671 50.0739ZM51.9671 54.9954C50.9544 54.9954 50.124 54.165 50.124 53.1523C50.124 52.1397 50.9544 51.3093 51.9671 51.3093C52.9797 51.3093 53.8101 52.1397 53.8101 53.1523C53.8101 54.165 52.9797 54.9954 51.9671 54.9954ZM46.8025 53.4764C46.8025 54.3068 46.1341 54.9751 45.3037 54.9751C44.4734 54.9751 43.805 54.3068 43.805 53.4764V50.0333H42.5696V53.4764C42.5696 54.9751 43.805 56.2106 45.3037 56.2106C46.8025 56.2106 48.0379 54.9751 48.0379 53.4764V50.0333H46.8025V53.4764ZM36.8379 49.9726C35.3391 49.9726 34.1037 51.208 34.1037 52.7068V56.1498H35.3391V52.7068C35.3391 51.8764 36.0075 51.208 36.8379 51.208C37.6683 51.208 38.3366 51.8764 38.3366 52.7068V56.1498H39.5721V52.7068C39.5721 51.1878 38.3366 49.9726 36.8379 49.9726Z" fill="#1D1E1C"/>
<path d="M66.3286 52.079C66.3286 52.484 66.0045 52.8283 65.5792 52.8283C65.1741 52.8283 64.8298 52.5043 64.8298 52.079C64.8298 51.6739 65.1539 51.3296 65.5792 51.3296C65.9843 51.3296 66.3286 51.6739 66.3286 52.079Z" fill="white"/>
<path d="M66.3278 55.2792C66.3278 55.6842 66.0037 56.0285 65.5784 56.0285C65.1733 56.0285 64.829 55.7045 64.829 55.2792C64.829 54.8741 65.1531 54.5298 65.5784 54.5298C65.9835 54.5298 66.3278 54.8741 66.3278 55.2792Z" fill="white"/>
</svg>
