<svg width="210" height="155" viewBox="0 0 210 155" fill="none" xmlns="http://www.w3.org/2000/svg">
<path d="M155.095 136.618C145.49 132.21 147.604 129.179 135.681 126.58C123.223 123.88 98.5868 141.841 69.0845 139.599C46.1807 137.841 3.81259 120.083 0.627975 73.9957C-2.55664 27.9079 33.8244 -8.75341 66.6387 2.53287C90.4342 10.711 104.472 26.0226 123.58 33.6657C141.312 40.7483 166.152 34.7102 182.559 41.4871C208.978 52.4167 211.755 79.2949 209.029 98.2243C206.431 116.313 183.374 149.637 155.095 136.618Z" fill="#CBDFEA"/>
<path d="M94.8679 79.251L78.2524 95.8838L86.3806 104.02L102.996 87.3876L94.8679 79.251Z" fill="#019DF4"/>
<path d="M80.188 51.0441C80.188 37.4098 85.4921 24.5917 95.123 14.9507C104.754 5.3097 117.558 0 131.178 0C144.798 0 157.603 5.3097 167.234 14.9507C176.865 24.5917 182.169 37.4098 182.169 51.0441C182.169 64.6784 176.865 77.4964 167.234 87.1374C147.352 107.041 115.003 107.041 95.123 87.1374C85.4921 77.4964 80.188 64.6784 80.188 51.0441ZM172.214 51.0441C172.214 40.0729 167.945 29.7558 160.195 21.9973C152.444 14.2389 142.138 9.96531 131.178 9.96531C120.219 9.96531 109.913 14.2389 102.162 21.9973C94.412 29.7558 90.1428 40.0701 90.1428 51.0441C90.1428 62.0153 94.412 72.3324 102.162 80.0908C118.162 96.1078 144.194 96.1078 160.195 80.0908C167.945 72.3324 172.214 62.0153 172.214 51.0441Z" fill="#019DF4"/>
<path d="M37.5223 152.93C39.0048 154.414 41.4098 154.414 42.8923 152.93L86.3797 109.397C87.8622 107.913 87.8622 105.508 86.3797 104.024L78.2505 95.8865C76.768 94.4024 74.363 94.4024 72.8805 95.8865L29.3931 139.42C27.9106 140.904 27.9106 143.308 29.3931 144.792L37.5223 152.93Z" fill="#0B2739"/>
<path d="M86.6318 104.501L44.0016 145.417C44.0016 145.417 40.7907 148.15 37.3425 146.328C35.709 145.466 33.6079 143.572 31.8488 141.817C30.5287 140.5 28.1607 141.324 28.0446 143.185C28.0157 143.649 28.1429 144.109 28.4059 144.492L33.2858 151.599C34.7268 153.697 37.1936 154.848 39.7276 154.604L43.7455 154.217C44.887 154.107 45.9559 153.608 46.7732 152.804L88.5984 111.641V108.345L86.6318 104.501Z" fill="#021E2D"/>
<circle cx="131" cy="50" r="42" fill="#E6E6E6" fill-opacity="0.7"/>
</svg>
