<svg width="202" height="64" viewBox="0 0 202 64" fill="none" xmlns="http://www.w3.org/2000/svg">
<path d="M96.1398 41.4003C97.3546 39.6432 99.1767 38.7432 101.563 38.7432C103.732 38.7432 105.511 39.5146 106.899 41.0146C108.244 42.5146 108.938 44.3146 108.938 46.5003C108.938 48.686 108.244 50.5289 106.899 51.986C105.554 53.486 103.732 54.2574 101.433 54.2574C99.1334 54.2574 97.398 53.3574 96.1398 51.6003V59.9574H93.8405V39.0003H96.1398V41.4003ZM101.259 40.8003C99.6106 40.8003 98.309 41.3574 97.3546 42.4717C96.4435 43.5432 96.0097 44.8717 96.0097 46.5003C96.0097 48.1289 96.4435 49.4574 97.3546 50.5289C98.309 51.6432 99.6106 52.2003 101.259 52.2003C102.864 52.2003 104.209 51.6432 105.207 50.5289C106.162 49.4574 106.639 48.1289 106.639 46.5003C106.639 44.8717 106.162 43.5432 105.207 42.4717C104.209 41.3574 102.864 40.8003 101.259 40.8003Z" fill="#001534"/>
<path d="M119.914 38.7861V41.0576H119.654C118.006 41.0576 116.661 41.7004 115.663 43.029C114.708 44.2718 114.188 45.729 114.188 47.4861V54.0861H111.888V39.0861H114.188V42.7718C114.665 41.229 115.706 40.0718 117.355 39.3433C118.006 39.0433 118.83 38.8718 119.784 38.8718H119.914V38.7861Z" fill="#001534"/>
<path d="M122.344 39.0004H124.643V54.0004H122.344V39.0004ZM124.73 33.5575V36.4718H122.257V33.5146H124.73V33.5575Z" fill="#001534"/>
<path d="M135.62 52.2002C136.574 52.2002 137.442 51.9431 138.223 51.3859C138.96 50.8288 139.524 50.1431 139.871 49.2859H142.344C141.867 50.7859 141.043 51.9431 139.785 52.8431C138.483 53.7431 136.965 54.2145 135.186 54.2145C132.973 54.2145 131.151 53.4431 129.763 51.9431C128.418 50.4859 127.724 48.6431 127.724 46.4573C127.724 44.2716 128.418 42.4288 129.763 40.9716C131.151 39.4716 132.973 38.7002 135.186 38.7002C136.965 38.7002 138.526 39.1716 139.785 40.0716C140.999 40.9716 141.867 42.1716 142.344 43.6288H139.871C139.524 42.7716 138.96 42.0859 138.223 41.5288C137.485 40.9716 136.617 40.7145 135.62 40.7145C134.665 40.7145 133.798 40.8431 133.147 41.1859C132.496 41.4859 131.932 41.9145 131.455 42.4288C130.457 43.5002 129.98 44.8288 129.98 46.4573C129.98 48.0431 130.457 49.4145 131.455 50.4859C132.409 51.6431 133.798 52.2002 135.62 52.2002Z" fill="#001534"/>
<path d="M151.889 52.2002C153.928 52.2002 155.403 51.3431 156.314 49.6716H158.787C158.266 51.0431 157.399 52.1145 156.271 52.9716C155.143 53.8288 153.668 54.2145 151.845 54.2145C149.546 54.2145 147.681 53.4431 146.249 51.9431C144.861 50.4859 144.166 48.6431 144.166 46.4573C144.166 44.2288 144.817 42.3859 146.162 40.9716C147.594 39.4716 149.416 38.7002 151.672 38.7002C153.928 38.7002 155.793 39.4716 157.182 40.9716C158.527 42.4288 159.177 44.2288 159.177 46.4573V47.3573H146.466C146.639 48.7288 147.203 49.8859 148.158 50.7859C149.156 51.7288 150.37 52.2002 151.889 52.2002ZM151.672 40.8002C150.284 40.8002 149.112 41.2288 148.158 42.0859C147.247 42.9002 146.726 43.9716 146.509 45.3002H156.835C156.618 43.9716 156.097 42.9002 155.186 42.0859C154.275 41.2288 153.104 40.8002 151.672 40.8002Z" fill="#001534"/>
<path d="M101.389 8.57129C103.645 8.57129 105.511 9.34272 106.899 10.8427C108.244 12.2999 108.895 14.0999 108.895 16.3284C108.895 18.557 108.244 20.357 106.899 21.8141C105.468 23.3141 103.645 24.0856 101.389 24.0856C99.1334 24.0856 97.2679 23.3141 95.8796 21.8141C94.5347 20.357 93.8839 18.557 93.8839 16.3284C93.8839 14.0999 94.5347 12.257 95.8796 10.8427C97.2679 9.34272 99.1334 8.57129 101.389 8.57129ZM101.389 22.0284C103.038 22.0284 104.34 21.4713 105.294 20.357C106.205 19.2856 106.639 17.957 106.639 16.3284C106.639 14.6999 106.162 13.3713 105.294 12.2999C104.34 11.1856 103.038 10.6284 101.389 10.6284C99.7408 10.6284 98.4393 11.1856 97.4848 12.2999C96.5737 13.3713 96.1399 14.6999 96.1399 16.3284C96.1399 17.957 96.6171 19.2856 97.4848 20.357C98.4393 21.4713 99.7408 22.0284 101.389 22.0284Z" fill="#001534"/>
<path d="M114.231 11.2284C115.446 9.47129 117.268 8.57129 119.654 8.57129C121.824 8.57129 123.602 9.34272 124.991 10.8427C126.336 12.3427 127.03 14.1427 127.03 16.3284C127.03 18.5141 126.336 20.357 124.991 21.8141C123.646 23.3141 121.824 24.0856 119.524 24.0856C117.225 24.0856 115.489 23.1856 114.231 21.4284V29.7856H111.932V8.82843H114.231V11.2284ZM119.351 10.6284C117.702 10.6284 116.4 11.1856 115.446 12.2999C114.535 13.3713 114.101 14.6999 114.101 16.3284C114.101 17.957 114.535 19.2856 115.446 20.357C116.4 21.4713 117.702 22.0284 119.351 22.0284C120.956 22.0284 122.301 21.4713 123.299 20.357C124.253 19.2856 124.73 17.957 124.73 16.3284C124.73 14.6999 124.253 13.3713 123.299 12.2999C122.301 11.1856 120.956 10.6284 119.351 10.6284Z" fill="#001534"/>
<path d="M131.325 23.8287V10.8001H128.244V8.82871H131.325V3.42871H133.624V8.78585H137.138V10.7573H133.624V23.7859H131.325V23.8287Z" fill="#001534"/>
<path d="M139.611 8.82849H141.91V23.8285H139.611V8.82849ZM141.997 3.34277V6.29992H139.524V3.34277H141.997Z" fill="#001534"/>
<path d="M148.114 11.0999C149.112 9.42843 150.674 8.57129 152.713 8.57129C153.711 8.57129 154.665 8.82843 155.49 9.38557C156.357 9.89986 157.052 10.6284 157.529 11.6141C158.223 10.3713 159.308 9.47129 160.739 8.91415C161.347 8.69986 161.997 8.57129 162.692 8.57129C163.429 8.57129 164.167 8.74272 164.817 8.99986C165.512 9.29986 166.119 9.68557 166.64 10.2427C167.768 11.4427 168.332 12.9427 168.332 14.7427V23.7856H166.032V14.7856C166.032 13.5427 165.685 12.5141 164.991 11.7427C164.297 10.9713 163.386 10.5856 162.301 10.5856C161.13 10.5856 160.175 10.9713 159.438 11.6999C158.613 12.4713 158.223 13.4999 158.223 14.8284V23.7856H155.924V14.7856C155.924 13.5427 155.577 12.5141 154.839 11.7427C154.145 10.9713 153.234 10.5856 152.149 10.5856C150.978 10.5856 150.023 10.9713 149.242 11.6999C148.418 12.4713 148.028 13.4999 148.028 14.8284V23.7856H145.728V8.78557H148.028V11.0999H148.114Z" fill="#001534"/>
<path d="M183.039 23.8286V21.4715C182.475 22.2 181.824 22.8 181.043 23.3143C180.262 23.8286 179.351 24.0858 178.353 24.0858C177.356 24.0858 176.488 23.9572 175.75 23.6572C175.013 23.3572 174.405 22.9715 173.841 22.4143C172.583 21.2143 171.976 19.5858 171.976 17.5715V8.82861H174.275V17.4858C174.275 18.8572 174.666 19.9715 175.447 20.7858C176.228 21.6 177.269 22.0286 178.527 22.0286C179.785 22.0286 180.87 21.6 181.781 20.7858C182.692 19.9286 183.126 18.8143 183.126 17.4858V8.82861H185.425V23.8286H183.039Z" fill="#001534"/>
<path d="M198.18 12.8571C197.963 11.3143 196.705 10.5 194.362 10.5C192.019 10.5 190.891 11.2285 190.891 12.6428C190.891 13.2428 191.152 13.7143 191.629 14.0143C192.15 14.3143 192.757 14.5714 193.495 14.7857C194.232 15 195.056 15.1714 195.924 15.3428C196.835 15.5143 197.616 15.7285 198.397 16.0714C199.135 16.3714 199.785 16.8 200.263 17.3143C200.783 17.8714 201.043 18.6 201.043 19.5428C201.043 21 200.479 22.1143 199.351 22.8857C198.223 23.6571 196.748 24.0428 194.839 24.0428C192.8 24.0428 191.195 23.5285 190.024 22.5428C188.939 21.6428 188.332 20.5285 188.245 19.1143H190.631C190.761 20.4857 191.542 21.4285 193.017 21.9C193.538 22.0714 194.059 22.1571 194.579 22.1571C195.1 22.1571 195.577 22.1143 196.054 22.0714C196.488 22.0285 196.922 21.9 197.356 21.7285C198.31 21.3428 198.831 20.7 198.831 19.8C198.831 19.2 198.571 18.7285 198.05 18.3857C197.573 18.0428 196.965 17.7857 196.184 17.5714C195.447 17.3571 194.623 17.1428 193.711 17.0143C192.844 16.8428 192.019 16.5857 191.282 16.2857C190.544 15.9857 189.894 15.5571 189.416 15.0428C188.939 14.5285 188.679 13.8 188.679 12.9C188.679 11.5285 189.156 10.5 190.154 9.7714C191.152 8.99997 192.67 8.61426 194.623 8.61426C196.488 8.61426 197.963 9.04283 199.004 9.94283C199.915 10.6714 200.393 11.6571 200.566 12.9H198.18V12.8571Z" fill="#001534"/>
<path d="M36.0524 27.1716L41.3019 24.1716L64.339 11.0573V36.5573C64.339 37.7573 63.7317 38.7859 62.6904 39.3858L48.3736 47.5716V56.7858L66.4215 46.4573C70.1525 44.3144 72.4519 40.4144 72.4519 36.043V4.11442C72.4519 3.25728 72.1916 2.31442 71.671 1.62871C70.3695 -0.0855783 68.1135 -0.428435 66.4215 0.514422L34.2736 18.9858C32.9721 19.6716 32.278 21.043 32.278 22.5001L36.0524 27.1716Z" fill="url(#paint0_radial)"/>
<path d="M34.2737 16.6717L6.07382 0.64314C4.29506 -0.385431 2.08245 0.0431399 0.780919 1.75743C0.260306 2.44314 0 3.30028 0 4.20028V36.086C0 40.3289 2.34276 44.3574 6.03043 46.5003L34.1435 62.5289C34.7509 62.8717 35.4451 63.0431 36.1392 63.0431C37.354 63.0431 38.5687 62.5289 39.4364 61.4146C39.9571 60.7289 40.2174 59.8717 40.2174 58.9289V27.086C40.3041 22.8003 37.9614 18.8146 34.2737 16.6717ZM32.1912 52.1146L9.76149 39.3431C8.72027 38.7431 8.11289 37.7146 8.11289 36.5146V11.0574L30.5426 23.8289C31.5839 24.4289 32.1912 25.4574 32.1912 26.6574V52.1146Z" fill="#3F8BF8"/>
<defs>
<radialGradient id="paint0_radial" cx="0" cy="0" r="1" gradientUnits="userSpaceOnUse" gradientTransform="translate(36.6688 19.8909) scale(13.6539 13.488)">
<stop offset="0.2038" stop-color="#3677D4"/>
<stop offset="0.8776" stop-color="#3F8BF8"/>
</radialGradient>
</defs>
</svg>
