<svg width="183" height="149" viewBox="0 0 183 149" fill="none" xmlns="http://www.w3.org/2000/svg">
<path d="M184.881 97.2094C184.881 97.2094 193.147 50.1107 158.702 39.185C158.702 39.185 150.09 35.4174 131.145 36.9251C112.2 38.4328 98.766 27.8823 98.766 27.8823L85.3324 17.3318C85.3324 17.3318 69.8322 0 45.0318 0C20.2314 0 8.51956 25.9977 8.51956 25.9977C8.51956 25.9977 -15.6728 79.8913 17.4764 111.527C49.143 141.748 80.1657 132.627 80.1657 132.627C80.1657 132.627 96.6992 128.859 108.411 123.207C120.123 117.555 136.312 126.975 136.312 126.975C136.312 126.975 145.612 133.004 156.633 131.119C166.258 129.474 172.745 121.693 174.236 119.746C174.489 119.417 174.745 119.093 175.005 118.771C176.745 116.607 183.13 108.06 184.881 97.2094Z" fill="#DEE4E3"/>
<path d="M92.0354 148.6C134.02 148.6 168.056 143.747 168.056 137.76C168.056 131.773 134.02 126.92 92.0354 126.92C50.0506 126.92 16.0151 131.773 16.0151 137.76C16.0151 143.747 50.0506 148.6 92.0354 148.6Z" fill="#019DF4"/>
<path d="M139.709 139.13C143.599 139.13 146.752 135.967 146.752 132.066V17.626C146.752 13.7248 143.599 10.562 139.709 10.562H53.8219C49.9328 10.562 46.7798 13.7248 46.7798 17.626V132.064C46.7798 135.967 49.9328 139.128 53.8219 139.128H139.709V139.13Z" fill="white"/>
<path d="M135.336 29.7075C135.336 31.0405 134.259 32.1216 132.931 32.1216H61.4989C60.17 32.1216 59.0923 31.0405 59.0923 29.7075C59.0923 28.3746 60.17 27.2935 61.4989 27.2935H132.93C134.259 27.2952 135.336 28.3746 135.336 29.7075Z" fill="#BFE1E5"/>
<path d="M135.336 45.4961C135.336 46.829 134.259 47.9101 132.931 47.9101H61.4989C60.17 47.9101 59.0923 46.829 59.0923 45.4961C59.0923 44.1631 60.17 43.082 61.4989 43.082H132.93C134.259 43.082 135.336 44.1631 135.336 45.4961Z" fill="#BFE1E5"/>
<path d="M135.336 61.2832C135.336 62.6161 134.259 63.6972 132.931 63.6972H61.4989C60.17 63.6972 59.0923 62.6161 59.0923 61.2832C59.0923 59.9502 60.17 58.8691 61.4989 58.8691H132.93C134.259 58.8691 135.336 59.9502 135.336 61.2832Z" fill="#BFE1E5"/>
<path d="M135.336 77.0693C135.336 78.4023 134.259 79.4834 132.931 79.4834H61.4989C60.17 79.4834 59.0923 78.4023 59.0923 77.0693C59.0923 75.7364 60.17 74.6553 61.4989 74.6553H132.93C134.259 74.6553 135.336 75.7364 135.336 77.0693Z" fill="#BFE1E5"/>
<path d="M135.336 91.9531C135.336 93.2861 134.259 94.3671 132.931 94.3671H61.4989C60.17 94.3671 59.0923 93.2861 59.0923 91.9531C59.0923 90.6202 60.17 89.5391 61.4989 89.5391H132.93C134.259 89.5391 135.336 90.6202 135.336 91.9531Z" fill="#BFE1E5"/>
<path d="M126.415 108.461C126.415 109.794 125.338 110.874 124.009 110.874H61.4989C60.17 110.874 59.0923 109.794 59.0923 108.461C59.0923 107.128 60.17 106.047 61.4989 106.047H124.009C125.338 106.047 126.415 107.128 126.415 108.461Z" fill="#BFE1E5"/>
<path opacity="0.12" d="M139.709 139.13C143.599 139.13 146.752 135.967 146.752 132.066V17.626C146.752 13.7248 143.599 10.562 139.709 10.562H117.514C124.257 119.131 136.97 120.279 129.905 123.745L46.7798 132.066C46.7798 135.969 49.9328 139.13 53.8219 139.13H139.709Z" fill="#878787"/>
<g clip-path="url(#clip0)">
<path d="M173.512 115.169C177.933 93.5197 163.967 72.3852 142.318 67.9639C120.669 63.5426 99.5343 77.5086 95.113 99.1579C90.6916 120.807 104.658 141.942 126.307 146.363C147.956 150.784 169.091 136.818 173.512 115.169Z" fill="#FFE033"/>
<path d="M131.207 144.931C129.626 144.801 128.042 144.573 126.494 144.248L127.126 141.227C128.544 141.524 130.003 141.733 131.453 141.854L131.207 144.931ZM138.95 144.777L138.578 141.715C140.023 141.538 141.469 141.268 142.877 140.91L143.635 143.904C142.101 144.289 140.525 144.582 138.95 144.777ZM119.109 141.886C117.659 141.25 116.236 140.515 114.875 139.702L116.459 137.053C117.71 137.801 119.016 138.475 120.345 139.061L119.109 141.886ZM150.913 141.236L149.561 138.461C150.867 137.824 152.145 137.095 153.362 136.3L155.054 138.879C153.725 139.753 152.331 140.543 150.913 141.236ZM108.665 135.064C107.499 133.995 106.392 132.837 105.37 131.629L107.726 129.635C108.665 130.746 109.683 131.806 110.757 132.791L108.665 135.064ZM161.064 133.999L158.884 131.815C159.916 130.788 160.892 129.686 161.784 128.538L164.22 130.434C163.248 131.685 162.188 132.884 161.064 133.999ZM100.992 125.234C100.234 123.844 99.5603 122.389 98.9886 120.916L101.861 119.796C102.386 121.148 103.009 122.482 103.701 123.76L100.992 125.234ZM168.333 123.867L165.563 122.505C166.204 121.199 166.771 119.842 167.241 118.467L170.159 119.466C169.648 120.962 169.035 122.445 168.333 123.867ZM96.9343 113.442C96.674 111.885 96.5114 110.291 96.4463 108.706L99.5277 108.581C99.5882 110.04 99.7369 111.504 99.9739 112.931L96.9343 113.442ZM171.912 111.913L168.849 111.532C169.03 110.096 169.118 108.623 169.118 107.163V107.08H172.204V107.163C172.204 108.748 172.107 110.347 171.912 111.913ZM99.9646 101.474L96.9204 100.973C97.176 99.4062 97.5385 97.8492 97.9893 96.3294L100.945 97.2078C100.532 98.6022 100.202 100.038 99.9646 101.474ZM168.384 100.001C168.086 98.5789 167.696 97.1614 167.222 95.7856L170.136 94.7771C170.652 96.2736 171.08 97.8167 171.405 99.369L168.384 100.001ZM103.669 90.6359L100.955 89.1673C101.708 87.7776 102.553 86.4158 103.478 85.1284L105.988 86.9224C105.138 88.1076 104.357 89.3578 103.669 90.6359ZM164.215 89.3346C163.471 88.089 162.639 86.8759 161.742 85.7279L164.173 83.827C165.149 85.0726 166.055 86.3926 166.864 87.7497L164.215 89.3346ZM110.701 81.5868L108.609 79.3187C109.771 78.2451 111.012 77.2319 112.3 76.3163L114.094 78.8261C112.909 79.6719 111.77 80.5968 110.701 81.5868ZM156.806 80.5968C155.696 79.658 154.515 78.7749 153.297 77.9802L154.984 75.396C156.309 76.2605 157.597 77.2179 158.8 78.2404L156.806 80.5968ZM120.275 75.2984L119.03 72.4772C120.48 71.8359 121.986 71.2828 123.501 70.8366L124.379 73.7926C122.989 74.2062 121.609 74.7128 120.275 75.2984ZM146.967 74.7268C145.61 74.1969 144.211 73.7507 142.798 73.3975L143.546 70.4044C145.085 70.7901 146.609 71.2781 148.087 71.8545L146.967 74.7268ZM131.374 72.4772L131.118 69.4051C132.689 69.275 134.297 69.2378 135.878 69.3028L135.752 72.3843C134.297 72.3239 132.819 72.3564 131.374 72.4772Z" fill="#FFBD00"/>
<path d="M134.311 139.168C125.764 139.168 117.723 135.84 111.681 129.793C105.634 123.747 102.307 115.711 102.307 107.163C102.307 98.6163 105.634 90.5757 111.681 84.5337C117.728 78.487 125.764 75.1592 134.311 75.1592C142.858 75.1592 150.899 78.487 156.941 84.5337C162.987 90.5804 166.315 98.6163 166.315 107.163C166.315 115.711 162.987 123.751 156.941 129.793C150.899 135.84 142.858 139.168 134.311 139.168Z" fill="#FFBD00"/>
<path d="M115.599 121.228L116.599 116.273C119.099 117.147 122.39 117.691 124.472 117.691C128.302 117.691 130.096 116.692 130.096 114.066C130.096 108.735 115.558 112.606 115.558 101.405C115.558 95.6143 120.098 93.0767 126.178 93.0767C128.924 93.0767 131.927 93.495 134.135 94.2432L133.135 99.0769C130.802 98.4541 128.302 98.0776 126.303 98.0776C122.803 98.0776 121.679 99.3279 121.679 101.117C121.679 106.699 136.217 102.865 136.217 113.987C136.217 116.529 135.343 118.569 133.842 119.982C131.843 121.855 129.134 122.692 125.053 122.692C121.432 122.683 118.476 122.227 115.599 121.228Z" fill="#F9FCFB"/>
<path d="M151.754 93.0713H157.043L144.508 122.687H139.214L151.754 93.0713Z" fill="#F9FCFB"/>
</g>
<path d="M54.6248 48.3302L47.5044 55.458L50.9876 58.9449L58.108 51.8171L54.6248 48.3302Z" fill="#019DF4"/>
<path d="M48.334 36.2427C48.334 30.3998 50.607 24.9067 54.7343 20.7752C58.8615 16.6436 64.3488 14.3682 70.1855 14.3682C76.0222 14.3682 81.5095 16.6436 85.6368 20.7752C89.764 24.9067 92.037 30.3998 92.037 36.2427C92.037 42.0855 89.764 47.5786 85.6368 51.7102C77.1164 60.2395 63.2535 60.2395 54.7343 51.7102C50.607 47.5786 48.334 42.0855 48.334 36.2427ZM87.771 36.2427C87.771 31.5411 85.9415 27.1198 82.6202 23.7949C79.2989 20.4701 74.8822 18.6387 70.1855 18.6387C65.4888 18.6387 61.0722 20.4701 57.7509 23.7949C54.4295 27.1198 52.6001 31.5399 52.6001 36.2427C52.6001 40.9443 54.4295 45.3656 57.7509 48.6904C64.6076 55.5544 75.7634 55.5544 82.6202 48.6904C85.9415 45.3656 87.771 40.9443 87.771 36.2427Z" fill="#019DF4"/>
<path d="M30.05 79.905C30.6853 80.541 31.716 80.541 32.3513 79.905L50.9874 61.2493C51.6227 60.6133 51.6227 59.5827 50.9874 58.9468L47.5037 55.4594C46.8684 54.8234 45.8378 54.8234 45.2025 55.4594L26.5663 74.1151C25.931 74.7511 25.931 75.7816 26.5663 76.4176L30.05 79.905Z" fill="#0B2739"/>
<path d="M51.0954 59.1514L32.8266 76.6854C32.8266 76.6854 31.4506 77.8567 29.9729 77.0762C29.2729 76.7064 28.3725 75.8947 27.6186 75.1428C27.0529 74.5785 26.0381 74.9317 25.9884 75.7292C25.976 75.9279 26.0305 76.125 26.1432 76.2892L27.5495 78.3372C28.5897 79.8521 30.3703 80.6828 32.1994 80.5066C33.0233 80.4272 33.7949 80.067 34.3849 79.4864L51.9382 62.2112V60.7987L51.0954 59.1514Z" fill="#021E2D"/>
<defs>
<clipPath id="clip0">
<rect width="80.0154" height="80.0154" fill="white" transform="translate(94.3037 67.1553)"/>
</clipPath>
</defs>
</svg>
