<svg width="109" height="103" viewBox="0 0 109 103" fill="none" xmlns="http://www.w3.org/2000/svg">
<path d="M128.147 67.3794C128.147 67.3794 133.878 34.7335 110.002 27.1605C110.002 27.1605 104.033 24.5491 90.9012 25.5941C77.7695 26.6392 68.4583 19.3262 68.4583 19.3262L59.147 12.0133C59.147 12.0133 48.4032 0 31.2132 0C14.0231 0 5.90522 18.0199 5.90522 18.0199C5.90522 18.0199 -10.8634 55.3756 12.1135 77.3038C34.0628 98.251 55.5657 91.9285 55.5657 91.9285C55.5657 91.9285 67.0258 89.317 75.1437 85.3993C83.2616 81.4816 94.4825 88.0107 94.4825 88.0107C94.4825 88.0107 100.929 92.1897 108.568 90.8834C115.24 89.7434 119.736 84.3495 120.77 83.0004C120.945 82.7724 121.122 82.548 121.302 82.3247C122.509 80.8249 126.934 74.9002 128.147 67.3794Z" fill="#DEE4E3"/>
<path d="M63.793 103C92.8942 103 116.485 99.636 116.485 95.4863C116.485 91.3366 92.8942 87.9727 63.793 87.9727C34.6918 87.9727 11.1006 91.3366 11.1006 95.4863C11.1006 99.636 34.6918 103 63.793 103Z" fill="#019DF4"/>
<path d="M96.8377 96.436C99.5334 96.436 101.719 94.2437 101.719 91.5397V12.2171C101.719 9.51302 99.5334 7.3208 96.8377 7.3208H37.306C34.6103 7.3208 32.4248 9.51302 32.4248 12.2171V91.5385C32.4248 94.2437 34.6103 96.4348 37.306 96.4348H96.8377V96.436Z" fill="white"/>
<path d="M93.8065 20.5913C93.8065 21.5152 93.0594 22.2646 92.1396 22.2646H42.6271C41.706 22.2646 40.959 21.5152 40.959 20.5913C40.959 19.6674 41.706 18.918 42.6271 18.918H92.1384C93.0594 18.9192 93.8065 19.6674 93.8065 20.5913Z" fill="#BFE1E5"/>
<path d="M93.8065 31.5347C93.8065 32.4586 93.0594 33.208 92.1396 33.208H42.6271C41.706 33.208 40.959 32.4586 40.959 31.5347C40.959 30.6108 41.706 29.8615 42.6271 29.8615H92.1384C93.0594 29.8615 93.8065 30.6108 93.8065 31.5347Z" fill="#BFE1E5"/>
<path d="M93.8065 42.4774C93.8065 43.4013 93.0594 44.1507 92.1396 44.1507H42.6271C41.706 44.1507 40.959 43.4013 40.959 42.4774C40.959 41.5535 41.706 40.8041 42.6271 40.8041H92.1384C93.0594 40.8041 93.8065 41.5535 93.8065 42.4774Z" fill="#BFE1E5"/>
<path d="M93.8065 53.4192C93.8065 54.3432 93.0594 55.0925 92.1396 55.0925H42.6271C41.706 55.0925 40.959 54.3432 40.959 53.4192C40.959 52.4953 41.706 51.746 42.6271 51.746H92.1384C93.0594 51.746 93.8065 52.4953 93.8065 53.4192Z" fill="#BFE1E5"/>
<path d="M93.8065 63.7356C93.8065 64.6595 93.0594 65.4088 92.1396 65.4088H42.6271C41.706 65.4088 40.959 64.6595 40.959 63.7356C40.959 62.8117 41.706 62.0623 42.6271 62.0623H92.1384C93.0594 62.0623 93.8065 62.8117 93.8065 63.7356Z" fill="#BFE1E5"/>
<path d="M87.6231 75.178C87.6231 76.1019 86.876 76.8501 85.955 76.8501H42.6271C41.706 76.8501 40.959 76.1019 40.959 75.178C40.959 74.2541 41.706 73.5048 42.6271 73.5048H85.955C86.876 73.5048 87.6231 74.2541 87.6231 75.178Z" fill="#BFE1E5"/>
<path opacity="0.12" d="M96.8377 96.436C99.5334 96.436 101.719 94.2437 101.719 91.5397V12.2171C101.719 9.51302 99.5334 7.3208 96.8377 7.3208H81.4531C86.1271 82.5737 94.9388 83.3693 90.0422 85.7717L32.4248 91.5397C32.4248 94.2449 34.6103 96.436 37.306 96.436H96.8377Z" fill="#878787"/>
<g clip-path="url(#clip0)">
<path d="M120.267 79.8278C123.332 64.8218 113.651 50.1728 98.6454 47.1082C83.6395 44.0436 68.9905 53.724 65.9259 68.7299C62.8613 83.7358 72.5417 98.3849 87.5476 101.449C102.553 104.514 117.203 94.8337 120.267 79.8278Z" fill="#FFE033"/>
<path d="M90.9443 100.457C89.849 100.367 88.7504 100.209 87.6777 99.9832L88.1158 97.8892C89.0983 98.0953 90.1099 98.2403 91.115 98.3241L90.9443 100.457ZM96.3113 100.35L96.0536 98.2274C97.0555 98.105 98.0574 97.9182 99.0335 97.6701L99.5586 99.7448C98.4955 100.012 97.4034 100.215 96.3113 100.35ZM82.5587 98.3466C81.5536 97.9053 80.5678 97.3963 79.6239 96.8325L80.7224 94.9963C81.589 95.5149 82.4942 95.982 83.4156 96.3879L82.5587 98.3466ZM104.603 97.8956L103.666 95.9724C104.571 95.531 105.457 95.0252 106.301 94.4744L107.474 96.2623C106.553 96.868 105.586 97.4156 104.603 97.8956ZM75.3199 93.6174C74.5113 92.8765 73.7446 92.0743 73.0359 91.2367L74.6692 89.8547C75.3199 90.6247 76.0255 91.3592 76.7696 92.0421L75.3199 93.6174ZM111.639 92.8797L110.128 91.3656C110.844 90.6537 111.52 89.8902 112.139 89.0944L113.827 90.4088C113.153 91.2754 112.419 92.1066 111.639 92.8797ZM70.0012 86.8039C69.4761 85.8407 69.009 84.8324 68.6128 83.8112L70.6036 83.0348C70.9677 83.9722 71.3994 84.8968 71.8794 85.7827L70.0012 86.8039ZM116.678 85.8568L114.758 84.9129C115.202 84.0077 115.595 83.067 115.921 82.1134L117.944 82.806C117.589 83.8434 117.164 84.871 116.678 85.8568ZM67.1888 78.631C67.0084 77.5518 66.8957 76.4468 66.8506 75.3482L68.9864 75.2613C69.0283 76.2728 69.1314 77.2876 69.2957 78.2766L67.1888 78.631ZM119.158 77.5711L117.035 77.3069C117.161 76.3115 117.222 75.2903 117.222 74.2787V74.2207H119.361V74.2787C119.361 75.3772 119.294 76.4854 119.158 77.5711ZM69.2893 70.3356L67.1792 69.9877C67.3564 68.902 67.6076 67.8228 67.9201 66.7694L69.969 67.3782C69.6823 68.3447 69.4536 69.3401 69.2893 70.3356ZM116.713 69.3144C116.507 68.3286 116.236 67.346 115.908 66.3924L117.928 65.6934C118.285 66.7307 118.582 67.8002 118.807 68.8762L116.713 69.3144ZM71.8568 62.823L69.9755 61.805C70.4973 60.8418 71.0837 59.8979 71.7247 59.0055L73.4643 60.249C72.8748 61.0705 72.3336 61.9371 71.8568 62.823ZM113.823 61.921C113.308 61.0576 112.731 60.2168 112.11 59.4211L113.794 58.1035C114.471 58.9669 115.099 59.8818 115.66 60.8224L113.823 61.921ZM76.731 56.5507L75.2813 54.9786C76.0867 54.2345 76.9468 53.5322 77.8392 52.8975L79.0827 54.6371C78.2612 55.2235 77.4719 55.8645 76.731 56.5507ZM108.688 55.8645C107.918 55.2138 107.1 54.6017 106.256 54.0508L107.426 52.2597C108.344 52.8589 109.236 53.5225 110.07 54.2312L108.688 55.8645ZM83.3673 52.192L82.5039 50.2366C83.509 49.792 84.5528 49.4086 85.603 49.0994L86.2119 51.1482C85.2486 51.435 84.2919 51.7861 83.3673 52.192ZM101.868 51.7958C100.928 51.4285 99.9581 51.1193 98.9787 50.8744L99.4974 48.7998C100.564 49.0671 101.62 49.4054 102.645 49.8049L101.868 51.7958ZM91.0602 50.2366L90.8831 48.1071C91.9719 48.0169 93.0866 47.9912 94.1819 48.0363L94.0949 50.1721C93.0866 50.1302 92.0621 50.1528 91.0602 50.2366Z" fill="#FFBD00"/>
<path d="M93.0954 96.462C87.1711 96.462 81.5979 94.1554 77.4099 89.9642C73.2187 85.773 70.9121 80.203 70.9121 74.2787C70.9121 68.3543 73.2187 62.7811 77.4099 58.5931C81.6011 54.4019 87.1711 52.0953 93.0954 52.0953C99.0198 52.0953 104.593 54.4019 108.781 58.5931C112.972 62.7843 115.279 68.3543 115.279 74.2787C115.279 80.203 112.972 85.7762 108.781 89.9642C104.593 94.1554 99.0198 96.462 93.0954 96.462Z" fill="#FFBD00"/>
<path d="M80.1257 84.0269L80.8183 80.5928C82.5515 81.1984 84.8323 81.5754 86.2755 81.5754C88.9301 81.5754 90.1736 80.8827 90.1736 79.0626C90.1736 75.3675 80.0967 78.051 80.0967 70.2872C80.0967 66.2732 83.2441 64.5142 87.4578 64.5142C89.3618 64.5142 91.4428 64.8042 92.9731 65.3228L92.2804 68.6732C90.6632 68.2415 88.9301 67.9806 87.5448 67.9806C85.119 67.9806 84.3394 68.8472 84.3394 70.0874C84.3394 73.9565 94.4163 71.2987 94.4163 79.0078C94.4163 80.77 93.8107 82.1842 92.7701 83.1636C91.3849 84.4618 89.5067 85.0417 86.6782 85.0417C84.1687 85.0353 82.1198 84.7195 80.1257 84.0269Z" fill="#F9FCFB"/>
<path d="M105.186 64.5109H108.852L100.163 85.0383H96.4941L105.186 64.5109Z" fill="#F9FCFB"/>
</g>
<path d="M37.8622 33.499L32.9268 38.4396L35.3411 40.8565L40.2765 35.9159L37.8622 33.499Z" fill="#019DF4"/>
<path d="M33.502 25.1208C33.502 21.0709 35.0775 17.2635 37.9382 14.3997C40.799 11.536 44.6024 9.9588 48.648 9.9588C52.6937 9.9588 56.4971 11.536 59.3579 14.3997C62.2186 17.2635 63.7941 21.0709 63.7941 25.1208C63.7941 29.1707 62.2186 32.9781 59.3579 35.8419C53.4521 41.7539 43.8432 41.7539 37.9382 35.8419C35.0775 32.9781 33.502 29.1707 33.502 25.1208ZM60.8372 25.1208C60.8372 21.862 59.5691 18.7974 57.267 16.4928C54.9648 14.1883 51.9035 12.9189 48.648 12.9189C45.3926 12.9189 42.3313 14.1883 40.0291 16.4928C37.727 18.7974 36.4589 21.8611 36.4589 25.1208C36.4589 28.3797 37.727 31.4442 40.0291 33.7488C44.7818 38.5064 52.5143 38.5064 57.267 33.7488C59.5691 31.4442 60.8372 28.3797 60.8372 25.1208Z" fill="#019DF4"/>
<path d="M20.8289 55.385C21.2693 55.8258 21.9837 55.8258 22.424 55.385L35.3414 42.454C35.7818 42.0132 35.7818 41.2989 35.3414 40.8581L32.9267 38.4409C32.4864 38 31.772 38 31.3316 38.4409L18.4143 51.3718C17.9739 51.8126 17.9739 52.5269 18.4143 52.9678L20.8289 55.385Z" fill="#0B2739"/>
<path d="M35.4159 40.9999L22.7531 53.1533C22.7531 53.1533 21.7993 53.9652 20.7751 53.4242C20.2899 53.1679 19.6658 52.6053 19.1432 52.0841C18.7511 51.693 18.0477 51.9378 18.0133 52.4905C18.0047 52.6283 18.0424 52.7649 18.1206 52.8787L19.0953 54.2983C19.8163 55.3483 21.0505 55.9241 22.3183 55.8019C22.8894 55.7469 23.4243 55.4973 23.8332 55.0948L36 43.1208V42.1417L35.4159 40.9999Z" fill="#021E2D"/>
<defs>
<clipPath id="clip0">
<rect width="55.4615" height="55.4616" fill="white" transform="translate(65.3652 46.5477)"/>
</clipPath>
</defs>
</svg>
