<svg width="181" height="60" viewBox="0 0 181 60" fill="none" xmlns="http://www.w3.org/2000/svg">
<g clip-path="url(#clip0)">
<path d="M0.000488281 20.5902H3.85876V23.7004C4.64616 22.6374 5.5123 21.8107 6.45718 21.2201C7.79576 20.354 9.37057 19.9209 11.1422 19.9209C13.8194 19.9209 16.0635 20.9445 17.9139 22.9918C19.7643 25.039 20.7092 27.9524 20.7092 31.7319C20.7092 36.85 19.3706 40.4721 16.6934 42.6768C15.0005 44.0548 13.032 44.7634 10.7485 44.7634C8.97687 44.7634 7.4808 44.3697 6.2997 43.6217C5.59104 43.1886 4.80364 42.4406 3.9375 41.3776V53.3461H0.000488281V20.5902ZM14.843 38.976C16.0635 37.4406 16.6934 35.1177 16.6934 32.0863C16.6934 30.2359 16.4178 28.6217 15.8666 27.2831C14.843 24.6847 12.9532 23.4248 10.2367 23.4248C7.4808 23.4248 5.63041 24.8028 4.60679 27.5193C4.05561 28.976 3.78002 30.8264 3.78002 33.0705C3.78002 34.8815 4.05561 36.417 4.60679 37.6768C5.63041 40.1177 7.52017 41.2989 10.2367 41.2989C12.0871 41.2989 13.6225 40.5114 14.843 38.976Z" fill="#1D1D1B"/>
<path d="M39.8037 22.8345C41.8903 24.8424 42.914 27.7952 42.914 31.7322C42.914 35.5117 42.0084 38.6219 40.158 41.1022C38.347 43.5826 35.5124 44.803 31.6541 44.803C28.4651 44.803 25.9061 43.7007 24.0163 41.5353C22.1266 39.37 21.1817 36.4172 21.1817 32.7558C21.1817 28.8188 22.1659 25.6692 24.1738 23.3463C26.1423 21.0235 28.8195 19.8424 32.1659 19.8424C35.1974 19.803 37.7171 20.8267 39.8037 22.8345ZM37.3628 38.4251C38.3077 36.4566 38.8195 34.2519 38.8195 31.8503C38.8195 29.6456 38.4651 27.8739 37.7958 26.4959C36.6935 24.3306 34.8037 23.2676 32.1266 23.2676C29.7643 23.2676 28.0321 24.1731 26.9297 26.0235C25.8667 27.8739 25.3155 30.0786 25.3155 32.6771C25.3155 35.1574 25.8667 37.244 26.9297 38.8975C27.9927 40.5511 29.725 41.3778 32.0872 41.3778C34.6069 41.3778 36.3785 40.3936 37.3628 38.4251Z" fill="#1D1D1B"/>
<path d="M47.599 36.5744C47.7171 37.8737 48.0715 38.8973 48.6226 39.6059C49.6463 40.8658 51.3785 41.4957 53.8982 41.4957C55.3943 41.4957 56.6935 41.1807 57.8352 40.5508C58.977 39.9209 59.5281 38.9367 59.5281 37.5981C59.5281 36.5744 59.0951 35.8264 58.1896 35.3146C57.599 34.9996 56.4573 34.6059 54.7644 34.2122L51.5754 33.4248C49.5281 32.913 48.0321 32.3618 47.0872 31.7713C45.3549 30.7083 44.4888 29.2122 44.4888 27.3618C44.4888 25.1571 45.3155 23.3461 46.9297 21.9681C48.5439 20.5902 50.7093 19.9209 53.4652 19.9209C57.0478 19.9209 59.6069 20.9445 61.2211 23.0311C62.2053 24.3303 62.6777 25.7477 62.6777 27.2831H58.9376C58.8589 26.417 58.5439 25.5902 57.9927 24.8815C57.0478 23.8579 55.473 23.3461 53.1896 23.3461C51.6541 23.3461 50.5124 23.6217 49.725 24.2122C48.9376 24.7634 48.5439 25.5115 48.5439 26.4563C48.5439 27.48 49.0557 28.3067 50.0793 28.8973C50.6699 29.2516 51.536 29.5666 52.7171 29.8422L55.3549 30.4721C58.2289 31.1414 60.1581 31.8107 61.1423 32.48C62.6778 33.5036 63.4258 35.0784 63.4258 37.2437C63.4258 39.3304 62.6384 41.1414 61.0242 42.6374C59.41 44.1729 56.9691 44.9209 53.7014 44.9209C50.1581 44.9209 47.6778 44.1335 46.1817 42.5587C44.725 40.9839 43.9376 39.0154 43.8195 36.6926H47.599V36.5744Z" fill="#1D1D1B"/>
<path d="M66.0244 13.9365H70.0007V20.472H73.7409V23.7003H70.0007V39.0153C70.0007 39.842 70.2763 40.3932 70.8275 40.6688C71.1425 40.8263 71.6543 40.905 72.3629 40.905C72.5598 40.905 72.7566 40.905 72.9929 40.905C73.2291 40.905 73.4653 40.8657 73.7409 40.8263V43.9759C73.3078 44.094 72.8354 44.2121 72.3236 44.2515C71.8511 44.2909 71.3 44.3302 70.7488 44.3302C68.8984 44.3302 67.6779 43.8578 67.0086 42.9129C66.3393 41.968 66.0244 40.7476 66.0244 39.2515V23.7003H62.8354V20.472H66.0244V13.9365Z" fill="#1D1D1B"/>
<path d="M89.6858 21.1414C91.2212 21.9288 92.4023 22.9524 93.2291 24.1729C94.0165 25.354 94.5283 26.7319 94.8039 28.3067C95.0401 29.3697 95.1582 31.102 95.1582 33.4642H78.1109C78.1897 35.8658 78.7409 37.7555 79.7645 39.2122C80.7881 40.6689 82.4417 41.3776 84.607 41.3776C86.6543 41.3776 88.2684 40.7083 89.4889 39.3304C90.1582 38.543 90.67 37.6374 90.9456 36.5744H94.8039C94.6858 37.4406 94.3708 38.3855 93.7802 39.4485C93.1897 40.5115 92.5598 41.3776 91.8511 42.0469C90.67 43.228 89.174 44.0154 87.4417 44.4091C86.4968 44.6453 85.4338 44.7634 84.2527 44.7634C81.3393 44.7634 78.8984 43.7004 76.8905 41.5744C74.8826 39.4485 73.859 36.4957 73.859 32.6374C73.859 28.8579 74.8826 25.8264 76.8905 23.4642C78.9377 21.102 81.5755 19.9209 84.8432 19.9209C86.5362 19.9603 88.1503 20.354 89.6858 21.1414ZM91.1031 30.354C90.9456 28.6611 90.5913 27.2831 90.0007 26.2595C88.9377 24.3697 87.1267 23.4248 84.6464 23.4248C82.8354 23.4248 81.3393 24.0941 80.1188 25.3933C78.8983 26.6926 78.2684 28.3461 78.1897 30.3933H91.1031V30.354Z" fill="#1D1D1B"/>
<path d="M110.591 21.2203C111.3 21.6533 112.087 22.4407 112.953 23.5037V11.6533H116.733V43.9368H113.19V40.6691C112.284 42.1258 111.182 43.1494 109.922 43.8187C108.662 44.4486 107.245 44.7636 105.63 44.7636C103.032 44.7636 100.788 43.6612 98.8588 41.4565C96.9691 39.2517 95.9848 36.3384 95.9848 32.6769C95.9848 29.2517 96.851 26.299 98.5833 23.7793C100.316 21.2596 102.796 20.0391 106.024 20.0391C107.875 20.0785 109.371 20.4722 110.591 21.2203ZM101.772 38.7793C102.835 40.4722 104.528 41.3384 106.851 41.3384C108.662 41.3384 110.158 40.551 111.339 38.9762C112.52 37.4014 113.111 35.1573 113.111 32.2045C113.111 29.2517 112.52 27.047 111.3 25.6297C110.079 24.2124 108.623 23.5037 106.851 23.5037C104.882 23.5037 103.268 24.2517 102.048 25.7872C100.827 27.3226 100.197 29.5273 100.197 32.4801C100.197 34.9998 100.709 37.0864 101.772 38.7793Z" fill="#1D1D1B"/>
<path d="M173.859 29.9997C173.859 43.1493 163.229 53.7793 150.079 53.7793C136.93 53.7793 126.3 43.1493 126.3 29.9997C126.3 16.8501 136.93 6.22021 150.079 6.22021C163.229 6.22021 173.859 16.8501 173.859 29.9997Z" fill="#4ACBAB"/>
<path d="M137.835 14.0156H141.221V17.7558H137.835V14.0156ZM137.835 21.4172H141.221V41.0629H137.835V21.4172Z" fill="white"/>
<path d="M146.221 21.3383H149.371V24.1336C150.316 22.9919 151.3 22.1651 152.324 21.6533C153.387 21.1415 154.528 20.9053 155.788 20.9053C158.584 20.9053 160.473 21.8895 161.458 23.8187C162.009 24.8817 162.284 26.4171 162.284 28.425V41.1021H158.898V28.6218C158.898 27.4013 158.702 26.4565 158.347 25.7084C157.757 24.488 156.694 23.858 155.158 23.858C154.371 23.858 153.741 23.9368 153.229 24.0943C152.324 24.3698 151.536 24.921 150.828 25.7084C150.276 26.3777 149.922 27.047 149.765 27.7163C149.607 28.425 149.528 29.4092 149.528 30.7084V41.0628H146.221V21.3383Z" fill="white"/>
<path d="M150.079 60C133.544 60 120.079 46.5354 120.079 30C120.079 13.4646 133.544 0 150.079 0C166.615 0 180.079 13.4646 180.079 30C180.079 46.5354 166.615 60 150.079 60ZM150.079 3.93701C135.709 3.93701 124.016 15.6299 124.016 30C124.016 44.3701 135.709 56.063 150.079 56.063C164.449 56.063 176.142 44.3701 176.142 30C176.142 15.6299 164.449 3.93701 150.079 3.93701Z" fill="#4ACBAB"/>
</g>
<defs>
<clipPath id="clip0">
<rect width="180.079" height="60" fill="white" transform="translate(0.000488281)"/>
</clipPath>
</defs>
</svg>
