<svg width="191" height="158" viewBox="0 0 191 158" fill="none" xmlns="http://www.w3.org/2000/svg">
<path opacity="0.05" d="M50.9047 6.28904C91.8334 -14.1853 139.428 20.6151 182.903 35.4585C216.37 46.8795 228.488 102.492 200.234 126.847C175.223 148.415 73.9258 178.719 35.0465 137.273C-11.6524 87.5098 22.8296 20.3365 50.9047 6.28904Z" fill="black"/>
<path opacity="0.15" d="M201.147 115.002C246.588 128.379 46.2022 126.297 23.0497 119.742C2.1241 113.829 167.551 105.125 201.147 115.002Z" fill="black"/>
<path opacity="0.15" d="M92.6803 129.993C114.349 136.675 18.7798 135.635 7.74065 132.363C-2.23979 129.397 76.6579 125.05 92.6803 129.993Z" fill="black"/>
<g clip-path="url(#clip0)">
<path d="M24.7036 78.5836C24.7036 78.5836 28.3755 68.2059 21.6351 62.293C20.9628 61.7414 19.9112 61.9655 19.5665 62.8447C18.3942 66.2062 16.9462 73.6878 24.7036 78.5836Z" fill="#32AE00"/>
<path d="M31.3918 102.632C31.2884 102.632 31.2194 102.58 31.1677 102.459L21.8071 69.1714C21.7553 69.068 21.8588 68.9473 21.9105 68.8956C22.0139 68.8438 22.1346 68.9473 22.1863 68.999L31.5469 102.287C31.6159 102.459 31.5642 102.511 31.3918 102.632C31.4435 102.632 31.4435 102.632 31.3918 102.632Z" fill="#D1D840"/>
<path d="M26.203 87.6168C26.203 87.6168 25.3583 78.3596 16.1011 77.9114C15.2047 77.8596 14.5324 78.6871 14.8254 79.5835C15.5495 82.2728 18.0663 87.4616 26.203 87.6168Z" fill="#32AE00"/>
<path d="M27.651 89.1338C27.5992 89.1338 27.5475 89.1338 27.5475 89.0821L18.9626 81.928C18.8592 81.8246 18.8592 81.7039 18.9109 81.6005C19.0144 81.497 19.135 81.497 19.2385 81.5487L27.8233 88.6856C27.9268 88.789 27.9268 88.9097 27.8751 89.0131C27.7199 89.0648 27.7199 89.1338 27.651 89.1338Z" fill="#D1D840"/>
<path d="M26.2533 79.1526C26.2533 79.1526 23.0814 74.9118 26.2016 69.1713C26.7532 68.1715 28.2702 68.2749 28.5978 69.3954C29.3218 71.8951 29.7183 75.9634 26.2533 79.1526Z" fill="#81C600"/>
<path d="M25.8745 82.9968C25.7711 82.9968 25.6504 82.8933 25.6504 82.7209L26.926 70.447C26.926 70.3435 27.0295 70.2229 27.1501 70.2746C27.2536 70.2746 27.3743 70.378 27.3225 70.4987L26.0469 82.7727C26.0986 82.8761 25.9779 82.9968 25.8745 82.9968Z" fill="#32AE00"/>
<path d="M44.4401 124.197C44.4401 124.197 38.9754 108.855 27.5462 98.322C18.9096 90.3405 7.03208 86.9445 1.89494 85.7723C0.843376 85.4964 -0.104754 86.617 0.395169 87.6685C2.73964 92.6333 8.70423 104.183 16.7892 111.148C27.3221 120.301 44.4401 124.197 44.4401 124.197Z" fill="#217706"/>
<path d="M44.4409 124.421C44.3892 124.421 44.3374 124.421 44.3374 124.37L8.91186 93.9262C8.80843 93.8227 8.80843 93.7021 8.86014 93.5986C8.96357 93.4952 9.08424 93.4952 9.18768 93.5469L44.596 123.99C44.6995 124.094 44.6995 124.215 44.6477 124.318C44.4926 124.37 44.4409 124.421 44.4409 124.421Z" fill="#D1D840"/>
<path d="M14.3257 103.631C14.2222 103.631 14.1016 103.528 14.1016 103.407C14.1016 103.304 14.205 103.183 14.3257 103.183L19.618 103.08L16.9977 95.0983C16.946 94.9948 17.0494 94.8742 17.1011 94.8224C17.2045 94.7707 17.3252 94.8742 17.3769 94.9259L20.1696 103.235C20.1696 103.338 20.1696 103.338 20.1179 103.407C20.0662 103.459 20.0144 103.511 19.9455 103.511L14.3257 103.631ZM29.4958 111.665L22.1865 111.389C22.0831 111.389 21.9624 111.285 21.9624 111.165C21.9624 111.061 22.0659 110.941 22.1865 110.941L29.4958 111.216C29.5992 111.216 29.7199 111.32 29.7199 111.441C29.7199 111.544 29.5475 111.665 29.4958 111.665ZM33.7882 115.457C33.6848 115.457 33.6158 115.405 33.5641 115.285L31.8402 109.2C31.7885 109.096 31.8919 108.975 31.9436 108.924C32.0471 108.872 32.1678 108.975 32.2195 109.027L33.9433 115.112C34.0123 115.285 33.9089 115.337 33.7882 115.457C33.7882 115.457 33.8399 115.457 33.7882 115.457Z" fill="#D1D840"/>
<path d="M43.2703 125.766C43.2703 125.766 34.1166 117.129 22.5322 113.837C14.1714 111.492 5.36238 112.992 1.06994 114.009C-0.050578 114.285 -0.378114 115.733 0.570016 116.405C4.19015 119.198 11.9476 124.542 19.636 126.438C30.1689 129.059 43.2703 125.766 43.2703 125.766Z" fill="#32AE00"/>
<path d="M43.2687 125.99L8.0845 117.405C7.98106 117.354 7.91211 117.302 7.91211 117.129C7.96383 117.026 8.01554 116.957 8.18793 116.957L43.3204 125.542C43.4239 125.594 43.4928 125.645 43.4928 125.818C43.4928 125.869 43.3894 125.99 43.2687 125.99Z" fill="#D1D840"/>
<path d="M15.2733 122.198C15.1699 122.198 15.1699 122.146 15.1009 122.094C15.0492 122.042 15.1009 121.87 15.2044 121.767L18.7728 119.819L14.2045 115.302C14.1011 115.199 14.1011 115.078 14.2045 114.975C14.308 114.871 14.4286 114.871 14.5321 114.975L19.3244 119.715C19.3761 119.767 19.4279 119.819 19.3761 119.888C19.3761 119.991 19.3244 119.991 19.2727 120.06L15.4802 122.129C15.325 122.198 15.2733 122.198 15.2733 122.198ZM23.3583 124.818C23.2549 124.818 23.1859 124.766 23.1342 124.714C23.0825 124.611 23.1342 124.49 23.2376 124.387L28.3748 121.991C28.4782 121.939 28.5989 121.991 28.7023 122.094C28.754 122.198 28.7023 122.318 28.5989 122.422L23.4617 124.818C23.479 124.766 23.41 124.818 23.3583 124.818ZM32.7879 123.542C32.7362 123.542 32.6844 123.49 32.6155 123.439L29.3229 119.87C29.2195 119.767 29.2195 119.646 29.3229 119.543C29.4263 119.439 29.547 119.439 29.6504 119.543L32.943 123.111C33.0465 123.215 33.0465 123.335 32.943 123.439C32.9603 123.542 32.8913 123.542 32.7879 123.542Z" fill="#D1D840"/>
<path d="M38.0295 112.768C38.0295 112.768 39.65 104.131 37.1848 96.0982C35.5644 90.8577 31.8926 86.5135 29.5998 84.169C28.8241 83.3933 27.376 83.8415 27.307 85.0137C27.0829 88.4098 27.0312 94.3226 28.7034 99.115C31.1168 106.304 38.0295 112.768 38.0295 112.768Z" fill="#32AE00"/>
<path d="M38.0271 112.992C37.9237 112.992 37.8547 112.94 37.803 112.889L29.5457 88.9614C29.494 88.858 29.5457 88.7373 29.6491 88.6856C29.7525 88.6339 29.8732 88.6856 29.9249 88.789L38.1823 112.716C38.2512 112.82 38.1995 112.94 38.0271 112.992Z" fill="#D1D840"/>
<path d="M32.2881 96.5464C32.2364 96.5464 32.1847 96.5464 32.1847 96.4947L29.5644 94.9949C29.4609 94.9432 29.4609 94.8225 29.4609 94.6674C29.5127 94.5639 29.6333 94.5639 29.7885 94.5639L32.1847 95.9086L33.0811 91.6161C33.1328 91.5127 33.1845 91.4437 33.3569 91.4437C33.4603 91.4954 33.5293 91.5472 33.5293 91.7195L32.5294 96.3395C32.5294 96.443 32.4777 96.443 32.426 96.5119H32.3226V96.5464H32.2881ZM34.5119 102.959C34.4602 102.959 34.4085 102.959 34.4085 102.907L31.0641 100.787C30.9607 100.735 30.9607 100.563 30.9607 100.46C31.0124 100.356 31.1848 100.356 31.2882 100.356L34.6326 102.477C34.736 102.528 34.736 102.701 34.736 102.804C34.6326 102.959 34.5636 102.959 34.5119 102.959ZM35.5117 105.907C35.3393 105.855 35.2876 105.804 35.2876 105.631L36.1323 102.339C36.184 102.235 36.2358 102.166 36.4081 102.166C36.5116 102.218 36.5805 102.27 36.5805 102.442L35.7358 105.735C35.6841 105.855 35.5807 105.907 35.5117 105.907Z" fill="#D1D840"/>
</g>
<path d="M129.549 125.382C176.197 125.382 214.014 121.474 214.014 116.653C214.014 111.833 176.197 107.925 129.549 107.925C82.9002 107.925 45.084 111.833 45.084 116.653C45.084 121.474 82.9002 125.382 129.549 125.382Z" fill="#0B2739"/>
<path opacity="0.25" d="M129.549 125.382C176.197 125.382 214.014 121.474 214.014 116.653C214.014 111.833 176.197 107.925 129.549 107.925C82.9002 107.925 45.084 111.833 45.084 116.653C45.084 121.474 82.9002 125.382 129.549 125.382Z" fill="black"/>
<path d="M198.22 116.806H60.88C57.8392 116.806 55.3672 114.334 55.3672 111.294V102.149C55.3672 61.1747 88.5756 27.9445 129.572 27.9445C170.546 27.9445 203.777 61.1529 203.777 102.149V111.294C203.755 114.334 201.283 116.806 198.22 116.806Z" fill="#0B2739"/>
<path opacity="0.2" d="M51.2129 80.3932C55.4613 74.386 72.9067 78.5911 78.4884 77.8453C85.7648 76.8718 75.7088 74.2825 87.9568 73.2468C100.205 72.2317 128.497 74.531 123.39 76.8096C118.283 79.1089 106.329 75.546 96.5666 76.6853C86.8043 77.8246 105.402 81.4082 93.4933 81.9054C86.2168 82.2161 76.3416 81.7604 65.4947 80.5589C54.8285 79.3782 49.8796 82.2782 51.2129 80.3932Z" fill="black"/>
<path opacity="0.05" d="M169.495 74.1478C168.839 59.6 162.451 49.4493 162.451 49.4493C169.167 56.1654 174.614 64.194 178.377 73.0759C179.055 74.6947 177.874 76.4886 176.124 76.4886H171.946C170.633 76.4886 169.561 75.4604 169.495 74.1478Z" fill="white"/>
<path opacity="0.05" d="M55.3672 112.081V102.149C55.3672 61.1747 88.5756 27.9445 129.572 27.9445C92.4696 27.9445 64.8397 72.3755 69.6087 116.806H60.0925C57.4673 116.806 55.3672 114.706 55.3672 112.081Z" fill="white"/>
<path d="M132.701 20.9661H128.807V28.4697H132.701V20.9661Z" fill="#0B2739"/>
<path d="M132.085 20.2004H129.417C128.06 20.2004 126.988 21.2943 126.988 22.6287V23.4163C126.988 24.7726 128.082 25.8446 129.417 25.8446H132.085C133.442 25.8446 134.514 24.7507 134.514 23.4163V22.6287C134.514 21.2943 133.42 20.2004 132.085 20.2004Z" fill="#0B2739"/>
<path d="M62.115 134.438C82.5214 134.438 99.064 132.973 99.064 131.166C99.064 129.359 82.5214 127.895 62.115 127.895C41.7086 127.895 25.166 129.359 25.166 131.166C25.166 132.973 41.7086 134.438 62.115 134.438Z" fill="#019DF4"/>
<path opacity="0.2" d="M62.115 134.438C82.5214 134.438 99.064 132.973 99.064 131.166C99.064 129.359 82.5214 127.895 62.115 127.895C41.7086 127.895 25.166 129.359 25.166 131.166C25.166 132.973 41.7086 134.438 62.115 134.438Z" fill="black"/>
<path d="M62.1177 132.978C94.2152 132.978 120.235 130.286 120.235 126.965C120.235 123.643 94.2152 120.951 62.1177 120.951C30.0202 120.951 4 123.643 4 126.965C4 130.286 30.0202 132.978 62.1177 132.978Z" fill="#019DF4"/>
<path d="M62.1183 130.236C85.536 130.236 104.52 128.771 104.52 126.964C104.52 125.157 85.536 123.693 62.1183 123.693C38.7006 123.693 19.7168 125.157 19.7168 126.964C19.7168 128.771 38.7006 130.236 62.1183 130.236Z" fill="#019DF4" stroke="#D3D4D3" stroke-width="0.25" stroke-miterlimit="10"/>
<path d="M92.7322 100.151C92.7322 100.151 100.286 94.9873 104.471 100.103C108.208 104.674 104.984 112.355 92.5237 112.355L93.0048 109.549C93.0048 109.549 96.7414 110.126 101.055 107.368C105.417 104.577 102.451 96.6872 91.0804 104.369C87.5683 106.742 91.6577 100.472 91.6577 100.472L92.7322 100.151Z" fill="#019DF4"/>
<path d="M30.332 90.4004C30.332 90.4004 30.6688 109.132 31.9036 115.707C32.8819 120.951 35.1431 125.2 38.3825 126.965C41.7503 128.777 48.582 128.857 62.1171 128.857C75.6523 128.857 81.6982 129.402 86.9262 126.195C89.6364 124.543 91.7052 122.779 92.475 115.723C93.1646 109.42 93.9183 90.4164 93.9183 90.4164H30.332V90.4004Z" fill="#019DF4"/>
<path opacity="0.1" d="M38.3829 126.965C41.7506 128.777 48.5823 128.857 62.1175 128.857C75.6526 128.857 81.6985 129.402 86.9265 126.195C89.6367 124.543 91.7055 122.779 92.4753 115.723C93.1648 109.42 93.9186 90.4165 93.9186 90.4165C93.9186 90.4165 86.8784 111.04 66.8163 119.876C48.5503 127.895 37.0999 126.275 38.3829 126.965Z" fill="black"/>
<path d="M62.1171 92.8541C79.6716 92.8541 93.9023 91.7555 93.9023 90.4004C93.9023 89.0453 79.6716 87.9468 62.1171 87.9468C44.5627 87.9468 30.332 89.0453 30.332 90.4004C30.332 91.7555 44.5627 92.8541 62.1171 92.8541Z" fill="#019DF4"/>
<path opacity="0.2" d="M62.1171 92.8541C79.6716 92.8541 93.9023 91.7555 93.9023 90.4004C93.9023 89.0453 79.6716 87.9468 62.1171 87.9468C44.5627 87.9468 30.332 89.0453 30.332 90.4004C30.332 91.7555 44.5627 92.8541 62.1171 92.8541Z" fill="black"/>
<path d="M89.7659 91.6031C84.2973 90.8654 73.9695 90.3683 62.1183 90.3683C50.267 90.3683 39.9393 90.8654 34.4707 91.6031C39.9393 92.3408 50.267 92.838 62.1183 92.838C73.9695 92.838 84.2973 92.3569 89.7659 91.6031Z" fill="#0B2739"/>
<path opacity="0.15" d="M89.765 91.6031C84.2964 90.8654 73.9687 90.3683 62.1174 90.3683C50.2662 90.3683 44.6693 90.9456 48.9672 91.1862C53.1207 91.4267 70.2962 92.3729 89.765 91.6031Z" fill="black"/>
<defs>
<clipPath id="clip0">
<rect width="44.7" height="65.4554" fill="white" transform="translate(0 62)"/>
</clipPath>
</defs>
</svg>
