<svg width="219" height="40" viewBox="0 0 219 40" fill="none" xmlns="http://www.w3.org/2000/svg">
<path d="M22.6993 31.986L17.9428 23.0677C17.9428 23.0677 22.6993 20.2931 22.6993 15.7349C22.6993 11.1766 17.2492 7.41113 15.0692 7.41113C12.8891 7.41113 1.88988 7.41113 1.88988 7.41113C0.998047 7.51023 0.998047 7.8075 0.998047 8.89752C0.998047 9.98753 0.998047 30.5987 0.998047 32.0851C0.998047 33.5715 1.5926 33.3733 2.38534 33.3733C3.17808 33.3733 6.44812 33.3733 7.24086 33.3733C8.0336 33.3733 8.23178 33.4724 8.23178 32.2833C8.23178 31.0942 8.23178 24.7523 8.23178 24.7523H11.1055C11.1055 24.7523 14.3755 30.6978 14.871 31.7878C15.2673 32.8779 15.6637 33.3733 16.7537 33.3733C17.8437 33.3733 20.7174 33.3733 22.0056 33.3733C23.0956 33.3733 23.2938 33.1751 22.6993 31.986ZM12.0964 19.0049C11.0064 19.0049 8.23178 19.0049 8.23178 19.0049V12.663C8.23178 12.663 11.1055 12.663 12.0964 12.663C13.0873 12.663 15.2673 13.753 15.2673 15.834C15.2673 17.9149 13.0873 19.0049 12.0964 19.0049Z" fill="#273948"/>
<path d="M40.7336 24.2563C40.7336 24.2563 40.2382 15.7344 32.1126 15.7344C25.3743 15.7344 22.9961 21.6799 22.9961 24.5536C22.9961 29.7064 27.2571 33.6701 32.509 33.6701C34.689 33.6701 37.6618 32.3819 39.049 30.7964C39.3463 30.4991 39.4454 30.4991 38.8509 29.8055C38.2563 29.1118 37.4636 28.4182 37.1663 28.1209C36.869 27.8236 36.7699 27.5264 35.8781 28.1209C35.1844 28.6164 33.9953 29.31 32.2117 29.31C30.428 29.31 28.248 27.9227 28.248 26.2382C28.248 26.2382 36.6708 26.3372 38.2563 26.3372C39.8418 26.3372 40.7336 26.3372 40.7336 24.2563ZM28.4462 22.4727C28.4462 22.4727 29.338 19.8963 32.0135 19.8963C34.689 19.8963 35.5808 22.4727 35.5808 22.4727H28.4462Z" fill="#273948"/>
<path d="M49.2568 15.6357C46.9776 15.6357 42.9149 16.4285 42.9149 20.9867C42.9149 22.6713 43.9058 24.554 45.9867 25.545C48.0677 26.5359 51.1395 26.8332 50.8422 28.2205C50.545 29.5087 47.374 29.8059 45.3922 27.725C44.7976 27.1304 44.6985 27.4277 44.3022 27.725C43.9058 28.1214 42.8158 29.3105 42.6176 29.5087C42.4194 29.7068 41.9239 30.1032 42.8158 30.995C43.7076 31.8869 45.3922 33.5714 49.455 33.5714C53.5177 33.5714 56.3914 30.896 56.3914 27.9232C56.3914 24.9504 54.7068 23.6622 52.3286 22.6713C49.9504 21.6804 48.2658 21.7795 48.2658 20.8876C48.2658 19.6985 50.3468 19.5003 51.5359 20.2931C52.8241 21.284 52.6259 21.4822 53.2205 20.9867C53.7159 20.4913 55.1032 19.3022 55.4005 19.0049C55.6978 18.7076 56.0941 18.7076 55.3014 17.7167C54.3105 17.1221 52.725 15.6357 49.2568 15.6357Z" fill="#273948"/>
<path d="M67.3892 16.7253H64.8128C64.8128 14.1489 64.8128 12.2661 64.8128 11.7707C64.8128 11.077 63.921 10.9779 63.3264 11.2752C62.8309 11.4734 60.6509 12.4643 59.7591 12.8607C59.4618 12.9598 59.3627 13.0589 59.3627 13.6534C59.3627 13.7525 59.3627 15.0407 59.3627 16.8244H58.0745C57.6781 16.8244 57.3809 17.0225 57.3809 17.4189V20.4908C57.3809 20.8871 57.6781 21.1844 58.0745 21.1844H59.3627C59.3627 26.9318 59.3627 33.571 59.3627 33.571H64.8128C64.8128 33.571 64.8128 27.2291 64.8128 21.1844H67.3892C67.7855 21.1844 67.9837 20.8871 67.9837 20.4908V17.4189C67.9837 16.9235 67.7855 16.7253 67.3892 16.7253Z" fill="#273948"/>
<path d="M172.427 16.7253H169.851C169.851 14.1489 169.851 12.2661 169.851 11.7707C169.851 11.077 169.058 10.9779 168.364 11.2752C167.869 11.4734 165.689 12.4643 164.797 12.8607C164.5 12.9598 164.302 13.0589 164.302 13.6534C164.302 13.7525 164.302 15.0407 164.302 16.8244H163.013C162.617 16.8244 162.221 17.0225 162.221 17.4189V20.4908C162.221 20.8871 162.617 21.1844 163.013 21.1844H164.302C164.302 26.9318 164.302 33.571 164.302 33.571H169.752C169.752 33.571 169.752 27.2291 169.752 21.1844H172.328C172.724 21.1844 173.121 20.8871 173.121 20.4908V17.4189C173.22 16.9235 172.824 16.7253 172.427 16.7253Z" fill="#273948"/>
<path d="M86.0198 15.8333C85.5243 15.8333 85.3262 15.8333 84.2361 15.8333C83.4434 15.8333 82.9479 16.9233 82.4525 18.6078C80.9661 16.9233 78.8852 15.8333 76.606 15.8333C72.1469 15.8333 68.4805 19.7969 68.4805 24.7516C68.4805 29.7062 72.1469 33.6699 76.606 33.6699C78.5879 33.6699 80.3715 32.8771 81.7588 31.5889C82.6507 33.4717 83.4434 33.6699 84.1371 33.6699C84.9298 33.6699 85.3262 33.6699 86.1189 33.6699C86.9116 33.6699 87.5062 33.6699 87.5062 31.8862C87.5062 30.1025 87.5062 17.3196 87.5062 17.3196C87.6053 15.7342 86.6144 15.8333 86.0198 15.8333ZM77.6961 28.9134C75.3178 28.9134 73.4351 27.0307 73.4351 24.6525C73.4351 22.2743 75.3178 20.3915 77.6961 20.3915C80.0743 20.3915 81.957 22.2743 81.957 24.6525C81.957 27.0307 80.0743 28.9134 77.6961 28.9134Z" fill="#273948"/>
<path d="M140.323 15.8333C139.827 15.8333 139.629 15.8333 138.539 15.8333C137.746 15.8333 137.251 16.9233 136.755 18.6078C135.269 16.9233 133.188 15.8333 130.909 15.8333C126.45 15.8333 122.783 19.7969 122.783 24.7516C122.783 29.7062 126.45 33.6699 130.909 33.6699C132.891 33.6699 134.674 32.8771 136.062 31.5889C136.953 33.4717 137.746 33.6699 138.44 33.6699C139.233 33.6699 139.629 33.6699 140.422 33.6699C141.214 33.6699 141.611 33.6699 141.611 31.8862C141.611 30.1025 141.611 17.3196 141.611 17.3196C141.71 15.7342 140.818 15.8333 140.323 15.8333ZM131.999 28.9134C129.621 28.9134 127.738 27.0307 127.738 24.6525C127.738 22.2743 129.621 20.3915 131.999 20.3915C134.377 20.3915 136.26 22.2743 136.26 24.6525C136.26 27.0307 134.377 28.9134 131.999 28.9134Z" fill="#273948"/>
<path d="M106.729 16.924C106.729 16.924 106.729 29.4096 106.729 31.6888C106.729 32.7788 106.036 33.3733 104.847 33.3733C103.658 33.3733 102.072 33.3733 102.072 30.7969C102.072 30.7969 100.388 33.6706 96.7211 33.6706C93.0547 33.6706 89.6855 30.5987 89.6855 26.635C89.6855 22.6714 89.6855 18.8068 89.6855 17.7167C89.6855 16.6267 90.0819 15.834 91.1719 15.834C92.2619 15.834 93.2529 15.834 93.9465 15.834C94.6402 15.834 95.0365 16.2304 95.0365 17.2213C95.0365 18.2122 95.0365 24.3559 95.0365 25.9414C95.0365 27.5269 96.622 28.716 97.9102 28.716C99.1984 28.716 101.279 27.3287 101.279 25.3468C101.279 23.365 101.18 17.9149 101.18 17.1222C101.18 16.3294 101.676 15.834 102.468 15.834C103.261 15.834 105.243 15.834 105.838 15.834C106.333 15.834 106.729 16.1313 106.729 16.924Z" fill="#273948"/>
<path d="M143.691 32.6792C143.691 32.6792 143.691 20.1936 143.691 17.9145C143.691 16.8244 144.385 16.2299 145.673 16.2299C146.961 16.2299 148.448 16.2299 148.448 18.8063C148.448 18.8063 150.132 15.9326 153.7 15.9326C157.366 15.9326 160.636 19.0045 160.636 22.9682C160.636 26.9319 160.636 30.7965 160.636 31.8865C160.636 32.9765 160.339 33.6701 159.249 33.6701C158.159 33.6701 157.168 33.6701 156.474 33.6701C155.781 33.6701 155.384 33.3729 155.384 32.2828C155.384 31.2919 155.384 25.1482 155.384 23.5627C155.384 21.9772 153.799 20.7881 152.511 20.7881C151.322 20.7881 149.141 22.1754 149.141 24.1573C149.141 26.1391 149.241 31.4901 149.241 32.3819C149.241 33.1747 148.745 33.6701 147.952 33.6701C147.259 33.6701 145.178 33.6701 144.583 33.6701C144.088 33.6701 143.691 33.472 143.691 32.6792Z" fill="#273948"/>
<path d="M109.107 17.0232C109.107 17.0232 109.107 31.5897 109.107 32.3825C109.107 33.0761 109.504 33.1752 110.098 33.1752C110.693 33.1752 113.17 33.1752 113.666 33.1752C114.161 33.1752 114.657 33.0761 114.657 32.3825C114.657 31.6888 114.657 24.0587 114.657 23.1669C114.657 22.2751 114.657 22.275 114.657 22.275C114.657 22.275 115.846 20.1941 117.431 20.1941C119.017 20.1941 119.512 20.9868 119.908 21.2841C120.305 21.5814 121.098 21.7796 121.593 20.9869C122.089 20.1941 122.683 19.3023 122.98 18.9059C123.278 18.5095 123.476 18.0141 122.287 17.1223C121.296 16.3295 119.413 15.2395 117.233 15.6359C114.954 16.1313 114.062 18.3114 114.062 18.3114C114.062 18.3114 113.666 17.3204 113.269 16.6268C112.873 15.9331 112.873 15.8341 111.882 15.8341C110.792 15.9331 109.107 15.6359 109.107 17.0232Z" fill="#273948"/>
<path d="M175.203 33.3729C176.243 33.3729 177.086 32.53 177.086 31.4902C177.086 30.4504 176.243 29.6074 175.203 29.6074C174.163 29.6074 173.32 30.4504 173.32 31.4902C173.32 32.53 174.163 33.3729 175.203 33.3729Z" fill="#273948"/>
<path d="M218.902 15.5357C218.605 14.8421 217.713 14.4457 217.02 14.743L214.245 15.833V14.1484H179.067V15.833L176.194 14.743C175.5 14.4457 174.608 14.8421 174.311 15.5357C174.014 16.2294 174.41 17.1212 175.104 17.4185L178.968 18.9049V28.4177C178.968 28.4177 179.166 39.0206 197.003 39.0206C213.056 39.0206 214.047 28.4177 214.047 28.4177V18.9049L217.911 17.4185C218.803 17.0221 219.2 16.2294 218.902 15.5357Z" fill="#DA9500"/>
<path d="M214.343 12.9597H179.066C179.066 12.9597 181.544 10.3833 185.408 8.50051C189.768 6.32048 194.228 5.92411 194.228 5.92411C194.228 5.92411 193.336 3.34771 193.237 2.35679C193.038 1.26677 194.723 0.176758 196.606 0.176758C199.777 0.176758 200.47 1.86133 200.371 2.2577C200.173 3.4468 199.38 5.92411 199.38 5.92411C199.38 5.92411 203.839 6.22139 208.596 8.6987C212.163 10.6805 214.343 12.9597 214.343 12.9597Z" fill="#DA9500"/>
<path d="M212.361 25.2464C212.361 25.2464 211.965 17.8145 204.929 17.8145C199.083 17.8145 197.002 22.9673 197.002 25.4446C197.002 29.9037 200.767 33.3719 205.326 33.3719C207.208 33.3719 209.884 32.2819 210.974 30.8946C211.172 30.5974 211.271 30.5974 210.776 30.1019C210.28 29.5073 209.587 28.9128 209.289 28.6155C209.091 28.3182 208.893 28.1201 208.199 28.6155C207.605 29.0119 206.614 29.7055 205.028 29.7055C203.542 29.7055 201.56 28.5164 201.56 27.03C201.56 27.03 208.893 27.1291 210.28 27.1291C211.569 27.03 212.361 27.03 212.361 25.2464ZM201.758 23.5618C201.758 23.5618 202.947 21.2827 204.83 21.2827C206.713 21.2827 207.902 23.5618 207.902 23.5618H201.758Z" fill="white"/>
<path d="M191.452 15.5361C189.965 15.5361 183.029 15.5361 183.029 15.5361C182.434 15.5361 182.534 15.8334 182.534 16.6261C182.534 17.3198 182.534 31.3909 182.534 32.3818C182.534 33.3727 182.93 33.1746 183.326 33.1746C183.822 33.1746 186.101 33.1746 186.695 33.1746C187.191 33.1746 187.191 33.3727 187.191 32.58C187.191 31.7873 187.191 27.1299 187.191 27.1299C187.191 27.1299 190.956 27.1299 191.65 27.1299C192.344 27.1299 196.506 25.3463 196.506 21.9771C196.506 17.2207 193.434 15.5361 191.452 15.5361ZM190.065 23.3644C189.173 23.3644 187.092 23.3644 187.092 23.3644V19.3016C187.092 19.3016 189.173 19.3016 189.965 19.3016C190.758 19.3016 191.65 20.1935 191.65 21.2835C191.749 22.3735 190.956 23.3644 190.065 23.3644Z" fill="white"/>
</svg>
