<svg width="120" height="110" viewBox="0 0 120 110" fill="none" xmlns="http://www.w3.org/2000/svg">
<path opacity="0.05" d="M35.35 4.4903C63.7726 -9.72792 96.8241 14.4389 127.015 24.7468C150.256 32.678 158.671 71.298 139.05 88.2107C121.682 103.189 51.3368 124.233 24.3374 95.451C-8.09232 60.8934 15.8534 14.2455 35.35 4.4903Z" fill="black"/>
<path opacity="0.15" d="M139.685 79.9854C171.241 89.2745 32.0844 87.8289 16.0063 83.2766C1.47467 79.1703 116.354 73.1263 139.685 79.9854Z" fill="black"/>
<path opacity="0.15" d="M64.361 90.3957C79.4089 95.036 13.0414 94.3139 5.37534 92.0411C-1.5555 89.9814 53.2344 86.9629 64.361 90.3957Z" fill="black"/>
<g clip-path="url(#clip0)">
<path d="M17.1547 54.6947C17.1547 54.6947 19.7046 47.488 15.0238 43.3818C14.5569 42.9987 13.8267 43.1544 13.5872 43.7649C12.7732 46.0993 11.7676 51.2949 17.1547 54.6947Z" fill="#32AE00"/>
<path d="M21.8006 71.3947C21.7288 71.3947 21.6809 71.3587 21.645 71.2749L15.1446 48.1584C15.1086 48.0865 15.1805 48.0027 15.2164 47.9668C15.2882 47.9309 15.372 48.0027 15.4079 48.0386L21.9083 71.1552C21.9562 71.2749 21.9203 71.3109 21.8006 71.3947C21.8365 71.3947 21.8365 71.3947 21.8006 71.3947Z" fill="#D1D840"/>
<path d="M18.1974 60.9678C18.1974 60.9678 17.6108 54.5392 11.1822 54.2279C10.5597 54.192 10.0928 54.7666 10.2964 55.3891C10.7992 57.2567 12.547 60.86 18.1974 60.9678Z" fill="#32AE00"/>
<path d="M19.2005 62.0212C19.1646 62.0212 19.1286 62.0212 19.1286 61.9853L13.1669 57.0172C13.0951 56.9454 13.0951 56.8616 13.131 56.7897C13.2028 56.7179 13.2866 56.7179 13.3585 56.7538L19.3202 61.7099C19.392 61.7818 19.392 61.8656 19.3561 61.9374C19.2484 61.9733 19.2484 62.0212 19.2005 62.0212Z" fill="#D1D840"/>
<path d="M18.2319 55.0898C18.2319 55.0898 16.0292 52.1449 18.196 48.1584C18.5791 47.4641 19.6325 47.5359 19.86 48.3141C20.3628 50.0499 20.6381 52.8751 18.2319 55.0898Z" fill="#81C600"/>
<path d="M17.9681 57.7594C17.8963 57.7594 17.8125 57.6876 17.8125 57.5679L18.6984 49.0443C18.6984 48.9725 18.7702 48.8887 18.854 48.9246C18.9258 48.9246 19.0096 48.9964 18.9737 49.0802L18.0878 57.6038C18.1238 57.6756 18.04 57.7594 17.9681 57.7594Z" fill="#32AE00"/>
<path d="M30.8618 86.3708C30.8618 86.3708 27.0669 75.7164 19.1299 68.4019C13.1323 62.8592 4.88403 60.5008 1.31658 59.6868C0.586328 59.4952 -0.072094 60.2734 0.275074 61.0036C1.90317 64.4514 6.04524 72.4721 11.6598 77.3086C18.9743 83.6653 30.8618 86.3708 30.8618 86.3708Z" fill="#217706"/>
<path d="M30.8613 86.5265C30.8254 86.5265 30.7894 86.5265 30.7894 86.4905L6.18841 65.3492C6.11658 65.2774 6.11658 65.1936 6.1525 65.1218C6.22432 65.0499 6.30812 65.0499 6.37995 65.0858L30.969 86.2272C31.0408 86.299 31.0408 86.3828 31.0049 86.4546C30.8972 86.4905 30.8613 86.5265 30.8613 86.5265Z" fill="#D1D840"/>
<path d="M9.94664 72.089C9.87481 72.089 9.79102 72.0172 9.79102 71.9334C9.79102 71.8616 9.86284 71.7778 9.94664 71.7778L13.6218 71.706L11.8022 66.1632C11.7663 66.0914 11.8381 66.0076 11.874 65.9717C11.9459 65.9358 12.0296 66.0076 12.0656 66.0435L14.0049 71.8137C14.0049 71.8855 14.0049 71.8855 13.969 71.9334C13.9331 71.9693 13.8972 72.0052 13.8493 72.0052L9.94664 72.089ZM20.4814 77.6677L15.4056 77.4761C15.3337 77.4761 15.2499 77.4043 15.2499 77.3205C15.2499 77.2487 15.3218 77.1649 15.4056 77.1649L20.4814 77.3564C20.5532 77.3564 20.637 77.4282 20.637 77.512C20.637 77.5839 20.5173 77.6677 20.4814 77.6677ZM23.4622 80.3014C23.3904 80.3014 23.3425 80.2654 23.3066 80.1816L22.1095 75.9558C22.0736 75.8839 22.1454 75.8001 22.1813 75.7642C22.2531 75.7283 22.3369 75.8001 22.3729 75.8361L23.57 80.0619C23.6179 80.1816 23.546 80.2176 23.4622 80.3014C23.4622 80.3014 23.4982 80.3014 23.4622 80.3014Z" fill="#D1D840"/>
<path d="M30.0471 87.4601C30.0471 87.4601 23.6903 81.4625 15.6456 79.176C9.83952 77.5479 3.72218 78.5894 0.741329 79.2957C-0.0368053 79.4873 -0.26426 80.4929 0.394162 80.9597C2.90814 82.8991 8.29522 86.6102 13.6344 87.927C20.9489 89.7467 30.0471 87.4601 30.0471 87.4601Z" fill="#32AE00"/>
<path d="M30.0473 87.6159L5.61385 81.6542C5.54203 81.6182 5.49414 81.5823 5.49414 81.4626C5.53005 81.3908 5.56597 81.3429 5.68568 81.3429L30.0832 87.3046C30.155 87.3405 30.2029 87.3764 30.2029 87.4961C30.2029 87.5321 30.1311 87.6159 30.0473 87.6159Z" fill="#D1D840"/>
<path d="M10.6066 84.9821C10.5348 84.9821 10.5348 84.9462 10.4869 84.9102C10.451 84.8743 10.4869 84.7546 10.5588 84.6828L13.0368 83.33L9.86442 80.1936C9.79259 80.1217 9.79259 80.0379 9.86442 79.9661C9.93625 79.8943 10.02 79.8943 10.0919 79.9661L13.4199 83.2582C13.4558 83.2941 13.4917 83.33 13.4558 83.3779C13.4558 83.4497 13.4199 83.4497 13.384 83.4976L10.7503 84.9342C10.6426 84.9821 10.6066 84.9821 10.6066 84.9821ZM16.2212 86.8017C16.1494 86.8017 16.1015 86.7658 16.0656 86.7299C16.0296 86.658 16.0656 86.5742 16.1374 86.5024L19.7048 84.8384C19.7767 84.8025 19.8605 84.8384 19.9323 84.9102C19.9682 84.9821 19.9323 85.0659 19.8605 85.1377L16.293 86.8017C16.305 86.7658 16.2571 86.8017 16.2212 86.8017ZM22.7695 85.9158C22.7336 85.9158 22.6977 85.8799 22.6498 85.844L20.3633 83.3659C20.2914 83.2941 20.2914 83.2103 20.3633 83.1385C20.4351 83.0667 20.5189 83.0667 20.5907 83.1385L22.8772 85.6165C22.9491 85.6884 22.9491 85.7722 22.8772 85.844C22.8892 85.9158 22.8413 85.9158 22.7695 85.9158Z" fill="#D1D840"/>
<path d="M26.4079 78.4338C26.4079 78.4338 27.5332 72.4362 25.8213 66.8576C24.696 63.2183 22.1461 60.2015 20.5539 58.5734C20.0152 58.0347 19.0096 58.346 18.9618 59.16C18.8061 61.5184 18.7702 65.6245 19.9314 68.9525C21.6074 73.9446 26.4079 78.4338 26.4079 78.4338Z" fill="#32AE00"/>
<path d="M26.4079 78.5894C26.336 78.5894 26.2882 78.5535 26.2522 78.5176L20.518 61.9014C20.4821 61.8296 20.518 61.7458 20.5898 61.7099C20.6617 61.674 20.7455 61.7099 20.7814 61.7817L26.5156 78.3979C26.5635 78.4697 26.5276 78.5535 26.4079 78.5894Z" fill="#D1D840"/>
<path d="M22.4223 67.1689C22.3864 67.1689 22.3505 67.1689 22.3505 67.133L20.5308 66.0915C20.459 66.0555 20.459 65.9717 20.459 65.864C20.4949 65.7922 20.5787 65.7922 20.6864 65.7922L22.3505 66.7259L22.973 63.7451C23.0089 63.6733 23.0448 63.6254 23.1645 63.6254C23.2363 63.6613 23.2842 63.6972 23.2842 63.8169L22.5899 67.0252C22.5899 67.097 22.554 67.097 22.5181 67.1449H22.4462V67.1689H22.4223ZM23.9666 71.6222C23.9307 71.6222 23.8948 71.6222 23.8948 71.5863L21.5723 70.1138C21.5005 70.0779 21.5005 69.9582 21.5005 69.8864C21.5364 69.8145 21.6561 69.8145 21.7279 69.8145L24.0504 71.287C24.1222 71.3229 24.1222 71.4426 24.1222 71.5145C24.0504 71.6222 24.0025 71.6222 23.9666 71.6222ZM24.6609 73.6693C24.5412 73.6334 24.5053 73.5975 24.5053 73.4778L25.0919 71.1912C25.1278 71.1194 25.1637 71.0715 25.2834 71.0715C25.3553 71.1074 25.4031 71.1434 25.4031 71.2631L24.8165 73.5496C24.7806 73.6334 24.7088 73.6693 24.6609 73.6693Z" fill="#D1D840"/>
</g>
<path d="M89.9646 87.1937C122.359 87.1937 148.621 84.4798 148.621 81.1321C148.621 77.7844 122.359 75.0706 89.9646 75.0706C57.5698 75.0706 31.3086 77.7844 31.3086 81.1321C31.3086 84.4798 57.5698 87.1937 89.9646 87.1937Z" fill="#0B2739"/>
<path opacity="0.25" d="M89.9646 87.1937C122.359 87.1937 148.621 84.4798 148.621 81.1321C148.621 77.7844 122.359 75.0706 89.9646 75.0706C57.5698 75.0706 31.3086 77.7844 31.3086 81.1321C31.3086 84.4798 57.5698 87.1937 89.9646 87.1937Z" fill="black"/>
<path d="M137.652 81.2384H42.2776C40.1659 81.2384 38.4492 79.5217 38.4492 77.41V71.0598C38.4492 42.6053 61.5105 19.5288 89.9802 19.5288C118.435 19.5288 141.511 42.5901 141.511 71.0598V77.41C141.496 79.5217 139.779 81.2384 137.652 81.2384Z" fill="#0B2739"/>
<path opacity="0.2" d="M35.5639 55.9514C38.5141 51.7798 50.629 54.6999 54.5051 54.1821C59.5582 53.506 52.5749 51.7079 61.0804 50.9886C69.5859 50.2838 89.2334 51.8805 85.6868 53.4628C82.1402 55.0595 73.8387 52.5853 67.0594 53.3765C60.2801 54.1677 73.1953 56.6563 64.9251 57.0015C59.8721 57.2173 53.0143 56.9008 45.4817 56.0665C38.0747 55.2466 34.638 57.2604 35.5639 55.9514Z" fill="black"/>
<path opacity="0.05" d="M117.704 51.6143C117.249 41.5117 112.812 34.4626 112.812 34.4626C117.476 39.1266 121.259 44.702 123.872 50.8699C124.343 51.9941 123.523 53.2398 122.307 53.2398H119.406C118.494 53.2398 117.75 52.5258 117.704 51.6143Z" fill="white"/>
<path opacity="0.05" d="M38.4492 77.9569V71.0598C38.4492 42.6053 61.5106 19.5288 89.9802 19.5288C64.2147 19.5288 45.0273 50.3836 48.3392 81.2384H41.7307C39.9076 81.2384 38.4492 79.78 38.4492 77.9569Z" fill="white"/>
<path d="M92.1534 14.6827H89.4492V19.8936H92.1534V14.6827Z" fill="#0B2739"/>
<path d="M91.7253 14.151H89.8719C88.93 14.151 88.1855 14.9106 88.1855 15.8373V16.3842C88.1855 17.3261 88.9451 18.0705 89.8719 18.0705H91.7253C92.6672 18.0705 93.4116 17.3109 93.4116 16.3842V15.8373C93.4116 14.9106 92.652 14.151 91.7253 14.151Z" fill="#0B2739"/>
<path d="M43.1355 93.4822C57.3066 93.4822 68.7945 92.4651 68.7945 91.2104C68.7945 89.9556 57.3066 88.9385 43.1355 88.9385C28.9645 88.9385 17.4766 89.9556 17.4766 91.2104C17.4766 92.4651 28.9645 93.4822 43.1355 93.4822Z" fill="#019DF4"/>
<path opacity="0.2" d="M43.1355 93.4822C57.3066 93.4822 68.7945 92.4651 68.7945 91.2104C68.7945 89.9556 57.3066 88.9385 43.1355 88.9385C28.9645 88.9385 17.4766 89.9556 17.4766 91.2104C17.4766 92.4651 28.9645 93.4822 43.1355 93.4822Z" fill="black"/>
<path d="M43.1367 92.4689C65.4266 92.4689 83.4961 90.5991 83.4961 88.2926C83.4961 85.9861 65.4266 84.1163 43.1367 84.1163C20.8469 84.1163 2.77734 85.9861 2.77734 88.2926C2.77734 90.5991 20.8469 92.4689 43.1367 92.4689Z" fill="#019DF4"/>
<path d="M43.1368 90.5642C59.3991 90.5642 72.5823 89.547 72.5823 88.2923C72.5823 87.0375 59.3991 86.0204 43.1368 86.0204C26.8746 86.0204 13.6914 87.0375 13.6914 88.2923C13.6914 89.547 26.8746 90.5642 43.1368 90.5642Z" fill="#019DF4" stroke="#D3D4D3" stroke-width="0.25" stroke-miterlimit="10"/>
<path d="M64.3958 69.6722C64.3958 69.6722 69.6412 66.0862 72.5479 69.6388C75.1427 72.8128 72.9043 78.1473 64.251 78.1473L64.5851 76.1983C64.5851 76.1983 67.18 76.5993 70.1758 74.6837C73.205 72.746 71.1447 67.2667 63.2487 72.6012C60.8098 74.2494 63.6497 69.895 63.6497 69.895L64.3958 69.6722Z" fill="#019DF4"/>
<path d="M21.0625 62.9008C21.0625 62.9008 21.2964 75.9084 22.1539 80.4745C22.8332 84.1162 24.4035 87.0674 26.6531 88.2925C28.9918 89.5509 33.7361 89.6066 43.1354 89.6066C52.5348 89.6066 56.7333 89.9852 60.3639 87.7579C62.246 86.6108 63.6826 85.3858 64.2172 80.4856C64.6961 76.1089 65.2195 62.9119 65.2195 62.9119H21.0625V62.9008Z" fill="#019DF4"/>
<path opacity="0.1" d="M26.6538 88.2925C28.9925 89.551 33.7367 89.6067 43.1361 89.6067C52.5355 89.6067 56.734 89.9853 60.3646 87.758C62.2467 86.6109 63.6833 85.3859 64.2179 80.4857C64.6967 76.109 65.2202 62.912 65.2202 62.912C65.2202 62.912 60.3311 77.2338 46.3991 83.3701C33.7145 88.9385 25.7629 87.8137 26.6538 88.2925Z" fill="black"/>
<path d="M43.1354 64.6047C55.326 64.6047 65.2084 63.8419 65.2084 62.9008C65.2084 61.9598 55.326 61.1969 43.1354 61.1969C30.9449 61.1969 21.0625 61.9598 21.0625 62.9008C21.0625 63.8419 30.9449 64.6047 43.1354 64.6047Z" fill="#019DF4"/>
<path opacity="0.2" d="M43.1354 64.6047C55.326 64.6047 65.2084 63.8419 65.2084 62.9008C65.2084 61.9598 55.326 61.1969 43.1354 61.1969C30.9449 61.1969 21.0625 61.9598 21.0625 62.9008C21.0625 63.8419 30.9449 64.6047 43.1354 64.6047Z" fill="black"/>
<path d="M62.3368 63.7361C58.5392 63.2238 51.3672 62.8785 43.1371 62.8785C34.9071 62.8785 27.7351 63.2238 23.9375 63.7361C27.7351 64.2484 34.9071 64.5936 43.1371 64.5936C51.3672 64.5936 58.5392 64.2595 62.3368 63.7361Z" fill="#0B2739"/>
<path opacity="0.15" d="M62.3355 63.7361C58.5379 63.2238 51.3659 62.8785 43.1359 62.8785C34.9059 62.8785 31.0192 63.2795 34.0038 63.4465C36.8882 63.6136 48.8156 64.2706 62.3355 63.7361Z" fill="black"/>
<defs>
<clipPath id="clip0">
<rect width="31.0416" height="45.455" fill="white" transform="translate(0 43.1783)"/>
</clipPath>
</defs>
</svg>
