<svg width="190" height="163" viewBox="0 0 190 163" fill="none" xmlns="http://www.w3.org/2000/svg">
<path opacity="0.05" d="M39.7748 7.29237C81.7062 -13.6836 130.467 21.9694 175.007 37.1764C209.294 48.8773 221.709 105.853 192.762 130.804C167.139 152.901 63.3599 183.947 23.5281 141.485C-24.3149 90.503 10.9915 21.684 39.7748 7.29237Z" fill="black"/>
<path opacity="0.15" d="M181.694 128.154C225.929 135.472 30.8267 134.33 8.28112 130.742C-12.0833 127.522 148.997 122.752 181.694 128.154Z" fill="black"/>
<path d="M75.1274 38.2676L73.1875 37.7324C73.2767 37.4425 75.2612 30.3963 79.8992 23.1717C86.0981 13.472 94.0808 8.20969 102.978 7.96441C108.664 7.80832 113.235 9.52528 116.624 13.0707C123.871 20.6966 122.912 33.9863 122.868 34.5438L120.861 34.3877L121.864 34.4769L120.861 34.3877C120.861 34.2539 121.797 21.4102 115.153 14.4532C112.187 11.3314 108.106 9.83745 103.022 9.97124C94.7052 10.2165 87.5029 15.0106 81.5939 24.2197C77.1343 31.1768 75.1497 38.2007 75.1274 38.2676Z" fill="#0B2739"/>
<g opacity="0.2">
<path opacity="0.2" d="M75.1274 38.2676L73.1875 37.7324C73.2767 37.4425 75.2612 30.3963 79.8992 23.1717C86.0981 13.472 94.0808 8.20969 102.978 7.96441C108.664 7.80832 113.235 9.52528 116.624 13.0707C123.871 20.6966 122.912 33.9863 122.868 34.5438L120.861 34.3877L121.864 34.4769L120.861 34.3877C120.861 34.2539 121.797 21.4102 115.153 14.4532C112.187 11.3314 108.106 9.83745 103.022 9.97124C94.7052 10.2165 87.5029 15.0106 81.5939 24.2197C77.1343 31.1768 75.1497 38.2007 75.1274 38.2676Z" fill="black"/>
</g>
<path d="M74.2834 42.4151C72.455 42.4597 70.9387 41.0326 70.8941 39.2041L70.8272 36.9743C70.7826 35.1459 72.2097 33.6296 74.0381 33.585C75.8666 33.5404 77.3828 34.9675 77.4274 36.7959L77.4943 39.0257C77.5389 40.8319 76.1118 42.3482 74.2834 42.4151Z" fill="#0B2739"/>
<path d="M121.979 38.8695C120.15 38.9141 118.634 37.487 118.589 35.6586L118.523 33.4288C118.478 31.6003 119.905 30.0841 121.733 30.0395C123.562 29.9949 125.078 31.422 125.123 33.2504L125.19 35.4802C125.234 37.2864 123.807 38.8026 121.979 38.8695Z" fill="#0B2739"/>
<path opacity="0.2" d="M74.2834 42.4151C72.455 42.4597 70.9387 41.0326 70.8941 39.2041L70.8272 36.9743C70.7826 35.1459 72.2097 33.6296 74.0381 33.585C75.8666 33.5404 77.3828 34.9675 77.4274 36.7959L77.4943 39.0257C77.5389 40.8319 76.1118 42.3482 74.2834 42.4151Z" fill="black"/>
<path opacity="0.2" d="M121.979 38.8695C120.15 38.9141 118.634 37.487 118.589 35.6586L118.523 33.4288C118.478 31.6003 119.905 30.0841 121.733 30.0395C123.562 29.9949 125.078 31.422 125.123 33.2504L125.19 35.4802C125.234 37.2864 123.807 38.8026 121.979 38.8695Z" fill="black"/>
<path d="M172.125 121.997C169.561 132.321 153.885 132.7 148.422 132.388C120.237 130.738 46.252 128.151 46.252 128.151L56.353 48.0563L157.319 40.8317C157.364 40.8317 176.54 104.181 172.125 121.997Z" fill="#019DF4"/>
<path opacity="0.3" d="M172.125 121.997C169.627 132.343 153.885 132.7 148.422 132.388C120.237 130.738 46.252 128.151 46.252 128.151L56.353 48.0563L157.319 40.8317C157.364 40.8317 176.473 104.047 172.125 121.997Z" fill="black"/>
<path d="M146.103 132.299C115.956 131.295 62.5963 131.429 30.1526 127.237C25.5146 126.635 21.0995 122.621 22.5266 115.308C25.6261 99.3868 30.71 53.7425 30.71 53.7425C31.8472 44.8233 39.1164 37.9332 48.0803 37.2865L139.28 30.7755C149.425 30.0396 158.322 37.5095 159.393 47.6328C159.393 47.6328 167.063 104.85 164.521 120.392C163.072 129.199 158.122 132.7 146.103 132.299Z" fill="#019DF4"/>
<path d="M117.05 85.8517C117.05 70.8005 105.968 58.6257 90.9386 58.6257C75.9096 58.6257 62.5977 70.8228 62.5977 85.8517C62.5977 100.881 73.9028 113.078 88.9317 113.078C103.961 113.078 117.05 100.881 117.05 85.8517Z" fill="#0B2739"/>
<path d="M95.5739 106.344L83.7559 105.898V65.8056L95.5739 65.3596V106.344Z" fill="white"/>
<path d="M69.1758 91.3147V80.3886L110.16 79.9426V91.7606L69.1758 91.3147Z" fill="white"/>
<path d="M68.0837 36.7289L66.166 36.1269C66.2552 35.837 68.4627 28.8577 73.2791 21.7446C79.7679 12.2233 87.8844 7.20618 96.8036 7.20618C102.49 7.20618 107.016 9.05692 110.294 12.6915C117.318 20.5182 115.98 33.7855 115.913 34.343L113.929 34.12L114.932 34.2315L113.929 34.12C113.951 33.9862 115.222 21.1871 108.8 14.0294C105.924 10.8408 101.888 9.21301 96.8036 9.21301C88.4864 9.21301 81.1504 13.8064 74.9738 22.8372C70.2912 29.705 68.106 36.662 68.0837 36.7289Z" fill="#0B2739"/>
<path d="M67.1243 40.8319C65.2959 40.8319 63.8242 39.3602 63.8242 37.5318V35.302C63.8242 33.4735 65.2959 32.0018 67.1243 32.0018C68.9528 32.0018 70.4245 33.4735 70.4245 35.302V37.5318C70.4245 39.3602 68.9305 40.8319 67.1243 40.8319Z" fill="#0B2739"/>
<path d="M114.908 38.6687C113.079 38.6687 111.607 37.197 111.607 35.3686V33.1387C111.607 31.3103 113.079 29.8386 114.908 29.8386C116.736 29.8386 118.208 31.3103 118.208 33.1387V35.3686C118.208 37.1747 116.714 38.6687 114.908 38.6687Z" fill="#0B2739"/>
<path opacity="0.05" d="M146.103 132.299C146.103 132.299 62.5963 131.429 30.1526 127.237C25.5146 126.635 21.0995 122.621 22.5266 115.308C25.6261 99.3867 30.71 53.7424 30.71 53.7424C31.8472 44.8231 39.1164 37.933 48.0803 37.2864C48.1026 37.2864 78.0489 100.546 146.103 132.299Z" fill="black"/>
<path d="M143.432 96.1699C143.432 96.1699 126.982 81.1056 126.798 77.7421C126.615 74.3786 146.857 89.2391 146.857 89.2391L143.432 96.1699Z" fill="#F8D2B3"/>
<path d="M126.409 97.4134C126.409 97.4134 100.765 76.7228 104.128 74.8882C107.492 73.0536 141.555 96.1495 141.555 96.1495L126.409 97.4134Z" fill="#F8D2B3"/>
<path d="M139.494 99.1868C139.494 99.1868 118.029 82.8178 114.563 76.1112C111.098 69.4046 129.566 82.5528 143.876 91.8483L139.494 99.1868Z" fill="#F8D2B3"/>
<path opacity="0.1" d="M135.277 96.659L141.556 96.129C141.556 96.129 119.5 81.187 109.124 76.2947L108.268 75.9073C108.288 75.9073 114.628 86.0997 135.277 96.659Z" fill="black"/>
<path opacity="0.1" d="M142.592 93.9885L143.876 91.8481C135.152 86.1811 124.898 79.0873 118.987 75.9276C116.561 77.1099 134.214 88.6477 142.592 93.9885Z" fill="black"/>
<path opacity="0.1" d="M145.428 91.6647L145.774 91.4609L146.875 89.2593C146.875 89.2593 133.564 79.495 128.631 77.5789C129.976 81.0647 145.428 91.6647 145.428 91.6647Z" fill="black"/>
<path d="M131.872 96.0475C108.919 96.1901 102.294 98.4936 104.414 100.41C105.902 101.755 127.53 104.242 140.21 105.608C147.12 106.342 154.051 104.589 159.759 100.634C167.26 95.4359 174.007 89.2593 174.007 89.2593C208.397 116.636 214.981 114.373 214.981 114.373V77.5789" fill="#F8D2B3"/>
<path d="M156.189 80.9627L196.735 77.2527L214.999 77.5788V88.6682L174.087 87.9343L131.891 96.0678C131.891 96.0678 147.832 92.6432 152.398 82.1858L156.189 80.9627Z" fill="#F8D2B3"/>
<path opacity="0.15" d="M157.599 97.3115C152.747 100.43 147.101 102.082 141.352 102.102C128.693 102.143 110.286 100.695 104.068 99.88C104.109 100.063 104.231 100.247 104.415 100.43C105.903 101.776 127.531 104.263 140.231 105.628C147.141 106.362 154.072 104.609 159.78 100.655C167.281 95.4565 174.029 89.2799 174.029 89.2799C208.418 116.657 215.002 114.394 215.002 114.394V90.768C193.089 99.8188 173.968 86.8337 173.968 86.8337L157.599 97.3115Z" fill="black"/>
<path d="M141.579 50.7731C129.43 41.1311 119.584 52.0981 121.643 60.8228C123.396 68.2428 134.995 75.1533 139.643 77.6606C140.845 78.3129 142.293 78.3129 143.495 77.6606C148.143 75.1533 160.089 68.3244 161.495 60.8228C163.534 50.1004 152.811 41.1311 141.579 50.7731Z" fill="#E63780"/>
<path opacity="0.1" d="M141.581 50.773C151.223 56.705 142.315 78.2924 143.518 77.6401C148.165 75.1328 160.111 68.3039 161.517 60.8023C163.536 50.1003 152.813 41.131 141.581 50.773Z" fill="white"/>
<path d="M150.81 84.9582C150.81 84.9582 136.255 86.6706 130.772 84.9582C124.901 83.1236 144.654 72.6662 173.417 71.8712C204.279 71.0151 214.981 77.5789 214.981 77.5789V103.284L172.275 87.5471L150.81 84.9582Z" fill="#F8D2B3"/>
</svg>
