<svg width="108" height="102" viewBox="0 0 108 102" fill="none" xmlns="http://www.w3.org/2000/svg">
<path opacity="0.05" d="M24.7899 4.33652C50.9239 -8.73686 81.3141 13.4841 109.074 22.9619C130.444 30.2546 138.181 65.7649 120.14 81.3157C104.17 95.0878 39.4895 114.437 14.6641 87.9731C-15.1544 56.1981 6.85052 13.3062 24.7899 4.33652Z" fill="black"/>
<path opacity="0.15" d="M113.243 79.664C140.812 84.225 19.2135 83.5136 5.16186 81.2775C-7.53036 79.2701 92.864 76.2972 113.243 79.664Z" fill="black"/>
<path d="M46.8243 23.6419L45.6152 23.3083C45.6708 23.1277 46.9077 18.7361 49.7984 14.2333C53.6619 8.1879 58.6371 4.9081 64.1822 4.75523C67.7261 4.65795 70.575 5.72805 72.6875 7.93774C77.2041 12.6907 76.6065 20.9735 76.5787 21.321L75.328 21.2237L75.9534 21.2793L75.328 21.2237C75.328 21.1403 75.9117 13.1354 71.7702 8.79938C69.9219 6.85374 67.3786 5.92261 64.21 6.006C59.0263 6.15887 54.5374 9.14682 50.8546 14.8865C48.0751 19.2225 46.8382 23.6002 46.8243 23.6419Z" fill="#0B2739"/>
<g opacity="0.2">
<path opacity="0.2" d="M46.8243 23.6419L45.6152 23.3083C45.6708 23.1277 46.9077 18.7361 49.7984 14.2333C53.6619 8.1879 58.6371 4.9081 64.1822 4.75523C67.7261 4.65795 70.575 5.72805 72.6875 7.93774C77.2041 12.6907 76.6065 20.9735 76.5787 21.321L75.328 21.2237L75.9534 21.2793L75.328 21.2237C75.328 21.1403 75.9117 13.1354 71.7702 8.79938C69.9219 6.85374 67.3786 5.92261 64.21 6.006C59.0263 6.15887 54.5374 9.14682 50.8546 14.8865C48.0751 19.2225 46.8382 23.6002 46.8243 23.6419Z" fill="black"/>
</g>
<path d="M46.2954 26.2269C45.1558 26.2547 44.2107 25.3653 44.1829 24.2257L44.1413 22.8359C44.1135 21.6964 45.0029 20.7513 46.1425 20.7235C47.2821 20.6957 48.2271 21.5852 48.2549 22.7248L48.2966 24.1145C48.3244 25.2402 47.435 26.1852 46.2954 26.2269Z" fill="#0B2739"/>
<path d="M76.0239 24.0172C74.8843 24.045 73.9393 23.1556 73.9115 22.016L73.8698 20.6262C73.842 19.4866 74.7314 18.5416 75.871 18.5138C77.0106 18.486 77.9556 19.3755 77.9834 20.515L78.0251 21.9048C78.0529 23.0305 77.1635 23.9755 76.0239 24.0172Z" fill="#0B2739"/>
<path opacity="0.2" d="M46.2954 26.2269C45.1558 26.2547 44.2107 25.3653 44.1829 24.2257L44.1413 22.8359C44.1135 21.6964 45.0029 20.7513 46.1425 20.7235C47.2821 20.6957 48.2271 21.5852 48.2549 22.7248L48.2966 24.1145C48.3244 25.2402 47.435 26.1852 46.2954 26.2269Z" fill="black"/>
<path opacity="0.2" d="M76.0239 24.0172C74.8843 24.045 73.9393 23.1556 73.9115 22.016L73.8698 20.6262C73.842 19.4866 74.7314 18.5416 75.871 18.5138C77.0106 18.486 77.9556 19.3755 77.9834 20.515L78.0251 21.9048C78.0529 23.0305 77.1635 23.9755 76.0239 24.0172Z" fill="black"/>
<path d="M107.277 75.8267C105.679 82.2612 95.9092 82.4975 92.5043 82.3029C74.9379 81.2745 28.8262 79.6624 28.8262 79.6624L35.1217 29.7428L98.0494 25.24C98.0771 25.24 110.029 64.7226 107.277 75.8267Z" fill="#019DF4"/>
<path opacity="0.3" d="M107.277 75.8267C105.721 82.2751 95.9092 82.4975 92.5043 82.3029C74.9379 81.2745 28.8262 79.6624 28.8262 79.6624L35.1217 29.7428L98.0494 25.24C98.0772 25.24 109.987 64.6392 107.277 75.8267Z" fill="black"/>
<path d="M91.0588 82.2475C72.2694 81.6221 39.0128 81.7055 18.792 79.0928C15.9014 78.7176 13.1497 76.216 14.0391 71.6577C15.9709 61.7349 19.1395 33.2868 19.1395 33.2868C19.8482 27.7278 24.3788 23.4335 29.9656 23.0305L86.8062 18.9724C93.1295 18.5138 98.6746 23.1695 99.3417 29.4789C99.3417 29.4789 104.122 65.1398 102.538 74.8263C101.635 80.3158 98.5495 82.4977 91.0588 82.2475Z" fill="#019DF4"/>
<path d="M72.9512 53.2991C72.9512 43.9183 66.0442 36.3303 56.6773 36.3303C47.3104 36.3303 39.0137 43.9322 39.0137 53.2991C39.0137 62.666 46.0597 70.2679 55.4266 70.2679C64.7934 70.2679 72.9512 62.666 72.9512 53.2991Z" fill="#0B2739"/>
<path d="M59.5668 66.0707L52.2012 65.7928V40.8052L59.5668 40.5272V66.0707Z" fill="white"/>
<path d="M43.1133 56.7039V49.8942L68.6568 49.6162V56.9819L43.1133 56.7039Z" fill="white"/>
<path d="M42.4335 22.6829L41.2383 22.3077C41.2939 22.127 42.6697 17.7771 45.6716 13.3439C49.7157 7.40964 54.7744 4.28271 60.3334 4.28271C63.8772 4.28271 66.6984 5.4362 68.7413 7.70149C73.119 12.5795 72.2852 20.8485 72.2435 21.1959L71.0066 21.0569L71.632 21.1264L71.0066 21.0569C71.0205 20.9736 71.8127 12.9964 67.8102 8.53533C66.0174 6.548 63.502 5.53349 60.3334 5.53349C55.1496 5.53349 50.5774 8.39636 46.7278 14.0248C43.8093 18.3052 42.4474 22.6412 42.4335 22.6829Z" fill="#0B2739"/>
<path d="M41.8342 25.2402C40.6946 25.2402 39.7773 24.323 39.7773 23.1834V21.7936C39.7773 20.654 40.6946 19.7368 41.8342 19.7368C42.9738 19.7368 43.891 20.654 43.891 21.7936V23.1834C43.891 24.323 42.9599 25.2402 41.8342 25.2402Z" fill="#0B2739"/>
<path d="M71.6154 23.8919C70.4758 23.8919 69.5586 22.9747 69.5586 21.8351V20.4454C69.5586 19.3058 70.4758 18.3885 71.6154 18.3885C72.755 18.3885 73.6722 19.3058 73.6722 20.4454V21.8351C73.6722 22.9608 72.7411 23.8919 71.6154 23.8919Z" fill="#0B2739"/>
<path opacity="0.05" d="M91.0588 82.2473C91.0588 82.2473 39.0128 81.7053 18.792 79.0926C15.9014 78.7173 13.1497 76.2158 14.0391 71.6574C15.9709 61.7347 19.1395 33.2866 19.1395 33.2866C19.8482 27.7276 24.3788 23.4333 29.9656 23.0303C29.9795 23.0303 48.6438 62.4573 91.0588 82.2473Z" fill="black"/>
<path d="M89.3914 59.7301C89.3914 59.7301 79.1386 50.3412 79.0242 48.2449C78.9099 46.1486 91.5259 55.4105 91.5259 55.4105L89.3914 59.7301Z" fill="#F8D2B3"/>
<path d="M78.7831 60.505C78.7831 60.505 62.8003 47.6095 64.8966 46.4661C66.9929 45.3226 88.2228 59.7173 88.2228 59.7173L78.7831 60.505Z" fill="#F8D2B3"/>
<path d="M86.9394 61.6102C86.9394 61.6102 73.5611 51.4081 71.4013 47.2282C69.2415 43.0483 80.7521 51.243 89.671 57.0364L86.9394 61.6102Z" fill="#F8D2B3"/>
<path opacity="0.1" d="M84.3086 60.0348L88.2218 59.7045C88.2218 59.7045 74.475 50.3918 68.0082 47.3426L67.4746 47.1012C67.4873 47.1012 71.4385 53.4537 84.3086 60.0348Z" fill="black"/>
<path opacity="0.1" d="M88.8693 58.3705L89.6697 57.0364C84.232 53.5045 77.8414 49.0832 74.1569 47.1139C72.6451 47.8508 83.6475 55.0418 88.8693 58.3705Z" fill="black"/>
<path opacity="0.1" d="M90.6368 56.9222L90.8528 56.7951L91.5389 55.423C91.5389 55.423 83.2426 49.3373 80.168 48.1431C81.0065 50.3156 90.6368 56.9222 90.6368 56.9222Z" fill="black"/>
<path d="M82.1878 59.6537C67.882 59.7427 63.7529 61.1783 65.0742 62.3726C66.0017 63.2111 79.4816 64.7611 87.3841 65.6124C91.691 66.0697 96.0107 64.9771 99.5681 62.5123C104.244 59.2726 108.449 55.423 108.449 55.423C129.882 72.4857 133.986 71.0755 133.986 71.0755V48.1431" fill="#F8D2B3"/>
<path d="M97.3435 50.252L122.614 47.9397L133.997 48.143V55.0545L108.498 54.5971L82.1992 59.6663C82.1992 59.6663 92.1345 57.5319 94.9804 51.0143L97.3435 50.252Z" fill="#F8D2B3"/>
<path opacity="0.15" d="M98.2206 60.4415C95.1968 62.3853 91.6775 63.4144 88.0947 63.4271C80.205 63.4525 68.7324 62.5505 64.8574 62.0423C64.8828 62.1566 64.9591 62.271 65.0734 62.3853C66.0009 63.2238 79.4808 64.7739 87.396 65.6251C91.7029 66.0825 96.0226 64.9898 99.58 62.5251C104.255 59.2853 108.461 55.4357 108.461 55.4357C129.894 72.4984 133.998 71.0882 133.998 71.0882V56.3632C120.34 62.0042 108.423 53.9111 108.423 53.9111L98.2206 60.4415Z" fill="black"/>
<path d="M88.2356 31.5608C80.6635 25.5513 74.527 32.3866 75.8102 37.8243C76.9028 42.4489 84.1319 46.7559 87.0287 48.3186C87.7782 48.7251 88.6803 48.7251 89.4299 48.3186C92.3266 46.7559 99.7717 42.4997 100.648 37.8243C101.919 31.1415 95.236 25.5513 88.2356 31.5608Z" fill="#E63780"/>
<path opacity="0.1" d="M88.2395 31.5606C94.2489 35.2578 88.6969 48.7123 89.4465 48.3057C92.3432 46.743 99.7883 42.4869 100.665 37.8115C101.923 31.1414 95.2399 25.5512 88.2395 31.5606Z" fill="white"/>
<path d="M93.9897 52.7423C93.9897 52.7423 84.9184 53.8095 81.5007 52.7423C77.8417 51.5988 90.1528 45.0812 108.079 44.5857C127.315 44.0521 133.985 48.1431 133.985 48.1431V64.164L107.368 54.3558L93.9897 52.7423Z" fill="#F8D2B3"/>
</svg>
