<svg width="106" height="107" viewBox="0 0 106 107" fill="none" xmlns="http://www.w3.org/2000/svg">
<g style="mix-blend-mode:multiply" opacity="0.05">
<path d="M23.4274 14.7681C48.125 2.41333 76.8449 23.4129 103.079 32.3699C123.275 39.2617 130.587 72.8202 113.537 87.5163C98.4448 100.531 37.319 118.818 13.8581 93.8077C-14.3215 63.7792 6.474 23.2448 23.4274 14.7681Z" fill="black"/>
</g>
<path opacity="0.15" d="M96.8828 85.3193C118.099 88.8252 19.9443 88.2489 9.70264 86.628C-0.539018 84.9951 80.4457 82.6057 96.8828 85.3193Z" fill="black"/>
<path d="M97.1307 85.8587H18.5713C14.9093 85.8587 11.9316 82.8811 11.9316 79.2191V32.4292C11.9316 28.7672 14.9093 25.7896 18.5713 25.7896H97.1307C100.793 25.7896 103.77 28.7672 103.77 32.4292V79.2191C103.77 82.8931 100.793 85.8587 97.1307 85.8587Z" fill="#0B2739"/>
<path d="M31.0352 66.9727H20.1932C19.4728 66.9727 18.8965 66.3844 18.8965 65.676V57.5955C18.8965 56.8751 19.4848 56.2988 20.1932 56.2988H31.0352C31.7556 56.2988 32.3319 56.8872 32.3319 57.5955V65.676C32.3319 66.3964 31.7436 66.9727 31.0352 66.9727Z" fill="#B6B7B7"/>
<path d="M103.77 36.9204H11.9316V50.728H103.77V36.9204Z" fill="#D3D4D3"/>
<path d="M35.9942 76.0374H20.1815C19.4611 76.0374 18.8848 75.4491 18.8848 74.7407V73.8402C18.8848 73.1198 19.4731 72.5435 20.1815 72.5435H35.9942C36.7146 72.5435 37.2909 73.1318 37.2909 73.8402V74.7407C37.3029 75.4611 36.7146 76.0374 35.9942 76.0374Z" fill="#D3D4D3"/>
<path d="M65.2298 76.0374H41.3846C40.6642 76.0374 40.0879 75.4491 40.0879 74.7407V73.8402C40.0879 73.1198 40.6762 72.5435 41.3846 72.5435H65.2298C65.9502 72.5435 66.5265 73.1318 66.5265 73.8402V74.7407C66.5265 75.4611 65.9382 76.0374 65.2298 76.0374Z" fill="#D3D4D3"/>
<path opacity="0.05" d="M11.9316 79.2191V32.4292C11.9316 28.7672 14.9093 25.7896 18.5713 25.7896H97.1307L11.9316 79.2191Z" fill="white"/>
<path opacity="0.15" d="M104.171 91.0098C115.997 94.984 46.719 93.8074 41.0038 91.9583C35.2887 90.1093 94.9977 87.9361 104.171 91.0098Z" fill="black"/>
<path d="M101.255 92.415H68.753C64.2265 92.415 60.5645 88.753 60.5645 84.2265V8.18852C60.5645 3.66202 64.2385 0 68.753 0H101.255C105.781 0 109.443 3.66202 109.443 8.18852V84.2145C109.443 88.741 105.781 92.415 101.255 92.415Z" fill="#019DF4"/>
<path d="M100.786 90.758H69.2206C65.3544 90.758 62.2207 87.6242 62.2207 83.7581V8.65661C62.2207 4.79047 65.3544 1.65674 69.2206 1.65674H100.786C104.652 1.65674 107.786 4.79047 107.786 8.65661V83.7581C107.786 87.6242 104.652 90.758 100.786 90.758Z" fill="#0B2739"/>
<path d="M60.5637 22.2605H59.9514C59.8193 22.2605 59.6992 22.1524 59.6992 22.0084V18.6945C59.6992 18.5624 59.8073 18.4424 59.9514 18.4424H60.5637V22.2605Z" fill="#019DF4"/>
<path d="M60.5637 30.4605H59.9514C59.8193 30.4605 59.6992 30.3524 59.6992 30.2083V24.8054C59.6992 24.6733 59.8073 24.5532 59.9514 24.5532H60.5637V30.4605Z" fill="#019DF4"/>
<path d="M60.5637 37.2207H59.9514C59.8193 37.2207 59.6992 37.1127 59.6992 36.9686V31.5656C59.6992 31.4335 59.8073 31.3135 59.9514 31.3135H60.5637V37.2207Z" fill="#019DF4"/>
<path fill-rule="evenodd" clip-rule="evenodd" d="M98.7821 35.4798C98.7821 35.912 98.8182 46.0696 98.0617 50.4641C97.0652 56.2393 85.887 61.6422 85.4068 61.8704C85.2747 61.9304 85.1426 61.9544 84.9985 61.9544C84.8545 61.9544 84.7224 61.9184 84.5903 61.8584C84.11 61.6302 72.9439 56.2273 71.9473 50.4521C71.1909 46.0576 71.2149 35.9 71.2149 35.4678C71.2149 35.1676 71.359 34.8915 71.5871 34.7114C71.8153 34.5313 72.1154 34.4712 72.4036 34.5313C74.985 34.9395 76.3538 34.015 78.0707 32.8624C79.7636 31.7217 81.6967 30.437 84.9985 30.437H85.0105C88.3124 30.437 90.2334 31.7337 91.9264 32.8624C93.6553 34.015 95.0241 34.9275 97.6295 34.5193C97.9056 34.4712 98.2058 34.5553 98.4219 34.7354C98.6381 34.9395 98.7821 35.2036 98.7821 35.4798Z" fill="#3C7521"/>
<path fill-rule="evenodd" clip-rule="evenodd" d="M96.8357 37.0047C96.8357 37.3769 96.8597 46.0937 96.2234 49.8638C95.3709 54.8226 85.7776 59.4571 85.3694 59.6492C85.2613 59.6973 85.1412 59.7213 85.0212 59.7213C84.9011 59.7213 84.781 59.6973 84.673 59.6372C84.2648 59.4451 74.6715 54.8106 73.819 49.8518C73.1706 46.0817 73.1826 37.3649 73.1946 36.9927C73.1946 36.7406 73.3147 36.5004 73.5068 36.3444C73.7109 36.1883 73.9631 36.1402 74.2032 36.2003C76.4244 36.5485 77.5891 35.756 79.0659 34.7715C80.5187 33.7989 82.1756 32.6943 85.0092 32.6943H85.0212C87.8547 32.6943 89.4996 33.7989 90.9645 34.7835C92.4413 35.78 93.6179 36.5605 95.8632 36.2123C96.1033 36.1763 96.3554 36.2363 96.5355 36.3924C96.7036 36.5365 96.8237 36.7646 96.8357 37.0047Z" fill="#5CB615"/>
<path fill-rule="evenodd" clip-rule="evenodd" d="M82.6207 49.2158L90.5931 41.1473C90.9653 40.7751 91.5657 40.7751 91.9379 41.1473C92.3101 41.5195 92.3101 42.1319 91.9379 42.5041L83.2931 51.2569C83.113 51.437 82.8728 51.5451 82.6207 51.5451C82.3685 51.5451 82.1284 51.437 81.9483 51.2569L78.0702 47.3307C77.698 46.9585 77.698 46.3462 78.0702 45.974C78.4424 45.6018 79.0427 45.6018 79.4149 45.974L82.6207 49.2158Z" fill="white"/>
<path d="M92.1169 3.88987H77.889C77.2046 3.88987 76.6523 3.33756 76.6523 2.65319V1.4165H93.3536V2.65319C93.3536 3.33756 92.8013 3.88987 92.1169 3.88987Z" fill="#019DF4"/>
<path d="M88.9332 2.92975H81.0808C80.9248 2.92975 80.8047 2.80968 80.8047 2.65359C80.8047 2.49751 80.9248 2.37744 81.0808 2.37744H88.9332C89.0893 2.37744 89.2093 2.49751 89.2093 2.65359C89.2093 2.80968 89.0773 2.92975 88.9332 2.92975Z" fill="white"/>
<path d="M91.288 3.09796C91.5334 3.09796 91.7323 2.89907 91.7323 2.65372C91.7323 2.40837 91.5334 2.20947 91.288 2.20947C91.0426 2.20947 90.8438 2.40837 90.8438 2.65372C90.8438 2.89907 91.0426 3.09796 91.288 3.09796Z" fill="white"/>
<path opacity="0.05" d="M69.2189 90.758H100.784C104.65 90.758 107.784 87.6242 107.784 83.7581V8.65661C107.784 4.79047 104.65 1.65674 100.784 1.65674H96.594C97.9147 18.6701 100.28 62.0501 86.7966 69.6143C75.9306 75.7137 66.1332 70.7189 62.207 68.5937V83.7461C62.219 87.6242 65.3528 90.758 69.2189 90.758Z" fill="white"/>
</svg>
