<svg width="179" height="156" viewBox="0 0 179 156" fill="none" xmlns="http://www.w3.org/2000/svg">
<g style="mix-blend-mode:multiply" opacity="0.05">
<path d="M37.887 7.01356C77.8283 -12.9924 124.274 21.0119 166.701 35.4964C199.361 46.6562 211.186 100.997 183.614 124.794C159.206 145.87 60.3528 175.48 22.4114 134.982C-23.1609 86.3765 10.4698 20.7397 37.887 7.01356Z" fill="black"/>
</g>
<path opacity="0.15" d="M157.016 121.617C191.683 127.315 33.8848 126.394 16.86 123.708C0.39491 121.099 130.59 117.281 157.016 121.617Z" fill="black"/>
<path d="M55.3812 12.8135H162.435C168.055 12.8135 172.582 17.2292 172.582 22.5863V84.937C172.582 90.3625 168.055 94.7098 162.435 94.7098H55.3812C49.7612 94.7098 45.2344 90.294 45.2344 84.937V22.5863C45.2344 17.2292 49.7612 12.8135 55.3812 12.8135Z" fill="#0B2739"/>
<path d="M54.1023 11.667H163.582C169.322 11.667 173.985 16.3223 173.985 22.073V88.1891C173.985 93.9398 169.322 98.5951 163.582 98.5951H54.1023C48.3627 98.5951 43.6992 93.9398 43.6992 88.1891V22.073C43.6992 16.3223 48.3627 11.667 54.1023 11.667ZM46.3128 86.991C46.3128 87.9495 47.0815 88.7881 48.1064 88.7881H169.578C170.534 88.7881 171.372 88.0179 171.372 86.991V23.0315C171.372 18.1708 167.408 14.2172 162.574 14.2172H55.1955C50.3442 14.2172 46.3982 18.1708 46.3982 23.0315V86.9739H46.3128V86.991Z" fill="#019DF4"/>
<path d="M76.3093 123.463H141.392C142.281 123.463 143.049 122.762 143.049 121.803C143.049 120.913 142.349 120.143 141.392 120.143H76.241C75.3527 120.143 74.584 120.845 74.584 121.803C74.6523 122.762 75.3527 123.463 76.3093 123.463Z" fill="#019DF4"/>
<path d="M84.8516 120.212H132.835C128.309 120.212 120.075 98.6128 120.075 98.6128H97.5607C97.5607 98.6128 89.0025 120.212 84.8516 120.212Z" fill="#019DF4"/>
<path opacity="0.1" d="M97.5605 98.6128H120.075C120.075 98.6128 128.24 120.212 132.835 120.212H122.501C119.819 99.9649 97.5605 98.6128 97.5605 98.6128Z" fill="black"/>
<path d="M162.762 84.0473H86.3873C84.0983 84.0473 82.168 82.1304 82.168 79.8369V27.0707C82.168 24.7773 84.0812 22.8604 86.3873 22.8604H162.762C165.051 22.8604 166.964 24.7773 166.964 27.0707V79.8369C166.964 82.1988 165.051 84.0473 162.762 84.0473Z" fill="#F5F5F5"/>
<path d="M103.815 59.8803C112.24 59.8803 119.069 53.0374 119.069 44.5964C119.069 36.1553 112.24 29.3125 103.815 29.3125C95.3902 29.3125 88.5605 36.1553 88.5605 44.5964C88.5605 53.0374 95.3902 59.8803 103.815 59.8803Z" fill="#173243"/>
<path d="M103.816 44.5964H119.071C119.071 36.1586 112.238 29.3125 103.816 29.3125V44.5964Z" fill="#D3D4D3"/>
<path d="M103.816 44.5961L114.595 55.3958C120.557 49.4226 120.557 39.7525 114.595 33.7964L103.816 44.5961Z" fill="#019DF4"/>
<path d="M103.816 51.2712C107.496 51.2712 110.478 48.2828 110.478 44.5963C110.478 40.9098 107.496 37.9214 103.816 37.9214C100.137 37.9214 97.1543 40.9098 97.1543 44.5963C97.1543 48.2828 100.137 51.2712 103.816 51.2712Z" fill="white"/>
<path d="M127.796 43.1251H159.193C159.74 43.1251 160.167 42.6801 160.167 42.1495V34.8242C160.167 34.2765 159.723 33.8486 159.193 33.8486H127.796C127.249 33.8486 126.822 34.2936 126.822 34.8242V42.1495C126.822 42.6972 127.266 43.1251 127.796 43.1251Z" fill="#0B2739"/>
<path d="M127.454 49.2341H159.535C159.876 49.2341 160.167 48.9431 160.167 48.6008V47.4199C160.167 47.0776 159.876 46.7866 159.535 46.7866H127.454C127.113 46.7866 126.822 47.0776 126.822 47.4199V48.6008C126.822 48.9431 127.113 49.2341 127.454 49.2341Z" fill="#D3D4D3"/>
<path d="M89.1926 77.458H159.537C159.879 77.458 160.169 77.167 160.169 76.8247V73.8466C160.169 73.5043 159.879 73.2134 159.537 73.2134H89.1926C88.8509 73.2134 88.5605 73.5043 88.5605 73.8466V76.8247C88.5605 77.167 88.8509 77.458 89.1926 77.458Z" fill="#D3D4D3"/>
<path d="M89.1926 77.458H132.462V73.2134H89.1926C88.8509 73.2134 88.5605 73.5043 88.5605 73.8466V76.8247C88.5605 77.167 88.8509 77.458 89.1926 77.458Z" fill="#0EA2F5"/>
<path d="M89.1926 70.5776H159.537C159.879 70.5776 160.169 70.2866 160.169 69.9443V66.9663C160.169 66.624 159.879 66.333 159.537 66.333H89.1926C88.8509 66.333 88.5605 66.624 88.5605 66.9663V69.9443C88.5605 70.2866 88.8509 70.5776 89.1926 70.5776Z" fill="#D3D4D3"/>
<path d="M89.1926 70.5776H120.47V66.333H89.1926C88.8509 66.333 88.5605 66.624 88.5605 66.9663V69.9443C88.5605 70.2866 88.8509 70.5776 89.1926 70.5776Z" fill="#0EA2F5"/>
<path d="M127.454 55.3278H141.479C141.82 55.3278 142.111 55.0369 142.111 54.6946V53.5136C142.111 53.1713 141.82 52.8804 141.479 52.8804H127.454C127.113 52.8804 126.822 53.1713 126.822 53.5136V54.6946C126.822 55.054 127.113 55.3278 127.454 55.3278Z" fill="#D3D4D3"/>
<path d="M145.511 55.3278H159.535C159.877 55.3278 160.167 55.0369 160.167 54.6946V53.5136C160.167 53.1713 159.877 52.8804 159.535 52.8804H145.511C145.169 52.8804 144.879 53.1713 144.879 53.5136V54.6946C144.879 55.054 145.169 55.3278 145.511 55.3278Z" fill="#D3D4D3"/>
<path opacity="0.05" d="M60.124 50.3426C51.3096 50.3426 44.4884 49.0556 39.1953 47.1141V19.0332C39.1953 15.8822 41.7643 13.3193 44.8981 13.3193H93.7981C93.7981 13.3193 98.2607 50.3426 60.124 50.3426Z" fill="white"/>
<path d="M66.3506 55.0025H27.5228C26.737 55.0025 26.0879 54.3693 26.0879 53.5648V24.4177C26.0879 23.6304 26.7199 22.98 27.5228 22.98H66.3506C67.1364 22.98 67.7855 23.6132 67.7855 24.4177V53.5648C67.7855 54.3521 67.1535 55.0025 66.3506 55.0025Z" fill="#F5F5F5"/>
<path d="M62.5915 81.9253H38.2665C37.4978 81.9253 36.8828 81.3092 36.8828 80.539V62.5167C36.8828 61.7465 37.4978 61.1304 38.2665 61.1304H62.5915C63.3602 61.1304 63.9752 61.7465 63.9752 62.5167V80.5561C63.9752 81.3092 63.3431 81.9253 62.5915 81.9253Z" fill="#F5F5F5"/>
<path d="M47.2514 75.7975C47.0976 75.6948 47.0293 75.575 47.0293 75.4038C47.0293 75.1813 47.2172 74.9931 47.4564 74.9931C47.5588 74.9931 47.6784 75.0273 47.7638 75.0957C48.43 75.5407 49.3525 75.9686 50.4116 75.9686C52.0173 75.9686 52.991 75.1471 52.991 73.9319C52.991 72.9392 52.4273 72.2375 50.5995 71.9979L50.1212 71.9465C48.1738 71.6898 47.2684 70.7656 47.2684 69.3108C47.2684 67.5822 48.4984 66.5039 50.3945 66.5039C51.4536 66.5039 52.3419 66.7777 52.9568 67.1714C53.1447 67.2912 53.2301 67.4281 53.2301 67.5822C53.2301 67.8047 53.0593 67.9758 52.8372 67.9758C52.7347 67.9758 52.6323 67.9416 52.5468 67.8902C51.8636 67.5308 51.1632 67.3083 50.3603 67.3083C48.9083 67.3083 48.1055 68.1127 48.1055 69.2423C48.1055 70.2693 48.7375 70.9367 50.4457 71.1421L50.907 71.1935C52.8885 71.4331 53.828 72.3744 53.828 73.8806C53.828 75.575 52.6323 76.773 50.3091 76.773C49.2158 76.7559 48.1567 76.4136 47.2514 75.7975Z" fill="#D3D4D3"/>
<path d="M50.3123 77.2011C49.1336 77.1839 47.972 76.8245 46.9984 76.157C46.725 75.9688 46.6055 75.712 46.6055 75.404C46.6055 74.9247 46.9813 74.5653 47.4596 74.5653C47.6475 74.5653 47.8354 74.6338 48.0062 74.7365C48.8091 75.267 49.629 75.5409 50.4148 75.5409C51.7301 75.5409 52.5672 74.9247 52.5672 73.9321C52.5672 73.2817 52.328 72.6484 50.5515 72.4259L50.0732 72.3746C47.4083 72.0323 46.8446 70.509 46.8446 69.3109C46.8446 67.3427 48.2454 66.0762 50.3977 66.0762C51.4397 66.0762 52.4305 66.3329 53.1821 66.795C53.5921 67.0517 53.6604 67.394 53.6604 67.5652C53.6604 68.0273 53.2846 68.3867 52.8405 68.3867C52.6696 68.3867 52.4988 68.3354 52.3451 68.2498H52.328C51.6618 67.8904 51.0298 67.7192 50.3465 67.7192C49.202 67.7192 48.5187 68.284 48.5187 69.2254C48.5187 69.619 48.5187 70.4577 50.4831 70.7144L50.9443 70.7657C53.6604 71.108 54.2412 72.6484 54.2412 73.8807C54.2412 74.8563 53.8825 75.6949 53.1992 76.294C52.533 76.8759 51.5251 77.2011 50.3123 77.2011ZM47.4937 75.4553C47.7329 75.6265 48.0062 75.7634 48.2795 75.9003C48.0233 75.7805 47.7671 75.6265 47.5279 75.4724C47.5108 75.4553 47.4937 75.4553 47.4767 75.4553C47.4767 75.4382 47.4937 75.4382 47.4937 75.4553ZM51.3543 71.69C52.2768 71.9125 52.8917 72.3061 53.1992 72.888C52.8063 72.1007 51.9693 71.8269 51.3543 71.69ZM47.8183 70.0469C48.0575 70.7315 48.6382 71.1765 49.6119 71.399C48.6724 71.1594 48.0745 70.7144 47.8183 70.0469Z" fill="#D3D4D3"/>
<path d="M50.399 78.7587C49.9207 78.7587 49.5449 78.3822 49.5449 77.9029V65.1863C49.5449 64.7071 49.9207 64.3306 50.399 64.3306C50.8773 64.3306 51.2531 64.7071 51.2531 65.1863V77.9029C51.2531 78.365 50.8773 78.7587 50.399 78.7587Z" fill="#D3D4D3"/>
<path d="M31.2471 37.5113H62.6442C63.1908 37.5113 63.6179 37.0663 63.6179 36.5357V29.2104C63.6179 28.6627 63.1737 28.2349 62.6442 28.2349H31.2471C30.7005 28.2349 30.2734 28.6799 30.2734 29.2104V36.5357C30.2734 37.0834 30.7005 37.5113 31.2471 37.5113Z" fill="#0B2739"/>
<path d="M30.9055 43.6208H62.9858C63.3275 43.6208 63.6179 43.3299 63.6179 42.9876V41.8066C63.6179 41.4643 63.3275 41.1733 62.9858 41.1733H30.9055C30.5638 41.1733 30.2734 41.4643 30.2734 41.8066V42.9876C30.2734 43.3299 30.5468 43.6208 30.9055 43.6208Z" fill="#D3D4D3"/>
<path d="M30.9055 49.7307H44.93C45.2716 49.7307 45.562 49.4397 45.562 49.0974V47.9165C45.562 47.5742 45.2716 47.2832 44.93 47.2832H30.9055C30.5638 47.2832 30.2734 47.5742 30.2734 47.9165V49.0974C30.2734 49.4397 30.5468 49.7307 30.9055 49.7307Z" fill="#D3D4D3"/>
<path d="M67.7902 49.593C73.6394 49.593 78.3811 44.8421 78.3811 38.9815C78.3811 33.121 73.6394 28.3701 67.7902 28.3701C61.941 28.3701 57.1992 33.121 57.1992 38.9815C57.1992 44.8421 61.941 49.593 67.7902 49.593Z" fill="#BDE4A4"/>
<path d="M67.7903 48.1732C72.8565 48.1732 76.9635 44.0583 76.9635 38.9824C76.9635 33.9064 72.8565 29.7915 67.7903 29.7915C62.7241 29.7915 58.6172 33.9064 58.6172 38.9824C58.6172 44.0583 62.7241 48.1732 67.7903 48.1732Z" fill="#5CB615"/>
<path fill-rule="evenodd" clip-rule="evenodd" d="M65.9105 41.3619L72.1968 34.9951C72.4872 34.7041 72.9655 34.7041 73.2559 34.9951C73.5463 35.286 73.5463 35.7824 73.2559 36.0733L66.4401 42.9879C66.3034 43.1248 66.1155 43.2104 65.9105 43.2104C65.7055 43.2104 65.5176 43.1248 65.381 42.9879L62.3233 39.89C62.0329 39.5991 62.0329 39.1027 62.3233 38.8118C62.6137 38.5208 63.092 38.5208 63.3824 38.8118L65.9105 41.3619Z" fill="white"/>
</svg>
