<svg width="108" height="100" viewBox="0 0 108 100" fill="none" xmlns="http://www.w3.org/2000/svg">
<g style="mix-blend-mode:multiply" opacity="0.05">
<path d="M24.5599 3.9837C50.4515 -8.98502 80.5598 13.058 108.063 22.4474C129.234 29.6817 136.9 64.9077 119.026 80.334C103.204 93.9959 39.1232 113.191 14.528 86.9381C-15.0138 55.4301 6.78697 12.8816 24.5599 3.9837Z" fill="black"/>
</g>
<path opacity="0.15" d="M101.784 78.274C124.257 81.9678 21.9659 81.3708 10.9297 79.6296C0.256369 77.9382 84.6545 75.4632 101.784 78.274Z" fill="black"/>
<path d="M35.9018 7.74316H105.299C108.942 7.74316 111.876 10.6056 111.876 14.0783V54.4966C111.876 58.0136 108.942 60.8317 105.299 60.8317H35.9018C32.2587 60.8317 29.3242 57.9692 29.3242 54.4966V14.0783C29.3242 10.6056 32.2587 7.74316 35.9018 7.74316Z" fill="#0B2739"/>
<path d="M35.0718 7H106.041C109.762 7 112.785 10.0178 112.785 13.7456V56.6048C112.785 60.3326 109.762 63.3504 106.041 63.3504H35.0718C31.3512 63.3504 28.3281 60.3326 28.3281 56.6048V13.7456C28.3281 10.0178 31.3512 7 35.0718 7ZM30.0224 55.8281C30.0224 56.4495 30.5207 56.9931 31.1851 56.9931H109.928C110.548 56.9931 111.091 56.4938 111.091 55.8281V14.3669C111.091 11.216 108.522 8.65312 105.388 8.65312H35.7805C32.6357 8.65312 30.0777 11.216 30.0777 14.3669V55.8171H30.0224V55.8281Z" fill="#019DF4"/>
<path d="M49.468 79.4712H91.6576C92.2334 79.4712 92.7317 79.0163 92.7317 78.395C92.7317 77.8181 92.2777 77.3188 91.6576 77.3188H49.4237C48.8479 77.3188 48.3496 77.7737 48.3496 78.395C48.3939 79.0163 48.8479 79.4712 49.468 79.4712Z" fill="#019DF4"/>
<path d="M55.0039 77.3634H86.109C83.1746 77.3634 77.8372 63.3618 77.8372 63.3618H63.2425C63.2425 63.3618 57.6947 77.3634 55.0039 77.3634Z" fill="#019DF4"/>
<path opacity="0.1" d="M63.2441 63.3618H77.8388C77.8388 63.3618 83.1319 77.3634 86.1106 77.3634H79.4113C77.6727 64.2383 63.2441 63.3618 63.2441 63.3618Z" fill="black"/>
<path d="M105.51 53.9197H56.0008C54.5169 53.9197 53.2656 52.6771 53.2656 51.1904V16.9852C53.2656 15.4985 54.5058 14.2559 56.0008 14.2559H105.51C106.994 14.2559 108.234 15.4985 108.234 16.9852V51.1904C108.234 52.7215 106.994 53.9197 105.51 53.9197Z" fill="#F5F5F5"/>
<path d="M67.2967 38.2538C72.758 38.2538 77.1852 33.818 77.1852 28.3461C77.1852 22.8743 72.758 18.4385 67.2967 18.4385C61.8354 18.4385 57.4082 22.8743 57.4082 28.3461C57.4082 33.818 61.8354 38.2538 67.2967 38.2538Z" fill="#173243"/>
<path d="M67.2969 28.3461H77.1854C77.1854 22.8764 72.7561 18.4385 67.2969 18.4385V28.3461Z" fill="#D3D4D3"/>
<path d="M67.2969 28.346L74.2841 35.3468C78.1487 31.4748 78.1487 25.2062 74.2841 21.3452L67.2969 28.346Z" fill="#019DF4"/>
<path d="M67.2971 32.673C69.6822 32.673 71.6157 30.7357 71.6157 28.346C71.6157 25.9563 69.6822 24.019 67.2971 24.019C64.912 24.019 62.9785 25.9563 62.9785 28.346C62.9785 30.7357 64.912 32.673 67.2971 32.673Z" fill="white"/>
<path d="M82.8441 27.3923H103.197C103.551 27.3923 103.828 27.1038 103.828 26.7599V22.0113C103.828 21.6563 103.54 21.3789 103.197 21.3789H82.8441C82.4897 21.3789 82.2129 21.6674 82.2129 22.0113V26.7599C82.2129 27.1149 82.5008 27.3923 82.8441 27.3923Z" fill="#0B2739"/>
<path d="M82.6226 31.3527H103.418C103.64 31.3527 103.828 31.1641 103.828 30.9422V30.1766C103.828 29.9547 103.64 29.7661 103.418 29.7661H82.6226C82.4011 29.7661 82.2129 29.9547 82.2129 30.1766V30.9422C82.2129 31.1641 82.4011 31.3527 82.6226 31.3527Z" fill="#D3D4D3"/>
<path d="M57.8179 49.6485H103.418C103.64 49.6485 103.828 49.4599 103.828 49.238V47.3075C103.828 47.0856 103.64 46.897 103.418 46.897H57.8179C57.5964 46.897 57.4082 47.0856 57.4082 47.3075V49.238C57.4082 49.4599 57.5964 49.6485 57.8179 49.6485Z" fill="#D3D4D3"/>
<path d="M57.8179 49.6485H85.8668V46.897H57.8179C57.5964 46.897 57.4082 47.0856 57.4082 47.3075V49.238C57.4082 49.4599 57.5964 49.6485 57.8179 49.6485Z" fill="#0EA2F5"/>
<path d="M57.8179 45.188H103.418C103.64 45.188 103.828 44.9994 103.828 44.7775V42.847C103.828 42.6251 103.64 42.4365 103.418 42.4365H57.8179C57.5964 42.4365 57.4082 42.6251 57.4082 42.847V44.7775C57.4082 44.9994 57.5964 45.188 57.8179 45.188Z" fill="#D3D4D3"/>
<path d="M57.8179 45.188H78.0933V42.4365H57.8179C57.5964 42.4365 57.4082 42.6251 57.4082 42.847V44.7775C57.4082 44.9994 57.5964 45.188 57.8179 45.188Z" fill="#0EA2F5"/>
<path d="M82.6226 35.3029H91.7138C91.9353 35.3029 92.1236 35.1142 92.1236 34.8924V34.1268C92.1236 33.9049 91.9353 33.7163 91.7138 33.7163H82.6226C82.4011 33.7163 82.2129 33.9049 82.2129 34.1268V34.8924C82.2129 35.1253 82.4011 35.3029 82.6226 35.3029Z" fill="#D3D4D3"/>
<path d="M94.3277 35.3029H103.419C103.64 35.3029 103.829 35.1142 103.829 34.8924V34.1268C103.829 33.9049 103.64 33.7163 103.419 33.7163H94.3277C94.1062 33.7163 93.918 33.9049 93.918 34.1268V34.8924C93.918 35.1253 94.1062 35.3029 94.3277 35.3029Z" fill="#D3D4D3"/>
<path opacity="0.05" d="M50.9521 45.6761C42.1377 45.6761 35.3165 44.3891 30.0234 42.4475V14.3666C30.0234 11.2157 32.5925 8.65283 35.7262 8.65283H84.6263C84.6263 8.65283 89.0888 45.6761 50.9521 45.6761Z" fill="white"/>
<path d="M43.0121 35.0918H17.8423C17.3329 35.0918 16.9121 34.6813 16.9121 34.1599V15.2655C16.9121 14.7551 17.3218 14.3335 17.8423 14.3335H43.0121C43.5214 14.3335 43.9422 14.744 43.9422 15.2655V34.1599C43.9422 34.6702 43.5325 35.0918 43.0121 35.0918Z" fill="#F5F5F5"/>
<path d="M40.5756 52.5441H24.8071C24.3088 52.5441 23.9102 52.1447 23.9102 51.6454V39.9626C23.9102 39.4634 24.3088 39.064 24.8071 39.064H40.5756C41.0739 39.064 41.4725 39.4634 41.4725 39.9626V51.6565C41.4725 52.1447 41.0628 52.5441 40.5756 52.5441Z" fill="#F5F5F5"/>
<path d="M30.6303 48.5718C30.5306 48.5053 30.4863 48.4276 30.4863 48.3167C30.4863 48.1724 30.6081 48.0504 30.7632 48.0504C30.8296 48.0504 30.9071 48.0726 30.9625 48.1169C31.3943 48.4054 31.9923 48.6828 32.6789 48.6828C33.7198 48.6828 34.3509 48.1502 34.3509 47.3625C34.3509 46.719 33.9855 46.2641 32.8007 46.1088L32.4906 46.0755C31.2282 45.9091 30.6414 45.31 30.6414 44.3669C30.6414 43.2463 31.4386 42.5474 32.6678 42.5474C33.3543 42.5474 33.9301 42.7249 34.3288 42.9801C34.4506 43.0577 34.506 43.1465 34.506 43.2463C34.506 43.3906 34.3952 43.5015 34.2513 43.5015C34.1848 43.5015 34.1184 43.4793 34.063 43.446C33.6201 43.2131 33.1661 43.0688 32.6456 43.0688C31.7044 43.0688 31.1839 43.5903 31.1839 44.3225C31.1839 44.9882 31.5937 45.4209 32.701 45.5541L33 45.5873C34.2845 45.7427 34.8935 46.3529 34.8935 47.3292C34.8935 48.4276 34.1184 49.2042 32.6124 49.2042C31.9037 49.1931 31.2172 48.9712 30.6303 48.5718Z" fill="#D3D4D3"/>
<path d="M32.6139 49.4816C31.8498 49.4705 31.0968 49.2375 30.4656 48.8048C30.2884 48.6828 30.2109 48.5164 30.2109 48.3167C30.2109 48.006 30.4546 47.773 30.7646 47.773C30.8864 47.773 31.0082 47.8174 31.119 47.884C31.6394 48.2279 32.1709 48.4054 32.6803 48.4054C33.533 48.4054 34.0755 48.006 34.0755 47.3625C34.0755 46.9409 33.9205 46.5304 32.7689 46.3862L32.4588 46.3529C30.7314 46.131 30.366 45.1436 30.366 44.3669C30.366 43.091 31.274 42.27 32.6692 42.27C33.3447 42.27 33.987 42.4364 34.4742 42.736C34.74 42.9024 34.7842 43.1243 34.7842 43.2353C34.7842 43.5348 34.5406 43.7678 34.2527 43.7678C34.142 43.7678 34.0313 43.7345 33.9316 43.6791H33.9205C33.4887 43.4461 33.0789 43.3351 32.636 43.3351C31.8941 43.3351 31.4512 43.7012 31.4512 44.3115C31.4512 44.5666 31.4512 45.1103 32.7246 45.2767L33.0236 45.31C34.7842 45.5319 35.1607 46.5304 35.1607 47.3292C35.1607 47.9616 34.9282 48.5053 34.4853 48.8936C34.0534 49.2708 33.4001 49.4816 32.6139 49.4816ZM30.7868 48.35C30.9418 48.4609 31.119 48.5497 31.2961 48.6384C31.13 48.5608 30.9639 48.4609 30.8089 48.3611C30.7978 48.35 30.7868 48.35 30.7757 48.35C30.7757 48.3389 30.7868 48.3389 30.7868 48.35ZM33.2893 45.9091C33.8873 46.0533 34.2859 46.3085 34.4853 46.6857C34.2306 46.1754 33.688 45.9979 33.2893 45.9091ZM30.9971 44.844C31.1522 45.2878 31.5287 45.5763 32.1599 45.7205C31.5508 45.5652 31.1632 45.2767 30.9971 44.844Z" fill="#D3D4D3"/>
<path d="M32.6689 50.4916C32.3588 50.4916 32.1152 50.2475 32.1152 49.9368V41.6934C32.1152 41.3828 32.3588 41.1387 32.6689 41.1387C32.979 41.1387 33.2226 41.3828 33.2226 41.6934V49.9368C33.2226 50.2364 32.979 50.4916 32.6689 50.4916Z" fill="#D3D4D3"/>
<path d="M20.2562 23.7531H40.609C40.9634 23.7531 41.2402 23.4647 41.2402 23.1207V18.3721C41.2402 18.0171 40.9523 17.7397 40.609 17.7397H20.2562C19.9018 17.7397 19.625 18.0282 19.625 18.3721V23.1207C19.625 23.4757 19.9018 23.7531 20.2562 23.7531Z" fill="#0B2739"/>
<path d="M20.0347 27.714H40.8305C41.052 27.714 41.2402 27.5254 41.2402 27.3035V26.5379C41.2402 26.3161 41.052 26.1274 40.8305 26.1274H20.0347C19.8132 26.1274 19.625 26.3161 19.625 26.5379V27.3035C19.625 27.5254 19.8022 27.714 20.0347 27.714Z" fill="#D3D4D3"/>
<path d="M20.0347 31.6744H29.126C29.3474 31.6744 29.5357 31.4858 29.5357 31.2639V30.4984C29.5357 30.2765 29.3474 30.0879 29.126 30.0879H20.0347C19.8132 30.0879 19.625 30.2765 19.625 30.4984V31.2639C19.625 31.4858 19.8022 31.6744 20.0347 31.6744Z" fill="#D3D4D3"/>
<path d="M43.9436 31.5857C47.7353 31.5857 50.8091 28.5059 50.8091 24.7069C50.8091 20.9079 47.7353 17.8281 43.9436 17.8281C40.1519 17.8281 37.0781 20.9079 37.0781 24.7069C37.0781 28.5059 40.1519 31.5857 43.9436 31.5857Z" fill="#BDE4A4"/>
<path d="M43.9425 30.6653C47.2266 30.6653 49.8889 27.9979 49.8889 24.7074C49.8889 21.417 47.2266 18.7495 43.9425 18.7495C40.6584 18.7495 37.9961 21.417 37.9961 24.7074C37.9961 27.9979 40.6584 30.6653 43.9425 30.6653Z" fill="#5CB615"/>
<path fill-rule="evenodd" clip-rule="evenodd" d="M42.7244 26.2497L46.7994 22.1224C46.9877 21.9338 47.2977 21.9338 47.486 22.1224C47.6742 22.311 47.6742 22.6328 47.486 22.8214L43.0677 27.3037C42.9791 27.3924 42.8573 27.4479 42.7244 27.4479C42.5915 27.4479 42.4697 27.3924 42.3811 27.3037L40.399 25.2955C40.2108 25.1069 40.2108 24.7852 40.399 24.5965C40.5872 24.4079 40.8973 24.4079 41.0855 24.5965L42.7244 26.2497Z" fill="white"/>
</svg>
