<svg width="196" height="177" viewBox="0 0 196 177" fill="none" xmlns="http://www.w3.org/2000/svg">
<g style="mix-blend-mode:multiply" opacity="0.05">
<path d="M39.8704 24.6017C81.0133 4.02033 128.857 39.0027 172.559 53.9237C206.202 65.4045 218.383 121.308 189.981 145.79C164.839 167.471 63.012 197.933 23.9294 156.271C-23.0138 106.247 11.6285 38.7227 39.8704 24.6017Z" fill="black"/>
</g>
<path opacity="0.15" d="M162.236 142.13C197.578 147.971 34.0668 147.011 17.0056 144.311C-0.0555334 141.59 134.854 137.61 162.236 142.13Z" fill="black"/>
<path d="M162.648 143.029H31.7795C25.6791 143.029 20.7188 138.068 20.7188 131.968V54.0227C20.7188 47.9223 25.6791 42.9619 31.7795 42.9619H162.648C168.749 42.9619 173.709 47.9223 173.709 54.0227V131.968C173.709 138.088 168.749 143.029 162.648 143.029Z" fill="#0B2739"/>
<path d="M52.5437 111.568H34.4824C33.2823 111.568 32.3223 110.588 32.3223 109.408V95.9468C32.3223 94.7467 33.3023 93.7866 34.4824 93.7866H52.5437C53.7437 93.7866 54.7038 94.7667 54.7038 95.9468V109.408C54.7038 110.608 53.7237 111.568 52.5437 111.568Z" fill="#B6B7B7"/>
<path d="M173.709 61.5049H20.7188V84.5064H173.709V61.5049Z" fill="#D3D4D3"/>
<path d="M60.8047 126.669H34.4629C33.2628 126.669 32.3027 125.688 32.3027 124.508V123.008C32.3027 121.808 33.2828 120.848 34.4629 120.848H60.8047C62.0048 120.848 62.9648 121.828 62.9648 123.008V124.508C62.9848 125.708 62.0048 126.669 60.8047 126.669Z" fill="#D3D4D3"/>
<path d="M109.51 126.669H69.7871C68.587 126.669 67.627 125.688 67.627 124.508V123.008C67.627 121.808 68.607 120.848 69.7871 120.848H109.51C110.71 120.848 111.67 121.828 111.67 123.008V124.508C111.67 125.708 110.69 126.669 109.51 126.669Z" fill="#D3D4D3"/>
<path opacity="0.05" d="M20.7188 131.968V54.0227C20.7188 47.9223 25.6791 42.9619 31.7795 42.9619H162.648L20.7188 131.968Z" fill="white"/>
<path opacity="0.15" d="M174.374 151.61C194.075 158.23 78.6674 156.27 69.1467 153.19C59.6261 150.11 159.093 146.489 174.374 151.61Z" fill="black"/>
<path d="M169.517 153.951H115.373C107.833 153.951 101.732 147.85 101.732 140.31V13.6409C101.732 6.10042 107.853 0 115.373 0H169.517C177.058 0 183.158 6.10042 183.158 13.6409V140.29C183.158 147.83 177.058 153.951 169.517 153.951Z" fill="#019DF4"/>
<path d="M168.737 151.19H116.153C109.713 151.19 104.492 145.97 104.492 139.529V14.4206C104.492 7.98012 109.713 2.75977 116.153 2.75977H168.737C175.177 2.75977 180.397 7.98012 180.397 14.4206V139.529C180.397 145.97 175.177 151.19 168.737 151.19Z" fill="#0B2739"/>
<path d="M101.731 37.0836H100.711C100.491 37.0836 100.291 36.9036 100.291 36.6635V31.1432C100.291 30.9232 100.471 30.7231 100.711 30.7231H101.731V37.0836Z" fill="#019DF4"/>
<path d="M101.731 50.7435H100.711C100.491 50.7435 100.291 50.5635 100.291 50.3235V41.3229C100.291 41.1028 100.471 40.9028 100.711 40.9028H101.731V50.7435Z" fill="#019DF4"/>
<path d="M101.731 62.0042H100.711C100.491 62.0042 100.291 61.8242 100.291 61.5842V52.5836C100.291 52.3636 100.471 52.1636 100.711 52.1636H101.731V62.0042Z" fill="#019DF4"/>
<path fill-rule="evenodd" clip-rule="evenodd" d="M165.398 59.1052C165.398 59.8252 165.458 76.7464 164.198 84.0669C162.538 93.6875 143.916 102.688 143.116 103.068C142.896 103.168 142.676 103.208 142.436 103.208C142.196 103.208 141.976 103.148 141.756 103.048C140.956 102.668 122.355 93.6675 120.695 84.0469C119.435 76.7264 119.475 59.8052 119.475 59.0852C119.475 58.5851 119.715 58.1251 120.095 57.8251C120.475 57.5251 120.975 57.425 121.455 57.5251C125.755 58.2051 128.035 56.665 130.896 54.7449C133.716 52.8447 136.936 50.7046 142.436 50.7046H142.456C147.957 50.7046 151.157 52.8647 153.977 54.7449C156.857 56.665 159.137 58.1851 163.478 57.5051C163.938 57.425 164.438 57.5651 164.798 57.8651C165.158 58.2051 165.398 58.6451 165.398 59.1052Z" fill="#3C7521"/>
<path fill-rule="evenodd" clip-rule="evenodd" d="M162.156 61.6444C162.156 62.2644 162.196 76.7854 161.136 83.0658C159.715 91.3264 143.734 99.0469 143.054 99.3669C142.874 99.4469 142.674 99.4869 142.474 99.4869C142.274 99.4869 142.074 99.4469 141.894 99.3469C141.214 99.0269 125.233 91.3064 123.813 83.0458C122.733 76.7654 122.753 62.2444 122.773 61.6244C122.773 61.2043 122.973 60.8043 123.293 60.5443C123.633 60.2843 124.053 60.2043 124.453 60.3043C128.153 60.8843 130.093 59.5642 132.554 57.9241C134.974 56.304 137.734 54.4639 142.454 54.4639H142.474C147.195 54.4639 149.935 56.304 152.375 57.9441C154.835 59.6042 156.795 60.9043 160.536 60.3243C160.936 60.2643 161.356 60.3643 161.656 60.6243C161.936 60.8643 162.136 61.2443 162.156 61.6444Z" fill="#5CB615"/>
<path fill-rule="evenodd" clip-rule="evenodd" d="M138.475 81.987L151.756 68.5461C152.376 67.926 153.376 67.926 153.996 68.5461C154.616 69.1661 154.616 70.1862 153.996 70.8062L139.595 85.3873C139.295 85.6873 138.895 85.8673 138.475 85.8673C138.055 85.8673 137.655 85.6873 137.355 85.3873L130.895 78.8468C130.275 78.2268 130.275 77.2067 130.895 76.5866C131.515 75.9666 132.515 75.9666 133.135 76.5866L138.475 81.987Z" fill="white"/>
<path d="M154.295 6.47917H130.593C129.453 6.47917 128.533 5.5591 128.533 4.41903V2.35889H156.355V4.41903C156.355 5.5591 155.435 6.47917 154.295 6.47917Z" fill="#019DF4"/>
<path d="M148.99 4.88051H135.909C135.649 4.88051 135.449 4.6805 135.449 4.42048C135.449 4.16046 135.649 3.96045 135.909 3.96045H148.99C149.25 3.96045 149.45 4.16046 149.45 4.42048C149.45 4.6805 149.23 4.88051 148.99 4.88051Z" fill="white"/>
<path d="M152.914 5.16077C153.323 5.16077 153.654 4.82943 153.654 4.42071C153.654 4.012 153.323 3.68066 152.914 3.68066C152.505 3.68066 152.174 4.012 152.174 4.42071C152.174 4.82943 152.505 5.16077 152.914 5.16077Z" fill="white"/>
<path opacity="0.05" d="M116.15 151.19H168.733C175.174 151.19 180.394 145.97 180.394 139.529V14.4206C180.394 7.98012 175.174 2.75977 168.733 2.75977H161.753C163.953 31.1017 167.893 103.367 145.432 115.967C127.33 126.128 111.009 117.808 104.469 114.267V139.509C104.489 145.97 109.709 151.19 116.15 151.19Z" fill="white"/>
</svg>
