<svg width="217" height="50" viewBox="0 0 217 50" fill="none" xmlns="http://www.w3.org/2000/svg">
<path d="M24.7048 49.7569C38.1811 49.7569 49.1058 38.8322 49.1058 25.3559C49.1058 11.8796 38.1811 0.954834 24.7048 0.954834C11.2284 0.954834 0.303711 11.8796 0.303711 25.3559C0.303711 38.8322 11.2284 49.7569 24.7048 49.7569Z" fill="url(#paint0_linear)"/>
<path d="M66.5869 30.9307C67.2592 30.9307 67.8195 30.8747 68.2678 30.7627C68.716 30.6506 69.0522 30.5105 69.3323 30.3144C69.6125 30.1183 69.7806 29.8942 69.8926 29.614C70.0047 29.3619 70.0607 29.0537 70.0607 28.7176C70.0607 28.0172 69.7246 27.4289 69.0802 26.9806C68.4359 26.5324 67.2872 26.0281 65.6904 25.4958C64.99 25.2437 64.2896 24.9636 63.5893 24.6554C62.8889 24.3472 62.2726 23.927 61.7123 23.4507C61.152 22.9745 60.7037 22.3862 60.3675 21.6858C60.0314 20.9854 59.8353 20.173 59.8353 19.1645C59.8353 18.1839 60.0314 17.2875 60.3956 16.503C60.7598 15.7186 61.292 15.0463 61.9644 14.486C62.6368 13.9257 63.4492 13.5054 64.4297 13.1973C65.3822 12.8891 66.4748 12.749 67.6795 12.749C69.1082 12.749 70.3689 12.9171 71.4055 13.1973C72.442 13.5054 73.3105 13.8416 73.9828 14.2058L72.5821 18.0439C71.9938 17.7357 71.3214 17.4555 70.593 17.2314C69.8646 17.0073 68.9962 16.8672 67.9596 16.8672C66.811 16.8672 65.9986 17.0353 65.4943 17.3435C64.99 17.6516 64.7379 18.1559 64.7379 18.8003C64.7379 19.1925 64.8219 19.5286 65.018 19.7808C65.2141 20.0609 65.4663 20.2851 65.8025 20.5092C66.1386 20.7333 66.5308 20.9294 66.9791 21.0975C67.4273 21.2656 67.9036 21.4617 68.4359 21.6298C69.5284 22.05 70.509 22.4422 71.3214 22.8344C72.1338 23.2266 72.8342 23.7029 73.3665 24.2352C73.8988 24.7674 74.319 25.3838 74.5711 26.1122C74.8513 26.8406 74.9634 27.709 74.9634 28.7176C74.9634 30.7066 74.263 32.2474 72.8622 33.34C71.4615 34.4326 69.3604 34.9929 66.5589 34.9929C65.6063 34.9929 64.7659 34.9369 64.0095 34.8248C63.2531 34.7128 62.5807 34.5727 61.9924 34.4046C61.4041 34.2365 60.8998 34.0684 60.4796 33.8723C60.0594 33.6762 59.6952 33.5081 59.415 33.34L60.7598 29.53C61.4041 29.8662 62.1885 30.2024 63.113 30.4545C64.0935 30.7907 65.2422 30.9307 66.5869 30.9307Z" fill="#666666"/>
<path d="M82.2751 13.8136C82.2751 14.6541 81.995 15.3265 81.4627 15.8027C80.9304 16.279 80.286 16.5311 79.5296 16.5311C78.8013 16.5311 78.1569 16.279 77.5966 15.8027C77.0643 15.3265 76.7842 14.6541 76.7842 13.8136C76.7842 12.9732 77.0643 12.3008 77.5966 11.8246C78.1289 11.3483 78.7732 11.0962 79.5296 11.0962C80.258 11.0962 80.9024 11.3483 81.4627 11.8246C82.023 12.3289 82.2751 12.9732 82.2751 13.8136ZM81.8549 34.6848H77.2604V18.4921H81.8549V34.6848Z" fill="#666666"/>
<path d="M93.0611 26.0842C93.0611 24.5994 92.865 23.5628 92.5008 22.9465C92.1086 22.3302 91.4643 22.022 90.5398 22.022C90.2596 22.022 89.9514 22.05 89.6433 22.078C89.3351 22.1061 89.027 22.1341 88.7468 22.1901V34.6848H84.1523V19.0524C84.5446 18.9404 84.9928 18.8283 85.5251 18.7443C86.0574 18.6322 86.5897 18.5201 87.178 18.4361C87.7663 18.352 88.3546 18.268 88.9709 18.212C89.5873 18.1559 90.2036 18.1279 90.7919 18.1279C91.9685 18.1279 92.921 18.268 93.6494 18.5762C94.3778 18.8843 94.9661 19.2205 95.4424 19.6407C96.0867 19.1645 96.8431 18.8003 97.7116 18.5482C98.552 18.268 99.3365 18.1559 100.065 18.1559C101.354 18.1559 102.418 18.324 103.259 18.6882C104.099 19.0524 104.743 19.5567 105.248 20.201C105.752 20.8454 106.088 21.6298 106.256 22.5263C106.452 23.4228 106.536 24.4313 106.536 25.5519V34.6848H101.942V26.0842C101.942 24.5994 101.746 23.5628 101.382 22.9465C100.989 22.3302 100.345 22.022 99.4205 22.022C99.1684 22.022 98.8322 22.078 98.384 22.2181C97.9357 22.3302 97.5715 22.4983 97.2914 22.6664C97.4315 23.1426 97.5155 23.6469 97.5715 24.1511C97.5995 24.6834 97.6276 25.2437 97.6276 25.832V34.6568H93.0331V26.0842H93.0611Z" fill="#666666"/>
<path d="M123.934 26.5045C123.934 27.7651 123.794 28.8857 123.485 29.9223C123.177 30.9589 122.729 31.8273 122.141 32.5557C121.552 33.2841 120.796 33.8724 119.928 34.2646C119.031 34.6848 118.023 34.8809 116.874 34.8809C116.23 34.8809 115.641 34.8249 115.081 34.6848C114.521 34.5728 113.988 34.3767 113.484 34.1526V40.2318H108.89V18.9684C109.31 18.8564 109.758 18.7163 110.29 18.6042C110.823 18.4922 111.383 18.3801 111.971 18.3241C112.56 18.2401 113.148 18.184 113.764 18.128C114.381 18.072 114.941 18.0439 115.501 18.0439C116.846 18.0439 118.023 18.24 119.059 18.6323C120.096 19.0245 120.992 19.5848 121.692 20.3132C122.421 21.0415 122.953 21.938 123.345 22.9746C123.738 24.0392 123.934 25.2158 123.934 26.5045ZM119.255 26.6165C119.255 25.2158 118.947 24.0672 118.303 23.2267C117.658 22.3863 116.734 21.938 115.473 21.938C115.053 21.938 114.689 21.966 114.325 21.9941C113.988 22.0221 113.68 22.0501 113.456 22.1061V30.3705C113.736 30.5666 114.128 30.7067 114.577 30.8188C115.025 30.9308 115.501 31.0149 115.977 31.0149C118.163 31.0149 119.255 29.5581 119.255 26.6165Z" fill="#666666"/>
<path d="M132.73 34.8808C131.385 34.8528 130.32 34.7128 129.48 34.4606C128.639 34.2085 127.995 33.8163 127.519 33.34C127.043 32.8638 126.706 32.2755 126.538 31.5751C126.37 30.8747 126.286 30.1183 126.286 29.2498V11.4603L130.881 10.7319V28.3534C130.881 28.7736 130.909 29.1378 130.965 29.474C131.021 29.8101 131.133 30.0903 131.329 30.3144C131.497 30.5385 131.749 30.7346 132.085 30.8747C132.421 31.0148 132.842 31.0988 133.402 31.1549L132.73 34.8808Z" fill="#666666"/>
<path d="M140.883 13.8136C140.883 14.6541 140.602 15.3265 140.07 15.8027C139.538 16.279 138.893 16.5311 138.137 16.5311C137.409 16.5311 136.764 16.279 136.204 15.8027C135.672 15.3265 135.392 14.6541 135.392 13.8136C135.392 12.9732 135.672 12.3008 136.204 11.8246C136.736 11.3483 137.381 11.0962 138.137 11.0962C138.865 11.0962 139.51 11.3483 140.07 11.8246C140.602 12.3289 140.883 12.9732 140.883 13.8136ZM140.462 34.6848H135.868V18.4921H140.462V34.6848Z" fill="#666666"/>
<path d="M157.187 19.753C157.187 21.3498 156.767 22.6105 155.926 23.535C155.086 24.4595 153.965 25.1318 152.593 25.524C152.929 25.9443 153.349 26.4765 153.881 27.1769C154.414 27.8773 154.946 28.6337 155.506 29.4741C156.066 30.3146 156.599 31.1831 157.131 32.0795C157.663 32.976 158.111 33.8445 158.476 34.6569H156.234C155.814 33.8445 155.338 33.004 154.834 32.1916C154.329 31.3792 153.825 30.5667 153.293 29.8103C152.761 29.0539 152.256 28.3255 151.78 27.6812C151.276 27.0368 150.856 26.4485 150.491 25.9723C149.847 26.0283 149.175 26.0563 148.53 26.0563H145.085V34.6569H142.983V13.7577C143.712 13.5616 144.58 13.3936 145.589 13.3095C146.569 13.2255 147.494 13.1694 148.334 13.1694C151.276 13.1694 153.489 13.7297 154.974 14.8223C156.459 15.9429 157.187 17.5958 157.187 19.753ZM148.586 14.9904C147.802 14.9904 147.13 15.0184 146.541 15.0745C145.953 15.1305 145.477 15.1585 145.085 15.2145V24.2914H147.97C148.923 24.2914 149.847 24.2353 150.716 24.1513C151.584 24.0673 152.312 23.8431 152.957 23.535C153.601 23.2268 154.105 22.7506 154.47 22.1622C154.834 21.5739 155.03 20.7615 155.03 19.7249C155.03 18.7724 154.834 18.016 154.47 17.3997C154.105 16.7834 153.629 16.3071 153.013 15.9429C152.424 15.5787 151.724 15.3266 150.968 15.2145C150.183 15.0464 149.399 14.9904 148.586 14.9904Z" fill="#666666"/>
<path d="M175.229 26.6447C175.229 27.9053 175.06 29.0259 174.696 30.0625C174.332 31.099 173.828 31.9675 173.183 32.6679C172.539 33.3963 171.783 33.9286 170.886 34.3488C170.018 34.741 169.037 34.9371 167.973 34.9371C166.908 34.9371 165.928 34.741 165.059 34.3488C164.191 33.9566 163.406 33.3963 162.762 32.6679C162.118 31.9395 161.613 31.071 161.249 30.0625C160.885 29.0259 160.717 27.9053 160.717 26.6447C160.717 25.384 160.885 24.2634 161.249 23.2268C161.613 22.1903 162.118 21.3218 162.762 20.5934C163.406 19.865 164.163 19.3047 165.059 18.9125C165.928 18.5203 166.908 18.3242 167.973 18.3242C169.037 18.3242 170.018 18.5203 170.886 18.9125C171.755 19.3047 172.539 19.865 173.183 20.5934C173.828 21.3218 174.332 22.1903 174.696 23.2268C175.06 24.2634 175.229 25.412 175.229 26.6447ZM173.099 26.6447C173.099 24.6556 172.651 23.0868 171.727 21.8821C170.802 20.7055 169.542 20.1172 167.973 20.1172C166.404 20.1172 165.143 20.7055 164.219 21.8821C163.294 23.0587 162.846 24.6556 162.846 26.6447C162.846 28.6337 163.294 30.2026 164.219 31.3792C165.143 32.5558 166.404 33.1441 167.973 33.1441C169.542 33.1441 170.802 32.5558 171.727 31.3792C172.651 30.2306 173.099 28.6337 173.099 26.6447Z" fill="#666666"/>
<path d="M190.161 34.0402C189.572 34.2083 188.76 34.3764 187.751 34.6005C186.743 34.7966 185.51 34.9087 184.053 34.9087C182.877 34.9087 181.868 34.7406 181.056 34.3764C180.271 34.0402 179.599 33.5359 179.123 32.8916C178.618 32.2472 178.282 31.4908 178.058 30.5944C177.834 29.6979 177.75 28.6893 177.75 27.5968V18.688H179.739V26.9524C179.739 28.073 179.823 29.0255 179.991 29.8099C180.159 30.5944 180.411 31.2107 180.804 31.715C181.168 32.1912 181.644 32.5554 182.232 32.7515C182.821 32.9756 183.521 33.0877 184.362 33.0877C185.314 33.0877 186.126 33.0317 186.827 32.9196C187.527 32.8075 187.975 32.7235 188.144 32.6394V18.688H190.133V34.0402H190.161Z" fill="#666666"/>
<path d="M194.419 18.6882H200.751V20.3691H194.419V28.8296C194.419 29.7261 194.503 30.4545 194.644 31.0148C194.812 31.5751 195.008 32.0233 195.316 32.3315C195.596 32.6397 195.96 32.8358 196.352 32.9478C196.773 33.0599 197.221 33.1159 197.697 33.1159C198.538 33.1159 199.21 33.0319 199.714 32.8358C200.219 32.6397 200.639 32.4716 200.919 32.3035L201.423 33.9564C201.143 34.1525 200.639 34.3486 199.91 34.5727C199.182 34.7968 198.398 34.9369 197.557 34.9369C196.577 34.9369 195.736 34.7968 195.092 34.5447C194.419 34.2925 193.887 33.9003 193.495 33.3681C193.103 32.8358 192.823 32.1914 192.654 31.407C192.486 30.6226 192.402 29.6981 192.402 28.6335V14.0097L194.391 13.6455V18.6882H194.419Z" fill="#666666"/>
<path d="M203.664 26.6167C203.664 25.2159 203.86 24.0113 204.252 22.9747C204.645 21.9382 205.177 21.0697 205.821 20.3693C206.466 19.6689 207.194 19.1647 208.034 18.8285C208.875 18.4923 209.715 18.3242 210.612 18.3242C212.545 18.3242 214.114 18.9686 215.262 20.2292C216.411 21.4899 216.999 23.451 216.999 26.1124C216.999 26.2805 216.999 26.4486 216.971 26.6167C216.971 26.7847 216.943 26.9248 216.915 27.0649H205.765C205.821 29.0259 206.297 30.5107 207.222 31.5473C208.118 32.5838 209.547 33.1161 211.536 33.1161C212.629 33.1161 213.497 33.0041 214.114 32.808C214.758 32.6119 215.206 32.4438 215.486 32.2757L215.851 33.9846C215.57 34.1527 215.01 34.3488 214.226 34.5729C213.441 34.797 212.517 34.9091 211.452 34.9091C210.051 34.9091 208.875 34.713 207.894 34.2928C206.914 33.8725 206.101 33.3122 205.457 32.5838C204.813 31.8555 204.364 30.959 204.084 29.9504C203.804 28.9419 203.664 27.8213 203.664 26.6167ZM214.954 25.356C214.926 23.7031 214.534 22.4144 213.777 21.4899C213.049 20.5654 211.985 20.1172 210.64 20.1172C209.911 20.1172 209.267 20.2573 208.707 20.5374C208.146 20.8176 207.642 21.2098 207.222 21.686C206.802 22.1623 206.466 22.7226 206.241 23.3669C206.017 24.0113 205.877 24.6556 205.821 25.356H214.954Z" fill="#666666"/>
<path d="M11.0277 23.7861C12.775 23.4496 13.9187 21.7604 13.5822 20.0131C13.2457 18.2659 11.5565 17.1222 9.80924 17.4586C8.06196 17.7951 6.91827 19.4843 7.25474 21.2316C7.5912 22.9789 9.28041 24.1226 11.0277 23.7861Z" fill="white"/>
<path d="M22.8832 6.44577V19.977C19.7735 20.7054 17.9526 23.3108 17.9526 26.3924C17.9526 27.5691 18.3168 28.6897 18.8771 29.6702L12.0414 36.87C11.4251 36.6179 10.7807 36.4778 10.0804 36.4778C7.7271 36.4778 5.76605 38.0747 5.17773 40.2038C6.99871 42.6131 9.29594 44.6862 11.8733 46.2831C13.7783 45.5547 15.1511 43.7057 15.1511 41.5485C15.1511 40.7641 14.955 40.0077 14.6468 39.3354L21.4264 32.2195C22.3789 32.7518 23.4995 33.06 24.6762 33.06C25.7687 33.06 26.8053 32.7799 27.7298 32.3036L34.3974 40.0918C33.9211 40.9042 33.641 41.8287 33.641 42.8372C33.641 44.6582 34.5654 46.2551 35.9662 47.2076C39.0198 45.6387 41.7093 43.4255 43.8384 40.7921C43.026 38.8871 41.149 37.5424 38.9358 37.5424C38.3195 37.5424 37.7311 37.6545 37.1708 37.8506L30.2792 29.8383C30.8955 28.8297 31.2597 27.6531 31.2597 26.3924C31.2597 25.496 31.0916 24.6275 30.7554 23.8431L39.8883 16.3631C40.7007 16.8673 41.6532 17.1755 42.6898 17.1755C44.4267 17.1755 45.9675 16.3351 46.9481 15.0464C45.4913 11.9367 43.4182 9.16322 40.8408 6.92202C38.8237 7.67843 37.395 9.61146 37.395 11.8807C37.395 12.469 37.507 13.0293 37.6751 13.5616L28.5422 21.0416C27.9539 20.5933 26.8333 20.2572 26.5532 20.033V6.47378C28.2341 5.74539 29.8589 3.89641 29.8589 1.71124C29.8589 1.59918 29.8589 1.51513 29.8589 1.40307C28.178 1.03888 26.4691 0.842773 24.7042 0.842773C22.9953 0.842773 21.3144 1.01086 19.6895 1.34704C19.6615 1.4591 19.6335 1.57116 19.6335 1.68322C19.6335 3.86839 20.9222 5.71738 22.8832 6.44577Z" fill="white"/>
<defs>
<linearGradient id="paint0_linear" x1="41.9477" y1="8.11109" x2="7.44868" y2="42.6101" gradientUnits="userSpaceOnUse">
<stop stop-color="#01B9D2"/>
<stop offset="0.1467" stop-color="#09ACCC"/>
<stop offset="0.4173" stop-color="#208ABC"/>
<stop offset="0.7792" stop-color="#4354A2"/>
<stop offset="1" stop-color="#5B2F91"/>
</linearGradient>
</defs>
</svg>
