<svg width="211" height="48" viewBox="0 0 211 48" fill="none" xmlns="http://www.w3.org/2000/svg">
<path d="M54.8307 7.81125C54.4478 7.32154 53.9535 6.92974 53.3886 6.66825C52.5898 6.27135 51.6815 6.1495 50.8059 6.32175C50.5265 6.36997 50.259 6.47158 50.0183 6.621C49.7843 6.76369 49.5842 6.9552 49.4315 7.18237C49.2628 7.44624 49.1786 7.75504 49.1901 8.06775C49.1822 8.33775 49.2465 8.6055 49.3796 8.8395C49.5218 9.0555 49.7114 9.23438 49.9325 9.36375C50.2033 9.53587 50.4944 9.67875 50.7957 9.78787C51.1286 9.9195 51.5066 10.05 51.9207 10.1873C52.5243 10.3909 53.1528 10.6226 53.8027 10.869C54.4391 11.1086 55.0394 11.4427 55.5821 11.859C56.1207 12.2754 56.571 12.7943 56.9068 13.3856C57.2735 14.0831 57.4507 14.8706 57.418 15.6615C57.4425 16.5964 57.2498 17.5244 56.8549 18.3727C56.4947 19.1106 55.9697 19.7563 55.3204 20.2605C54.6659 20.7645 53.9257 21.138 53.1382 21.3619C52.3243 21.6106 51.4788 21.7414 50.6276 21.75C49.3666 21.7531 48.1162 21.5219 46.9402 21.0682C45.8258 20.6539 44.8217 19.99 44.0053 19.1276L46.8127 16.2026C47.2849 16.7676 47.8702 17.2282 48.5311 17.5549C49.1856 17.8991 49.9111 18.0791 50.6479 18.0791C50.9593 18.0814 51.2696 18.0454 51.5731 17.9745C51.853 17.9149 52.1204 17.8024 52.3607 17.6438C52.5785 17.4814 52.7538 17.2692 52.8719 17.025C53.0152 16.7404 53.0863 16.4231 53.0761 16.1025C53.0838 15.7918 52.9964 15.4861 52.8256 15.2261C52.6301 14.9654 52.3875 14.7433 52.1102 14.5714C51.7456 14.3574 51.36 14.1814 50.9593 14.046C50.4399 13.8645 49.9182 13.6898 49.3943 13.5217C48.8254 13.3346 48.2688 13.1122 47.7277 12.8558C47.193 12.6065 46.7026 12.2721 46.2756 11.8657C45.8405 11.4506 45.4929 10.953 45.2533 10.4021C44.976 9.73812 44.8433 9.02297 44.864 8.304C44.8386 7.40403 45.0445 6.51254 45.462 5.71425C45.8522 5.01932 46.394 4.4207 47.0474 3.96263C47.7129 3.49033 48.4604 3.14512 49.2521 2.9445C50.0612 2.73184 50.8944 2.62445 51.7311 2.625C52.7794 2.63348 53.8182 2.825 54.8002 3.19087C55.8157 3.55087 56.75 4.11788 57.5455 4.85925L54.8307 7.81125ZM79.0517 20.625L79.1543 7.88663H79.0787L74.2178 20.625H71.0291L66.2935 7.88663H66.2179L66.3206 20.625H62.0588V2.625H68.4971L72.7645 14.1653H72.8729L76.9507 2.625H83.4973V20.625H79.0517ZM98.9861 20.625L97.5892 17.0914H90.6578L89.3376 20.625H84.6257L92.1517 2.625H96.3582L103.807 20.625H98.9861ZM94.1714 7.42987L91.8899 13.605H96.401L94.1703 7.42875L94.1714 7.42987ZM115.672 20.6194L111.776 13.4767H110.297V20.6205H106.064V2.625H112.91C113.756 2.62387 114.601 2.71275 115.429 2.88938C116.213 3.05475 116.959 3.36045 117.633 3.79163C118.281 4.21688 118.813 4.79288 119.186 5.47237C119.599 6.27338 119.797 7.16663 119.766 8.06662C119.805 9.17523 119.455 10.2627 118.777 11.1424C118.073 12.0058 117.116 12.6281 116.04 12.9221L120.733 20.625L115.672 20.6194ZM115.491 8.11838C115.511 7.75395 115.419 7.39225 115.227 7.08113C115.053 6.8228 114.816 6.61234 114.539 6.46912C114.244 6.32098 113.926 6.22289 113.598 6.17888C113.255 6.12652 112.909 6.10019 112.562 6.10012H110.245V10.2919H112.314C112.682 10.2919 113.049 10.2626 113.411 10.2041C113.771 10.1545 114.121 10.0474 114.447 9.88688C115.124 9.56287 115.533 8.8575 115.481 8.10825L115.491 8.11838ZM130.256 6.33525V20.625H125.867V6.33525H120.733V2.625H135.401V6.33525H130.256ZM59.7976 34.0417C59.8289 34.9609 59.6312 35.8735 59.2222 36.6979C58.8572 37.3954 58.3274 37.9938 57.6786 38.4416C56.9877 38.8988 56.2186 39.226 55.4095 39.4069C54.5345 39.6119 53.6386 39.7145 52.7398 39.7129H50.5734V46.5H46.262V28.5H52.8166C53.7463 28.4967 54.6733 28.6013 55.5788 28.8116C56.3712 28.9818 57.124 29.3006 57.7971 29.751C58.4256 30.183 58.9367 30.768 59.2831 31.452C59.6555 32.262 59.8326 33.1507 59.7976 34.0417ZM55.4919 34.0417C55.5035 33.6797 55.4165 33.3213 55.2403 33.0045C55.0695 32.7424 54.8314 32.5307 54.5508 32.3914C54.2494 32.2318 53.9213 32.1281 53.5827 32.0854C53.2112 32.0326 52.8364 32.0063 52.4611 32.0066H50.5734V36.2569H52.3901C52.7779 36.2572 53.165 36.2226 53.5466 36.1534C53.8975 36.0926 54.2349 35.9723 54.5452 35.7956C54.8295 35.6359 55.0687 35.4053 55.2403 35.1263C55.4151 34.8022 55.5032 34.4366 55.4919 34.0676V34.0417ZM71.661 46.5L67.766 39.3551H66.2901V46.5H62.0588V28.5H68.8988C69.7474 28.4977 70.5947 28.5877 71.4241 28.77C72.2081 28.9327 72.9553 29.2386 73.6277 29.6722C74.2766 30.0941 74.8101 30.6701 75.1803 31.3485C75.5967 32.1472 75.7987 33.0416 75.7648 33.9428C75.8003 35.0512 75.4512 36.138 74.7764 37.0196C74.0703 37.8801 73.1145 38.5018 72.0401 38.7994L76.7273 46.5H71.661ZM71.4861 34.0462C71.5044 33.6812 71.4103 33.3193 71.2165 33.009C71.0454 32.7499 70.8103 32.5391 70.5338 32.397C70.2356 32.2511 69.9161 32.1532 69.5871 32.1067C69.2548 32.0557 68.9191 32.0294 68.5829 32.028H66.2653V36.2265H68.3347C68.7002 36.2243 69.0658 36.195 69.4269 36.1376C69.7868 36.0859 70.1355 35.9767 70.4616 35.8159C70.7662 35.6674 71.028 35.4401 71.2176 35.1577C71.4229 34.809 71.5177 34.404 71.4861 34.0001V34.0474V34.0462ZM98.1635 37.9961C98.1814 39.346 97.9219 40.6853 97.4008 41.9314C96.9212 43.0921 96.2032 44.1398 95.293 45.0071C94.3606 45.8709 93.263 46.5382 92.066 46.9691C90.7628 47.4259 89.3884 47.6473 88.0073 47.6227C86.6291 47.6367 85.2596 47.4031 83.9645 46.9331C82.7685 46.5006 81.6716 45.8334 80.7385 44.9711C79.8276 44.1119 79.1063 43.0728 78.6206 41.9201C78.0989 40.6746 77.8386 39.3357 77.8556 37.986C77.8347 36.6361 78.0948 35.2965 78.6195 34.0519C79.1036 32.9167 79.8257 31.8978 80.7374 31.0639C81.677 30.2263 82.7739 29.5828 83.9645 29.1705C85.2624 28.7146 86.6301 28.4877 88.0062 28.5C89.3881 28.4886 90.7616 28.7155 92.066 29.1705C93.262 29.5845 94.3588 30.228 95.2919 31.0639C96.2036 31.8978 96.9257 32.9167 97.4098 34.0519C97.9321 35.3004 98.1883 36.6436 98.1624 37.9961H98.1635ZM93.3252 37.9961C93.3304 37.2436 93.1953 36.4967 92.9269 35.7934C92.688 35.1427 92.3226 34.5455 91.8516 34.0361C91.3747 33.5404 90.7999 33.1485 90.1636 32.8853C89.4831 32.5994 88.7513 32.4551 88.013 32.4611C87.2744 32.4531 86.5422 32.5975 85.8623 32.8853C85.2228 33.1523 84.6457 33.5486 84.1673 34.0492C83.689 34.5497 83.3199 35.1436 83.0832 35.7934C82.5647 37.24 82.5647 38.8209 83.0832 40.2675C83.3202 40.9211 83.6858 41.5252 84.1585 42.045C84.6268 42.5423 85.1966 42.9394 85.8307 43.2127C87.2096 43.772 88.7531 43.772 90.132 43.2127C90.7659 42.9415 91.3379 42.5445 91.8132 42.0461C92.3018 41.5309 92.6786 40.9268 92.9224 40.2675C93.205 39.5432 93.3523 38.7733 93.3568 37.9961H93.3252ZM107.689 32.2148V46.5H103.3V32.2148H98.1658V28.5H112.834V32.2148H107.689ZM115.091 46.5V28.5H127.032V32.163H119.249V35.5571H126.627V39.0446H119.248V42.7796H127.503V46.4899L115.091 46.5ZM143.665 46.8274C142.377 47.3813 140.985 47.6525 139.583 47.6227C138.25 47.6359 136.926 47.4017 135.679 46.932C134.52 46.4982 133.463 45.8311 132.575 44.9723C131.686 44.1135 130.984 43.0814 130.513 41.9404C129.509 39.4205 129.509 36.6133 130.513 34.0935C130.995 32.9547 131.712 31.9297 132.617 31.0853C133.53 30.2432 134.603 29.5935 135.773 29.175C138.259 28.275 140.984 28.275 143.47 29.175C144.632 29.5721 145.672 30.255 146.495 31.1629L143.507 34.1351C143.097 33.5719 142.535 33.1365 141.887 32.8796C141.232 32.6113 140.532 32.4726 139.824 32.4713C139.093 32.4639 138.368 32.6063 137.694 32.8898C137.067 33.1639 136.501 33.5606 136.031 34.0564C135.56 34.5672 135.194 35.1645 134.953 35.8148C134.688 36.5242 134.556 37.2762 134.564 38.0332C134.556 38.8016 134.688 39.5655 134.953 40.2878C135.183 40.9357 135.54 41.5309 136.005 42.0405C136.463 42.5332 137.02 42.9236 137.641 43.1858C138.307 43.4648 139.023 43.6042 139.745 43.5941C140.541 43.6084 141.329 43.4288 142.039 43.071C142.663 42.756 143.204 42.2989 143.618 41.7367L146.684 44.61C145.851 45.559 144.821 46.3159 143.665 46.8285V46.8274ZM157.336 32.2148V46.5H152.947V32.2148H147.813V28.5H162.481V32.2148H157.336ZM164.738 46.5V28.5H169.251V46.5H164.738ZM191.818 37.9613C191.836 39.3109 191.576 40.6497 191.054 41.8954C190.572 43.0573 189.85 44.1055 188.936 44.9722C188.004 45.8353 186.907 46.5025 185.71 46.9342C183.091 47.8549 180.235 47.8549 177.616 46.9342C176.419 46.5029 175.323 45.8356 174.391 44.9722C173.478 44.1144 172.757 43.075 172.273 41.9212C171.752 40.6756 171.492 39.3367 171.509 37.9871C171.488 36.6368 171.748 35.2969 172.273 34.0519C172.755 32.9156 173.478 31.8964 174.391 31.0639C175.329 30.225 176.425 29.5809 177.616 29.1694C180.24 28.2766 183.087 28.2766 185.71 29.1694C186.901 29.5813 187.998 30.2253 188.936 31.0639C189.848 31.8979 190.57 32.9167 191.054 34.0519C191.575 35.2886 191.835 36.619 191.817 37.9601L191.818 37.9613ZM186.98 37.9613C186.985 37.2084 186.85 36.4611 186.582 35.7574C186.343 35.1063 185.977 34.5088 185.506 33.999C185.029 33.5034 184.454 33.1116 183.818 32.8481C183.138 32.5624 182.407 32.418 181.669 32.424C180.93 32.4159 180.198 32.5603 179.518 32.8481C178.884 33.1181 178.311 33.5085 177.837 33.999C177.36 34.5047 176.994 35.1034 176.76 35.7574C176.242 37.204 176.242 38.7849 176.76 40.2315C176.997 40.8863 177.362 41.4915 177.836 42.0101C178.304 42.5085 178.874 42.9056 179.508 43.1779C180.886 43.7371 182.43 43.7371 183.808 43.1779C184.442 42.9064 185.015 42.5091 185.49 42.0101C185.975 41.4973 186.352 40.8924 186.597 40.2315C186.87 39.5053 187.007 38.7355 187.001 37.9601H186.979L186.98 37.9613ZM205.909 46.5L198.405 34.7449H198.33L198.431 46.5H194.075V28.5203H199.209L206.669 40.2337H206.745L206.643 28.5H211V46.5H205.909ZM0 0.375H6.71815V3.97837H4.39602V20.1289H6.71815V23.7368H0V0.375ZM30.2802 23.7368H23.562V20.13H25.8797V3.97725H23.562V0.375H30.2802V23.7368Z" fill="black"/>
</svg>
