<svg width="219" height="48" viewBox="0 0 219 48" fill="none" xmlns="http://www.w3.org/2000/svg">
<path d="M37.3408 35.3858C38.9466 36.4077 42.2166 37.196 44.6983 37.196C48.377 37.196 50.5083 35.269 50.5083 32.437C50.5083 29.8677 49.0193 28.3495 45.2822 26.9481C40.7568 25.2839 37.9247 22.8898 37.9247 19.0359C37.9247 14.7149 41.5159 11.4741 46.9172 11.4741C49.72 11.4741 51.8221 12.1456 53.0192 12.8463L52.99 15.766C52.1141 15.2404 49.2821 14.4521 46.7712 14.4521C42.9757 14.4521 41.5451 16.7294 41.5451 18.6272C41.5451 21.2256 43.2384 22.5103 47.0631 23.9993C51.7637 25.8094 54.1286 28.0867 54.1286 32.1742C54.1286 36.466 51.0046 40.2324 44.4355 40.2324C41.7494 40.2324 38.8298 39.4149 37.3408 38.4222V35.3858Z" fill="#808080"/>
<path d="M77.283 29.6048C77.283 36.9914 72.1153 40.203 67.3271 40.203C61.955 40.203 57.7507 36.2323 57.7507 29.926C57.7507 23.2692 62.1594 19.3569 67.6482 19.3569C73.3999 19.3861 77.283 23.5612 77.283 29.6048ZM61.4587 29.8092C61.4587 34.1886 63.9403 37.4878 67.4731 37.4878C70.9474 37.4878 73.5459 34.2178 73.5459 29.7216C73.5459 26.3348 71.8525 22.1014 67.5606 22.1014C63.3272 22.1014 61.4587 26.0721 61.4587 29.8092Z" fill="#808080"/>
<path d="M96.0846 39.0645C95.1211 39.5316 93.019 40.2323 90.3621 40.2323C84.3477 40.2323 80.4062 36.1448 80.4062 30.0428C80.4062 23.8824 84.6105 19.3862 91.1213 19.3862C93.2526 19.3862 95.1795 19.9118 96.143 20.4665V23.2401C95.2671 22.773 93.0774 22.2767 91.1213 22.2767C86.5375 22.2767 84.0558 25.6926 84.0558 29.8385C84.0558 34.4515 87.0338 37.3127 90.9753 37.3127C93.0482 37.3127 95.0335 36.8163 96.0554 36.3492V39.0645H96.0846Z" fill="#808080"/>
<path d="M104.377 14.1894C104.377 15.4157 103.501 16.4083 102.07 16.4083C100.757 16.4083 99.8807 15.4157 99.8807 14.1894C99.8807 12.9632 100.786 11.9121 102.158 11.9121C103.472 11.9121 104.377 12.9048 104.377 14.1894ZM100.348 39.7653V19.7951H103.968V39.7653H100.348Z" fill="#808080"/>
<path d="M124.024 34.9772C124.024 36.6998 124.112 38.3931 124.316 39.7654H121.046L120.754 37.2545H120.638C119.528 38.8311 117.368 40.2325 114.536 40.2325C110.477 40.2325 108.434 37.3713 108.434 34.5101C108.434 29.6927 112.725 27.0358 120.433 27.0942V26.6855C120.433 25.0797 119.966 22.0725 115.908 22.1017C114.01 22.1017 111.236 22.6272 109.835 23.5907V21.1674C111.499 20.1455 113.922 19.4448 116.433 19.4448C122.535 19.4448 124.024 23.6199 124.024 27.5614V34.9772ZM120.521 29.5759C116.55 29.4883 112.054 30.189 112.054 34.0721C112.054 36.4662 113.631 37.5465 115.441 37.5465C118.068 37.5465 119.762 35.8823 120.346 34.2181C120.462 33.8093 120.521 33.4006 120.521 33.0502V29.5759Z" fill="#808080"/>
<path d="M129.895 10.4814H133.515V39.7652H129.895V10.4814Z" fill="#808080"/>
<path d="M160.957 38.5391C159.352 39.1522 156.14 40.0573 152.374 40.0573C148.169 40.0573 144.695 38.977 141.98 36.3786C139.586 34.0721 138.097 30.3642 138.097 26.0139C138.097 17.7222 143.819 11.6494 153.162 11.6494C156.373 11.6494 158.943 12.3501 160.14 12.934L159.235 15.8537C157.746 15.153 155.906 14.6566 153.074 14.6566C146.301 14.6566 141.892 18.8609 141.892 25.8388C141.892 32.9042 146.096 37.0501 152.607 37.0501C154.972 37.0501 156.578 36.7289 157.395 36.3202V28.0577H151.79V25.1672H160.957V38.5391Z" fill="#808080"/>
<path d="M168.521 30.4517C168.609 35.3566 171.703 37.3712 175.382 37.3712C177.981 37.3712 180.258 36.904 181.572 36.3493V38.9478C180.287 39.5317 178.068 40.2324 174.886 40.2324C168.725 40.2324 165.076 36.1449 165.076 30.1305C165.076 24.1161 168.638 19.4155 174.448 19.4155C181.017 19.4155 182.71 25.1088 182.71 28.7875C182.71 29.5174 182.681 30.0721 182.594 30.4809H168.521V30.4517ZM179.148 27.8532C179.178 25.5759 178.185 21.9848 174.127 21.9848C170.419 21.9848 168.842 25.3132 168.55 27.8532H179.148Z" fill="#808080"/>
<path d="M185.805 36.0863C186.915 36.7579 189.688 37.4878 191.498 37.4878C194.097 37.4878 195.323 36.2031 195.323 34.5098C195.323 32.7872 194.301 31.8821 191.644 30.8894C188.024 29.5756 186.331 27.6195 186.331 25.2254C186.331 22.0138 188.958 19.3569 193.221 19.3569C195.236 19.3569 197.017 19.8825 198.097 20.5832V23.2108C197.308 22.7145 195.002 22.0138 193.163 22.0138C191.002 22.0138 189.863 23.24 189.863 24.729C189.863 26.3932 191.031 27.1231 193.63 28.145C197.046 29.4296 198.856 31.1522 198.856 34.1302C198.856 37.6921 196.082 40.1446 191.44 40.1446C189.25 40.1446 187.236 39.5607 185.834 38.7432V36.0863H185.805Z" fill="#808080"/>
<path d="M207.876 15.0068V19.795H213.072V22.5686H207.876V33.342C207.876 35.8237 208.576 37.2251 210.591 37.2251C211.583 37.2251 212.313 37.1375 212.868 36.9916V39.7652C212.167 39.9988 211.058 40.2615 209.657 40.2615C207.963 40.2615 206.591 39.6776 205.744 38.7433C204.752 37.6339 204.343 35.8529 204.343 33.5172V22.5686H201.248V19.795H204.343V16.0871L207.876 15.0068Z" fill="#808080"/>
<path d="M11.6203 28.3201H20.6127C21.3134 28.3201 21.8973 27.707 21.8973 27.0647L24.8461 9.72217C24.8461 8.90468 23.9994 7.88281 22.9192 7.88281H9.34296C8.2919 7.88281 7.41602 8.90468 7.41602 9.69298L10.3356 26.8895C10.3356 27.5318 10.9196 28.3201 11.6203 28.3201ZM10.9488 11.3864H21.2842C22.1017 11.3864 22.744 11.6491 22.744 12.2622L20.4959 25.1378C20.4959 25.6049 20.058 25.9844 19.5324 25.9844H12.7005C12.175 25.9844 11.7371 25.6925 11.7371 25.1961L9.48894 12.2622C9.48894 11.6199 10.1605 11.3864 10.9488 11.3864Z" fill="#808080"/>
<path d="M20.757 47.2978H21.0782H23.2095H32.0267C32.0267 44.6702 29.6034 41.6921 26.5378 41.6921C25.3408 41.6921 24.2605 42.0717 23.3846 42.7432V35.0354H24.027C25.2824 35.0354 26.3043 34.1887 26.3043 33.0793L31.5304 2.74444C31.5304 1.31383 30.0122 0 28.1144 0H6.39247L10.4215 4.67139H25.224C26.6546 4.67139 27.8225 5.45969 27.8225 6.56914L23.8518 29.7801C23.8518 30.6268 23.0927 31.5319 22.1292 31.5319H9.92521C8.96174 31.5319 8.20264 30.5684 8.20264 29.7217L5.34141 13.0507L1.5751 9.1676L5.75016 33.1085C5.75016 34.2179 6.77202 35.0354 7.99826 35.0354H9.63325V42.714C8.17344 42.0717 7.53112 41.6921 6.33408 41.6921C3.29768 41.6921 0.699219 44.6702 0.699219 47.2978H9.48727H11.8522H11.7062V35.0354H20.757V47.2978Z" fill="#808080"/>
<path d="M216.139 13.2261C214.562 13.2261 213.277 14.5107 213.277 16.0873C213.277 17.6639 214.562 18.9485 216.139 18.9485C217.715 18.9485 219 17.6639 219 16.0873C219 14.4815 217.715 13.2261 216.139 13.2261ZM216.139 18.0726C215.029 18.0726 214.124 17.1676 214.124 16.0581C214.124 14.9486 215.029 14.0436 216.139 14.0436C217.248 14.0436 218.153 14.9486 218.153 16.0581C218.153 17.1676 217.277 18.0726 216.139 18.0726Z" fill="#808080"/>
<path d="M215.438 14.8318C215.614 14.8026 215.876 14.7734 216.139 14.7734C216.489 14.7734 216.723 14.8318 216.898 14.9486C217.044 15.0654 217.103 15.2114 217.103 15.445C217.103 15.7369 216.898 15.9413 216.694 16.0289C216.869 16.0873 216.957 16.2624 217.015 16.4668C217.103 16.7296 217.161 17.0507 217.219 17.1383H216.665C216.635 17.0799 216.577 16.8756 216.489 16.5836C216.431 16.2916 216.314 16.2041 216.11 16.2041H215.935V17.1383H215.409V14.8318H215.438ZM215.964 15.8537H216.168C216.431 15.8537 216.606 15.7077 216.606 15.5033C216.606 15.299 216.46 15.1822 216.227 15.1822C216.11 15.1822 216.022 15.1822 215.993 15.2114V15.8537H215.964Z" fill="#808080"/>
</svg>
