<svg width="218" height="39" viewBox="0 0 218 39" fill="none" xmlns="http://www.w3.org/2000/svg">
<path d="M56.5067 9.30976H51.1067C50.6036 9.30976 50.2347 9.14104 49.9999 8.83735C49.7651 8.53366 49.6981 8.12875 49.7651 7.65634L49.9664 6.67778C50.0335 6.17163 50.2682 5.76671 50.6372 5.49677C51.0061 5.19308 51.4421 5.05811 51.9117 5.05811H67.5078C68.0109 5.05811 68.3798 5.22682 68.6146 5.53051C68.8494 5.8342 68.95 6.23912 68.8494 6.71153L68.6481 7.69008C68.5475 8.16249 68.3127 8.56741 67.9773 8.8711C67.6419 9.17479 67.2059 9.3435 66.7028 9.3435H61.37L56.8756 32.6939C56.775 33.2 56.5402 33.6049 56.1713 33.8749C55.8023 34.1786 55.3663 34.3135 54.8968 34.3135H53.3204C52.8173 34.3135 52.4483 34.1786 52.2136 33.8749C51.9788 33.5712 51.9117 33.2 51.9788 32.6939L56.5067 9.30976Z" fill="#4373FA"/>
<path d="M71.3981 6.74522C71.4987 6.27281 71.7335 5.86789 72.1025 5.5642C72.4714 5.26051 72.9074 5.0918 73.377 5.0918H74.9198C75.4229 5.0918 75.7919 5.26051 76.0266 5.5642C76.2614 5.86789 76.3285 6.27281 76.2614 6.74522L71.2304 32.7276C71.1633 33.2 70.9286 33.5711 70.5596 33.8748C70.1907 34.1785 69.7547 34.3135 69.2851 34.3135H67.7423C67.2392 34.3135 66.8702 34.1785 66.6354 33.8748C66.4007 33.5711 66.3 33.2 66.4007 32.6938L71.3981 6.74522Z" fill="#4373FA"/>
<path d="M85.4861 9.30976H80.0861C79.583 9.30976 79.2141 9.14104 78.9793 8.83735C78.7445 8.53366 78.6775 8.12875 78.7445 7.65634L78.9458 6.67778C79.0129 6.17163 79.2476 5.76671 79.6166 5.49677C79.9855 5.19308 80.4215 5.05811 80.8911 5.05811H96.4872C96.9903 5.05811 97.3592 5.22682 97.594 5.53051C97.8288 5.8342 97.9294 6.23912 97.8288 6.71153L97.6275 7.69008C97.5269 8.16249 97.2921 8.56741 96.9567 8.8711C96.6213 9.17479 96.1853 9.3435 95.6822 9.3435H90.3494L85.855 32.6939C85.7544 33.2 85.5196 33.6049 85.1507 33.8749C84.7817 34.1786 84.3457 34.3135 83.8762 34.3135H82.2998C81.7967 34.3135 81.4277 34.1786 81.193 33.8749C80.9582 33.5712 80.8911 33.2 80.9582 32.6939L85.4861 9.30976Z" fill="#4373FA"/>
<path d="M91.7912 33.8072C91.59 33.4698 91.6235 33.0311 91.8583 32.525L102.122 9.54577C102.792 8.06106 103.698 6.88005 104.872 5.93523C106.046 5.02416 107.354 4.55176 108.83 4.55176C110.305 4.55176 111.446 5.02416 112.251 5.96898C113.056 6.91379 113.492 8.0948 113.592 9.54577L115.102 32.6599C115.135 33.1661 115.001 33.571 114.733 33.8409C114.464 34.1446 114.062 34.2796 113.559 34.2796H112.016C111.513 34.2796 111.11 34.1446 110.775 33.8409C110.439 33.5372 110.272 33.1323 110.238 32.5924L109.903 26.4174H99.3712L96.5874 32.8624C96.1849 33.8072 95.4806 34.2796 94.4409 34.2796H92.7639C92.3278 34.2796 91.9589 34.1109 91.7912 33.8072ZM109.735 22.3007L109.031 10.1869C108.964 9.30956 108.628 8.90464 108.025 8.90464C107.387 8.90464 106.884 9.34331 106.515 10.1869L101.249 22.3007H109.735Z" fill="#4373FA"/>
<path d="M123.084 6.67773C123.185 6.20533 123.42 5.83415 123.789 5.53046C124.157 5.22677 124.593 5.0918 125.063 5.0918H126.304C127.344 5.0918 128.048 5.63169 128.451 6.67773L135.091 25.1691C135.326 23.1782 135.561 21.3898 135.896 19.7364L138.378 6.74522C138.58 5.66543 139.217 5.12554 140.324 5.12554H141.9C142.403 5.12554 142.772 5.26051 143.007 5.5642C143.242 5.86789 143.309 6.23907 143.242 6.71147L138.211 32.7276C138.144 33.2 137.909 33.5711 137.54 33.8748C137.171 34.1785 136.735 34.3135 136.265 34.3135H135.024C133.951 34.3135 133.18 33.7736 132.777 32.7276L126.136 14.3712C126.002 16.0584 125.767 17.813 125.432 19.6689L122.883 32.7276C122.682 33.7736 122.078 34.3135 121.005 34.3135H119.395C118.892 34.3135 118.523 34.1448 118.288 33.8073C118.053 33.4699 117.986 33.065 118.053 32.5588L123.084 6.67773Z" fill="#4373FA"/>
<path d="M148.238 6.40773C148.372 5.53041 148.876 5.12549 149.781 5.12549H156.288C158.87 5.12549 160.849 5.80035 162.258 7.15009C163.667 8.49982 164.371 10.2545 164.371 12.3466C164.371 15.3834 163.264 18.0154 161.084 20.2087C158.904 22.4021 156.12 23.5156 152.766 23.5156H148.741L146.897 32.9974C146.763 33.8748 146.259 34.2797 145.354 34.2797H144.113C143.71 34.2797 143.442 34.1447 143.241 33.9085C143.04 33.6723 143.006 33.3686 143.073 32.9637L148.238 6.40773ZM153.303 20.0738C155.483 20.0738 157.193 19.3314 158.434 17.8467C159.675 16.362 160.279 14.7086 160.279 12.9202C160.279 11.6379 159.877 10.5919 159.105 9.74832C158.3 8.93848 157.126 8.49982 155.516 8.49982H151.659L149.446 20.04H153.303V20.0738Z" fill="#4373FA"/>
<path d="M167.29 14.0337C167.424 13.1564 167.927 12.7515 168.833 12.7515H169.906C170.309 12.7515 170.577 12.8864 170.778 13.1226C170.979 13.3588 171.047 13.6625 170.979 14.0675L168.498 26.9236C168.196 28.4758 168.263 29.6569 168.732 30.3992C169.202 31.1416 170.074 31.5127 171.382 31.5127C173.193 31.5127 175.138 30.3655 177.218 28.0372L179.935 14.0675C180.069 13.1901 180.572 12.7852 181.477 12.7852H182.584C182.987 12.7852 183.255 12.9202 183.456 13.1564C183.658 13.3926 183.725 13.73 183.658 14.1012L180.002 33.0649C179.834 33.9085 179.331 34.3134 178.492 34.3134H177.956C177.184 34.3134 176.815 33.9085 176.849 33.1324L177.017 31.5465C174.837 33.7398 172.589 34.8533 170.275 34.8533C168.129 34.8533 166.552 34.2122 165.546 32.8962C164.54 31.5802 164.238 29.8256 164.708 27.5985L167.29 14.0337Z" fill="#4373FA"/>
<path d="M182.886 33.4023C182.719 33.0648 182.719 32.7611 182.853 32.4237L183.155 31.5801C183.255 31.2427 183.49 31.0065 183.825 30.8378C184.161 30.6691 184.496 30.6691 184.832 30.7703C186.307 31.2427 187.649 31.4789 188.89 31.4789C190.232 31.4789 191.238 31.1415 191.976 30.5003C192.714 29.8592 193.082 29.0156 193.082 27.9359C193.082 27.2272 192.68 26.5524 191.875 25.945C191.07 25.3376 190.198 24.8315 189.225 24.4266C188.253 24.0216 187.381 23.3468 186.576 22.4694C185.771 21.5921 185.368 20.5461 185.368 19.3651C185.368 17.273 186.173 15.5521 187.75 14.2023C189.36 12.8526 191.305 12.1777 193.619 12.1777C194.894 12.1777 196.168 12.3802 197.409 12.7514C198.248 13.0213 198.482 13.595 198.147 14.4723L197.845 15.2146C197.577 15.9232 197.007 16.1932 196.135 15.957C195.128 15.6533 194.156 15.4846 193.217 15.4846C192.009 15.4846 191.07 15.7883 190.332 16.3619C189.594 16.9355 189.225 17.7454 189.225 18.6902C189.225 19.2976 189.494 19.8712 190.03 20.3774C190.567 20.8835 191.238 21.3559 191.976 21.7608C192.747 22.1657 193.485 22.6044 194.256 23.0431C194.994 23.4817 195.665 24.0891 196.202 24.7977C196.738 25.5063 197.007 26.3499 197.007 27.261C197.007 29.488 196.202 31.3102 194.558 32.6937C192.948 34.0771 190.936 34.752 188.521 34.752C186.81 34.752 185.167 34.482 183.591 33.9422C183.289 33.9422 183.054 33.706 182.886 33.4023Z" fill="#4373FA"/>
<path d="M204.183 5.22658C204.384 4.34926 204.887 3.94434 205.759 3.94434H206.866C207.268 3.94434 207.537 4.07931 207.738 4.31551C207.939 4.55172 207.973 4.85541 207.906 5.26032L206.027 15.0459C208.174 13.19 210.287 12.2452 212.333 12.2452C214.513 12.2452 216.089 12.8863 216.995 14.2023C217.934 15.5183 218.169 17.3067 217.733 19.5675L215.15 33.0648C214.949 33.9084 214.446 34.3133 213.574 34.3133H212.467C212.065 34.3133 211.796 34.1783 211.595 33.9421C211.394 33.7059 211.36 33.4022 211.427 32.9973L213.909 20.2086C214.211 18.6564 214.178 17.4754 213.775 16.733C213.373 15.9569 212.534 15.5858 211.26 15.5858C209.482 15.5858 207.503 16.6656 205.29 18.8589L202.539 33.0311C202.405 33.9084 201.902 34.3133 200.996 34.3133H199.89C199.018 34.3133 198.682 33.8746 198.816 33.0311L204.183 5.22658Z" fill="#4373FA"/>
<path d="M43.2257 2.021L13.1403 16.7331L22.934 17.4754L43.2257 2.021Z" fill="#4373FA"/>
<path opacity="0.5" d="M22.9328 17.4754L25.7837 28.6445L43.2245 2.021L22.9328 17.4754Z" fill="#4373FA"/>
<path opacity="0.5" d="M43.2254 2.021L26.6902 19.7362L25.7846 28.6445L43.2254 2.021Z" fill="#4373FA"/>
<path d="M39.5699 24.3253L43.2257 2.021L26.6905 19.7362L39.5699 24.3253Z" fill="#4373FA"/>
<path d="M8.0085 16.9357C8.1762 16.2608 8.37744 15.6197 8.61222 14.9785C9.5178 12.7852 10.9936 10.9293 12.9389 9.57962C13.9786 8.87101 13.006 7.1501 11.9327 7.85871C8.74638 10.1195 6.39858 13.6626 5.89548 17.6105C5.76132 18.859 7.70664 18.859 7.87434 17.6105C7.8408 17.8805 7.97496 17.1044 8.0085 16.9357Z" fill="#4373FA"/>
<path d="M37.3226 25.3715L36.3499 25.0003C35.9475 24.8316 35.4779 25.0678 35.3437 25.4727L35.0419 26.3838C31.2183 34.4147 22.565 37.7553 14.3477 34.9208C17.3328 33.065 20.083 30.7704 22.6992 28.4421C22.7998 28.3746 22.8669 28.2734 22.9339 28.1722L23.3029 27.801C23.4706 27.5985 23.5712 27.2611 23.5041 27.0249L22.8669 26.0126C22.5985 25.5739 22.0284 25.5065 21.6594 25.8439L21.0222 26.4513C20.9551 26.485 20.9216 26.5188 20.8545 26.5862C17.903 29.2182 14.7502 31.8165 11.2285 33.6723C9.65211 34.5159 5.15776 37.0804 3.31306 35.7644C1.87084 34.7184 2.91058 31.749 3.88324 29.6906C4.5205 30.6692 5.29192 31.5803 6.13042 32.4576L6.29812 32.5926L6.33166 32.6263C6.3652 32.66 6.39874 32.66 6.39874 32.6938L7.27078 33.4699C7.57264 33.7398 8.00865 33.7398 8.31051 33.4699L9.0484 32.7613C9.38379 32.4576 9.38379 31.9177 9.0484 31.5803L8.2099 30.8042C8.2099 30.7704 8.17636 30.7704 8.17636 30.7367C1.90438 24.7641 2.03854 14.4387 7.8745 8.09493C13.1403 2.39231 23.5377 0.367714 29.6084 5.80038C29.6419 5.83413 29.6755 5.83413 29.709 5.86787C29.8767 6.00284 30.0444 6.13782 30.1786 6.23905C30.4134 6.47525 30.7823 6.50899 31.0842 6.34028L31.9562 5.86787C32.4258 5.59792 32.5264 5.05803 32.1574 4.65311C31.9227 4.34942 31.6879 4.11322 31.6879 4.11322C31.6543 4.04573 31.5873 3.97825 31.5202 3.91076C24.2755 -2.46672 12.3689 -0.577098 6.0298 6.2053C0.831098 11.8067 -0.510502 20.1075 2.3404 26.8899C0.797558 29.7919 -1.6844 35.4945 1.6696 37.924C4.3528 39.8474 8.67946 37.9577 11.3627 36.608C21.2905 41.0621 32.8282 37.654 37.4568 27.4298C37.5909 26.9912 37.7251 26.6537 37.7922 26.3838C37.9263 25.9451 37.7251 25.5065 37.3226 25.3715Z" fill="#4373FA"/>
</svg>
