<svg width="204" height="46" viewBox="0 0 204 46" fill="none" xmlns="http://www.w3.org/2000/svg">
<path d="M4.11609 39.8446V4.76197C4.11609 2.55822 5.87514 0.759766 8.03059 0.759766H53.0969C55.2523 0.759766 57.0114 2.55822 57.0114 4.76197V39.8446H4.11609Z" fill="#019BF2"/>
<path d="M53.0969 1.39298C54.9055 1.39298 56.392 2.91281 56.392 4.76193V39.2113H4.73547V4.76193C4.73547 2.91281 6.22199 1.39298 8.03059 1.39298H53.0969ZM53.0969 0.126465H8.03059C5.52828 0.126465 3.4967 2.20356 3.4967 4.76193V39.2113V40.4778H4.73547H56.392H57.6308V39.2113V4.76193C57.6308 2.20356 55.5992 0.126465 53.0969 0.126465Z" fill="#0B2739"/>
<path d="M33.3015 30.5734H22.6481C22.1774 30.5734 21.8058 30.1934 21.8058 29.7121C21.8058 29.2309 22.1774 28.8509 22.6481 28.8509H32.7069L36.8444 18.5921H24.5806C24.1099 18.5921 23.7383 18.2121 23.7383 17.7309C23.7383 17.2496 24.1099 16.8696 24.5806 16.8696H38.1327C38.4053 16.8696 38.6778 17.0216 38.8264 17.2496C38.9751 17.5029 39.0246 17.8069 38.9008 18.0602L34.0696 30.0668C33.9457 30.3707 33.6236 30.5734 33.3015 30.5734Z" fill="white"/>
<path d="M28.7676 21.1H18.3124C17.8417 21.1 17.4701 20.7201 17.4701 20.2388C17.4701 19.7575 17.8417 19.3776 18.3124 19.3776H19.9228L18.8079 15.1981H16.2808C15.8101 15.1981 15.4385 14.8181 15.4385 14.3368C15.4385 13.8555 15.8101 13.4756 16.2808 13.4756H19.4521C19.8237 13.4756 20.1706 13.7289 20.2697 14.1088L21.6571 19.3776H28.7676C29.2383 19.3776 29.61 19.7575 29.61 20.2388C29.61 20.7201 29.2383 21.1 28.7676 21.1Z" fill="white"/>
<path d="M28.5446 34.0694C28.2968 33.8414 28.1482 33.4614 28.1482 32.9548V32.6762C28.1482 32.1696 28.2721 31.7896 28.5446 31.5617C28.7924 31.3337 29.1888 31.207 29.7338 31.207H29.8825C30.4275 31.207 30.8239 31.3337 31.0717 31.5617C31.3194 31.7896 31.4681 32.1696 31.4681 32.6762V32.9548C31.4681 33.4614 31.3442 33.8414 31.0717 34.0694C30.8239 34.2973 30.4275 34.424 29.8825 34.424H29.7338C29.1888 34.424 28.7924 34.2973 28.5446 34.0694Z" fill="#182C3D"/>
<path d="M22.7223 34.0694C22.4746 33.8414 22.3259 33.4614 22.3259 32.9548V32.6762C22.3259 32.1696 22.4498 31.7896 22.7223 31.5617C22.9701 31.3337 23.3665 31.207 23.9115 31.207H24.0602C24.6053 31.207 25.0017 31.3337 25.2494 31.5617C25.4972 31.7896 25.6458 32.1696 25.6458 32.6762V32.9548C25.6458 33.4614 25.5219 33.8414 25.2494 34.0694C25.0017 34.2973 24.6053 34.424 24.0602 34.424H23.9115C23.3665 34.424 22.9701 34.2973 22.7223 34.0694Z" fill="#182C3D"/>
<path d="M13.8033 24.3169C13.3326 24.3169 12.9609 23.937 12.9609 23.4557C12.9609 22.9744 13.3326 22.5945 13.8033 22.5945L32.1866 22.4932C32.6573 22.4932 33.0289 22.8731 33.0289 23.3544C33.0289 23.8357 32.6573 24.2156 32.1866 24.2156L13.8033 24.3169Z" fill="white"/>
<path d="M20.5173 27.3058C20.0466 27.3058 19.6749 26.9259 19.6749 26.4446C19.6749 25.9633 20.0466 25.5833 20.5173 25.558L26.7607 25.4567C27.2314 25.4314 27.603 25.8366 27.6278 26.3179C27.6526 26.7992 27.2562 27.1792 26.7854 27.2045L20.5173 27.3058Z" fill="white"/>
<path d="M5.20624 45.3161C1.98545 45.3161 0.721904 42.5551 0.622803 39.8447H60.5048V42.5044C60.5048 44.0496 59.266 45.3161 57.7547 45.3161H5.20624Z" fill="white"/>
<path d="M59.8854 40.4779V42.5044C59.8854 43.6949 58.9191 44.6828 57.7547 44.6828H5.20624C2.25797 44.6828 1.48994 42.1244 1.29173 40.4779H59.8854ZM61.1241 39.2114H0.275946C0.127295 39.2114 0.00341797 39.3381 0.00341797 39.4901C0.00341797 43.0616 1.71291 45.9493 5.20624 45.9493H57.7547C59.6128 45.9493 61.1241 44.4042 61.1241 42.5044V39.2114Z" fill="#0B2739"/>
<path d="M39.4705 41.3392H21.657C21.0872 41.3392 20.6165 40.8579 20.6165 40.2753C20.6165 39.6927 21.0872 39.2114 21.657 39.2114H39.4705C40.0403 39.2114 40.511 39.6927 40.511 40.2753C40.511 40.8579 40.0403 41.3392 39.4705 41.3392Z" fill="#0B2739"/>
<path d="M31.7655 5.85105C31.7655 6.53497 31.2205 7.09224 30.5515 7.09224C29.8826 7.09224 29.3375 6.53497 29.3375 5.85105C29.3375 5.16713 29.8826 4.60986 30.5515 4.60986C31.2205 4.60986 31.7655 5.16713 31.7655 5.85105Z" fill="white"/>
<path d="M46.1351 45.2909C45.6396 45.2909 45.1689 45.0882 44.8221 44.7083C44.4752 44.3283 44.3018 43.8471 44.3265 43.3405L45.2928 22.1642C45.3423 21.1764 46.1351 20.3911 47.1014 20.3911L65.8068 20.4671C66.773 20.4671 67.5658 21.2523 67.6154 22.2402L68.4329 43.4164C68.4577 43.923 68.2843 44.4043 67.9374 44.7843C67.5906 45.1642 67.1198 45.3669 66.6243 45.3669L46.1351 45.2909Z" fill="#A13EA1"/>
<path d="M47.1261 19.7578V21.0243L65.8315 21.1003C66.4756 21.1003 66.9959 21.6069 67.0207 22.2655L67.8383 43.4417C67.8631 43.771 67.7392 44.1003 67.5162 44.3283C67.2932 44.5816 66.9711 44.7083 66.6491 44.7083L46.1599 44.6323C45.8378 44.6323 45.5157 44.5056 45.2928 44.2523C45.0698 43.999 44.9459 43.695 44.9707 43.3404L45.9369 22.1642C45.9617 21.5056 46.482 20.999 47.1261 20.999V19.7578ZM47.1261 19.7578C45.8378 19.7578 44.7477 20.7964 44.6981 22.1389L43.7319 43.3151C43.6576 44.7336 44.7725 45.9241 46.1599 45.9241L66.6491 46.0001C68.0365 46.0001 69.1266 44.8349 69.077 43.4164L68.2595 22.2402C68.2099 20.8977 67.1446 19.8591 65.8315 19.8591L47.1261 19.7578Z" fill="#0B2739"/>
<path d="M61.6198 22.8734L61.6446 17.6047C61.6446 14.6917 59.3652 12.3359 56.5161 12.3359C53.6669 12.3359 51.3628 14.6663 51.3628 17.5793L51.338 22.8481" stroke="#0B2739" stroke-width="5" stroke-miterlimit="10" stroke-linecap="round" stroke-linejoin="round"/>
<path d="M54.3854 31.0295L62.8585 28.9524C63.4779 28.8004 63.9734 29.459 63.6761 30.0162L59.4395 38.122C59.0927 38.7552 58.1512 38.5779 58.0769 37.8687L57.6557 34.2717C57.6309 33.9931 57.4575 33.7651 57.2097 33.6638L54.2863 32.448C53.6173 32.144 53.6917 31.1814 54.3854 31.0295Z" fill="#F5F5F5"/>
<path d="M49.0835 38.5021C48.9596 38.5021 48.8605 38.4514 48.7862 38.3501C48.6623 38.1728 48.6871 37.9448 48.8605 37.8182L54.1129 33.816C54.2863 33.6893 54.5093 33.7147 54.6331 33.892C54.757 34.0693 54.7322 34.2972 54.5588 34.4239L49.3064 38.4261C49.2321 38.4768 49.1578 38.5021 49.0835 38.5021Z" fill="#0B2739"/>
<path d="M50.8673 39.0595C50.7434 39.0595 50.6443 39.0089 50.57 38.9075C50.4461 38.7302 50.4709 38.5023 50.6443 38.3756L55.6737 34.5001C55.8471 34.3734 56.0701 34.3987 56.194 34.576C56.3179 34.7534 56.2931 34.9813 56.1197 35.108L51.0903 38.9835C51.0159 39.0342 50.9416 39.0595 50.8673 39.0595Z" fill="#0B2739"/>
<path d="M54.1624 38.4008C54.0386 38.4008 53.9395 38.3502 53.8651 38.2489C53.7413 38.0715 53.766 37.8436 53.9395 37.7169L58.9689 33.8414C59.1423 33.7147 59.3653 33.74 59.4891 33.9174C59.613 34.0947 59.5882 34.3226 59.4148 34.4493L54.3854 38.3248C54.3359 38.3755 54.2368 38.4008 54.1624 38.4008Z" fill="#0B2739"/>
<path d="M63.6018 29.2314C63.7752 29.4594 63.8248 29.7634 63.6761 30.042L59.4395 38.1477C59.0927 38.781 58.1512 38.6037 58.0769 37.8944L57.6557 34.2975C57.6309 34.1202 57.5566 33.9429 57.4327 33.8416" fill="#D2D2D1"/>
<path d="M58.7954 38.8568C58.7211 38.8568 58.6467 38.8568 58.5972 38.8315C58.1265 38.7301 57.8044 38.3755 57.7548 37.8942L57.3336 34.2973C57.3089 34.1453 57.2345 34.0187 57.0859 33.968L54.1624 32.7522C53.7412 32.5749 53.4687 32.1442 53.5183 31.663C53.543 31.1817 53.8651 30.8017 54.3358 30.7004L62.809 28.6233C63.2302 28.522 63.6266 28.674 63.8991 29.0033C64.1468 29.3326 64.1964 29.7885 63.9982 30.1685L59.7616 38.2742C59.5386 38.6541 59.1918 38.8568 58.7954 38.8568ZM63.032 29.2819C63.0072 29.2819 62.9576 29.2819 62.9329 29.2819L54.4597 31.359C54.212 31.435 54.1624 31.663 54.1624 31.7136C54.1624 31.7896 54.1624 32.0176 54.4102 32.1189L57.3336 33.3348C57.6805 33.4868 57.9283 33.816 57.9778 34.196L58.399 37.7929C58.4238 38.0715 58.6467 38.1222 58.7211 38.1475C58.7954 38.1729 59.0184 38.1729 59.1422 37.9449L63.3788 29.8392C63.4531 29.6872 63.4531 29.5352 63.354 29.4086C63.2549 29.3326 63.1558 29.2819 63.032 29.2819Z" fill="#0B2739"/>
<path d="M81.4647 5.16754H74.379V1.29199H94.0258L93.6294 5.16754H86.6923V24.6973H81.4647V5.16754Z" fill="#0B2739"/>
<path d="M96.7511 24.8236C96.0326 24.5956 95.4628 24.2917 95.0416 23.861C94.1001 22.9238 93.6294 21.4547 93.6294 19.4536V7.92822H98.411V18.7443C98.411 19.5802 98.5845 20.1881 98.9066 20.5174C99.2782 20.8721 99.9719 21.0747 100.988 21.0747C101.409 21.0747 101.904 21.024 102.499 20.948C103.069 20.8467 103.564 20.7454 103.961 20.6187V7.95355H108.742V24.7223H104.605L104.481 23.5824C103.639 24.1143 102.722 24.4943 101.78 24.7729C100.814 25.0262 99.8976 25.1782 99.0057 25.1782C98.2128 25.1276 97.4696 25.0262 96.7511 24.8236Z" fill="#0B2739"/>
<path d="M120.189 23.8359C119.396 22.9494 118.975 21.5562 118.975 19.6311V11.1201H116.2V8.46036L118.975 7.95375V4.20486C120.511 3.72358 122.096 3.49561 123.756 3.49561V7.95375H127.993V11.1454H123.756V18.9725C123.756 19.9604 123.905 20.619 124.202 20.9989C124.499 21.3535 125.119 21.5562 126.06 21.5562C126.457 21.5562 127.225 21.4802 128.364 21.3535L128.538 24.7985C127.299 25.0771 125.912 25.2038 124.351 25.2038C122.394 25.1784 121.006 24.7225 120.189 23.8359Z" fill="#0B2739"/>
<path d="M130.693 4.5848C130.272 4.23018 130.074 3.62225 130.074 2.81167V2.35573C130.074 1.54515 130.272 0.937225 130.693 0.557269C131.114 0.177313 131.734 0 132.576 0H132.799C133.641 0 134.286 0.177313 134.682 0.557269C135.103 0.937225 135.301 1.51982 135.301 2.35573V2.81167C135.301 3.62225 135.103 4.23018 134.682 4.5848C134.261 4.93943 133.641 5.14207 132.799 5.14207H132.576C131.734 5.14207 131.09 4.93943 130.693 4.5848ZM130.297 7.92841H135.078V24.6971H130.297V7.92841Z" fill="#0B2739"/>
<path d="M142.189 24.6213C141.049 24.2414 140.108 23.7094 139.389 23.0255C137.928 21.5817 137.184 19.3779 137.184 16.3636C137.184 13.4506 137.878 11.2216 139.266 9.72706C140.653 8.23257 142.61 7.47266 145.162 7.47266C147.664 7.47266 149.547 8.15658 150.811 9.54975C152.074 10.9176 152.694 13.0453 152.694 15.933V17.4782C152.694 17.7315 152.57 17.8581 152.297 17.8581H142.214C142.288 19.226 142.709 20.1632 143.527 20.6951C144.32 21.2271 145.583 21.4804 147.268 21.4804C148.581 21.4804 149.944 21.3537 151.356 21.0751L151.728 24.6213C149.746 25.0013 147.912 25.2039 146.203 25.2039C144.667 25.1786 143.329 24.976 142.189 24.6213ZM147.986 14.6412C147.986 13.552 147.739 12.6907 147.243 12.0828C146.748 11.4749 146.029 11.1709 145.113 11.1709C143.279 11.1709 142.313 12.3361 142.214 14.6665H147.986V14.6412Z" fill="#0B2739"/>
<path d="M154.527 7.92854H158.665L158.764 9.11907C159.606 8.5618 160.523 8.13119 161.514 7.85255C162.505 7.57392 163.471 7.44727 164.413 7.44727C165.181 7.44727 165.949 7.54859 166.642 7.77656C167.361 8.00453 167.931 8.3085 168.352 8.73912C169.293 9.67634 169.764 11.1455 169.764 13.1466V24.6719H164.982V13.7545C164.982 12.9693 164.809 12.412 164.487 12.0827C164.115 11.7281 163.421 11.5255 162.406 11.5255C161.935 11.5255 161.39 11.5761 160.795 11.6774C160.176 11.7788 159.68 11.9054 159.309 12.0827V24.6973H154.527V7.92854Z" fill="#0B2739"/>
<path d="M173.951 23.7346C172.44 22.2148 171.672 19.7324 171.672 16.3382C171.672 14.5144 171.944 12.9186 172.464 11.576C173.01 10.2335 173.753 9.19499 174.744 8.48574C175.735 7.77648 176.874 7.42186 178.163 7.42186C178.906 7.42186 179.649 7.52318 180.417 7.75115C181.185 7.97913 181.879 8.25776 182.498 8.66305V0.228027H187.305V24.6719H183.167L183.068 23.4813C181.433 24.5959 179.724 25.1531 177.89 25.1531C176.23 25.1785 174.942 24.6972 173.951 23.7346ZM181.086 21.1763C181.631 21.0749 182.102 20.923 182.498 20.771V11.7027C181.706 11.4494 180.962 11.3227 180.219 11.3227C179.03 11.3227 178.138 11.7027 177.568 12.4626C176.974 13.2225 176.676 14.565 176.676 16.4901C176.676 17.7567 176.775 18.7192 176.949 19.4031C177.147 20.0871 177.444 20.5937 177.89 20.8976C178.336 21.2016 178.906 21.3536 179.649 21.3536C180.071 21.3536 180.541 21.2776 181.086 21.1763Z" fill="#0B2739"/>
<path d="M190.65 23.6588C189.634 22.6456 189.138 21.3284 189.138 19.6566C189.138 18.8967 189.262 18.1874 189.51 17.5288C189.758 16.8702 190.105 16.313 190.575 15.857C191.145 15.2997 191.913 14.9198 192.855 14.6665C193.796 14.4385 195.035 14.3119 196.596 14.3119H199.197V13.7546C199.197 12.868 198.999 12.2348 198.602 11.8801C198.082 11.4242 197.166 11.1962 195.828 11.1962C195.084 11.1962 194.292 11.2469 193.424 11.3229C192.557 11.4242 191.839 11.5255 191.244 11.6268L191.021 8.08059C193.028 7.6753 194.961 7.47266 196.843 7.47266C198.157 7.47266 199.346 7.62464 200.362 7.9286C201.402 8.23257 202.195 8.71385 202.715 9.37244C203.558 10.3857 203.979 11.8548 203.979 13.8306V24.6973H200.188L199.792 23.6588C199.073 24.1401 198.28 24.52 197.438 24.7733C196.571 25.0266 195.729 25.1786 194.886 25.1786C193.078 25.1786 191.641 24.672 190.65 23.6588ZM197.735 21.303C198.28 21.2017 198.776 21.0751 199.197 20.9484V17.4782H196.645C196.051 17.4782 195.555 17.5288 195.208 17.6048C194.861 17.7061 194.564 17.8328 194.366 18.0608C194.044 18.3901 193.895 18.846 193.895 19.4539C193.895 20.0872 194.069 20.5938 194.44 20.9231C194.812 21.2777 195.406 21.4297 196.224 21.4297C196.695 21.455 197.19 21.4044 197.735 21.303Z" fill="#0B2739"/>
<path d="M76.5592 43.6952C75.6178 42.226 75.1223 40.2755 75.1223 37.7932C75.1223 35.3108 75.593 33.335 76.5592 31.8659C77.5007 30.3967 79.0615 29.6621 81.217 29.6621C83.3724 29.6621 84.9333 30.3967 85.8747 31.8659C86.8162 33.335 87.3117 35.3108 87.3117 37.7932C87.3117 40.2755 86.841 42.2513 85.8747 43.6952C84.9333 45.1643 83.3724 45.8736 81.217 45.8736C79.0863 45.8736 77.5255 45.1643 76.5592 43.6952ZM84.3635 42.5046C84.9581 41.4154 85.2554 39.8449 85.2554 37.7932C85.2554 35.7161 84.9581 34.1456 84.3635 33.0564C83.7688 31.9672 82.7283 31.4352 81.2418 31.4352C79.7552 31.4352 78.7147 31.9672 78.1201 33.0564C77.5255 34.1456 77.2282 35.7161 77.2282 37.7932C77.2282 39.8703 77.5255 41.4407 78.1201 42.5046C78.7147 43.5938 79.7552 44.1258 81.2418 44.1258C82.7283 44.1258 83.7688 43.5938 84.3635 42.5046Z" fill="#86888C"/>
<path d="M90.1361 34.3991H91.6722L91.7713 35.2097C92.3411 34.8551 92.9605 34.5764 93.6294 34.3738C94.2736 34.1711 94.9178 34.0698 95.5371 34.0698C96.7511 34.0698 97.6678 34.3991 98.2872 35.0577C98.9066 35.691 99.2039 36.6535 99.2039 37.9707V45.5698H97.3457V38.1987C97.3457 37.7174 97.2962 37.3374 97.2219 37.0588C97.1475 36.7548 96.9989 36.5269 96.8007 36.3242C96.4291 35.9443 95.8344 35.7416 95.0416 35.7416C94.5461 35.7416 94.0258 35.8176 93.4808 35.9443C92.9357 36.0709 92.4402 36.2482 91.9943 36.4762V45.5698H90.1361V34.3991Z" fill="#86888C"/>
<path d="M102.276 29.2568H104.134V45.5696H102.276V29.2568Z" fill="#86888C"/>
<path d="M107.107 31.0551V31.0044C107.107 30.1939 107.479 29.7886 108.197 29.7886H108.321C109.04 29.7886 109.411 30.1939 109.411 31.0044V31.0551C109.411 31.8657 109.04 32.271 108.321 32.271H108.197C107.479 32.271 107.107 31.8657 107.107 31.0551ZM107.33 34.3987H109.188V45.5694H107.33V34.3987Z" fill="#86888C"/>
<path d="M112.335 34.3991H113.871L113.97 35.2097C114.54 34.8551 115.159 34.5764 115.828 34.3738C116.472 34.1711 117.116 34.0698 117.736 34.0698C118.95 34.0698 119.866 34.3991 120.486 35.0577C121.105 35.691 121.403 36.6535 121.403 37.9707V45.5698H119.544V38.1987C119.544 37.7174 119.495 37.3374 119.421 37.0588C119.346 36.7548 119.198 36.5269 118.999 36.3242C118.628 35.9443 118.033 35.7416 117.24 35.7416C116.745 35.7416 116.225 35.8176 115.679 35.9443C115.134 36.0709 114.639 36.2482 114.193 36.4762V45.5698H112.335V34.3991Z" fill="#86888C"/>
<path d="M125.317 44.5313C124.376 43.5687 123.88 42.0489 123.88 39.9971C123.88 38.072 124.301 36.6029 125.168 35.5896C126.036 34.5764 127.175 34.0698 128.612 34.0698C130.123 34.0698 131.238 34.5764 132.006 35.615C132.774 36.6535 133.146 38.0974 133.146 39.9465V40.3771C133.146 40.5544 133.047 40.6304 132.873 40.6304H125.837C125.837 41.9222 126.159 42.8848 126.804 43.4927C127.101 43.7714 127.472 43.9993 127.918 44.126C128.364 44.2526 128.934 44.3286 129.603 44.3286C130.47 44.3286 131.387 44.2273 132.304 44.0247L132.477 45.4432C132.006 45.5698 131.486 45.6965 130.916 45.7725C130.322 45.8485 129.777 45.8991 129.256 45.8991C127.497 45.8738 126.209 45.4432 125.317 44.5313ZM131.313 39.2626C131.288 38.148 131.04 37.2361 130.594 36.6029C130.148 35.9443 129.479 35.615 128.612 35.615C127.695 35.615 127.027 35.9443 126.556 36.5775C126.085 37.2108 125.837 38.1227 125.837 39.2626H131.313Z" fill="#86888C"/>
</svg>
