<svg width="220" height="57" viewBox="0 0 220 57" fill="none" xmlns="http://www.w3.org/2000/svg">
<path d="M67.0762 32.595C68.4547 29.0742 69.7571 25.7605 71.0504 22.4444C73.5863 15.9413 76.1107 9.43119 78.6535 2.93032C79.2634 1.37011 80.3012 0.82243 82.0225 1.08246C83.1777 1.25736 84.1327 2.33431 84.2547 3.6506C84.3076 4.22359 84.1488 4.76667 83.9394 5.30285C79.2173 17.345 74.5068 29.3917 69.7847 41.4339C69.2348 42.8353 68.3327 43.475 67.0371 43.4451C65.6886 43.4129 64.8579 42.6949 64.3792 41.473C59.6779 29.4631 54.9674 17.4555 50.2568 5.45013C49.9439 4.65162 49.7506 3.8508 50.0083 3.00626C50.3489 1.89479 51.32 1.12849 52.4315 1.06866C54.0446 0.983514 54.8707 1.41384 55.4253 2.80606C57.0799 6.96662 58.6907 11.1433 60.3199 15.313C62.5429 21.0016 64.7658 26.6878 67.0762 32.595Z" fill="#070809"/>
<path d="M117.594 16.1966C123.446 12.2477 130.241 13.251 134.675 17.0434C137.791 19.7082 139.515 23.0979 139.586 27.2032C139.664 31.6675 139.625 36.1341 139.593 40.5984C139.582 42.0574 138.68 43.1067 137.366 43.4036C136.247 43.6544 134.908 43.0676 134.316 42.0505C133.934 41.3969 133.944 40.6652 133.944 39.9403C133.944 35.8188 133.957 31.6974 133.939 27.576C133.923 23.5282 130.763 19.9061 126.854 19.409C122.781 18.8913 118.94 21.3858 117.792 25.3185C117.58 26.0457 117.456 26.7936 117.458 27.5668C117.474 31.8033 117.472 36.0398 117.463 40.274C117.458 42.1839 116.303 43.4634 114.627 43.4496C112.938 43.4335 111.779 42.1655 111.774 40.2578C111.762 32.6248 111.769 24.994 111.769 17.361C111.769 15.2278 112.556 14.0265 114.149 13.7251C115.638 13.442 116.77 14.2567 117.594 16.1966Z" fill="#070809"/>
<path d="M206.102 33.1495C208.571 27.2309 210.962 21.494 213.36 15.7571C214.011 14.1946 214.987 13.5457 216.411 13.6952C217.668 13.8287 218.641 14.7216 218.945 15.9964C219.145 16.8387 218.782 17.5658 218.476 18.2976C214.283 28.3423 210.085 38.3847 205.89 48.4271C205.131 50.2474 204.378 52.0699 203.61 53.8856C202.797 55.8048 201.253 56.5757 199.622 55.8922C198.064 55.241 197.56 53.6347 198.345 51.7501C199.774 48.319 201.2 44.8879 202.664 41.4706C202.924 40.8654 202.915 40.3638 202.662 39.7609C199.631 32.5627 196.623 25.3531 193.611 18.1457C192.847 16.3186 193.291 14.6894 194.736 13.9829C196.331 13.2051 198.023 13.9346 198.798 15.7709C201.111 21.257 203.41 26.7476 205.715 32.236C205.817 32.4845 205.923 32.7261 206.102 33.1495Z" fill="#070809"/>
<path d="M177.701 26.9431C177.701 24.6926 177.675 22.4397 177.717 20.1891C177.728 19.5402 177.544 19.3791 176.895 19.3676C174.918 19.3354 173.772 18.2354 173.779 16.4957C173.786 14.7928 174.951 13.7182 176.96 13.7113C177.717 13.709 177.712 13.3707 177.707 12.8207C177.689 9.88209 177.684 6.94347 177.705 4.00485C177.714 2.62873 178.478 1.53797 179.613 1.15827C180.775 0.77167 182.006 1.13756 182.807 2.11557C183.29 2.70467 183.426 3.39273 183.421 4.13832C183.41 7.001 183.451 9.86369 183.394 12.7241C183.378 13.5525 183.626 13.7757 184.413 13.6998C185.133 13.6307 185.867 13.6676 186.592 13.6883C188.196 13.732 189.368 14.8642 189.404 16.3876C189.446 18.0467 188.399 19.2503 186.749 19.363C185.872 19.4228 184.988 19.4136 184.109 19.3722C183.559 19.3469 183.401 19.5195 183.403 20.0718C183.426 24.4993 183.371 28.9268 183.44 33.352C183.481 36.0306 185.343 37.692 188.125 37.7449C189.876 37.7772 190.804 38.3525 191.264 39.6895C191.823 41.3164 190.884 43.0055 189.207 43.3944C185.251 44.3102 180.181 41.6984 178.626 37.9106C177.908 36.1617 177.719 34.307 177.701 32.4361C177.687 30.6066 177.701 28.7749 177.701 26.9431Z" fill="#070809"/>
<path d="M29.9437 45.7118C32.7788 38.3318 35.5724 31.0578 38.3684 23.7837C38.4328 23.7883 38.4973 23.7929 38.5617 23.7975C39.114 26.9893 39.6732 30.181 40.2186 33.3751C40.6351 35.8189 41.0654 38.2582 41.4359 40.709C41.7051 42.4786 40.8491 43.8984 39.1301 44.2505C36.249 44.8373 33.3334 45.263 30.4316 45.7486C30.2866 45.7716 30.1301 45.7279 29.9437 45.7118Z" fill="#21B143"/>
<path d="M41.1096 25.8545C41.7885 26.1629 41.9334 26.6507 42.1083 27.104C43.4683 30.6134 44.8329 34.1227 46.1722 37.6412C46.7982 39.2866 45.8547 40.7363 44.0943 40.9319C43.4223 41.0078 43.6041 40.4395 43.5558 40.1702C43.0403 37.3236 42.5709 34.4702 42.0876 31.619C41.7701 29.7458 41.4525 27.8726 41.1096 25.8545Z" fill="#21B143"/>
<path d="M37.7861 15.9181C36.2627 12.1372 34.7646 8.34483 33.2412 4.56627C31.8743 1.17662 28.1187 -0.229412 24.8257 1.38833C21.2612 3.13953 17.7104 4.92066 14.1137 6.60283C12.5627 7.32771 11.4995 8.38626 10.8943 9.97178C7.62201 18.5506 4.3313 27.1249 1.0544 35.7014C-0.277987 39.19 0.81508 41.6546 4.30599 42.987C9.79894 45.0857 15.3011 47.1614 20.794 49.2624C21.4821 49.5247 22.1725 49.7157 22.6097 49.7088C25.0374 49.7571 26.738 48.6686 27.5319 46.6091C30.9722 37.685 34.3826 28.7495 37.8045 19.8186C38.3038 18.5184 38.3107 17.2228 37.7861 15.9181ZM27.6401 10.1098C25.9027 10.1306 24.469 8.76825 24.423 7.04926C24.377 5.32107 25.8636 3.81148 27.6056 3.82069C29.2624 3.82759 30.749 5.30036 30.7789 6.96412C30.8111 8.64169 29.366 10.0891 27.6401 10.1098Z" fill="#21B143"/>
<path d="M171.603 4.56858C171.603 4.14977 171.589 3.72635 171.52 3.31443C171.303 2.01426 170.314 1.14441 169.005 1.07077C167.138 0.964914 165.976 2.0994 165.969 4.10604C165.953 8.29882 165.965 12.4939 165.965 16.8984C162.253 14.1231 158.288 13.2211 153.975 13.9575C145.861 15.3428 140.486 23.3739 142.099 31.6191C143.643 39.5053 151.799 44.8164 159.749 43.1113C166.844 41.5902 171.589 35.6692 171.603 28.2801C171.619 20.3755 171.607 12.4732 171.603 4.56858ZM156.709 37.7725C151.564 37.7725 147.433 33.6833 147.424 28.5769C147.415 23.4821 151.555 19.3676 156.691 19.3653C161.834 19.363 165.965 23.4591 165.965 28.5585C165.967 33.6649 161.841 37.7725 156.709 37.7725Z" fill="#21B143"/>
<path d="M96.7818 13.8701C87.0524 12.4181 78.5288 20.7024 79.8428 30.4318C80.6137 36.1411 83.7824 40.2349 89.1097 42.3612C94.384 44.4668 99.4351 43.6982 103.98 40.1889C105.377 39.1119 105.641 37.3607 104.645 36.0536C103.674 34.7788 101.955 34.5717 100.588 35.6693C98.6136 37.2549 96.3929 37.8785 93.88 37.7611C90.3799 37.5977 86.6911 34.6982 85.8972 31.3201C86.2884 31.3201 86.6589 31.3201 87.0294 31.3201C93.5372 31.3201 100.045 31.3224 106.555 31.3201C108.525 31.3201 109.675 30.1281 109.604 28.1743C109.335 20.8197 104.081 14.9586 96.7818 13.8701ZM85.9087 25.7719C86.6083 22.4214 90.419 19.4505 94.0664 19.3884C98.5791 19.3125 102.486 21.968 103.409 25.7719C97.5711 25.7719 91.7422 25.7719 85.9087 25.7719Z" fill="#070809"/>
</svg>
