<svg width="110" height="101" viewBox="0 0 110 101" fill="none" xmlns="http://www.w3.org/2000/svg">
<g style="mix-blend-mode:multiply" opacity="0.05">
<path d="M24.7461 4.0229C50.8341 -9.07387 81.1706 13.1868 108.882 22.6817C130.214 29.9873 137.938 65.5612 119.928 81.1398C103.986 94.9366 39.4198 114.321 14.6382 87.8091C-15.1277 55.9772 6.83843 13.0086 24.7461 4.0229Z" fill="black"/>
</g>
<path opacity="0.15" d="M97.5945 78.8108C120.004 82.5273 16.3249 81.9163 5.50676 80.1981C-5.31142 78.4799 80.2321 75.9343 97.5945 78.8108Z" fill="black"/>
<path d="M97.8613 79.3835H14.8669C10.9988 79.3835 7.85352 76.2271 7.85352 72.3451V22.7454C7.85352 18.8635 10.9988 15.707 14.8669 15.707H97.8486C101.717 15.707 104.862 18.8635 104.862 22.7454V72.3451C104.875 76.2398 101.729 79.3835 97.8613 79.3835Z" fill="#0B2739"/>
<path d="M28.031 59.3628H16.5787C15.8177 59.3628 15.209 58.7391 15.209 57.9882V49.4224C15.209 48.6588 15.8304 48.0479 16.5787 48.0479H28.031C28.792 48.0479 29.4007 48.6715 29.4007 49.4224V57.9882C29.4134 58.7518 28.792 59.3628 28.031 59.3628Z" fill="#B6B7B7"/>
<path d="M104.862 27.5054H7.85352V42.1422H104.862V27.5054Z" fill="#D3D4D3"/>
<path d="M33.2816 68.9723H16.5787C15.8177 68.9723 15.209 68.3486 15.209 67.5977V66.6431C15.209 65.8795 15.8304 65.2686 16.5787 65.2686H33.2816C34.0425 65.2686 34.6513 65.8922 34.6513 66.6431V67.5977C34.6513 68.3486 34.0425 68.9723 33.2816 68.9723Z" fill="#D3D4D3"/>
<path d="M64.1509 68.9723H38.9635C38.2025 68.9723 37.5938 68.3486 37.5938 67.5977V66.6431C37.5938 65.8795 38.2152 65.2686 38.9635 65.2686H64.1509C64.9118 65.2686 65.5206 65.8922 65.5206 66.6431V67.5977C65.5333 68.3486 64.9118 68.9723 64.1509 68.9723Z" fill="#D3D4D3"/>
<path opacity="0.05" d="M7.85352 72.3452V22.7454C7.85352 18.8635 10.9988 15.707 14.8669 15.707H97.8486L7.85352 72.3452Z" fill="white"/>
<path opacity="0.15" d="M110.352 84.8435C122.844 89.0563 49.6662 87.809 43.6293 85.849C37.6051 83.8889 100.675 81.5852 110.352 84.8435Z" fill="black"/>
<path d="M98.9453 28.7656L100.848 29.8857L104.12 30.1148C106.961 68.5141 110.36 83.4564 110.36 83.4564L100.467 86.5492L98.9453 28.7656Z" fill="#019DF4"/>
<path d="M73.0742 32.1512C73.0742 32.1512 73.2645 12.2578 81.952 12.2578C90.6395 12.2578 90.259 32.1512 90.259 32.1512" stroke="#86888C" stroke-miterlimit="10"/>
<path opacity="0.1" d="M100.467 86.5491L102.991 81.4453L110.346 83.4563L100.467 86.5491Z" fill="black"/>
<path opacity="0.3" d="M102.991 81.4454L100.848 29.8857L98.9453 28.7656L100.467 86.5492L102.991 81.4454Z" fill="black"/>
<path d="M69.4199 30.6873C69.4199 30.6873 69.6102 10.7939 78.2977 10.7939C86.9852 10.7939 86.6048 30.6873 86.6048 30.6873" stroke="#86888C" stroke-miterlimit="10"/>
<path d="M57.3979 28.7657C79.4781 32.9149 98.9458 28.7657 98.9458 28.7657L100.468 86.5493L51.9824 83.431C55.5335 59.4648 55.2545 28.3584 57.3979 28.7657Z" fill="#019DF4"/>
<path opacity="0.1" d="M98.9458 28.7656L100.468 86.5492L51.9824 83.4309C73.0734 79.8926 98.9458 28.7656 98.9458 28.7656Z" fill="black"/>
</svg>
