<svg width="186" height="161" viewBox="0 0 186 161" fill="none" xmlns="http://www.w3.org/2000/svg">
<g style="mix-blend-mode:multiply" opacity="0.05">
<path d="M39.2155 6.84683C80.5574 -13.9078 128.632 21.369 172.547 36.4156C206.352 47.993 218.592 104.367 190.052 129.055C164.789 150.919 62.4691 181.638 23.1973 139.624C-23.973 89.1796 10.837 21.0866 39.2155 6.84683Z" fill="black"/>
</g>
<path opacity="0.15" d="M154.658 125.364C190.172 131.254 25.8694 130.286 8.72571 127.563C-8.41801 124.84 127.144 120.806 154.658 125.364Z" fill="black"/>
<path d="M155.082 126.272H23.5596C17.4297 126.272 12.4453 121.27 12.4453 115.118V36.5166C12.4453 30.3649 17.4297 25.3628 23.5596 25.3628H155.062C161.192 25.3628 166.176 30.3649 166.176 36.5166V115.118C166.196 121.29 161.212 126.272 155.082 126.272Z" fill="#0B2739"/>
<path d="M44.4208 94.5452H26.2722C25.0663 94.5452 24.1016 93.5569 24.1016 92.3668V78.7926C24.1016 77.5824 25.0864 76.6143 26.2722 76.6143H44.4208C45.6267 76.6143 46.5914 77.6026 46.5914 78.7926V92.3668C46.6115 93.577 45.6267 94.5452 44.4208 94.5452Z" fill="#B6B7B7"/>
<path d="M166.176 44.0601H12.4453V67.2552H166.176V44.0601Z" fill="#D3D4D3"/>
<path d="M52.7414 109.774H26.2722C25.0663 109.774 24.1016 108.785 24.1016 107.595V106.083C24.1016 104.872 25.0864 103.904 26.2722 103.904H52.7414C53.9473 103.904 54.912 104.893 54.912 106.083V107.595C54.912 108.785 53.9473 109.774 52.7414 109.774Z" fill="#D3D4D3"/>
<path d="M101.662 109.774H61.7468C60.5409 109.774 59.5762 108.785 59.5762 107.595V106.083C59.5762 104.872 60.561 103.904 61.7468 103.904H101.662C102.868 103.904 103.832 104.893 103.832 106.083V107.595C103.852 108.785 102.868 109.774 101.662 109.774Z" fill="#D3D4D3"/>
<path opacity="0.05" d="M12.4453 115.118V36.5166C12.4453 30.3649 17.4297 25.3628 23.5596 25.3628H155.062L12.4453 115.118Z" fill="white"/>
<path opacity="0.15" d="M174.876 134.925C194.672 141.601 78.7061 139.625 69.1394 136.519C59.5928 133.412 159.541 129.762 174.876 134.925Z" fill="black"/>
<path d="M156.803 46.0576L159.817 47.8326L165.003 48.1956C169.505 109.048 174.891 132.727 174.891 132.727L159.215 137.628L156.803 46.0576Z" fill="#019DF4"/>
<path d="M115.803 51.4227C115.803 51.4227 116.104 19.8975 129.871 19.8975C143.639 19.8975 143.036 51.4227 143.036 51.4227" stroke="#86888C" stroke-miterlimit="10"/>
<path opacity="0.1" d="M159.215 137.628L163.214 129.54L174.871 132.727L159.215 137.628Z" fill="black"/>
<path opacity="0.3" d="M163.214 129.54L159.817 47.8326L156.803 46.0576L159.215 137.628L163.214 129.54Z" fill="black"/>
<path d="M110.012 49.1029C110.012 49.1029 110.313 17.5776 124.08 17.5776C137.848 17.5776 137.245 49.1029 137.245 49.1029" stroke="#86888C" stroke-miterlimit="10"/>
<path d="M90.9608 46.058C125.952 52.6334 156.802 46.058 156.802 46.058L159.214 137.629L82.3789 132.687C88.0064 94.7074 87.5642 45.4126 90.9608 46.058Z" fill="#019DF4"/>
<path opacity="0.1" d="M156.802 46.0576L159.214 137.628L82.3789 132.686C115.802 127.079 156.802 46.0576 156.802 46.0576Z" fill="black"/>
</svg>
